<?xml version="1.0" encoding="UTF-8" standalone="no"?>
<!-- Created with Inkscape (http://www.inkscape.org/) -->

<svg
   xmlns:dc="http://purl.org/dc/elements/1.1/"
   xmlns:cc="http://creativecommons.org/ns#"
   xmlns:rdf="http://www.w3.org/1999/02/22-rdf-syntax-ns#"
   xmlns:svg="http://www.w3.org/2000/svg"
   xmlns="http://www.w3.org/2000/svg"
   xmlns:xlink="http://www.w3.org/1999/xlink"
   xmlns:sodipodi="http://sodipodi.sourceforge.net/DTD/sodipodi-0.dtd"
   xmlns:inkscape="http://www.inkscape.org/namespaces/inkscape"
   width="48in"
   height="48in"
   viewBox="-65.905203 0 0 1052.3622"
   id="svg3426"
   version="1.1"
   inkscape:version="0.91 r13725"
   sodipodi:docname="Dragon woodtemplate body6.svg">
  <defs
     id="defs3428" />
  <sodipodi:namedview
     id="base"
     pagecolor="#ffffff"
     bordercolor="#666666"
     borderopacity="1.0"
     inkscape:pageopacity="0.0"
     inkscape:pageshadow="2"
     inkscape:zoom="0.90509668"
     inkscape:cx="-284.99368"
     inkscape:cy="721.60829"
     inkscape:document-units="in"
     inkscape:current-layer="layer2"
     showgrid="true"
     units="in"
     inkscape:window-width="1440"
     inkscape:window-height="801"
     inkscape:window-x="0"
     inkscape:window-y="1"
     inkscape:window-maximized="1"
     gridtolerance="1"
     guidetolerance="1"
     showguides="true"
     inkscape:guide-bbox="true">
    <inkscape:grid
       type="xygrid"
       id="grid3475"
       units="in"
       spacingx="9"
       spacingy="9" />
    <sodipodi:guide
       position="1856.1553,2081.5456"
       orientation="1,0"
       id="guide4125" />
    <sodipodi:guide
       position="2032.932,2205"
       orientation="0,1"
       id="guide4127" />
  </sodipodi:namedview>
  <metadata
     id="metadata3431">
    <rdf:RDF>
      <cc:Work
         rdf:about="">
        <dc:format>image/svg+xml</dc:format>
        <dc:type
           rdf:resource="http://purl.org/dc/dcmitype/StillImage" />
        <dc:title />
      </cc:Work>
    </rdf:RDF>
  </metadata>
  <g
     inkscape:label="Layer 1"
     inkscape:groupmode="layer"
     id="layer1"
     transform="translate(0,3267.6382)">
    <path
       style="fill:#ffffff;fill-opacity:1;stroke:#000000;stroke-width:0.09;stroke-miterlimit:4;stroke-dasharray:none;stroke-opacity:1"
       id="path3440"
       sodipodi:type="arc"
       sodipodi:cx="319.28571"
       sodipodi:cy="580.21936"
       sodipodi:rx="169.28572"
       sodipodi:ry="169.28572"
       sodipodi:start="0"
       sodipodi:end="0.010544044"
       d="m 488.57143,580.21936 a 169.28572,169.28572 0 0 1 -0.009,1.78492"
       sodipodi:open="true" />
    <path
       style="fill:#ffffff;fill-opacity:1;stroke:#000000;stroke-width:0.09;stroke-miterlimit:4;stroke-dasharray:none;stroke-opacity:1"
       id="path3442"
       sodipodi:type="arc"
       sodipodi:cx="130.71428"
       sodipodi:cy="450.93362"
       sodipodi:rx="59.285713"
       sodipodi:ry="71.428574"
       sodipodi:start="0"
       sodipodi:end="0.01054404"
       sodipodi:open="true"
       d="m 189.99999,450.93362 a 59.285713,71.428574 0 0 1 -0.003,0.75314" />
    <path
       style="fill:#ffffff;fill-opacity:1;stroke:#000000;stroke-width:0.09;stroke-miterlimit:4;stroke-dasharray:none;stroke-opacity:1"
       id="path3444"
       sodipodi:type="arc"
       sodipodi:cx="145"
       sodipodi:cy="431.64792"
       sodipodi:rx="53.57143"
       sodipodi:ry="53.57143"
       sodipodi:start="0"
       sodipodi:end="0.01054404"
       sodipodi:open="true"
       d="m 198.57143,431.64792 a 53.57143,53.57143 0 0 1 -0.003,0.56485" />
    <path
       style="fill:#ffffff;fill-opacity:1;stroke:#000000;stroke-width:0.09;stroke-miterlimit:4;stroke-dasharray:none;stroke-opacity:1"
       id="path3448"
       sodipodi:type="arc"
       sodipodi:cx="230.71428"
       sodipodi:cy="572.36218"
       sodipodi:rx="10.714286"
       sodipodi:ry="11.428572"
       sodipodi:start="0"
       sodipodi:end="0.01054404"
       sodipodi:open="true"
       d="m 241.42857,572.36218 a 10.714286,11.428572 0 0 1 -6e-4,0.1205" />
    <path
       style="fill:#ffffff;fill-opacity:1;stroke:#000000;stroke-width:0.09;stroke-miterlimit:4;stroke-dasharray:none;stroke-opacity:1"
       id="path3450"
       sodipodi:type="arc"
       sodipodi:cx="220"
       sodipodi:cy="560.93365"
       sodipodi:rx="25.714285"
       sodipodi:ry="15.714286"
       sodipodi:start="0"
       sodipodi:end="0.01054404"
       sodipodi:open="true"
       d="m 245.71428,560.93365 a 25.714285,15.714286 0 0 1 -0.001,0.16569" />
    <path
       style="fill:#ffffff;fill-opacity:1;stroke:#000000;stroke-width:0.09;stroke-miterlimit:4;stroke-dasharray:none;stroke-opacity:1"
       id="path3454"
       sodipodi:type="arc"
       sodipodi:cx="302.85715"
       sodipodi:cy="396.64792"
       sodipodi:rx="87.14286"
       sodipodi:ry="87.14286"
       sodipodi:start="0"
       sodipodi:end="0.01054404"
       sodipodi:open="true"
       d="m 390.00001,396.64792 a 87.14286,87.14286 0 0 1 -0.005,0.91882" />
    <path
       style="fill:#ffffff;fill-opacity:1;stroke:#000000;stroke-width:0.15443869;stroke-miterlimit:4;stroke-dasharray:none;stroke-opacity:1"
       d="m 973.11154,-2018.9482 c 7.40632,14.1414 14.26463,30.8369 20.43345,50.4763 97.48541,310.3625 -359.48593,134.5433 -105.23682,326.0297 254.24923,191.4862 -48.96287,-205.2231 264.93553,-205.7541 313.8983,-0.531 11.9304,397.2039 265.5795,204.8585 253.6491,-192.3456 -202.7732,-14.9835 -106.2588,-325.6742 6.0193,-19.3767 12.7137,-35.9012 19.9538,-49.9362 l -50.0389,0 a 129.34482,129.23666 0 0 1 -63.7157,111.19 75.713693,78.754932 0 0 0 7.6141,-34.2023 l -0.01,-1.0732 a 75.713693,78.754932 0 0 0 -60.492,-75.9145 l -30.7916,0 a 75.713693,78.754932 0 0 0 -60.1338,77.5244 75.713693,78.754932 0 0 0 5.8099,29.5672 129.34482,129.23666 0 0 1 -56.9727,-106.2097 129.34482,129.23666 0 0 1 0.039,-0.8819 l -50.71893,0 z"
       id="path3479"
       inkscape:connector-curvature="0" />
    <path
       style="fill:#ffffff;fill-opacity:1;stroke:#000000;stroke-width:0.15443869;stroke-miterlimit:4;stroke-dasharray:none;stroke-opacity:1"
       d="m 1187.2709,-71.227415 c -313.89842,0.531 155.5795,136.0973 -98.0696,328.442895 -253.64902,192.3455 -234.10542,-314.050695 -330.61982,-3.36 -90.1476,290.1951 138.6024,-59.2643 248.61292,146.2675 l 51.7443,0 a 129.34482,129.23666 0 0 1 49.158,-99.6605 75.713693,78.754932 0 0 0 -3.2106,23.2094 75.713693,78.754932 0 0 0 60.41,76.4511 l 30.7784,0 a 75.713693,78.754932 0 0 0 60.239,-76.9879 l 0,-1.0733 a 75.713693,78.754932 0 0 0 -8.2844,-34.6842 129.34482,129.23666 0 0 1 69.4766,112.7454 l 50.995,0 c 109.2363,-207.2114 339.6265,142.4565 248.4816,-147.7203 -97.4855,-310.362495 -76.3607,195.9642 -330.6099,4.4778 -254.2492,-191.486495 214.8034,-328.638895 -99.095,-328.107895 z"
       id="path3562"
       inkscape:connector-curvature="0" />
    <path
       style="fill:#ffffff;fill-opacity:1;stroke:#000000;stroke-width:0.15345706;stroke-miterlimit:4;stroke-dasharray:none;stroke-opacity:1"
       d="m 1010.0839,402.1179 c 7.3744,14.02269 14.2031,30.57804 20.3453,50.05254 63.2195,200.44529 -108.55604,187.62369 -165.52982,212.88007 -13.35844,0.88315 -136.12528,17.02114 -181.91797,69.64643 -48.5676,55.81429 -14.14565,101.0887 -14.14565,101.0887 l 414.97964,2.6302 c 0,0 8.0014,-10e-4 -18.7943,-31.89504 -26.796,-31.89384 -28.4535,-63.77656 -28.4535,-63.77656 l -1.4593,-0.59993 c -4.5107,-74.32755 -0.072,-170.44793 154.3309,-170.70807 152.6021,-0.25701 159.0117,93.62086 155.0116,167.58293 l -1.4167,0.58639 c 0,0 -1.653,32.05263 -28.3945,64.11549 -26.7416,32.06303 -18.7586,32.06459 -18.7586,32.06459 l 414.1388,-2.64373 c 0,0 16.8238,-43.75419 -31.6452,-99.86454 -50.0155,-49.44427 -106.5244,-62.21173 -175.2906,-68.4988 -31.3232,-5.61789 -216.0494,-17.4602 -155.0111,-213.14368 5.9933,-19.21401 12.6589,-35.59981 19.8677,-49.51699 l -49.8228,0 c -0.062,45.33064 -24.1854,87.25605 -63.4412,110.25657 4.9583,-10.57008 7.5498,-22.16318 7.5813,-33.91507 l 0,-1.06434 c -0.5542,-36.61833 -25.5985,-67.91899 -60.2312,-75.27716 l -30.6588,0 c -35.0539,7.63497 -60.0812,39.76777 -59.8745,76.87357 0.085,10.06785 2.0502,20.02376 5.7849,29.319 -35.2063,-23.64904 -56.4293,-63.0515 -56.7269,-105.31809 0.017,-0.29155 0.025,-0.5831 0.039,-0.87448 l -50.5002,0 z"
       id="path3571"
       inkscape:connector-curvature="0"
       sodipodi:nodetypes="cscsccsccsccsccccsccccccccccccc" />
    <path
       inkscape:connector-curvature="0"
       id="path3592"
       d="m 2379.5199,-73.90847 c -312.5447,0.526525 154.9086,134.95466 -97.6467,325.68544 -252.555,190.7306 -233.0958,-311.414069 -329.194,-3.33183 -89.7588,287.75878 138.0048,-58.76676 247.5408,145.03952 l 51.5211,0 a 128.78702,128.15165 0 0 1 48.9461,-98.82382 75.387177,78.093742 0 0 0 -3.1968,23.01458 75.387177,78.093742 0 0 0 60.1495,75.80924 l 30.6457,0 a 75.387177,78.093742 0 0 0 59.9792,-76.3415 l 0,-1.06433 a 75.387177,78.093742 0 0 0 -8.2487,-34.393 128.78702,128.15165 0 0 1 69.1769,111.79883 l 50.7752,0 c 108.7652,-205.47176 338.1619,141.26047 247.4099,-146.48009 -97.065,-307.756848 -76.0313,194.31892 -329.1841,4.44024 -253.1526,-189.87886 213.8771,-325.879805 -98.6676,-325.35328 z"
       style="fill:#ffffff;fill-opacity:1;stroke:#000000;stroke-width:0.15345706;stroke-miterlimit:4;stroke-dasharray:none;stroke-opacity:1" />
    <path
       sodipodi:nodetypes="cscsccsccsccsccccsccccccccccccc"
       inkscape:connector-curvature="0"
       id="path4034"
       d="m 422.82823,-553.79554 c 7.37438,14.02269 14.20311,30.57804 20.34533,50.05254 63.21952,200.44529 -108.55603,187.62369 -165.52981,212.88007 -13.35844,0.88315 -136.12528,17.02114 -181.91797,69.64643 -48.567598,55.81429 -14.14565,101.0887 -14.14565,101.0887 l 414.97961,2.6302 c 0,0 8.00143,-10e-4 -18.79436,-31.89504 -26.79595,-31.89383 -28.45346,-63.77656 -28.45346,-63.77656 l -1.45933,-0.59993 c -4.51067,-74.32755 -0.072,-170.44793 154.33095,-170.70807 152.60208,-0.25701 159.01166,93.62086 155.01162,167.58293 l -1.41678,0.5864 c 0,0 -1.65299,32.05262 -28.3945,64.11548 -26.7415,32.06303 -18.7585,32.06459 -18.7585,32.06459 l 414.13872,-2.64373 c 0,0 16.8238,-43.75419 -31.6452,-99.86454 -50.0155,-49.44427 -106.52437,-62.21173 -175.29053,-68.4988 -31.3232,-5.61789 -216.04943,-17.4602 -155.01111,-213.14368 5.99328,-19.21401 12.65885,-35.59981 19.8677,-49.51699 l -49.82288,0 c -0.062,45.33064 -24.18538,87.25605 -63.44116,110.25657 4.9583,-10.57008 7.54978,-22.16318 7.58127,-33.91507 l 0,-1.06434 c -0.55418,-36.61833 -25.59847,-67.91899 -60.23117,-75.27716 l -30.65879,0 c -35.05387,7.63497 -60.08124,39.76777 -59.87451,76.87357 0.0854,10.06785 2.0502,20.02376 5.78488,29.319 -35.20631,-23.64904 -56.42931,-63.0515 -56.72684,-105.31809 0.0168,-0.29155 0.0251,-0.5831 0.0385,-0.87448 l -50.50019,0 z"
       style="fill:#ffffff;fill-opacity:1;stroke:#000000;stroke-width:0.15345706;stroke-miterlimit:4;stroke-dasharray:none;stroke-opacity:1" />
    <path
       style="fill:#ffffff;fill-opacity:1;stroke:#000000;stroke-width:0.15345706;stroke-miterlimit:4;stroke-dasharray:none;stroke-opacity:1"
       d="m 600.5841,-1022.116 c -312.54468,0.5265 154.90859,134.95466 -97.64666,325.68544 -252.55509,190.7306 -233.09582,-311.41404 -329.19403,-3.33183 -89.758824,287.75878 138.00477,-58.76676 247.54083,145.03952 l 51.52111,0 a 128.78702,128.15165 0 0 1 48.94604,-98.82382 75.387177,78.093742 0 0 0 -3.19675,23.01458 75.387177,78.093742 0 0 0 60.14942,75.80924 l 30.64573,0 a 75.387177,78.093742 0 0 0 59.97921,-76.3415 l 0,-1.06433 a 75.387177,78.093742 0 0 0 -8.2487,-34.393 128.78702,128.15165 0 0 1 69.17695,111.79883 l 50.77511,0 c 108.76526,-205.47176 338.16194,141.26047 247.40994,-146.48009 -97.06496,-307.75684 -76.03127,194.31892 -329.18409,4.44024 -253.15265,-189.87886 213.87711,-325.87978 -98.66758,-325.35328 z"
       id="path4036"
       inkscape:connector-curvature="0" />
    <path
       style="fill:#ffffff;fill-opacity:1;stroke:#000000;stroke-width:0.15345706;stroke-miterlimit:4;stroke-dasharray:none;stroke-opacity:1"
       d="m 1569.6572,-556.78255 c 7.3744,14.02269 14.2031,30.57804 20.3453,50.05254 63.2195,200.44529 -108.556,187.62369 -165.5298,212.88007 -13.3584,0.88315 -136.1253,17.02114 -181.9179,69.64643 -48.5676,55.81429 -14.1457,101.0887 -14.1457,101.0887 l 414.9796,2.6302 c 0,0 8.0014,-10e-4 -18.7943,-31.89505 -26.796,-31.89383 -28.4535,-63.77655 -28.4535,-63.77655 l -1.4593,-0.59994 c -4.5107,-74.32754 -0.072,-170.44792 154.3309,-170.70806 152.6021,-0.25701 159.0117,93.62086 155.0116,167.58292 l -1.4167,0.5864 c 0,0 -1.653,32.05262 -28.3945,64.11549 -26.7416,32.06303 -18.7586,32.06459 -18.7586,32.06459 l 414.1388,-2.64373 c 0,0 16.8238,-43.75419 -31.6452,-99.86455 -50.0155,-49.44426 -106.5244,-62.21172 -175.2906,-68.49879 -31.3232,-5.61789 -216.0494,-17.4602 -155.0111,-213.14368 5.9933,-19.21401 12.6589,-35.59981 19.8677,-49.51699 l -49.8228,0 c -0.062,45.33064 -24.1854,87.25605 -63.4412,110.25657 4.9583,-10.57008 7.5498,-22.16318 7.5813,-33.91507 l 0,-1.06434 c -0.5542,-36.61833 -25.5985,-67.91899 -60.2312,-75.27716 l -30.6588,0 c -35.0539,7.63497 -60.0812,39.76777 -59.8745,76.87357 0.085,10.06785 2.0502,20.02376 5.7849,29.319 -35.2063,-23.64904 -56.4293,-63.0515 -56.7269,-105.31809 0.017,-0.29155 0.025,-0.5831 0.039,-0.87448 l -50.5002,0 z"
       id="path4042"
       inkscape:connector-curvature="0"
       sodipodi:nodetypes="cscsccsccsccsccccsccccccccccccc" />
    <path
       inkscape:connector-curvature="0"
       id="path4044"
       d="m 1747.4131,-1022.116 c -312.5447,0.5265 154.9086,134.95466 -97.6467,325.68544 -252.555,190.7306 -233.0958,-311.41404 -329.194,-3.33183 -89.7588,287.75878 138.0048,-58.76676 247.5408,145.03952 l 51.5211,0 a 128.78702,128.15165 0 0 1 48.9461,-98.82382 75.387177,78.093742 0 0 0 -3.1968,23.01458 75.387177,78.093742 0 0 0 60.1495,75.80924 l 30.6457,0 a 75.387177,78.093742 0 0 0 59.9792,-76.3415 l 0,-1.06433 a 75.387177,78.093742 0 0 0 -8.2487,-34.393 128.78702,128.15165 0 0 1 69.1769,111.79883 l 50.7752,0 c 108.7652,-205.47176 338.1619,141.26047 247.4099,-146.48009 -97.065,-307.75684 -76.0313,194.31892 -329.1841,4.44024 -253.1526,-189.87886 213.8771,-325.87978 -98.6676,-325.35328 z"
       style="fill:#ffffff;fill-opacity:1;stroke:#000000;stroke-width:0.15345706;stroke-miterlimit:4;stroke-dasharray:none;stroke-opacity:1" />
    <path
       sodipodi:nodetypes="cscsccsccsccsccccsccccccccccccc"
       inkscape:connector-curvature="0"
       id="path4048"
       d="m 2643.6309,-547.63753 c 7.3744,14.02269 14.2031,30.57804 20.3453,50.05254 63.2195,200.44529 -108.556,187.62369 -165.5298,212.88007 -13.3584,0.88315 -136.1253,17.02114 -181.9179,69.64643 -48.5676,55.81429 -14.1457,101.0887 -14.1457,101.0887 l 414.9796,2.6302 c 0,0 8.0014,-0.001 -18.7943,-31.89505 -26.796,-31.89383 -28.4535,-63.77655 -28.4535,-63.77655 l -1.4593,-0.59994 c -4.5107,-74.32754 -0.072,-170.44792 154.3309,-170.70806 152.6021,-0.25701 159.0117,93.62086 155.0116,167.58293 l -1.4167,0.58639 c 0,0 -1.653,32.05263 -28.3945,64.11549 -26.7416,32.06303 -18.7586,32.06459 -18.7586,32.06459 l 414.1388,-2.64373 c 0,0 16.8238,-43.75419 -31.6452,-99.86454 -50.0155,-49.44427 -106.5244,-62.21173 -175.2906,-68.4988 -31.3232,-5.61789 -216.0494,-17.4602 -155.0111,-213.14368 5.9933,-19.21401 12.6589,-35.59981 19.8677,-49.51699 l -49.8228,0 c -0.062,45.33064 -24.1854,87.25605 -63.4412,110.25657 4.9583,-10.57008 7.5498,-22.16318 7.5813,-33.91507 l 0,-1.06434 c -0.5542,-36.61833 -25.5985,-67.91899 -60.2312,-75.27716 l -30.6588,0 c -35.0539,7.63497 -60.0812,39.76777 -59.8745,76.87357 0.085,10.06785 2.0502,20.02376 5.7849,29.319 -35.2063,-23.64904 -56.4293,-63.0515 -56.7269,-105.31809 0.017,-0.29155 0.025,-0.5831 0.039,-0.87448 l -50.5002,0 z"
       style="fill:#ffffff;fill-opacity:1;stroke:#000000;stroke-width:0.15345706;stroke-miterlimit:4;stroke-dasharray:none;stroke-opacity:1" />
    <path
       style="fill:#ffffff;fill-opacity:1;stroke:#000000;stroke-width:0.15345706;stroke-miterlimit:4;stroke-dasharray:none;stroke-opacity:1"
       d="m 2822.9493,-1016.4022 c -312.5447,0.5266 154.9086,134.95469 -97.6467,325.68547 -252.555,190.7306 -233.0958,-311.41407 -329.194,-3.33183 -89.7588,287.75878 138.0048,-58.76676 247.5408,145.03952 l 51.5211,0 a 128.78702,128.15165 0 0 1 48.9461,-98.82382 75.387177,78.093742 0 0 0 -3.1968,23.01458 75.387177,78.093742 0 0 0 60.1495,75.80924 l 30.6457,0 a 75.387177,78.093742 0 0 0 59.9792,-76.3415 l 0,-1.06433 a 75.387177,78.093742 0 0 0 -8.2487,-34.393 128.78702,128.15165 0 0 1 69.1769,111.79883 l 50.7752,0 c 108.7652,-205.47176 338.1619,141.26047 247.4099,-146.48009 -97.065,-307.75687 -76.0313,194.31892 -329.1841,4.44024 -253.1526,-189.87886 213.8771,-325.87981 -98.6676,-325.35331 z"
       id="path4050"
       inkscape:connector-curvature="0" />
    <path
       style="fill:#ffffff;fill-opacity:1;stroke:#000000;stroke-width:0.15443869;stroke-miterlimit:4;stroke-dasharray:none;stroke-opacity:1"
       d="m 3685.0072,-1778.5143 c 0,0 -74.7421,179.0614 -25.8999,227.2039 40.121,39.5463 6.0962,117.3739 -24.4278,234.4708 -106.4603,85.5393 157.2273,209.1545 -49.2304,381.8847 -253.649,192.34552 -234.1048,-314.052 -330.6192,-3.3613 -90.1476,290.19512 138.601,-59.2643 248.6114,146.26762 l 51.7441,0 c 0.5288,-38.9218 18.5872,-75.5322 49.1582,-99.66022 -2.1771,7.5264 -3.2587,15.34942 -3.209,23.20902 0.3073,37.104 25.4719,68.9517 60.4082,76.4512 l 30.7793,0 c 35.0574,-7.614 60.191,-39.7363 60.2383,-76.9883 l 0,-1.0723 c -0.1694,-12.06872 -3.0034,-23.93542 -8.2832,-34.68362 42.1303,21.9743 68.8065,65.26352 69.4766,112.74422 l 50.9941,0 c 109.2363,-207.21142 339.6273,142.456 248.4824,-147.72072 -97.4855,-310.3625 -76.3602,195.96482 -330.6094,4.4785 -202.4073,-224.8252 45.9688,-263.027 -49.1874,-381.6758 -1.2644,-1.5766 -64.6103,-195.3433 -28.6232,-233.8379 36.1702,-38.6904 28.1986,-93.9346 -19.8031,-227.7098 z"
       id="path4062"
       inkscape:connector-curvature="0"
       sodipodi:nodetypes="csccscccccccccccscssc" />
    <path
       sodipodi:nodetypes="csccscccccccccccscssc"
       inkscape:connector-curvature="0"
       id="path4071"
       d="m 2373.0278,-3016.3527 c 0,0 -74.4838,179.1691 -25.5721,227.241 40.178,39.4885 6.2655,117.365 -24.0895,234.5058 -106.3368,85.6929 157.5289,208.9275 -48.6794,381.9554 -253.3712,192.7113 -234.5577,-313.7139 -330.6237,-2.8843 -89.7288,290.3249 138.5153,-59.4642 248.8221,145.9088 l 51.7442,-0.075 c 0.4725,-38.9225 18.4782,-75.5589 49.0143,-99.731 -2.1663,7.5295 -3.2366,15.3541 -3.1756,23.2136 0.3609,37.1036 25.5714,68.9149 60.5185,76.364 l 30.7793,-0.044 c 35.0464,-7.6646 60.1336,-39.8231 60.1272,-77.0751 l 0,-1.0723 c -0.1868,-12.0685 -3.0379,-23.9311 -8.3332,-34.6717 42.1619,21.9136 68.9006,65.1642 69.6392,112.6439 l 50.994,-0.074 c 108.9372,-207.3688 339.8324,141.9659 248.269,-148.0791 -97.9332,-310.2215 -76.0773,196.0749 -330.6025,4.9556 -202.7315,-224.533 45.5892,-263.0931 -49.7381,-381.6045 -1.2667,-1.5747 -64.892,-195.2498 -28.9605,-233.7964 36.1143,-38.7426 28.063,-93.9752 -20.1316,-227.681 z"
       style="fill:#ffffff;fill-opacity:1;stroke:#000000;stroke-width:0.15443869;stroke-miterlimit:4;stroke-dasharray:none;stroke-opacity:1" />
    <path
       style="fill:none;fill-rule:evenodd;stroke:#000000;stroke-width:1px;stroke-linecap:butt;stroke-linejoin:miter;stroke-opacity:1"
       d="m 547.22651,-2186.6691 -11.04855,276.0621 c 0,0 -7.17668,77.4913 3.04079,141.5729 10.21747,64.0815 23.47572,92.8077 23.47572,92.8077 0,0 99.43689,130.3728 152.4699,156.8893 53.03301,26.5165 231.26409,14.5359 231.26409,14.5359 l 274.75924,2.2097 318.1981,-2.2097 313.7786,0 258.5359,0.9321 274.7282,2.2097 222.7903,0 c 0,0 202.9592,11.0486 273.6699,-22.0971 70.7106,-33.1456 156.8893,-139.2116 156.8893,-139.2116 0,0 23.1914,-31.9465 33.1456,-121.534 6.6291,-59.6621 -4.4194,-121.6855 -4.4194,-121.6855 l 1.1049,-270 352.4485,-6.062 -1.1049,300.5203 c 0,0 1.1049,170.1476 -23.2019,245.2777 -24.3068,75.1301 -56.3476,148.0504 -56.3476,148.0504 0,0 -95.7539,193.4981 -211.0272,249.6972 -115.6418,56.3788 -123.7437,70.7106 -196.664,83.9689 -72.9204,13.2582 -318.1981,9.1281 -318.1981,9.1281 l -234.2291,0 -269.5845,0 -256.3262,-2.499 -311.5689,2.499 -320.4078,0 -279.17865,0 c 0,0 -193.69904,9.102 -350.58836,-30.6728 -156.88932,-39.7747 -333.66601,-327.0369 -333.66601,-327.0369 0,0 -53.03301,-137.0019 -66.29126,-207.7126 -13.25825,-70.7107 -10.03495,-178.9864 -10.03495,-178.9864 l 6.62912,-298.8631 z"
       id="path4167"
       inkscape:connector-curvature="0"
       sodipodi:nodetypes="ccscscccccccscsccccscsscccccccscsccc" />
    <path
       inkscape:connector-curvature="0"
       id="path4194"
       d="m 2194.1652,-2024.9301 c 7.4063,14.1414 14.2646,30.8369 20.4334,50.4763 97.4854,310.3625 -359.4859,134.5433 -105.2368,326.0297 254.2492,191.4862 -48.9629,-205.2231 264.9355,-205.7541 313.8983,-0.531 11.9304,397.2039 265.5795,204.8585 253.6491,-192.3456 -202.7732,-14.9835 -106.2588,-325.6742 6.0193,-19.3767 12.7137,-35.9012 19.9538,-49.9362 l -50.0389,0 a 129.34482,129.23666 0 0 1 -63.7157,111.19 75.713693,78.754932 0 0 0 7.6141,-34.2023 l -0.01,-1.0732 a 75.713693,78.754932 0 0 0 -60.492,-75.9145 l -30.7916,0 a 75.713693,78.754932 0 0 0 -60.1338,77.5244 75.713693,78.754932 0 0 0 5.8099,29.5672 129.34482,129.23666 0 0 1 -56.9727,-106.2097 129.34482,129.23666 0 0 1 0.039,-0.8819 l -50.7189,0 z"
       style="fill:#ffffff;fill-opacity:1;stroke:#000000;stroke-width:0.15443869;stroke-miterlimit:4;stroke-dasharray:none;stroke-opacity:1" />
    <path
       sodipodi:nodetypes="cscsccsccsccsccccsccccccccccccc"
       inkscape:connector-curvature="0"
       id="path4200"
       d="m 3505.7932,-792.72019 c 7.3744,14.02269 14.2031,30.57804 20.3453,50.05254 63.2195,200.44529 -108.556,187.62369 -165.5298,212.88007 -13.3584,0.88315 -136.1253,17.02114 -181.9179,69.64643 -48.5676,55.81429 -14.1457,101.0887 -14.1457,101.0887 l 414.9796,2.6302 c 0,0 8.0014,-10e-4 -18.7943,-31.89504 -26.796,-31.89384 -28.4535,-63.77656 -28.4535,-63.77656 l -1.4593,-0.59993 c -4.5107,-74.32755 -0.072,-170.44793 154.3309,-170.70807 152.6021,-0.25701 159.0117,93.62086 155.0116,167.58293 l -1.4167,0.58639 c 0,0 -1.653,32.05263 -28.3945,64.11549 -26.7416,32.06303 -18.7586,32.06459 -18.7586,32.06459 l 414.1388,-2.64373 c 0,0 16.8238,-43.75419 -31.6452,-99.86454 -50.0155,-49.44427 -106.5244,-62.21173 -175.2906,-68.4988 -31.3232,-5.61789 -216.0494,-17.4602 -155.0111,-213.14368 5.9933,-19.21401 12.6589,-35.59981 19.8677,-49.51699 l -49.8228,0 c -0.062,45.33064 -24.1854,87.25605 -63.4412,110.25657 4.9583,-10.57008 7.5498,-22.16318 7.5813,-33.91507 l 0,-1.06434 c -0.5542,-36.61833 -25.5985,-67.91899 -60.2312,-75.27716 l -30.6588,0 c -35.0539,7.63497 -60.0812,39.76777 -59.8745,76.87357 0.085,10.06785 2.0502,20.02376 5.7849,29.319 -35.2063,-23.64904 -56.4293,-63.0515 -56.7269,-105.31809 0.017,-0.29155 0.025,-0.5831 0.039,-0.87448 l -50.5002,0 z"
       style="fill:#ffffff;fill-opacity:1;stroke:#000000;stroke-width:0.15345706;stroke-miterlimit:4;stroke-dasharray:none;stroke-opacity:1" />
    <path
       sodipodi:nodetypes="cscsccsccsccsccccsccccccccccccc"
       inkscape:connector-curvature="0"
       id="path4202"
       d="m 2197.9807,397.90481 c 7.3744,14.02269 14.2031,30.57804 20.3453,50.05254 63.2195,200.44529 -108.556,187.62369 -165.5298,212.88007 -13.3584,0.88315 -136.1253,17.02114 -181.9179,69.64643 -48.5676,55.81429 -14.1457,101.0887 -14.1457,101.0887 l 414.9796,2.6302 c 0,0 8.0014,-0.001 -18.7943,-31.89504 -26.796,-31.89384 -28.4535,-63.77656 -28.4535,-63.77656 l -1.4593,-0.59993 c -4.5107,-74.32755 -0.072,-170.44793 154.3309,-170.70807 152.6021,-0.25701 159.0117,93.62086 155.0116,167.58293 l -1.4167,0.58639 c 0,0 -1.653,32.05263 -28.3945,64.11549 -26.7416,32.06303 -18.7586,32.06459 -18.7586,32.06459 l 414.1388,-2.64373 c 0,0 16.8238,-43.75419 -31.6452,-99.86454 -50.0155,-49.44427 -106.5244,-62.21173 -175.2906,-68.4988 -31.3232,-5.61789 -216.0494,-17.4602 -155.0111,-213.14368 5.9933,-19.21401 12.6589,-35.59981 19.8677,-49.51699 l -49.8228,0 c -0.062,45.33064 -24.1854,87.25605 -63.4412,110.25657 4.9583,-10.57008 7.5498,-22.16318 7.5813,-33.91507 l 0,-1.06434 c -0.5542,-36.61833 -25.5985,-67.91899 -60.2312,-75.27716 l -30.6588,0 c -35.0539,7.63497 -60.0812,39.76777 -59.8745,76.87357 0.085,10.06785 2.0502,20.02376 5.7849,29.319 -35.2063,-23.64904 -56.4293,-63.0515 -56.7269,-105.31809 0.017,-0.29155 0.025,-0.5831 0.039,-0.87448 l -50.5002,0 z"
       style="fill:#ffffff;fill-opacity:1;stroke:#000000;stroke-width:0.15345706;stroke-miterlimit:4;stroke-dasharray:none;stroke-opacity:1" />
    <path
       style="fill:#ffffff;fill-opacity:1;stroke:#000000;stroke-width:0.15443869;stroke-miterlimit:4;stroke-dasharray:none;stroke-opacity:1"
       d="m 1139.6691,-3011.3888 c 0,0 -71.9926,180.1846 -22.4192,227.5738 40.7216,38.9275 7.892,117.2668 -20.8359,234.8173 -105.13874,87.1587 160.4102,206.7234 -43.3794,382.5934 -250.67528,196.2055 -238.88458,-310.4318 -330.63201,1.6998 -85.69522,291.541 137.67757,-61.3789 250.82105,142.4451 l 51.73826,-0.792 c -0.067,-38.9254 17.4289,-75.8079 47.6269,-100.401 -2.0617,7.5588 -3.0234,15.3975 -2.8534,23.2554 0.8752,37.0949 26.5244,68.5538 61.5714,75.5176 l 30.7757,-0.4711 c 34.9368,-8.1497 59.5758,-40.653 59.0527,-77.9013 l -0.016,-1.0721 c -0.3542,-12.0648 -3.3694,-23.8867 -8.8131,-34.5528 42.4617,21.3268 69.7974,64.2027 71.1941,111.6675 l 50.9882,-0.7806 c 106.0517,-208.8591 341.7679,137.2409 246.1921,-151.5068 -102.2246,-308.8339 -73.3516,197.1108 -330.502,9.5385 -205.8249,-221.7007 41.9373,-263.6998 -55.0238,-380.8782 -1.2884,-1.557 -67.5928,-194.3313 -32.1991,-233.3724 35.5737,-39.2396 26.7575,-94.3552 -23.2862,-227.38 z"
       id="path4331"
       inkscape:connector-curvature="0"
       sodipodi:nodetypes="csccscccccccccccscssc" />
  </g>
  <g
     inkscape:groupmode="layer"
     id="layer2"
     inkscape:label="Slots"
     transform="translate(0,-4320)">
    <rect
       style="fill:#ffffff;fill-opacity:1;stroke:#000000;stroke-width:0.0622873;stroke-miterlimit:4;stroke-dasharray:none;stroke-opacity:1"
       id="rect3605"
       width="43.137714"
       height="89.937706"
       x="-458.76724"
       y="7917.1987"
       inkscape:tile-cx="-2323.7984"
       inkscape:tile-cy="2629.6674"
       inkscape:tile-w="44.999996"
       inkscape:tile-h="89.999996"
       inkscape:tile-x0="-2346.2984"
       inkscape:tile-y0="2584.6674" />
    <use
       x="0"
       y="0"
       inkscape:tiled-clone-of="#rect3605"
       xlink:href="#rect3605"
       id="use4240"
       transform="translate(1583.4922,-2442.2493)"
       width="100%"
       height="100%" />
    <use
       x="0"
       y="0"
       inkscape:tiled-clone-of="#rect3605"
       xlink:href="#rect3605"
       transform="translate(1034.8438,-973.4375)"
       id="use4242"
       width="100%"
       height="100%" />
    <use
       x="0"
       y="0"
       inkscape:tiled-clone-of="#rect3605"
       xlink:href="#rect3605"
       transform="translate(1582.6777,-2350.682)"
       id="use4244"
       width="100%"
       height="100%" />
    <use
       x="0"
       y="0"
       inkscape:tiled-clone-of="#rect3605"
       xlink:href="#rect3605"
       transform="matrix(0.5073309,0.86175134,-0.86175134,0.5073309,7391.4704,2418.1284)"
       id="use4246"
       width="100%"
       height="100%" />
    <use
       x="0"
       y="0"
       inkscape:tiled-clone-of="#rect3605"
       xlink:href="#rect3605"
       transform="matrix(0.54768348,-0.83668561,0.83668561,0.54768348,-3356.7322,1231.9559)"
       id="use4248"
       width="100%"
       height="100%" />
    <use
       x="0"
       y="0"
       inkscape:tiled-clone-of="#rect3605"
       xlink:href="#rect3605"
       transform="matrix(-0.06050228,0.99816806,-0.99816806,-0.06050228,11032.741,6568.4123)"
       id="use4250"
       width="100%"
       height="100%" />
    <use
       x="0"
       y="0"
       inkscape:tiled-clone-of="#rect3605"
       xlink:href="#rect3605"
       transform="matrix(0.07618707,-0.99709354,0.99709354,0.07618707,-4527.4348,4629.9142)"
       id="use4252"
       width="100%"
       height="100%" />
    <use
       x="0"
       y="0"
       inkscape:tiled-clone-of="#rect3605"
       xlink:href="#rect3605"
       transform="matrix(0.53690004,-0.84364587,0.84364587,0.53690004,-3191.4853,1460.4243)"
       id="use4254"
       width="100%"
       height="100%" />
    <use
       x="0"
       y="0"
       inkscape:tiled-clone-of="#rect3605"
       xlink:href="#rect3605"
       transform="translate(1620.6044,-20.959703)"
       id="use4256"
       width="100%"
       height="100%" />
    <use
       x="0"
       y="0"
       inkscape:tiled-clone-of="#rect3605"
       xlink:href="#rect3605"
       transform="translate(4120.625,-1121.875)"
       id="use4258"
       width="100%"
       height="100%" />
    <use
       x="0"
       y="0"
       inkscape:tiled-clone-of="#rect3605"
       xlink:href="#rect3605"
       transform="translate(4120.3125,-1210.9375)"
       id="use4260"
       width="100%"
       height="100%" />
    <g
       id="g4335"
       transform="translate(-187.5,0)">
      <path
         sodipodi:nodetypes="cscsccsccsccsccccsccccccccccccc"
         inkscape:connector-curvature="0"
         id="path4054"
         d="m 3488.6057,404.15481 c 7.3744,14.02269 14.2031,30.57804 20.3453,50.05254 63.2195,200.44529 -108.556,187.62369 -165.5298,212.88007 -13.3584,0.88315 -136.1253,17.02114 -181.9179,69.64643 -48.5676,55.81429 -14.1457,101.0887 -14.1457,101.0887 l 414.9796,2.6302 c 0,0 8.0014,-0.001 -18.7943,-31.89504 -26.796,-31.89384 -28.4535,-63.77656 -28.4535,-63.77656 l -1.4593,-0.59993 c -4.5107,-74.32755 -0.072,-170.44793 154.3309,-170.70807 152.6021,-0.25701 159.0117,93.62086 155.0116,167.58293 l -1.4167,0.58639 c 0,0 -1.653,32.05263 -28.3945,64.11549 -26.7416,32.06303 -18.7586,32.06459 -18.7586,32.06459 l 414.1388,-2.64373 c 0,0 16.8238,-43.75419 -31.6452,-99.86454 -50.0155,-49.44427 -106.5244,-62.21173 -175.2906,-68.4988 -31.3232,-5.61789 -216.0494,-17.4602 -155.0111,-213.14368 5.9933,-19.21401 12.6589,-35.59981 19.8677,-49.51699 l -49.8228,0 c -0.062,45.33064 -24.1854,87.25605 -63.4412,110.25657 4.9583,-10.57008 7.5498,-22.16318 7.5813,-33.91507 l 0,-1.06434 c -0.5542,-36.61833 -25.5985,-67.91899 -60.2312,-75.27716 l -30.6588,0 c -35.0539,7.63497 -60.0812,39.76777 -59.8745,76.87357 0.085,10.06785 2.0502,20.02376 5.7849,29.319 -35.2063,-23.64904 -56.4293,-63.0515 -56.7269,-105.31809 0.017,-0.29155 0.025,-0.5831 0.039,-0.87448 l -50.5002,0 z"
         style="fill:#ffffff;fill-opacity:1;stroke:#000000;stroke-width:0.15345706;stroke-miterlimit:4;stroke-dasharray:none;stroke-opacity:1"
         transform="translate(0,7587.6382)" />
      <path
         sodipodi:nodetypes="cssccccscccccccsscc"
         style="fill:#ffffff;fill-opacity:1;stroke:#000000;stroke-width:0.15345706;stroke-miterlimit:4;stroke-dasharray:none;stroke-opacity:1"
         d="m 3666.56,-62.64902 c -312.5447,0.52653 154.9086,134.95467 -97.6467,325.68545 -252.555,190.7306 -233.0958,-311.41407 -329.194,-3.33183 -89.7588,287.75878 138.0048,-58.76676 247.5408,145.03952 l 51.5211,0 c 0.5264,-38.59511 18.5069,-74.89831 48.9461,-98.82382 -2.1683,7.46329 -3.2458,15.22078 -3.1968,23.01458 0.1514,18.19408 6.3551,35.11356 16.7947,48.46916 10.6719,13.65278 25.7703,23.58131 43.3548,27.34008 l 30.6457,0 c 34.9063,-7.54979 59.9318,-39.40222 59.9792,-76.3415 l 0,-1.06433 c -0.169,-11.96766 -2.9912,-23.73495 -8.2487,-34.393 41.949,21.78999 68.5102,64.71637 69.1769,111.79883 l 50.7752,0 c 108.7652,-205.47176 338.1619,141.26047 247.4099,-146.48009 -97.065,-307.75685 -76.0313,194.31892 -329.1841,4.44024 -253.1526,-189.878863 213.8771,-325.87981 -98.6676,-325.35329 z"
         id="path4056"
         inkscape:connector-curvature="0"
         transform="translate(0,7587.6382)" />
      <use
         height="100%"
         width="100%"
         id="use4262"
         transform="translate(4102.8125,73.437497)"
         xlink:href="#rect3605"
         inkscape:tiled-clone-of="#rect3605"
         y="0"
         x="0" />
      <use
         style="fill:#ffb380"
         height="100%"
         width="100%"
         id="use4264"
         transform="translate(4104.0625,-14.062503)"
         xlink:href="#rect3605"
         inkscape:tiled-clone-of="#rect3605"
         y="0"
         x="0" />
    </g>
    <use
       x="0"
       y="0"
       inkscape:tiled-clone-of="#rect3605"
       xlink:href="#rect3605"
       transform="translate(2808.4375,65.624997)"
       id="use4266"
       width="100%"
       height="100%" />
    <use
       x="0"
       y="0"
       inkscape:tiled-clone-of="#rect3605"
       xlink:href="#rect3605"
       transform="translate(2808.125,-23.437503)"
       id="use4268"
       width="100%"
       height="100%" />
    <use
       x="0"
       y="0"
       inkscape:tiled-clone-of="#rect3605"
       xlink:href="#rect3605"
       transform="translate(1619.9334,72.679197)"
       id="use4270"
       width="100%"
       height="100%" />
    <use
       x="0"
       y="0"
       inkscape:tiled-clone-of="#rect3605"
       xlink:href="#rect3605"
       transform="translate(2176.2499,-884.375)"
       id="use4272"
       width="100%"
       height="100%" />
    <use
       x="0"
       y="0"
       inkscape:tiled-clone-of="#rect3605"
       xlink:href="#rect3605"
       transform="translate(2177.4999,-978.125)"
       id="use4274"
       width="100%"
       height="100%" />
    <use
       x="0"
       y="0"
       inkscape:tiled-clone-of="#rect3605"
       xlink:href="#rect3605"
       transform="translate(3253.7499,-875)"
       id="use4276"
       width="100%"
       height="100%" />
    <use
       x="0"
       y="0"
       inkscape:tiled-clone-of="#rect3605"
       xlink:href="#rect3605"
       transform="translate(3254.9999,-968.75)"
       id="use4278"
       width="100%"
       height="100%" />
    <use
       x="0"
       y="0"
       inkscape:tiled-clone-of="#rect3605"
       xlink:href="#rect3605"
       transform="translate(2806.1429,-2353.47)"
       id="use4280"
       width="100%"
       height="100%" />
    <use
       x="0"
       y="0"
       inkscape:tiled-clone-of="#rect3605"
       xlink:href="#rect3605"
       transform="translate(2806.3435,-2449.2115)"
       id="use4282"
       width="100%"
       height="100%" />
    <use
       x="0"
       y="0"
       inkscape:tiled-clone-of="#rect3605"
       xlink:href="#rect3605"
       transform="matrix(0.51204133,0.85896081,-0.85896081,0.51204133,7604.1082,2241.9151)"
       id="use4284"
       width="100%"
       height="100%" />
    <use
       x="0"
       y="0"
       inkscape:tiled-clone-of="#rect3605"
       xlink:href="#rect3605"
       transform="translate(1035,-885.15625)"
       id="use4286"
       width="100%"
       height="100%" />
    <use
       x="0"
       y="0"
       inkscape:tiled-clone-of="#rect3605"
       xlink:href="#rect3605"
       transform="translate(3073.3707,-1839.7098)"
       id="use4288"
       width="100%"
       height="100%" />
    <use
       x="0"
       y="0"
       inkscape:tiled-clone-of="#rect3605"
       xlink:href="#rect3605"
       transform="matrix(0.9998753,0,0,1.1842103,3073.4615,-3030.8702)"
       id="use4290"
       width="100%"
       height="100%" />
    <use
       x="0"
       y="0"
       inkscape:tiled-clone-of="#rect3605"
       xlink:href="#rect3605"
       transform="matrix(0.99985155,0,0,1.2210529,2578.0157,-3322.9068)"
       id="use4292"
       width="100%"
       height="100%" />
    <use
       x="0"
       y="0"
       inkscape:tiled-clone-of="#rect3605"
       xlink:href="#rect3605"
       transform="translate(2578.6047,-1841.9194)"
       id="use4294"
       width="100%"
       height="100%" />
    <use
       x="0"
       y="0"
       inkscape:tiled-clone-of="#rect3605"
       xlink:href="#rect3605"
       transform="translate(2290.9033,-1841.1612)"
       id="use4296"
       width="100%"
       height="100%" />
    <use
       x="0"
       y="0"
       inkscape:tiled-clone-of="#rect3605"
       xlink:href="#rect3605"
       transform="matrix(0.99989942,0,0,1.1473678,2289.8997,-2738.4233)"
       id="use4298"
       width="100%"
       height="100%" />
    <use
       x="0"
       y="0"
       inkscape:tiled-clone-of="#rect3605"
       xlink:href="#rect3605"
       transform="translate(1961.0484,-1841.9194)"
       id="use4300"
       width="100%"
       height="100%" />
    <use
       x="0"
       y="0"
       inkscape:tiled-clone-of="#rect3605"
       xlink:href="#rect3605"
       transform="matrix(0.99989133,0,0,1.1596486,1961.1462,-2836.3785)"
       id="use4302"
       width="100%"
       height="100%" />
    <use
       x="0"
       y="0"
       inkscape:tiled-clone-of="#rect3605"
       xlink:href="#rect3605"
       transform="matrix(0.99993218,0,0,1.0982448,1404.3334,-2621.1931)"
       id="use4304"
       width="100%"
       height="100%" />
    <use
       x="0"
       y="0"
       inkscape:tiled-clone-of="#rect3605"
       xlink:href="#rect3605"
       transform="matrix(0.9998753,0,0,1.1842103,1405.1795,-3023.862)"
       id="use4306"
       width="100%"
       height="100%" />
    <use
       x="0"
       y="0"
       inkscape:tiled-clone-of="#rect3605"
       xlink:href="#rect3605"
       transform="matrix(-0.00106404,0.99999943,-0.99999943,-0.00106404,8458.7148,6048.8896)"
       id="use4308"
       width="100%"
       height="100%" />
    <use
       x="0"
       y="0"
       inkscape:tiled-clone-of="#rect3605"
       xlink:href="#rect3605"
       transform="matrix(-0.0030598,0.99999531,-0.99999531,-0.0030598,8187.7549,6065.5041)"
       id="use4310"
       width="100%"
       height="100%" />
    <rect
       style="fill:#ff00ff;fill-opacity:1;stroke:#000000;stroke-width:0.09;stroke-miterlimit:4;stroke-dasharray:none;stroke-opacity:1"
       id="rect3408"
       width="46.475739"
       height="180.09126"
       x="5582.418"
       y="-416.98523"
       transform="matrix(0.00620685,0.99998074,-0.99998074,0.00620685,0,0)" />
  </g>
</svg>
