<?xml version="1.0" encoding="UTF-8" standalone="no"?>
<!-- Created with Inkscape (http://www.inkscape.org/) -->

<svg
   xmlns:dc="http://purl.org/dc/elements/1.1/"
   xmlns:cc="http://creativecommons.org/ns#"
   xmlns:rdf="http://www.w3.org/1999/02/22-rdf-syntax-ns#"
   xmlns:svg="http://www.w3.org/2000/svg"
   xmlns="http://www.w3.org/2000/svg"
   xmlns:xlink="http://www.w3.org/1999/xlink"
   xmlns:sodipodi="http://sodipodi.sourceforge.net/DTD/sodipodi-0.dtd"
   xmlns:inkscape="http://www.inkscape.org/namespaces/inkscape"
   width="48in"
   height="48in"
   viewBox="-65.905203 0 0 1052.3622"
   id="svg3426"
   version="1.1"
   inkscape:version="0.91 r13725"
   sodipodi:docname="drawing.svg">
  <defs
     id="defs3428" />
  <sodipodi:namedview
     id="base"
     pagecolor="#ffffff"
     bordercolor="#666666"
     borderopacity="1.0"
     inkscape:pageopacity="0.0"
     inkscape:pageshadow="2"
     inkscape:zoom="0.90509668"
     inkscape:cx="433.39364"
     inkscape:cy="635.93978"
     inkscape:document-units="in"
     inkscape:current-layer="layer1"
     showgrid="true"
     units="in"
     inkscape:window-width="1440"
     inkscape:window-height="801"
     inkscape:window-x="0"
     inkscape:window-y="1"
     inkscape:window-maximized="1"
     gridtolerance="1"
     guidetolerance="1">
    <inkscape:grid
       type="xygrid"
       id="grid3475"
       units="in"
       spacingx="9"
       spacingy="9" />
  </sodipodi:namedview>
  <metadata
     id="metadata3431">
    <rdf:RDF>
      <cc:Work
         rdf:about="">
        <dc:format>image/svg+xml</dc:format>
        <dc:type
           rdf:resource="http://purl.org/dc/dcmitype/StillImage" />
        <dc:title></dc:title>
      </cc:Work>
    </rdf:RDF>
  </metadata>
  <g
     inkscape:label="Layer 1"
     inkscape:groupmode="layer"
     id="layer1"
     transform="translate(0,3267.6382)">
    <path
       style="fill:#ffffff;fill-opacity:1;stroke:#000000;stroke-width:0.09;stroke-miterlimit:4;stroke-dasharray:none;stroke-opacity:1"
       id="path3440"
       sodipodi:type="arc"
       sodipodi:cx="319.28571"
       sodipodi:cy="580.21936"
       sodipodi:rx="169.28572"
       sodipodi:ry="169.28572"
       sodipodi:start="0"
       sodipodi:end="0.010544044"
       d="m 488.57143,580.21936 a 169.28572,169.28572 0 0 1 -0.009,1.78492"
       sodipodi:open="true" />
    <path
       style="fill:#ffffff;fill-opacity:1;stroke:#000000;stroke-width:0.09;stroke-miterlimit:4;stroke-dasharray:none;stroke-opacity:1"
       id="path3442"
       sodipodi:type="arc"
       sodipodi:cx="130.71428"
       sodipodi:cy="450.93362"
       sodipodi:rx="59.285713"
       sodipodi:ry="71.428574"
       sodipodi:start="0"
       sodipodi:end="0.01054404"
       sodipodi:open="true"
       d="m 189.99999,450.93362 a 59.285713,71.428574 0 0 1 -0.003,0.75314" />
    <path
       style="fill:#ffffff;fill-opacity:1;stroke:#000000;stroke-width:0.09;stroke-miterlimit:4;stroke-dasharray:none;stroke-opacity:1"
       id="path3444"
       sodipodi:type="arc"
       sodipodi:cx="145"
       sodipodi:cy="431.64792"
       sodipodi:rx="53.57143"
       sodipodi:ry="53.57143"
       sodipodi:start="0"
       sodipodi:end="0.01054404"
       sodipodi:open="true"
       d="m 198.57143,431.64792 a 53.57143,53.57143 0 0 1 -0.003,0.56485" />
    <path
       style="fill:#ffffff;fill-opacity:1;stroke:#000000;stroke-width:0.09;stroke-miterlimit:4;stroke-dasharray:none;stroke-opacity:1"
       id="path3448"
       sodipodi:type="arc"
       sodipodi:cx="230.71428"
       sodipodi:cy="572.36218"
       sodipodi:rx="10.714286"
       sodipodi:ry="11.428572"
       sodipodi:start="0"
       sodipodi:end="0.01054404"
       sodipodi:open="true"
       d="m 241.42857,572.36218 a 10.714286,11.428572 0 0 1 -6e-4,0.1205" />
    <path
       style="fill:#ffffff;fill-opacity:1;stroke:#000000;stroke-width:0.09;stroke-miterlimit:4;stroke-dasharray:none;stroke-opacity:1"
       id="path3450"
       sodipodi:type="arc"
       sodipodi:cx="220"
       sodipodi:cy="560.93365"
       sodipodi:rx="25.714285"
       sodipodi:ry="15.714286"
       sodipodi:start="0"
       sodipodi:end="0.01054404"
       sodipodi:open="true"
       d="m 245.71428,560.93365 a 25.714285,15.714286 0 0 1 -0.001,0.16569" />
    <path
       style="fill:#ffffff;fill-opacity:1;stroke:#000000;stroke-width:0.09;stroke-miterlimit:4;stroke-dasharray:none;stroke-opacity:1"
       id="path3454"
       sodipodi:type="arc"
       sodipodi:cx="302.85715"
       sodipodi:cy="396.64792"
       sodipodi:rx="87.14286"
       sodipodi:ry="87.14286"
       sodipodi:start="0"
       sodipodi:end="0.01054404"
       sodipodi:open="true"
       d="m 390.00001,396.64792 a 87.14286,87.14286 0 0 1 -0.005,0.91882" />
    <g
       id="g3594"
       transform="matrix(1.6825265,0,0,1.7501096,-172.13071,-237.16821)">
      <path
         inkscape:connector-curvature="0"
         id="path3479"
         d="m 362.84287,438.95753 c 4.4019,8.0803 8.4781,17.62 12.1445,28.8418 57.9399,177.3389 -213.6584,76.8771 -62.5469,186.291 151.1116,109.41388 -29.1008,-117.263 157.4629,-117.5664 186.56368,-0.3034 7.0908,226.95948 157.84568,117.0547 150.75487,-109.9049 -120.51708,-8.5615 -63.1543,-186.0879 3.5775,-11.0717 7.5563,-20.5137 11.8594,-28.5332 l -29.7403,0 a 76.875351,73.844894 0 0 1 -37.86908,63.5332 45,45 0 0 0 4.5254,-19.543 l -0.004,-0.6132 a 45,45 0 0 0 -35.9531,-43.377 l -18.3008,0 a 45,45 0 0 0 -35.7402,44.2969 45,45 0 0 0 3.4531,16.8945 76.875351,73.844894 0 0 1 -33.8614,-60.6875 76.875351,73.844894 0 0 1 0.0235,-0.5039 l -30.1445,0 z"
         style="fill:#ffffff;fill-opacity:1;stroke:#000000;stroke-width:0.09;stroke-miterlimit:4;stroke-dasharray:none;stroke-opacity:1" />
      <path
         inkscape:connector-curvature="0"
         id="path3562"
         d="m 469.30499,169.75969 c -186.5637,0.3034 92.4678,77.765 -58.2871,187.6699 -150.7548,109.9048 -139.1392,-179.4463 -196.502,-1.9199 -53.5787,165.8154 82.3776,-33.8632 147.7617,83.5762 l 30.7539,0 a 76.875351,73.844894 0 0 1 29.2168,-56.9453 45,45 0 0 0 -1.9082,13.2617 45,45 0 0 0 35.9043,43.6836 l 18.293,0 a 45,45 0 0 0 35.8027,-43.9903 l 0,-0.6133 a 45,45 0 0 0 -4.9238,-19.8183 76.875351,73.844894 0 0 1 41.293,64.4219 l 30.3086,0 c 64.924,-118.3991 201.8551,81.3986 147.6836,-84.4063 -57.9399,-177.3389 -45.3845,111.9725 -196.4961,2.5586 -151.1115,-109.414 127.6672,-187.7819 -58.8965,-187.4785 z"
         style="fill:#ffffff;fill-opacity:1;stroke:#000000;stroke-width:0.09;stroke-miterlimit:4;stroke-dasharray:none;stroke-opacity:1" />
    </g>
    <g
       id="g3598"
       transform="matrix(1.6752706,0,0,1.7354165,-749.14789,-715.63719)">
      <path
         sodipodi:nodetypes="cscsccsccsccsccccsccccccccccccc"
         inkscape:connector-curvature="0"
         id="path3571"
         transform="translate(0,-7587.6382)"
         d="m 1335.0254,8309.2949 c 4.4019,8.0803 8.4781,17.62 12.1445,28.8418 37.7369,115.5027 -64.7991,108.1145 -98.8078,122.668 -7.9739,0.5089 -81.2557,9.8081 -108.5902,40.1324 -28.9909,32.1619 -8.4438,58.2504 -8.4438,58.2504 l 247.709,1.5156 c 0,0 4.7762,-6e-4 -11.2187,-18.3789 -15.995,-18.3782 -16.9844,-36.75 -16.9844,-36.75 l -0.8711,-0.3457 c -2.6925,-42.8298 -0.043,-98.2173 92.123,-98.3672 91.091,-0.1481 94.917,53.9472 92.5293,96.5664 l -0.8457,0.3379 c 0,0 -0.9867,18.4697 -16.9492,36.9453 -15.9625,18.4757 -11.1973,18.4766 -11.1973,18.4766 l 247.2071,-1.5234 c 0,0 10.0424,-25.2125 -18.8896,-57.545 -29.8552,-28.4913 -63.5864,-35.8483 -104.6342,-39.4711 -18.6974,-3.2372 -128.9639,-10.0611 -92.529,-122.8199 3.5775,-11.0717 7.5563,-20.5137 11.8594,-28.5332 l -29.7402,0 c -0.037,26.1209 -14.4367,50.2796 -37.8692,63.5332 2.9597,-6.0908 4.5066,-12.7711 4.5254,-19.5429 l 0,-0.6133 c -0.3308,-21.1006 -15.2802,-39.137 -35.9531,-43.377 l -18.3008,0 c -20.9243,4.3995 -35.8636,22.9154 -35.7402,44.2969 0.051,5.8014 1.2238,11.5383 3.4531,16.8945 -21.0153,-13.6273 -33.6837,-36.3322 -33.8613,-60.6875 0.01,-0.168 0.015,-0.336 0.023,-0.5039 l -30.1445,0 z"
         style="fill:#ffffff;fill-opacity:1;stroke:#000000;stroke-width:0.09;stroke-miterlimit:4;stroke-dasharray:none;stroke-opacity:1" />
      <path
         style="fill:#ffffff;fill-opacity:1;stroke:#000000;stroke-width:0.09;stroke-miterlimit:4;stroke-dasharray:none;stroke-opacity:1"
         d="m 1441.7438,452.61683 c -186.5637,0.3034 92.4678,77.765 -58.2871,187.6699 -150.7548,109.9048 -139.1392,-179.4463 -196.502,-1.9199 -53.5787,165.8154 82.3776,-33.8632 147.7617,83.5762 l 30.7539,0 a 76.875351,73.844894 0 0 1 29.2168,-56.9453 45,45 0 0 0 -1.9082,13.2617 45,45 0 0 0 35.9043,43.6836 l 18.293,0 a 45,45 0 0 0 35.8027,-43.9903 l 0,-0.6133 a 45,45 0 0 0 -4.9238,-19.8183 76.875351,73.844894 0 0 1 41.293,64.4219 l 30.3086,0 c 64.924,-118.3991 201.8551,81.3986 147.6836,-84.4063 -57.9399,-177.3389 -45.3845,111.9725 -196.4961,2.5586 -151.1115,-109.414 127.6672,-187.7819 -58.8965,-187.4785 z"
         id="path3592"
         inkscape:connector-curvature="0" />
    </g>
  </g>
  <g
     inkscape:groupmode="layer"
     id="layer2"
     inkscape:label="Slots"
     transform="translate(0,-4320)">
    <rect
       style="fill:#ffffff;fill-opacity:1;stroke:#000000;stroke-width:0.06357218;stroke-miterlimit:4;stroke-dasharray:none;stroke-opacity:1"
       id="rect3605"
       width="44.936424"
       height="89.936424"
       x="-440.0166"
       y="7954.6992"
       inkscape:tile-cx="-293.80471"
       inkscape:tile-cy="3855.3393"
       inkscape:tile-w="44.999996"
       inkscape:tile-h="89.999996"
       inkscape:tile-x0="-316.3047"
       inkscape:tile-y0="3810.3393" />
    <use
       x="0"
       y="0"
       inkscape:tiled-clone-of="#rect3605"
       xlink:href="#rect3605"
       id="use3993"
       transform="translate(4.4194171,176.7767)"
       width="100%"
       height="100%" />
    <use
       x="0"
       y="0"
       inkscape:tiled-clone-of="#rect3605"
       xlink:href="#rect3605"
       transform="translate(64.887371,174.56699)"
       id="use3995"
       width="100%"
       height="100%" />
    <use
       x="0"
       y="0"
       inkscape:tiled-clone-of="#rect3605"
       xlink:href="#rect3605"
       transform="translate(141.92815,173.46213)"
       id="use3997"
       width="100%"
       height="100%" />
    <use
       x="0"
       y="0"
       inkscape:tiled-clone-of="#rect3605"
       xlink:href="#rect3605"
       transform="translate(209.02523,175.67184)"
       id="use3999"
       width="100%"
       height="100%" />
    <use
       x="0"
       y="0"
       inkscape:tiled-clone-of="#rect3605"
       xlink:href="#rect3605"
       transform="translate(269.4932,171.25242)"
       id="use4001"
       width="100%"
       height="100%" />
    <use
       x="0"
       y="0"
       inkscape:tiled-clone-of="#rect3605"
       xlink:href="#rect3605"
       transform="translate(339.90484,190.03495)"
       id="use4003"
       width="100%"
       height="100%" />
    <use
       x="0"
       y="0"
       inkscape:tiled-clone-of="#rect3605"
       xlink:href="#rect3605"
       transform="translate(393.74367,175.67184)"
       id="use4005"
       width="100%"
       height="100%" />
    <use
       x="0"
       y="0"
       inkscape:tiled-clone-of="#rect3605"
       xlink:href="#rect3605"
       transform="translate(438.74367,175.67184)"
       id="use4007"
       width="100%"
       height="100%" />
    <use
       x="0"
       y="0"
       inkscape:tiled-clone-of="#rect3605"
       xlink:href="#rect3605"
       transform="translate(1031.7514,162.41359)"
       id="use4009"
       width="100%"
       height="100%" />
    <use
       x="0"
       y="0"
       inkscape:tiled-clone-of="#rect3605"
       xlink:href="#rect3605"
       transform="translate(1031.4524,74.02524)"
       id="use4011"
       width="100%"
       height="100%" />
  </g>
</svg>
