<?xml version="1.0" encoding="UTF-8" standalone="no"?>
<!-- Created with Inkscape (http://www.inkscape.org/) -->

<svg
   xmlns:dc="http://purl.org/dc/elements/1.1/"
   xmlns:cc="http://creativecommons.org/ns#"
   xmlns:rdf="http://www.w3.org/1999/02/22-rdf-syntax-ns#"
   xmlns:svg="http://www.w3.org/2000/svg"
   xmlns="http://www.w3.org/2000/svg"
   xmlns:xlink="http://www.w3.org/1999/xlink"
   xmlns:sodipodi="http://sodipodi.sourceforge.net/DTD/sodipodi-0.dtd"
   xmlns:inkscape="http://www.inkscape.org/namespaces/inkscape"
   id="svg2"
   version="1.1"
   inkscape:version="0.91 r13725"
   xml:space="preserve"
   width="30in"
   height="20in"
   viewBox="0 0 2700 1800"
   sodipodi:docname="burlapstarsvg.svg"><metadata
     id="metadata8"><rdf:RDF><cc:Work
         rdf:about=""><dc:format>image/svg+xml</dc:format><dc:type
           rdf:resource="http://purl.org/dc/dcmitype/StillImage" /><dc:title></dc:title></cc:Work></rdf:RDF></metadata><defs
     id="defs6" /><sodipodi:namedview
     pagecolor="#ffffff"
     bordercolor="#666666"
     borderopacity="1"
     objecttolerance="10"
     gridtolerance="10"
     guidetolerance="10"
     inkscape:pageopacity="0"
     inkscape:pageshadow="2"
     inkscape:window-width="1381"
     inkscape:window-height="774"
     id="namedview4"
     showgrid="false"
     inkscape:zoom="0.10925926"
     inkscape:cx="2224.2331"
     inkscape:cy="1803.7938"
     inkscape:window-x="21"
     inkscape:window-y="28"
     inkscape:window-maximized="0"
     inkscape:current-layer="g12"
     units="in"
     inkscape:document-units="in"
     showguides="false" /><g
     id="g10"
     inkscape:groupmode="layer"
     inkscape:label="fletchstar3"
     transform="matrix(1.25,0,0,-1.25,0,1800)"><g
       id="g12"
       transform="translate(-5.4915251,7.322034)"><g
         id="g4137"
         transform="matrix(0.97999996,0,0,0.97999998,611.81338,82.546199)"
         inkscape:tile-cx="-671.66176"
         inkscape:tile-cy="1200.3511"
         inkscape:tile-w="493.73304"
         inkscape:tile-h="477.4641"
         inkscape:tile-x0="-918.52825"
         inkscape:tile-y0="961.6192"><path
           inkscape:transform-center-y="-9.2579365"
           inkscape:transform-center-x="0.56934601"
           transform="scale(1,-1)"
           d="m 345.3396,-35.022149 c -105.3618,79.899366 11.8845,-72.872761 -120.31866,-70.162931 -132.203153,2.70984 -8.79508,150.549151 -117.34248,75.034387 -108.54739752,-75.514767 72.97862,-11.216094 29.5484,-136.111377 -43.430226,-124.89529 -145.8985764,38.15762 -107.622759,-88.41244 38.275816,-126.57005 33.218773,65.94083 138.580569,-13.95853 105.3618,-79.89937 -81.375194,-126.96644 50.82796,-129.67627 132.20316,-2.70983 -52.44829,51.96977 56.09911,127.48453 108.5474,75.51477 95.60594,-116.6272 139.03616,8.26809 43.43023,124.89529 -65.6336,-33.82175 -103.90942,92.74831 -38.27581,126.570058 140.46292,54.88686 35.10112,134.786231 z"
           inkscape:randomized="0"
           inkscape:rounded="0.949377"
           inkscape:flatsided="false"
           sodipodi:arg2="1.5503017"
           sodipodi:arg1="0.92198318"
           sodipodi:r2="90.9767"
           sodipodi:r1="202.20911"
           sodipodi:cy="-196.14267"
           sodipodi:cx="223.15654"
           sodipodi:sides="5"
           id="path3367"
           style="fill:none;fill-opacity:1;stroke:#000000;stroke-width:0.0528;stroke-miterlimit:4;stroke-dasharray:none;stroke-opacity:1"
           sodipodi:type="star" /><g
           style="fill:none;stroke:#000000;stroke-width:0.072;stroke-miterlimit:4;stroke-dasharray:none;stroke-opacity:1"
           transform="matrix(1,0,0,-1,4.6720578,413.69492)"
           id="g18"><path
             inkscape:connector-curvature="0"
             id="path20"
             style="fill:none;fill-opacity:1;fill-rule:nonzero;stroke:#000000;stroke-width:0.072;stroke-linecap:butt;stroke-linejoin:miter;stroke-miterlimit:4;stroke-dasharray:none;stroke-opacity:1"
             d="m 256.184,220.039 c 0,20.523 -17.004,37.18 -38.028,37.25 -21.019,0.07 -38.136,-16.473 -38.281,-36.996 -0.145,-20.527 16.742,-37.297 37.762,-37.508 21.019,-0.207 38.254,16.223 38.543,36.746" /></g></g><use
         x="0"
         y="0"
         inkscape:tiled-clone-of="#g4137"
         xlink:href="#g4137"
         id="use4142"
         transform="translate(-534.50847,842.0339)"
         width="100%"
         height="100%" /><use
         x="0"
         y="0"
         inkscape:tiled-clone-of="#g4137"
         xlink:href="#g4137"
         transform="translate(-99.351704,849.35593)"
         id="use4144"
         width="100%"
         height="100%" /><use
         x="0"
         y="0"
         inkscape:tiled-clone-of="#g4137"
         xlink:href="#g4137"
         transform="translate(-462.29663,395.38983)"
         id="use4146"
         width="100%"
         height="100%" /><use
         x="0"
         y="0"
         inkscape:tiled-clone-of="#g4137"
         xlink:href="#g4137"
         transform="translate(353.6059,856.67796)"
         id="use4148"
         width="100%"
         height="100%" /><use
         x="0"
         y="0"
         inkscape:tiled-clone-of="#g4137"
         xlink:href="#g4137"
         transform="translate(796.0847,878.64407)"
         id="use4150"
         width="100%"
         height="100%" /><use
         x="0"
         y="0"
         inkscape:tiled-clone-of="#g4137"
         xlink:href="#g4137"
         transform="translate(857.8177,402.71186)"
         id="use4152"
         width="100%"
         height="100%" /><use
         x="0"
         y="0"
         inkscape:tiled-clone-of="#g4137"
         xlink:href="#g4137"
         transform="translate(421.6524,388.0678)"
         id="use4154"
         width="100%"
         height="100%" /><use
         x="0"
         y="0"
         inkscape:tiled-clone-of="#g4137"
         xlink:href="#g4137"
         transform="translate(-21.834804,402.71187)"
         id="use4156"
         width="100%"
         height="100%" /><use
         x="0"
         y="0"
         inkscape:tiled-clone-of="#g4137"
         xlink:href="#g4137"
         transform="translate(464.5762,-21.966099)"
         id="use4158"
         width="100%"
         height="100%" /><use
         x="0"
         y="0"
         inkscape:tiled-clone-of="#g4137"
         xlink:href="#g4137"
         transform="translate(885.0888,-21.966099)"
         id="use4160"
         width="100%"
         height="100%" /></g></g></svg>