<?xml version="1.0" encoding="UTF-8" standalone="no"?>
<!-- Created with Inkscape (http://www.inkscape.org/) -->

<svg
   xmlns:dc="http://purl.org/dc/elements/1.1/"
   xmlns:cc="http://creativecommons.org/ns#"
   xmlns:rdf="http://www.w3.org/1999/02/22-rdf-syntax-ns#"
   xmlns:svg="http://www.w3.org/2000/svg"
   xmlns="http://www.w3.org/2000/svg"
   xmlns:sodipodi="http://sodipodi.sourceforge.net/DTD/sodipodi-0.dtd"
   xmlns:inkscape="http://www.inkscape.org/namespaces/inkscape"
   width="48in"
   height="96in"
   viewBox="0 0 4320.0001 8640.0003"
   id="svg2"
   version="1.1"
   inkscape:version="0.91 r13725"
   sodipodi:docname="Creaturesheet3final.svg">
  <defs
     id="defs4" />
  <sodipodi:namedview
     id="base"
     pagecolor="#ffffff"
     bordercolor="#666666"
     borderopacity="1.0"
     inkscape:pageopacity="0.0"
     inkscape:pageshadow="2"
     inkscape:zoom="0.056568545"
     inkscape:cx="-803.29281"
     inkscape:cy="3844.4837"
     inkscape:document-units="in"
     inkscape:current-layer="layer1"
     showgrid="true"
     units="in"
     inkscape:window-width="1440"
     inkscape:window-height="790"
     inkscape:window-x="6"
     inkscape:window-y="32"
     inkscape:window-maximized="0"
     showguides="true"
     inkscape:guide-bbox="true">
    <inkscape:grid
       type="xygrid"
       id="grid4136"
       units="in"
       spacingx="0.18"
       spacingy="0.018000001"
       empspacing="1"
       color="#fb0000"
       opacity="0.1254902"
       enabled="false" />
  </sodipodi:namedview>
  <metadata
     id="metadata7">
    <rdf:RDF>
      <cc:Work
         rdf:about="">
        <dc:format>image/svg+xml</dc:format>
        <dc:type
           rdf:resource="http://purl.org/dc/dcmitype/StillImage" />
        <dc:title></dc:title>
      </cc:Work>
    </rdf:RDF>
  </metadata>
  <g
     inkscape:label="Layer 1"
     inkscape:groupmode="layer"
     id="layer1"
     transform="translate(0,7587.6379)">
    <text
       xml:space="preserve"
       style="font-style:normal;font-weight:normal;font-size:80px;line-height:125%;font-family:sans-serif;letter-spacing:0px;word-spacing:0px;fill:#000000;fill-opacity:1;stroke:none;stroke-width:1px;stroke-linecap:butt;stroke-linejoin:miter;stroke-opacity:1"
       x="2272"
       y="-3435.6379"
       id="text4630"
       sodipodi:linespacing="125%"><tspan
         sodipodi:role="line"
         id="tspan4632"
         x="2272"
         y="-3435.6379" /></text>
    <path
       style="opacity:1;fill:none;fill-opacity:1;stroke:#000000;stroke-width:0.09;stroke-miterlimit:4;stroke-dasharray:none;stroke-opacity:1"
       d="M 2114.6914 195.9043 A 531.35481 476.27572 0 0 0 1613.8652 674.04688 A 531.35481 476.27572 0 0 0 1871.2363 1078.1934 C 1822.4479 1469.3866 1268.432 1255.3537 1561.1895 1565.2637 C 1520.2492 1633.6829 1482.8487 1674.0332 1456.3594 1744.1289 C 1412.1819 1605.1812 1343.4914 1473.1571 1258.5 1303.6719 L 1255.666 1298.0312 C 1083.3446 955.68995 893.21356 691.6654 805.81836 673.3457 C 803.72436 672.0791 801.43065 671.45632 798.93945 671.47852 L 798.92969 671.47852 C 798.09919 671.49552 797.24695 671.56294 796.37305 671.71484 C 795.35425 672.04444 794.30918 672.46265 793.23828 672.96875 C 788.64138 673.27565 784.48626 674.49581 780.78516 676.62891 C 775.60256 680.27891 771.41475 685.89088 768.25195 693.42578 C 700.05525 771.28628 582.42824 1051.2536 477.27344 1385.9883 L 475.33594 1392.1738 C 402.17834 1626.1314 345.38406 1854.3393 320.97266 2012.4277 C 262.01696 2021.0136 217.35033 2082.1521 216.55273 2155.3555 L 216.55273 2156.5273 C 215.19153 2554.1509 384.00255 2822.1723 597.75195 3125.0605 C 451.83975 2797.4315 376.84394 2585.1741 434.02344 2236.6934 C 438.04994 2229.016 441.48269 2220.8858 444.27539 2212.416 L 444.82617 2212.416 L 444.31836 2212.293 C 450.01386 2195.1609 453.0154 2176.8488 453.1582 2158.334 C 453.309 2128.9741 446.27165 2100.2401 432.96875 2075.8906 C 499.54275 1942.5263 580.54924 1730.026 653.40234 1497.6367 C 717.17814 1294.0799 770.43416 1181.2132 799.09766 1026.9141 C 842.10796 1172.6662 917.0861 1270.3856 1010.1152 1455.625 C 1103.4978 1641.5 1206.0424 1811.6508 1295.2441 1928.7363 C 1349.0111 1999.3103 1395.2785 2047.1182 1430.7598 2069.5664 C 1434.4071 2072.62 1438.4743 2074.9326 1442.9414 2076.4902 C 1460.7029 2085.344 1475.2031 2086.7084 1485.916 2080.1543 C 1490.2548 2077.4994 1493.9172 2073.5623 1496.9238 2068.416 C 1569.9535 2033.2161 1672.3087 1914.1099 1761.8789 1760.1016 C 1764.4367 1755.7007 1766.9595 1751.2987 1769.4648 1746.8965 C 1927.4707 1878.5846 1941.8239 1370.8941 1940.1016 1368.6816 C 2081.028 1245.0681 2082.297 1468.9376 2169.9707 1457.0879 C 2257.9501 1445.1968 2284.0704 1252.6719 2389.7188 1374.0078 C 2450.1735 1505.1448 2389.454 1808.9904 2551.5332 1756.0098 C 2552.19 1757.1606 2552.8363 1758.31 2553.4961 1759.4609 C 2642.2906 1914.1508 2744.0466 2034.0373 2816.8984 2069.7949 C 2819.8791 2074.9635 2823.5261 2078.9292 2827.8516 2081.6172 C 2838.5313 2088.2529 2853.0362 2086.9991 2870.8418 2078.2812 C 2875.3165 2076.7577 2879.3942 2074.4788 2883.0566 2071.4531 C 2918.6502 2049.2763 2965.1551 2001.8199 3019.2754 1931.6582 C 3109.0639 1815.2569 3212.4621 1645.8942 3306.7773 1460.7363 C 3400.7355 1276.2119 3476.2058 1179.0685 3519.9473 1033.6484 C 3547.8352 1188.1634 3600.5195 1301.4346 3663.2715 1505.4766 C 3734.9555 1738.4182 3814.8922 1951.5349 3880.7949 2085.4043 C 3867.3698 2109.6517 3860.1921 2138.3274 3860.1953 2167.6875 C 3860.2453 2186.2032 3863.1524 2204.5418 3868.7617 2221.7168 L 3868.252 2221.8359 L 3868.8047 2221.8359 C 3871.5549 2230.3266 3874.9458 2238.4791 3878.9336 2246.1875 C 3934.3607 2595.0983 3858.3021 2806.7832 3710.7461 3133.291 C 3926.0136 2832.0421 4096.1676 2565.3138 4096.8047 2167.6875 L 4096.8047 2166.5137 C 4096.3747 2093.306 4052.013 2031.8274 3993.1016 2022.791 C 3969.485 1864.5194 3913.84 1635.8854 3841.8594 1401.373 L 3839.9531 1395.1719 C 3736.4825 1059.6409 3620.263 778.77904 3552.459 700.39844 C 3549.3338 692.84014 3545.1757 687.19731 3540.0117 683.50781 C 3536.3215 681.34671 3532.1714 680.09395 3527.5762 679.75195 C 3526.5077 679.23775 3525.4662 678.8084 3524.4492 678.4707 C 3523.5761 678.3134 3522.723 678.2308 3521.8926 678.2168 C 3519.4019 678.1718 3517.1043 678.7825 3515.0039 680.0332 C 3427.5185 697.6842 3236.0675 960.24977 3062.0293 1301.2637 L 3059.166 1306.8789 C 2973.3249 1475.711 2903.9711 1607.2113 2859.0957 1745.8184 C 2834.6458 1680.0576 2800.5103 1640.2107 2762.9746 1579.084 C 3091.4451 1242.7517 2489.9814 1485.2556 2463.666 1051.4629 A 531.35481 476.27572 0 0 0 2676.5605 670.79883 L 2676.5098 664.30469 A 531.35481 476.27572 0 0 0 2200.0117 197.6582 L 2200.0117 565.72461 L 2114.6914 565.72461 L 2114.6914 195.9043 z "
       transform="translate(0,-7587.6379)"
       id="path4497-90" />
    <text
       xml:space="preserve"
       style="font-style:normal;font-weight:normal;font-size:80px;line-height:125%;font-family:sans-serif;letter-spacing:0px;word-spacing:0px;fill:none;fill-opacity:1;stroke:#000000;stroke-width:0.09;stroke-linecap:butt;stroke-linejoin:miter;stroke-opacity:1;stroke-miterlimit:4;stroke-dasharray:none"
       x="2146.4126"
       y="-6786.71"
       id="text4684"
       sodipodi:linespacing="125%"><tspan
         sodipodi:role="line"
         id="tspan4686"
         x="2146.4126"
         y="-6786.71">4</tspan></text>
    <path
       style="opacity:1;fill:none;fill-opacity:1;stroke:#000000;stroke-width:0.09;stroke-miterlimit:4;stroke-dasharray:none;stroke-opacity:1"
       id="path4381-9"
       sodipodi:type="arc"
       sodipodi:cx="-8983.085"
       sodipodi:cy="-8813.1914"
       sodipodi:rx="107.48023"
       sodipodi:ry="118.79394"
       sodipodi:start="0"
       sodipodi:end="6.2695543"
       sodipodi:open="true"
       d="m -8875.6047,-8813.1914 a 107.48023,118.79394 0 0 1 -107.114,118.7932 107.48023,118.79394 0 0 1 -107.844,-117.9836 107.48023,118.79394 0 0 1 106.379,-119.5973 107.48023,118.79394 0 0 1 108.569,117.1685" />
    <path
       style="fill:none;fill-rule:evenodd;stroke:#000000;stroke-width:0.09;stroke-linecap:butt;stroke-linejoin:miter;stroke-opacity:1;stroke-miterlimit:4;stroke-dasharray:none"
       d="m 1669.7272,-4560.3725 c -1.6014,-0.011 -3.2058,-0.01 -4.8105,0 -65.6419,0.5738 -133.9609,22.2015 -199.1895,68.9766 -15.5563,8.4853 -39.2444,29.6985 -66.0261,56.7454 -26.7817,27.0468 -56.657,59.9273 -84.5877,91.7472 -27.9307,31.8198 -47.144,70.661 -72.9204,85.3832 -39.9374,22.8103 -30.7472,37.9999 -31.0243,37.6535 l 84.8535,45.2539 c 57.2406,-34.3442 -56.5691,-62.2262 169.705,-248.9024 256.0964,-207.7933 529.3332,42.7598 509.1172,339.4121 0,79.1959 -73.5396,243.2455 -141.4218,412.9512 -91.1311,229.8333 -129.0556,540.1341 -22.627,825.9004 25.0803,72.1058 90.101,135.4835 143.1074,177.6972 -8.5529,11.9246 -13.0908,26.0871 -13,40.5723 0.1348,19.1111 8.3089,37.3559 22.6602,50.5781 -0.066,-51.9474 36.1068,-97.5994 88.5332,-111.7324 -11.6012,-6.6767 -24.8921,-10.1489 -38.4121,-10.0351 -17.4499,0.2018 -34.2565,6.3638 -47.416,17.3847 -21.3473,-23.8183 -47.0839,-53.9424 -76.2813,-90.9258 -175.0032,-239.9504 -110.5077,-636.6793 -1.4512,-909.8769 59.3852,-161.8711 123.0257,-323.0914 137.2149,-391.1992 23.5679,-282.7997 -152.6439,-486.1771 -356.0235,-487.5879 z"
       id="path4599"
       inkscape:connector-curvature="0"
       sodipodi:nodetypes="cccsssccccccccccccccccc" />
    <path
       style="opacity:1;fill:none;fill-opacity:1;stroke:#000000;stroke-width:0.09;stroke-miterlimit:4;stroke-dasharray:none;stroke-opacity:1"
       d="M 1113.9609 2881.2852 C 1105.1356 2881.2852 1098.0312 2888.3914 1098.0312 2897.2168 L 1098.0312 5082.8418 C 1098.0312 5091.6672 1105.1356 5098.7734 1113.9609 5098.7734 L 2094.6777 5098.7734 C 2103.5031 5098.7734 2110.6094 5091.6672 2110.6094 5082.8418 L 2110.6094 2897.2168 C 2110.6094 2888.3914 2103.5031 2881.2852 2094.6777 2881.2852 L 1703.7559 2881.2852 C 1703.766 2881.5194 1703.791 2881.7495 1703.791 2881.9863 L 1703.791 3011.7578 C 1703.791 3020.5832 1696.6867 3027.6895 1687.8613 3027.6895 L 1626.0469 3027.6895 C 1617.2215 3027.6895 1610.1172 3020.5832 1610.1172 3011.7578 L 1610.1172 2881.9863 C 1610.1172 2881.7495 1610.1422 2881.5194 1610.1523 2881.2852 L 1113.9609 2881.2852 z "
       transform="translate(0,-7587.6379)"
       id="rect4608" />
    <path
       style="fill:none;fill-rule:evenodd;stroke:#000000;stroke-width:0.09;stroke-linecap:butt;stroke-linejoin:miter;stroke-opacity:1;stroke-miterlimit:4;stroke-dasharray:none"
       d="m 1258.0972,-4215.7404 -193.9766,391.8394 0,0 0,0"
       id="path4610"
       inkscape:connector-curvature="0" />
    <path
       style="fill:none;fill-rule:evenodd;stroke:#000000;stroke-width:0.09;stroke-linecap:butt;stroke-linejoin:miter;stroke-opacity:1;stroke-miterlimit:4;stroke-dasharray:none"
       d="m 1980.5008,-2658.5708 209.3036,203.6467"
       id="path4612"
       inkscape:connector-curvature="0" />
    <path
       style="opacity:1;fill:none;fill-opacity:1;stroke:#000000;stroke-width:0.09;stroke-miterlimit:4;stroke-dasharray:none;stroke-opacity:1"
       id="path4614"
       sodipodi:type="arc"
       sodipodi:cx="1154.491"
       sodipodi:cy="-4614.7334"
       sodipodi:rx="11.594555"
       sodipodi:ry="11.233482"
       sodipodi:start="0"
       sodipodi:end="6.2695543"
       sodipodi:open="true"
       d="m 1166.0855,-4614.7334 a 11.594555,11.233482 0 0 1 -11.555,11.2334 11.594555,11.233482 0 0 1 -11.6338,-11.1568 11.594555,11.233482 0 0 1 11.4757,-11.3095 11.594555,11.233482 0 0 1 11.712,11.0798" />
    <path
       style="opacity:1;fill:none;fill-opacity:1;stroke:#000000;stroke-width:0.09;stroke-miterlimit:4;stroke-dasharray:none;stroke-opacity:1"
       id="path4614-3"
       sodipodi:type="arc"
       sodipodi:cx="1988.8772"
       sodipodi:cy="-4601.5913"
       sodipodi:rx="11.233748"
       sodipodi:ry="11.233741"
       sodipodi:start="0"
       sodipodi:end="6.2695543"
       sodipodi:open="true"
       d="m 2000.1109,-4601.5913 a 11.233748,11.233741 0 0 1 -11.1954,11.2337 11.233748,11.233741 0 0 1 -11.2718,-11.1571 11.233748,11.233741 0 0 1 11.1187,-11.3098 11.233748,11.233741 0 0 1 11.3475,11.0801" />
    <path
       style="opacity:1;fill:none;fill-opacity:1;stroke:#000000;stroke-width:0.09;stroke-miterlimit:4;stroke-dasharray:none;stroke-opacity:1"
       id="path4614-9"
       sodipodi:type="arc"
       sodipodi:cx="1156.3196"
       sodipodi:cy="-2547.7927"
       sodipodi:rx="11.233747"
       sodipodi:ry="11.233745"
       sodipodi:start="0"
       sodipodi:end="6.2695543"
       sodipodi:open="true"
       d="m 1167.5533,-2547.7927 a 11.233747,11.233745 0 0 1 -11.1954,11.2337 11.233747,11.233745 0 0 1 -11.2718,-11.1572 11.233747,11.233745 0 0 1 11.1186,-11.3097 11.233747,11.233745 0 0 1 11.3476,11.0801" />
    <path
       style="opacity:1;fill:none;fill-opacity:1;stroke:#000000;stroke-width:0.09;stroke-miterlimit:4;stroke-dasharray:none;stroke-opacity:1"
       id="path4614-9-5"
       sodipodi:type="arc"
       sodipodi:cx="1983.2205"
       sodipodi:cy="-2859.2805"
       sodipodi:rx="11.233748"
       sodipodi:ry="11.233741"
       sodipodi:start="0"
       sodipodi:end="6.2695543"
       sodipodi:open="true"
       d="m 1994.4542,-2859.2805 a 11.233748,11.233741 0 0 1 -11.1955,11.2337 11.233748,11.233741 0 0 1 -11.2717,-11.1572 11.233748,11.233741 0 0 1 11.1186,-11.3097 11.233748,11.233741 0 0 1 11.3476,11.0801" />
    <path
       d="m 1566.6417,-3866.8977 a 11.233748,11.233741 0 0 1 -11.1955,11.2337 11.233748,11.233741 0 0 1 -11.2717,-11.1571 11.233748,11.233741 0 0 1 11.1186,-11.3098 11.233748,11.233741 0 0 1 11.3476,11.0801"
       sodipodi:open="true"
       sodipodi:end="6.2695543"
       sodipodi:start="0"
       sodipodi:ry="11.233741"
       sodipodi:rx="11.233748"
       sodipodi:cy="-3866.8977"
       sodipodi:cx="1555.408"
       sodipodi:type="arc"
       id="path4661"
       style="opacity:1;fill:none;fill-opacity:1;stroke:#000000;stroke-width:0.09;stroke-miterlimit:4;stroke-dasharray:none;stroke-opacity:1" />
    <path
       style="opacity:1;fill:none;fill-opacity:1;stroke:#000000;stroke-width:0.09;stroke-miterlimit:4;stroke-dasharray:none;stroke-opacity:1"
       id="path4663"
       sodipodi:type="arc"
       sodipodi:cx="1551.7346"
       sodipodi:cy="-3181.7957"
       sodipodi:rx="11.233748"
       sodipodi:ry="11.233741"
       sodipodi:start="0"
       sodipodi:end="6.2695543"
       sodipodi:open="true"
       d="m 1562.9684,-3181.7957 a 11.233748,11.233741 0 0 1 -11.1955,11.2337 11.233748,11.233741 0 0 1 -11.2718,-11.1571 11.233748,11.233741 0 0 1 11.1187,-11.3097 11.233748,11.233741 0 0 1 11.3475,11.08" />
    <path
       d="m 1645.4732,-4418.2026 a 11.594555,11.233482 0 0 1 -11.555,11.2334 11.594555,11.233482 0 0 1 -11.6338,-11.1569 11.594555,11.233482 0 0 1 11.4757,-11.3094 11.594555,11.233482 0 0 1 11.712,11.0797"
       sodipodi:open="true"
       sodipodi:end="6.2695543"
       sodipodi:start="0"
       sodipodi:ry="11.233482"
       sodipodi:rx="11.594555"
       sodipodi:cy="-4418.2026"
       sodipodi:cx="1633.8787"
       sodipodi:type="arc"
       id="path4667"
       style="opacity:1;fill:none;fill-opacity:1;stroke:#000000;stroke-width:0.09;stroke-miterlimit:4;stroke-dasharray:none;stroke-opacity:1" />
    <path
       style="opacity:1;fill:none;fill-opacity:1;stroke:#000000;stroke-width:0.09;stroke-miterlimit:4;stroke-dasharray:none;stroke-opacity:1"
       d="M 3478.125 4529.9492 A 217.67468 217.67468 0 0 0 3301.4043 4745.1074 A 217.67468 217.67468 0 0 0 3519.8164 4961.2969 A 217.67468 217.67468 0 0 0 3736.748 4743.623 L 3736.7285 4740.6562 A 217.67468 217.67468 0 0 0 3563.4453 4530.6641 L 3563.4453 4808.75 L 3478.125 4808.75 L 3478.125 4529.9492 z "
       transform="translate(0,-7587.6379)"
       id="path6135" />
    <path
       style="opacity:1;fill:none;fill-opacity:1;stroke:#000000;stroke-width:0.09;stroke-miterlimit:4;stroke-dasharray:none;stroke-opacity:1"
       d="M 2413.5938 4119.6367 A 253.9538 253.9538 0 0 0 2162.2402 4375.3066 A 253.9538 253.9538 0 0 0 2368.75 4622.959 L 2368.75 4343.125 L 2475 4343.125 L 2475 4620.3223 A 253.9538 253.9538 0 0 0 2670.1426 4373.5762 L 2670.1191 4370.1152 A 253.9538 253.9538 0 0 0 2413.5938 4119.6367 z "
       transform="translate(0,-7587.6379)"
       id="path6137" />
    <path
       style="opacity:1;fill:none;fill-opacity:1;stroke:#000000;stroke-width:0.09;stroke-miterlimit:4;stroke-dasharray:none;stroke-opacity:1"
       d="M 2886.1855 4061.584 A 159.6281 159.6281 0 0 0 2728.1934 4222.291 A 159.6281 159.6281 0 0 0 2859.375 4378.1621 L 2859.375 4218.125 L 2944.6953 4218.125 L 2944.6953 4370.3047 A 159.6281 159.6281 0 0 0 3047.4453 4221.2031 L 3047.4297 4219.0273 A 159.6281 159.6281 0 0 0 2886.1855 4061.584 z "
       transform="translate(0,-7587.6379)"
       id="path6141" />
    <path
       style="opacity:1;fill:none;fill-opacity:1;stroke:#000000;stroke-width:0.09;stroke-miterlimit:4;stroke-dasharray:none;stroke-opacity:1"
       d="M 3357.5176 4039.8184 A 188.65138 188.65138 0 0 0 3170.7988 4229.7461 A 188.65138 188.65138 0 0 0 3315.625 4411.7227 L 3315.625 4224.375 L 3400.9453 4224.375 L 3400.9453 4412.248 A 188.65138 188.65138 0 0 0 3548.0977 4228.459 L 3548.0801 4225.8887 A 188.65138 188.65138 0 0 0 3357.5176 4039.8184 z "
       transform="translate(0,-7587.6379)"
       id="path6147" />
    <path
       style="opacity:1;fill:none;fill-opacity:1;stroke:#000000;stroke-width:0.09;stroke-miterlimit:4;stroke-dasharray:none;stroke-opacity:1"
       d="M 2784.9746 4496.9316 A 123.34898 123.34898 0 0 0 2662.8906 4621.1152 A 123.34898 123.34898 0 0 0 2740.625 4734.7832 L 2740.625 4590 L 2825.9453 4590 L 2825.9453 4736.8984 A 123.34898 123.34898 0 0 0 2909.5859 4620.2734 L 2909.5742 4618.5938 A 123.34898 123.34898 0 0 0 2784.9746 4496.9316 z "
       transform="translate(0,-7587.6379)"
       id="path6149" />
    <path
       style="opacity:1;fill:none;fill-opacity:1;stroke:#000000;stroke-width:0.09;stroke-miterlimit:4;stroke-dasharray:none;stroke-opacity:1"
       d="M 3140.2871 4453.3984 A 145.11646 145.11646 0 0 0 2996.6582 4599.4961 A 145.11646 145.11646 0 0 0 3103.125 4738.2344 L 3103.125 4565 L 3188.4453 4565 L 3188.4453 4735.7266 A 145.11646 145.11646 0 0 0 3286.8867 4598.5078 L 3286.875 4596.5293 A 145.11646 145.11646 0 0 0 3140.2871 4453.3984 z "
       transform="translate(0,-7587.6379)"
       id="path6151" />
    <path
       style="opacity:1;fill:none;fill-opacity:1;stroke:#000000;stroke-width:0.09;stroke-miterlimit:4;stroke-dasharray:none;stroke-opacity:1"
       d="M 3749.9258 3916.4746 A 130.60481 290.23291 0 0 0 3620.6582 4208.6699 A 130.60481 290.23291 0 0 0 3709.375 4481.2715 L 3709.375 4186.875 L 3794.6953 4186.875 L 3794.6953 4480.0742 A 130.60481 290.23291 0 0 0 3881.8652 4206.6914 L 3881.8535 4202.7363 A 130.60481 290.23291 0 0 0 3749.9258 3916.4746 z "
       transform="translate(0,-7587.6379)"
       id="path6153" />
    <path
       style="opacity:1;fill:none;fill-opacity:1;stroke:#000000;stroke-width:0.09;stroke-miterlimit:4;stroke-dasharray:none;stroke-opacity:1"
       d="M 3843.8789 3198.1504 A 166.88391 319.2562 0 0 0 3678.7051 3519.5645 A 166.88391 319.2562 0 0 0 3809.375 3828.7559 L 3809.375 3549.375 L 3887.5 3549.375 L 3887.5 3826.1816 A 166.88391 319.2562 0 0 0 4012.4707 3517.3887 L 4012.4551 3513.0371 A 166.88391 319.2562 0 0 0 3843.8789 3198.1504 z "
       transform="translate(0,-7587.6379)"
       id="path6157" />
    <path
       style="opacity:1;fill:none;fill-opacity:1;stroke:#000000;stroke-width:0.09;stroke-miterlimit:4;stroke-dasharray:none;stroke-opacity:1"
       d="M 2437.0625 3182.9941 A 74.394302 133.39667 0 0 0 2363.4297 3317.293 A 74.394302 133.39667 0 0 0 2396.875 3427.6641 L 2396.875 3296.25 L 2482.1953 3296.25 L 2482.1953 3423.2754 A 74.394302 133.39667 0 0 0 2512.2168 3316.3848 L 2512.2109 3314.5664 A 74.394302 133.39667 0 0 0 2437.0625 3182.9941 z "
       transform="translate(0,-7587.6379)"
       id="path6193" />
    <path
       style="opacity:1;fill:none;fill-opacity:1;stroke:#000000;stroke-width:0.09;stroke-miterlimit:4;stroke-dasharray:none;stroke-opacity:1"
       d="M 1575.4062 5295.8379 A 260.17133 416.83634 0.71182983 0 0 1313.875 5714.1484 A 260.17133 416.83634 0.71182983 0 0 1473.6875 6098.8223 L 1471.5859 6278.2266 C 1471.0237 6326.2234 1502.3342 6367.2334 1546.875 6383.1289 L 1546.875 5705.625 L 1632.1953 5705.625 L 1632.1953 6381.9688 C 1674.1747 6365.6412 1703.8187 6326.683 1704.3574 6280.6934 L 1706.8477 6068.1191 A 260.17133 416.83634 0.71182983 0 0 1834.2402 5713.9824 A 260.17133 416.83634 0.71182983 0 0 1578.9512 5295.8379 L 1575.4062 5295.8379 z "
       transform="translate(0,-7587.6379)"
       id="path4920" />
    <path
       style="opacity:1;fill:none;fill-opacity:1;stroke:#000000;stroke-width:0.09;stroke-miterlimit:4;stroke-dasharray:none;stroke-opacity:1"
       d="M 2200.0605 5300.2559 A 260.17133 416.83634 0.71182983 0 0 1938.5293 5718.5684 A 260.17133 416.83634 0.71182983 0 0 2098.3418 6103.2422 L 2096.2402 6282.6465 C 2095.6635 6331.8802 2128.6246 6373.7577 2175 6388.7227 L 2175 5827.5 L 2260.3203 5827.5 L 2260.3203 6384.9668 C 2300.4526 6367.8814 2328.488 6329.8239 2329.0117 6285.1133 L 2331.502 6072.5371 A 260.17133 416.83634 0.71182983 0 0 2458.8945 5718.4023 A 260.17133 416.83634 0.71182983 0 0 2203.6055 5300.2559 L 2200.0605 5300.2559 z "
       transform="translate(0,-7587.6379)"
       id="path5758" />
    <path
       style="opacity:1;fill:none;fill-opacity:1;stroke:#000000;stroke-width:0.09;stroke-miterlimit:4;stroke-dasharray:none;stroke-opacity:1"
       d="M 963.13281 4699.4883 C 963.13281 4699.4883 852.76948 4838.3348 777.10938 4913.7949 C 701.44907 4989.2551 502.8418 4974.1621 502.8418 4974.1621 C 469.2555 4953.224 452.96752 4986.418 442.23242 4986.4297 C 389.01852 4998.354 352.6609 5013.381 329.86328 5029.6797 L 471.875 5029.6797 L 471.875 5115 L 315.43555 5115 C 354.10948 5157.3551 454.02232 5185.6919 546.57031 5161.5176 C 616.03691 5161.3873 545.39066 5097.5697 559.28516 5060.7812 C 645.53846 5049.6373 799.56033 4963.9797 832.70703 4924.3086 C 889.45213 4856.3945 963.13281 4699.4883 963.13281 4699.4883 z "
       transform="translate(0,-7587.6379)"
       id="use5784" />
    <path
       style="opacity:1;fill:none;fill-opacity:1;stroke:#000000;stroke-width:0.09;stroke-miterlimit:4;stroke-dasharray:none;stroke-opacity:1"
       d="M 877.88281 3548.6816 C 877.88281 3548.6816 722.44155 3784.1923 627.13281 3808.5254 C 531.82391 3832.8584 410.78711 3723.5273 410.78711 3723.5273 C 401.45729 3690.1001 370.67248 3709.1102 363.62891 3703.873 C 260.02487 3663.7168 211.87685 3688.6451 203.8457 3732.8047 L 337.5 3732.8047 L 337.5 3818.125 L 226.09766 3818.125 C 247.37592 3851.6173 282.0812 3882.2214 325.94531 3897.127 C 371.55748 3930.9722 363.91369 3844.5919 395.30859 3821.4922 C 458.59623 3854.5933 611.44453 3860.2746 657.20508 3844.2422 C 735.54406 3816.7957 877.88281 3548.6816 877.88281 3548.6816 z "
       transform="translate(0,-7587.6379)"
       id="use5786" />
    <path
       style="opacity:1;fill:none;fill-opacity:1;stroke:#000000;stroke-width:0.09;stroke-miterlimit:4;stroke-dasharray:none;stroke-opacity:1"
       d="M 801.48047 3881.9395 C 801.48047 3881.9395 707.69136 4128.7089 661.53516 4200.293 C 615.37876 4271.8771 496.86328 4267.7109 496.86328 4267.7109 C 476.37408 4247.8483 466.43953 4279.3366 459.89062 4279.3477 C 425.30045 4291.4007 402.37244 4306.7943 388.70117 4323.4297 L 496.875 4323.4297 L 496.875 4408.75 L 387.43945 4408.75 C 413.80484 4444.6863 470.64415 4466.9292 523.54102 4445.4434 C 565.91902 4445.3198 522.82058 4384.7796 531.29688 4349.8809 C 583.91548 4339.3093 677.87656 4258.0532 698.09766 4220.4199 C 732.71486 4155.9942 801.48047 3881.9395 801.48047 3881.9395 z "
       transform="translate(0,-7587.6379)"
       id="use5788" />
    <path
       style="opacity:1;fill:none;fill-opacity:1;stroke:#000000;stroke-width:0.09;stroke-miterlimit:4;stroke-dasharray:none;stroke-opacity:1"
       d="M 3592.6504 5629.0645 C 3545.3458 5628.6783 3501.3909 5648.6211 3476.9922 5676.5547 L 3587.5 5676.5547 L 3587.5 5761.875 L 3470.084 5761.875 C 3485.6335 5783.2164 3515.9967 5803.2332 3565.8359 5818.3848 C 3573.9789 5818.3969 3586.3341 5852.5569 3611.8105 5831.0098 C 3611.8105 5831.0098 3762.4606 5815.478 3819.8516 5893.1328 C 3877.2424 5970.7876 4039.9258 6242.1562 4039.9258 6242.1562 C 4039.9258 6242.1563 3905.0686 5952.2018 3862.0254 5882.3125 C 3836.8824 5841.4877 3720.0511 5753.3392 3654.625 5741.8711 C 3644.0855 5704.0128 3697.6733 5638.3392 3644.9805 5638.2051 C 3627.6167 5632.0518 3609.9109 5629.2054 3592.6504 5629.0645 z "
       transform="translate(0,-7587.6379)"
       id="use5790" />
    <path
       style="opacity:1;fill:none;fill-opacity:1;stroke:#000000;stroke-width:0.09;stroke-miterlimit:4;stroke-dasharray:none;stroke-opacity:1"
       d="M 730.77148 4336.8145 C 730.77148 4336.8145 680.72819 4583.8424 630.68359 4656.498 C 580.63889 4729.1536 449.27148 4714.623 449.27148 4714.623 C 427.05608 4694.4631 416.28224 4726.4224 409.18164 4726.4336 C 386.7598 4733.7474 368.8622 4742.2726 354.92188 4751.5547 L 428.125 4751.5547 L 428.125 4836.875 L 318.61133 4836.875 C 336.85834 4884.6695 410.50482 4920.7517 478.19531 4895.0137 C 524.14331 4894.8881 477.41507 4833.4427 486.60547 4798.0215 C 543.65687 4787.2917 645.53243 4704.8177 667.45703 4666.6211 C 704.99053 4601.2311 730.77148 4336.8145 730.77148 4336.8145 z "
       transform="translate(0,-7587.6379)"
       id="use5792" />
    <path
       style="opacity:1;fill:none;fill-opacity:1;stroke:#000000;stroke-width:0.09;stroke-miterlimit:4;stroke-dasharray:none;stroke-opacity:1"
       d="M 3477.6465 5028.0664 C 3430.1198 5027.9608 3387.313 5043.7964 3367.3926 5067.1797 L 3506.25 5067.1797 L 3506.25 5152.5 L 3395.8262 5152.5 C 3411.2954 5162.871 3431.6573 5173.132 3457.6797 5182.9395 C 3465.9984 5183.9466 3475.2379 5213.6935 3503.4023 5199.0039 C 3503.4023 5199.0039 3658.8649 5204.6143 3709.8105 5275.8262 C 3760.7561 5347.0381 3793.2402 5572.291 3793.2402 5572.291 C 3793.2402 5572.291 3791.028 5335.0834 3753.9727 5272.0469 C 3732.3274 5235.2251 3621.6885 5148.0608 3555.9766 5130.5703 C 3548.9583 5097.9886 3610.2172 5050.2703 3556.3926 5043.707 C 3530.6952 5032.8888 3503.4744 5028.1238 3477.6465 5028.0664 z "
       transform="translate(0,-7587.6379)"
       id="use5794" />
    <path
       style="opacity:1;fill:none;fill-opacity:1;stroke:#000000;stroke-width:0.09;stroke-miterlimit:4;stroke-dasharray:none;stroke-opacity:1"
       d="M 2883.9766 5609.9141 C 2836.5623 5609.6007 2792.5042 5625.7725 2768.0273 5648.4297 L 2903.125 5648.4297 L 2903.125 5733.75 L 2780.459 5733.75 C 2797.8679 5744.9359 2822.9065 5755.1962 2857.0859 5763.6074 C 2865.2522 5763.6171 2877.642 5791.3456 2903.1914 5773.8535 C 2903.1914 5773.8535 3054.2744 5761.2461 3111.8301 5824.2871 C 3169.3856 5887.328 3226.9414 6101.668 3226.9414 6101.668 C 3226.9414 6101.668 3197.2917 5872.2389 3154.125 5815.502 C 3128.9099 5782.36 3011.7427 5710.8001 2946.1289 5701.4902 C 2935.5592 5670.7564 2989.3011 5617.4429 2936.457 5617.334 C 2919.0434 5612.3387 2901.2866 5610.0284 2883.9766 5609.9141 z "
       transform="translate(0,-7587.6379)"
       id="use5796" />
    <path
       style="opacity:1;fill:none;fill-opacity:1;stroke:#000000;stroke-width:0.09;stroke-miterlimit:4;stroke-dasharray:none;stroke-opacity:1"
       d="M 2919.0762 5141.459 C 2915.3164 5141.4845 2910.8633 5142.5491 2905.5645 5144.8574 C 2854.3672 5148.3476 2811.1568 5176.6002 2786.1172 5210.9297 L 2887.5 5210.9297 L 2887.5 5296.25 L 2766.4219 5296.25 C 2778.2871 5330.6405 2820.7622 5354.5733 2906.582 5344.7422 C 2914.0653 5341.4727 2939.3838 5368.3449 2953.9668 5337.9902 C 2953.9668 5337.9902 3085.9685 5262.8107 3170.4395 5312.0918 C 3254.9103 5361.373 3415.6172 5584.4238 3415.6172 5584.4238 C 3415.6172 5584.4238 3272.8619 5332.8332 3204.7441 5285.0117 C 3164.9541 5257.0776 3021.6029 5221.9612 2956.8262 5237.6289 C 2934.4135 5209.9731 2949.6916 5141.2511 2919.0762 5141.459 z "
       transform="translate(0,-7587.6379)"
       id="use5798" />
    <path
       style="opacity:1;fill:none;fill-opacity:1;stroke:#000000;stroke-width:0.09;stroke-miterlimit:4;stroke-dasharray:none;stroke-opacity:1"
       d="M 2850.0762 3196.2578 A 145.3125 164.0625 0 0 0 2706.2539 3361.4316 A 145.3125 164.0625 0 0 0 2809.375 3517.291 L 2809.375 3324.375 L 2894.6953 3324.375 L 2894.6953 3516.7969 A 145.3125 164.0625 0 0 0 2996.875 3360.3125 L 2996.8613 3358.0762 A 145.3125 164.0625 0 0 0 2850.0762 3196.2578 z "
       transform="translate(0,-7587.6379)"
       id="path4335" />
    <path
       style="opacity:1;fill:none;fill-opacity:1;stroke:#000000;stroke-width:0.09;stroke-miterlimit:4;stroke-dasharray:none;stroke-opacity:1"
       d="M 2941.5703 3652.127 L 2941.5703 3858.75 L 2856.25 3858.75 L 2856.25 3656.3848 A 145.3125 173.4375 0 0 0 2759.3789 3820.8691 A 145.3125 173.4375 0 0 0 2905.1836 3993.123 A 145.3125 173.4375 0 0 0 3050 3819.6875 L 3049.9863 3817.3242 A 145.3125 173.4375 0 0 0 2941.5703 3652.127 z "
       transform="translate(0,-7587.6379)"
       id="path4340" />
    <path
       style="opacity:1;fill:none;fill-opacity:1;stroke:#000000;stroke-width:0.09;stroke-miterlimit:4;stroke-dasharray:none;stroke-opacity:1"
       d="M 3394.6953 3283.7559 L 3394.6953 3655.625 L 3309.375 3655.625 L 3309.375 3287.7031 A 142.1875 307.8125 0 0 0 3212.5039 3581.1602 A 142.1875 307.8125 0 0 0 3355.1719 3886.873 A 142.1875 307.8125 0 0 0 3496.875 3579.0625 L 3496.8613 3574.8672 A 142.1875 307.8125 0 0 0 3394.6953 3283.7559 z "
       transform="translate(0,-7587.6379)"
       id="path4350" />
    <path
       style="opacity:1;fill:none;fill-opacity:1;stroke:#000000;stroke-width:0.09;stroke-miterlimit:4;stroke-dasharray:none;stroke-opacity:1"
       d="M 2522.8203 3567.5508 L 2522.8203 3852.5 L 2437.5 3852.5 L 2437.5 3571.4785 A 179.6875 257.8125 0 0 0 2306.2539 3821.4453 A 179.6875 257.8125 0 0 0 2486.5508 4077.498 A 179.6875 257.8125 0 0 0 2665.625 3819.6875 L 2665.6074 3816.1738 A 179.6875 257.8125 0 0 0 2522.8203 3567.5508 z "
       transform="translate(0,-7587.6379)"
       id="path4354" />
  </g>
</svg>
