<?xml version="1.0" encoding="UTF-8" standalone="no"?>
<!-- Created with Inkscape (http://www.inkscape.org/) -->

<svg
   xmlns:dc="http://purl.org/dc/elements/1.1/"
   xmlns:cc="http://creativecommons.org/ns#"
   xmlns:rdf="http://www.w3.org/1999/02/22-rdf-syntax-ns#"
   xmlns:svg="http://www.w3.org/2000/svg"
   xmlns="http://www.w3.org/2000/svg"
   xmlns:sodipodi="http://sodipodi.sourceforge.net/DTD/sodipodi-0.dtd"
   xmlns:inkscape="http://www.inkscape.org/namespaces/inkscape"
   id="svg4138"
   version="1.1"
   inkscape:version="0.91 r13725"
   xml:space="preserve"
   width="18in"
   height="24in"
   viewBox="0 0 1620 2160"
   sodipodi:docname="1 inch swatch546finalsvg.svg"><metadata
     id="metadata4144"><rdf:RDF><cc:Work
         rdf:about=""><dc:format>image/svg+xml</dc:format><dc:type
           rdf:resource="http://purl.org/dc/dcmitype/StillImage" /><dc:title></dc:title></cc:Work></rdf:RDF></metadata><defs
     id="defs4142" /><sodipodi:namedview
     pagecolor="#ffffff"
     bordercolor="#666666"
     borderopacity="1"
     objecttolerance="10"
     gridtolerance="10"
     guidetolerance="10"
     inkscape:pageopacity="0"
     inkscape:pageshadow="2"
     inkscape:window-width="1297"
     inkscape:window-height="689"
     id="namedview4140"
     showgrid="false"
     units="in"
     inkscape:document-units="in"
     inkscape:zoom="0.21851852"
     inkscape:cx="812.18214"
     inkscape:cy="977.70151"
     inkscape:window-x="20"
     inkscape:window-y="43"
     inkscape:window-maximized="0"
     inkscape:current-layer="g4146" /><g
     id="g4146"
     inkscape:groupmode="layer"
     inkscape:label="1 inch swatch"
     transform="matrix(1.25,0,0,-1.25,0,2160)"><g
       transform="matrix(1,0,0,-1,0,1728)"
       id="g4150"><path
         style="fill:#ff0000;fill-opacity:1;fill-rule:nonzero;stroke:#000000;stroke-width:0.09;stroke-linecap:butt;stroke-linejoin:miter;stroke-miterlimit:4;stroke-dasharray:none;stroke-opacity:1"
         d="M 535.42383 132.71094 L 535.42383 196.78906 L 677.2832 196.78906 L 677.2832 283.72852 L 535.42383 283.72852 L 535.42383 343.41016 L 672.70703 343.41016 L 672.70703 430.16992 L 535.42383 430.16992 L 535.42383 499.18164 L 672.70703 499.18164 L 672.70703 585.76172 L 535.42383 585.76172 L 535.42383 668.68555 L 668.13086 668.68555 L 668.13086 755.08398 L 535.42383 755.08398 L 535.42383 829.03516 L 672.70703 829.03516 L 672.70703 829.21484 L 672.70703 915.25391 L 535.42383 915.25391 L 535.42383 984.80664 L 668.13086 984.80664 L 668.13086 1070.8477 L 535.42383 1070.8477 L 535.42383 1177.1914 L 672.70703 1177.1914 L 672.70703 1263.0508 L 535.42383 1263.0508 L 535.42383 1328.3887 L 677.2832 1328.3887 L 677.2832 1414.0684 L 535.42383 1414.0684 L 535.42383 1507.043 L 681.85938 1507.043 L 681.85938 1592.543 L 535.42383 1592.543 L 535.42383 1690.2734 L 672.71094 1690.2734 L 672.71094 1775.5938 L 535.42383 1775.5938 L 535.42383 1844.2383 L 677.28906 1844.2383 L 677.28906 1912.8809 L 535.42383 1912.8809 L 535.42383 1963.2207 L 582.85547 1963.2207 L 582.85547 1965.7129 L 1035.7129 1965.7129 C 1044.4191 1965.7129 1051.4258 1958.7063 1051.4258 1950 L 1051.4258 152.85547 C 1051.4258 144.14922 1044.4191 137.14453 1035.7129 137.14453 L 819.15234 137.14453 L 819.15234 132.71094 L 535.42383 132.71094 z M 827.69336 170.08594 A 22.5 22.5 0 0 1 850.42188 192.27734 L 850.42383 192.58398 A 22.5 22.5 0 0 1 828 215.08398 A 22.5 22.5 0 0 1 805.42383 192.73828 A 22.5 22.5 0 0 1 827.69336 170.08594 z "
         transform="scale(0.8,0.8)"
         id="path4152" /></g><text
       id="text4154"
       style="font-variant:normal;font-weight:normal;font-size:64px;font-family:'Bitstream Vera Sans';-inkscape-font-specification:BitstreamVeraSans-Roman;writing-mode:lr-tb;fill:#000000;fill-opacity:1;fill-rule:nonzero;stroke:none"
       transform="scale(1,-1)"
       x="651.87408"
       y="-874.03387"><tspan
         id="tspan4156"
         sodipodi:role="line"
         y="-874.03387"
         x="651.87408 672.16217 712.86615 753.57013">.956</tspan><tspan
         id="tspan4158"
         sodipodi:role="line"
         y="-714.03381"
         x="665.58838 685.8764 726.58038 767.28436">.954</tspan><tspan
         id="tspan4160"
         sodipodi:role="line"
         y="-572.31952"
         x="665.58838 685.8764 726.58038 767.28436">.952</tspan><tspan
         id="tspan4162"
         sodipodi:role="line"
         y="-453.46237"
         x="661.01697 681.30487 722.00897 762.71295">.950</tspan><tspan
         id="tspan4164"
         sodipodi:role="line"
         y="-316.31967"
         x="665.58838 685.8764 726.58038 767.28436">.948</tspan><tspan
         id="tspan4166"
         sodipodi:role="line"
         y="-197.46237"
         x="665.58838 685.8764 726.58038 767.28436">.946</tspan><tspan
         id="tspan4168"
         sodipodi:role="line"
         y="-983.74805"
         x="656.4455 676.73346 717.43756 758.14154">.958</tspan><tspan
         id="tspan4170"
         sodipodi:role="line"
         y="-1111.7482"
         x="656.4455 676.73346 717.43756 758.14154">.960</tspan><tspan
         id="tspan4172"
         sodipodi:role="line"
         y="-1253.4624"
         x="651.87402 672.16205 712.86603 753.57013">.962</tspan><tspan
         id="tspan4174"
         sodipodi:role="line"
         y="-1381.4624"
         x="656.4455 676.73346 717.43756 758.14154">.964</tspan><tspan
         id="tspan4176"
         sodipodi:role="line"
         y="-1504.8911"
         x="656.4455 676.73346 717.43756 758.14154">.966</tspan></text>
</g></svg>