<?xml version="1.0" encoding="UTF-8" standalone="no"?>
<!-- Created with Inkscape (http://www.inkscape.org/) -->

<svg
   xmlns:dc="http://purl.org/dc/elements/1.1/"
   xmlns:cc="http://creativecommons.org/ns#"
   xmlns:rdf="http://www.w3.org/1999/02/22-rdf-syntax-ns#"
   xmlns:svg="http://www.w3.org/2000/svg"
   xmlns="http://www.w3.org/2000/svg"
   xmlns:sodipodi="http://sodipodi.sourceforge.net/DTD/sodipodi-0.dtd"
   xmlns:inkscape="http://www.inkscape.org/namespaces/inkscape"
   width="96in"
   height="48in"
   viewBox="0 0 8640.0002 4320.0001"
   id="svg2"
   version="1.1"
   inkscape:version="0.91 r13725"
   sodipodi:docname="CreatureSheetfinal2aINV.svg">
  <defs
     id="defs4" />
  <sodipodi:namedview
     id="base"
     pagecolor="#ffffff"
     bordercolor="#666666"
     borderopacity="1.0"
     inkscape:pageopacity="0.0"
     inkscape:pageshadow="2"
     inkscape:zoom="0.056568545"
     inkscape:cx="2632.3062"
     inkscape:cy="4677.9034"
     inkscape:document-units="in"
     inkscape:current-layer="layer1"
     showgrid="true"
     units="in"
     inkscape:window-width="1440"
     inkscape:window-height="790"
     inkscape:window-x="6"
     inkscape:window-y="55"
     inkscape:window-maximized="0"
     showguides="true"
     inkscape:guide-bbox="true">
    <inkscape:grid
       type="xygrid"
       id="grid4136"
       units="in"
       spacingx="0.18"
       spacingy="0.018000001"
       empspacing="1"
       color="#fb0000"
       opacity="0.1254902"
       enabled="false" />
  </sodipodi:namedview>
  <metadata
     id="metadata7">
    <rdf:RDF>
      <cc:Work
         rdf:about="">
        <dc:format>image/svg+xml</dc:format>
        <dc:type
           rdf:resource="http://purl.org/dc/dcmitype/StillImage" />
        <dc:title></dc:title>
      </cc:Work>
    </rdf:RDF>
  </metadata>
  <g
     inkscape:label="Layer 1"
     inkscape:groupmode="layer"
     id="layer1"
     transform="translate(0,3267.6379)">
    <text
       xml:space="preserve"
       style="font-style:normal;font-weight:normal;font-size:80px;line-height:125%;font-family:sans-serif;letter-spacing:0px;word-spacing:0px;fill:#000000;fill-opacity:1;stroke:none;stroke-width:1px;stroke-linecap:butt;stroke-linejoin:miter;stroke-opacity:1"
       x="2272"
       y="-3435.6379"
       id="text4630"
       sodipodi:linespacing="125%"><tspan
         sodipodi:role="line"
         id="tspan4632"
         x="2272"
         y="-3435.6379" /></text>
    <path
       style="opacity:1;fill:none;fill-opacity:1;stroke:#000000;stroke-width:0.09;stroke-miterlimit:4;stroke-dasharray:none;stroke-opacity:1"
       id="path4381-9"
       sodipodi:type="arc"
       sodipodi:cx="-8983.085"
       sodipodi:cy="-8813.1914"
       sodipodi:rx="107.48023"
       sodipodi:ry="118.79394"
       sodipodi:start="0"
       sodipodi:end="6.2695543"
       sodipodi:open="true"
       d="m -8875.6047,-8813.1914 a 107.48023,118.79394 0 0 1 -107.114,118.7932 107.48023,118.79394 0 0 1 -107.844,-117.9836 107.48023,118.79394 0 0 1 106.379,-119.5973 107.48023,118.79394 0 0 1 108.569,117.1685" />
    <g
       id="g4174"
       transform="matrix(0,-1,-1,0,-253.48874,1036.9722)">
      <path
         inkscape:connector-curvature="0"
         id="path4497-90"
         transform="translate(0,-7587.6379)"
         d="m 2114.6914,195.9043 a 531.35481,476.27572 0 0 0 -500.8262,478.14258 531.35481,476.27572 0 0 0 257.3711,404.14652 c -48.7884,391.1932 -602.8043,177.1603 -310.0468,487.0703 -40.9403,68.4192 -78.3408,108.7695 -104.8301,178.8652 -44.1775,-138.9477 -112.868,-270.9718 -197.8594,-440.457 l -2.834,-5.6407 C 1083.3446,955.68995 893.21356,691.6654 805.81836,673.3457 c -2.094,-1.2666 -4.38771,-1.88938 -6.87891,-1.86718 l -0.01,0 c -0.8305,0.017 -1.68274,0.0844 -2.55664,0.23632 -1.0188,0.3296 -2.06387,0.74781 -3.13477,1.25391 -4.5969,0.3069 -8.75202,1.52706 -12.45312,3.66016 -5.1826,3.65 -9.37041,9.26197 -12.53321,16.79687 -68.1967,77.8605 -185.82371,357.82782 -290.97851,692.56252 l -1.9375,6.1855 c -73.1576,233.9576 -129.95188,462.1655 -154.36328,620.2539 -58.9557,8.5859 -103.62233,69.7244 -104.41993,142.9278 l 0,1.1718 c -1.3612,397.6236 167.44982,665.645 381.19922,968.5332 -145.9122,-327.629 -220.90801,-539.8864 -163.72851,-888.3671 4.0265,-7.6774 7.45925,-15.8076 10.25195,-24.2774 l 0.55078,0 -0.50781,-0.123 c 5.6955,-17.1321 8.69704,-35.4442 8.83984,-53.959 0.1508,-29.3599 -6.88655,-58.0939 -20.18945,-82.4434 66.574,-133.3643 147.58049,-345.8646 220.43359,-578.2539 63.7758,-203.5568 117.03182,-316.4235 145.69532,-470.7226 43.0103,145.7521 117.98844,243.4715 211.01758,428.7109 93.3826,185.875 195.9272,356.0258 285.1289,473.1113 53.767,70.574 100.0344,118.3819 135.5157,140.8301 3.6473,3.0536 7.7145,5.3662 12.1816,6.9238 17.7615,8.8538 32.2617,10.2182 42.9746,3.6641 4.3388,-2.6549 8.0012,-6.592 11.0078,-11.7383 73.0297,-35.1999 175.3849,-154.3061 264.9551,-308.3144 2.5578,-4.4009 5.0806,-8.8029 7.5859,-13.2051 158.0059,131.6881 172.3591,-376.0024 170.6368,-378.2149 140.9264,-123.6135 142.1954,100.256 229.8691,88.4063 87.9794,-11.8911 114.0997,-204.416 219.7481,-83.0801 60.4547,131.137 -0.2648,434.9826 161.8144,382.002 0.6568,1.1508 1.3031,2.3002 1.9629,3.4511 88.7945,154.6899 190.5505,274.5764 263.4023,310.334 2.9807,5.1686 6.6277,9.1343 10.9532,11.8223 10.6797,6.6357 25.1846,5.3819 42.9902,-3.336 4.4747,-1.5235 8.5524,-3.8024 12.2148,-6.8281 35.5936,-22.1768 82.0985,-69.6332 136.2188,-139.7949 89.7885,-116.4013 193.1867,-285.764 287.5019,-470.9219 93.9582,-184.5244 169.4285,-281.6678 213.17,-427.0879 27.8879,154.515 80.5722,267.7862 143.3242,471.8282 71.684,232.9416 151.6207,446.0583 217.5234,579.9277 -13.4251,24.2474 -20.6028,52.9231 -20.5996,82.2832 0.05,18.5157 2.9571,36.8543 8.5664,54.0293 l -0.5097,0.1191 0.5527,0 c 2.7502,8.4907 6.1411,16.6432 10.1289,24.3516 55.4271,348.9108 -20.6315,560.5957 -168.1875,887.1035 215.2675,-301.2489 385.4215,-567.9772 386.0586,-965.6035 l 0,-1.1738 c -0.43,-73.2077 -44.7917,-134.6863 -103.7031,-143.7227 -23.6166,-158.2716 -79.2616,-386.9056 -151.2422,-621.418 l -1.9063,-6.2011 C 3736.4825,1059.6409 3620.263,778.77904 3552.459,700.39844 c -3.1252,-7.5583 -7.2833,-13.20113 -12.4473,-16.89063 -3.6902,-2.1611 -7.8403,-3.41386 -12.4355,-3.75586 -1.0685,-0.5142 -2.11,-0.94355 -3.127,-1.28125 -0.8731,-0.1573 -1.7262,-0.2399 -2.5566,-0.2539 -2.4907,-0.045 -4.7883,0.5657 -6.8887,1.8164 -87.4854,17.651 -278.9364,280.21657 -452.9746,621.2305 l -2.8633,5.6152 c -85.8411,168.8321 -155.1949,300.3324 -200.0703,438.9395 -24.4499,-65.7608 -58.5854,-105.6077 -96.1211,-166.7344 328.4705,-336.3323 -272.9932,-93.8284 -299.3086,-527.6211 a 531.35481,476.27572 0 0 0 212.8945,-380.66407 l -0.051,-6.49414 A 531.35481,476.27572 0 0 0 2200.0117,197.6582 l 0,368.06641 -85.3203,0 0,-369.82031 z"
         style="opacity:1;fill:none;fill-opacity:1;stroke:#000000;stroke-width:0.09;stroke-miterlimit:4;stroke-dasharray:none;stroke-opacity:1" />
      <text
         sodipodi:linespacing="125%"
         id="text4684"
         y="-6786.71"
         x="2146.4126"
         style="font-style:normal;font-weight:normal;font-size:80px;line-height:125%;font-family:sans-serif;letter-spacing:0px;word-spacing:0px;fill:none;fill-opacity:1;stroke:#000000;stroke-width:0.09;stroke-linecap:butt;stroke-linejoin:miter;stroke-miterlimit:4;stroke-dasharray:none;stroke-opacity:1"
         xml:space="preserve"><tspan
           y="-6786.71"
           x="2146.4126"
           id="tspan4686"
           sodipodi:role="line">4</tspan></text>
      <path
         sodipodi:nodetypes="cccsssccccccccccccccccc"
         inkscape:connector-curvature="0"
         id="path4599"
         d="m 1669.7272,-4560.3725 c -1.6014,-0.011 -3.2058,-0.01 -4.8105,0 -65.6419,0.5738 -133.9609,22.2015 -199.1895,68.9766 -15.5563,8.4853 -39.2444,29.6985 -66.0261,56.7454 -26.7817,27.0468 -56.657,59.9273 -84.5877,91.7472 -27.9307,31.8198 -47.144,70.661 -72.9204,85.3832 -39.9374,22.8103 -30.7472,37.9999 -31.0243,37.6535 l 84.8535,45.2539 c 57.2406,-34.3442 -56.5691,-62.2262 169.705,-248.9024 256.0964,-207.7933 529.3332,42.7598 509.1172,339.4121 0,79.1959 -73.5396,243.2455 -141.4218,412.9512 -91.1311,229.8333 -129.0556,540.1341 -22.627,825.9004 25.0803,72.1058 90.101,135.4835 143.1074,177.6972 -8.5529,11.9246 -13.0908,26.0871 -13,40.5723 0.1348,19.1111 8.3089,37.3559 22.6602,50.5781 -0.066,-51.9474 36.1068,-97.5994 88.5332,-111.7324 -11.6012,-6.6767 -24.8921,-10.1489 -38.4121,-10.0351 -17.4499,0.2018 -34.2565,6.3638 -47.416,17.3847 -21.3473,-23.8183 -47.0839,-53.9424 -76.2813,-90.9258 -175.0032,-239.9504 -110.5077,-636.6793 -1.4512,-909.8769 59.3852,-161.8711 123.0257,-323.0914 137.2149,-391.1992 23.5679,-282.7997 -152.6439,-486.1771 -356.0235,-487.5879 z"
         style="fill:none;fill-rule:evenodd;stroke:#000000;stroke-width:0.09;stroke-linecap:butt;stroke-linejoin:miter;stroke-miterlimit:4;stroke-dasharray:none;stroke-opacity:1" />
      <path
         inkscape:connector-curvature="0"
         id="rect4608"
         transform="translate(0,-7587.6379)"
         d="m 1113.9609,2881.2852 c -8.8253,0 -15.9297,7.1062 -15.9297,15.9316 l 0,2185.625 c 0,8.8254 7.1044,15.9316 15.9297,15.9316 l 980.7168,0 c 8.8254,0 15.9317,-7.1062 15.9317,-15.9316 l 0,-2185.625 c 0,-8.8254 -7.1063,-15.9316 -15.9317,-15.9316 l -390.9218,0 c 0.01,0.2342 0.035,0.4643 0.035,0.7011 l 0,129.7715 c 0,8.8254 -7.1043,15.9317 -15.9297,15.9317 l -61.8144,0 c -8.8254,0 -15.9297,-7.1063 -15.9297,-15.9317 l 0,-129.7715 c 0,-0.2368 0.025,-0.4669 0.035,-0.7011 l -496.1914,0 z"
         style="opacity:1;fill:none;fill-opacity:1;stroke:#000000;stroke-width:0.09;stroke-miterlimit:4;stroke-dasharray:none;stroke-opacity:1" />
      <path
         inkscape:connector-curvature="0"
         id="path4610"
         d="m 1258.0972,-4215.7404 -193.9766,391.8394 0,0 0,0"
         style="fill:none;fill-rule:evenodd;stroke:#000000;stroke-width:0.09;stroke-linecap:butt;stroke-linejoin:miter;stroke-miterlimit:4;stroke-dasharray:none;stroke-opacity:1" />
      <path
         inkscape:connector-curvature="0"
         id="path4612"
         d="m 1980.5008,-2658.5708 209.3036,203.6467"
         style="fill:none;fill-rule:evenodd;stroke:#000000;stroke-width:0.09;stroke-linecap:butt;stroke-linejoin:miter;stroke-miterlimit:4;stroke-dasharray:none;stroke-opacity:1" />
      <path
         d="m 1166.0855,-4614.7334 a 11.594555,11.233482 0 0 1 -11.555,11.2334 11.594555,11.233482 0 0 1 -11.6338,-11.1568 11.594555,11.233482 0 0 1 11.4757,-11.3095 11.594555,11.233482 0 0 1 11.712,11.0798"
         sodipodi:open="true"
         sodipodi:end="6.2695543"
         sodipodi:start="0"
         sodipodi:ry="11.233482"
         sodipodi:rx="11.594555"
         sodipodi:cy="-4614.7334"
         sodipodi:cx="1154.491"
         sodipodi:type="arc"
         id="path4614"
         style="opacity:1;fill:none;fill-opacity:1;stroke:#000000;stroke-width:0.09;stroke-miterlimit:4;stroke-dasharray:none;stroke-opacity:1" />
      <path
         d="m 2000.1109,-4601.5913 a 11.233748,11.233741 0 0 1 -11.1954,11.2337 11.233748,11.233741 0 0 1 -11.2718,-11.1571 11.233748,11.233741 0 0 1 11.1187,-11.3098 11.233748,11.233741 0 0 1 11.3475,11.0801"
         sodipodi:open="true"
         sodipodi:end="6.2695543"
         sodipodi:start="0"
         sodipodi:ry="11.233741"
         sodipodi:rx="11.233748"
         sodipodi:cy="-4601.5913"
         sodipodi:cx="1988.8772"
         sodipodi:type="arc"
         id="path4614-3"
         style="opacity:1;fill:none;fill-opacity:1;stroke:#000000;stroke-width:0.09;stroke-miterlimit:4;stroke-dasharray:none;stroke-opacity:1" />
      <path
         d="m 1167.5533,-2547.7927 a 11.233747,11.233745 0 0 1 -11.1954,11.2337 11.233747,11.233745 0 0 1 -11.2718,-11.1572 11.233747,11.233745 0 0 1 11.1186,-11.3097 11.233747,11.233745 0 0 1 11.3476,11.0801"
         sodipodi:open="true"
         sodipodi:end="6.2695543"
         sodipodi:start="0"
         sodipodi:ry="11.233745"
         sodipodi:rx="11.233747"
         sodipodi:cy="-2547.7927"
         sodipodi:cx="1156.3196"
         sodipodi:type="arc"
         id="path4614-9"
         style="opacity:1;fill:none;fill-opacity:1;stroke:#000000;stroke-width:0.09;stroke-miterlimit:4;stroke-dasharray:none;stroke-opacity:1" />
      <path
         d="m 1994.4542,-2859.2805 a 11.233748,11.233741 0 0 1 -11.1955,11.2337 11.233748,11.233741 0 0 1 -11.2717,-11.1572 11.233748,11.233741 0 0 1 11.1186,-11.3097 11.233748,11.233741 0 0 1 11.3476,11.0801"
         sodipodi:open="true"
         sodipodi:end="6.2695543"
         sodipodi:start="0"
         sodipodi:ry="11.233741"
         sodipodi:rx="11.233748"
         sodipodi:cy="-2859.2805"
         sodipodi:cx="1983.2205"
         sodipodi:type="arc"
         id="path4614-9-5"
         style="opacity:1;fill:none;fill-opacity:1;stroke:#000000;stroke-width:0.09;stroke-miterlimit:4;stroke-dasharray:none;stroke-opacity:1" />
      <path
         style="opacity:1;fill:none;fill-opacity:1;stroke:#000000;stroke-width:0.09;stroke-miterlimit:4;stroke-dasharray:none;stroke-opacity:1"
         id="path4661"
         sodipodi:type="arc"
         sodipodi:cx="1555.408"
         sodipodi:cy="-3866.8977"
         sodipodi:rx="11.233748"
         sodipodi:ry="11.233741"
         sodipodi:start="0"
         sodipodi:end="6.2695543"
         sodipodi:open="true"
         d="m 1566.6417,-3866.8977 a 11.233748,11.233741 0 0 1 -11.1955,11.2337 11.233748,11.233741 0 0 1 -11.2717,-11.1571 11.233748,11.233741 0 0 1 11.1186,-11.3098 11.233748,11.233741 0 0 1 11.3476,11.0801" />
      <path
         d="m 1562.9684,-3181.7957 a 11.233748,11.233741 0 0 1 -11.1955,11.2337 11.233748,11.233741 0 0 1 -11.2718,-11.1571 11.233748,11.233741 0 0 1 11.1187,-11.3097 11.233748,11.233741 0 0 1 11.3475,11.08"
         sodipodi:open="true"
         sodipodi:end="6.2695543"
         sodipodi:start="0"
         sodipodi:ry="11.233741"
         sodipodi:rx="11.233748"
         sodipodi:cy="-3181.7957"
         sodipodi:cx="1551.7346"
         sodipodi:type="arc"
         id="path4663"
         style="opacity:1;fill:none;fill-opacity:1;stroke:#000000;stroke-width:0.09;stroke-miterlimit:4;stroke-dasharray:none;stroke-opacity:1" />
      <path
         style="opacity:1;fill:none;fill-opacity:1;stroke:#000000;stroke-width:0.09;stroke-miterlimit:4;stroke-dasharray:none;stroke-opacity:1"
         id="path4667"
         sodipodi:type="arc"
         sodipodi:cx="1633.8787"
         sodipodi:cy="-4418.2026"
         sodipodi:rx="11.594555"
         sodipodi:ry="11.233482"
         sodipodi:start="0"
         sodipodi:end="6.2695543"
         sodipodi:open="true"
         d="m 1645.4732,-4418.2026 a 11.594555,11.233482 0 0 1 -11.555,11.2334 11.594555,11.233482 0 0 1 -11.6338,-11.1569 11.594555,11.233482 0 0 1 11.4757,-11.3094 11.594555,11.233482 0 0 1 11.712,11.0797" />
      <path
         inkscape:connector-curvature="0"
         id="path6135"
         transform="translate(0,-7587.6379)"
         d="m 3478.125,4529.9492 a 217.67468,217.67468 0 0 0 -176.7207,215.1582 217.67468,217.67468 0 0 0 218.4121,216.1895 217.67468,217.67468 0 0 0 216.9316,-217.6739 l -0.019,-2.9668 a 217.67468,217.67468 0 0 0 -173.2832,-209.9921 l 0,278.0859 -85.3203,0 0,-278.8008 z"
         style="opacity:1;fill:none;fill-opacity:1;stroke:#000000;stroke-width:0.09;stroke-miterlimit:4;stroke-dasharray:none;stroke-opacity:1" />
      <path
         inkscape:connector-curvature="0"
         id="path6137"
         transform="translate(0,-7587.6379)"
         d="m 2413.5938,4119.6367 a 253.9538,253.9538 0 0 0 -251.3536,255.6699 253.9538,253.9538 0 0 0 206.5098,247.6524 l 0,-279.834 106.25,0 0,277.1973 a 253.9538,253.9538 0 0 0 195.1426,-246.7461 l -0.024,-3.461 a 253.9538,253.9538 0 0 0 -256.5253,-250.4785 z"
         style="opacity:1;fill:none;fill-opacity:1;stroke:#000000;stroke-width:0.09;stroke-miterlimit:4;stroke-dasharray:none;stroke-opacity:1" />
      <path
         inkscape:connector-curvature="0"
         id="path6141"
         transform="translate(0,-7587.6379)"
         d="m 2886.1855,4061.584 a 159.6281,159.6281 0 0 0 -157.9921,160.707 159.6281,159.6281 0 0 0 131.1816,155.8711 l 0,-160.0371 85.3203,0 0,152.1797 a 159.6281,159.6281 0 0 0 102.75,-149.1016 l -0.016,-2.1758 A 159.6281,159.6281 0 0 0 2886.1855,4061.584 Z"
         style="opacity:1;fill:none;fill-opacity:1;stroke:#000000;stroke-width:0.09;stroke-miterlimit:4;stroke-dasharray:none;stroke-opacity:1" />
      <path
         inkscape:connector-curvature="0"
         id="path6147"
         transform="translate(0,-7587.6379)"
         d="m 3357.5176,4039.8184 a 188.65138,188.65138 0 0 0 -186.7188,189.9277 188.65138,188.65138 0 0 0 144.8262,181.9766 l 0,-187.3477 85.3203,0 0,187.873 a 188.65138,188.65138 0 0 0 147.1524,-183.789 l -0.018,-2.5703 a 188.65138,188.65138 0 0 0 -190.5625,-186.0703 z"
         style="opacity:1;fill:none;fill-opacity:1;stroke:#000000;stroke-width:0.09;stroke-miterlimit:4;stroke-dasharray:none;stroke-opacity:1" />
      <path
         inkscape:connector-curvature="0"
         id="path6149"
         transform="translate(0,-7587.6379)"
         d="m 2784.9746,4496.9316 a 123.34898,123.34898 0 0 0 -122.084,124.1836 123.34898,123.34898 0 0 0 77.7344,113.668 l 0,-144.7832 85.3203,0 0,146.8984 a 123.34898,123.34898 0 0 0 83.6406,-116.625 l -0.012,-1.6796 a 123.34898,123.34898 0 0 0 -124.5996,-121.6622 z"
         style="opacity:1;fill:none;fill-opacity:1;stroke:#000000;stroke-width:0.09;stroke-miterlimit:4;stroke-dasharray:none;stroke-opacity:1" />
      <path
         inkscape:connector-curvature="0"
         id="path6151"
         transform="translate(0,-7587.6379)"
         d="m 3140.2871,4453.3984 a 145.11646,145.11646 0 0 0 -143.6289,146.0977 145.11646,145.11646 0 0 0 106.4668,138.7383 l 0,-173.2344 85.3203,0 0,170.7266 a 145.11646,145.11646 0 0 0 98.4414,-137.2188 l -0.012,-1.9785 a 145.11646,145.11646 0 0 0 -146.5879,-143.1309 z"
         style="opacity:1;fill:none;fill-opacity:1;stroke:#000000;stroke-width:0.09;stroke-miterlimit:4;stroke-dasharray:none;stroke-opacity:1" />
      <path
         inkscape:connector-curvature="0"
         id="path6153"
         transform="translate(0,-7587.6379)"
         d="m 3749.9258,3916.4746 a 130.60481,290.23291 0 0 0 -129.2676,292.1953 130.60481,290.23291 0 0 0 88.7168,272.6016 l 0,-294.3965 85.3203,0 0,293.1992 a 130.60481,290.23291 0 0 0 87.1699,-273.3828 l -0.012,-3.9551 a 130.60481,290.23291 0 0 0 -131.9277,-286.2617 z"
         style="opacity:1;fill:none;fill-opacity:1;stroke:#000000;stroke-width:0.09;stroke-miterlimit:4;stroke-dasharray:none;stroke-opacity:1" />
      <path
         inkscape:connector-curvature="0"
         id="path6157"
         transform="translate(0,-7587.6379)"
         d="m 3843.8789,3198.1504 a 166.88391,319.2562 0 0 0 -165.1738,321.4141 166.88391,319.2562 0 0 0 130.6699,309.1914 l 0,-279.3809 78.125,0 0,276.8066 a 166.88391,319.2562 0 0 0 124.9707,-308.7929 l -0.016,-4.3516 a 166.88391,319.2562 0 0 0 -168.5762,-314.8867 z"
         style="opacity:1;fill:none;fill-opacity:1;stroke:#000000;stroke-width:0.09;stroke-miterlimit:4;stroke-dasharray:none;stroke-opacity:1" />
      <path
         inkscape:connector-curvature="0"
         id="path6193"
         transform="translate(0,-7587.6379)"
         d="m 2437.0625,3182.9941 a 74.394302,133.39667 0 0 0 -73.6328,134.2989 74.394302,133.39667 0 0 0 33.4453,110.3711 l 0,-131.4141 85.3203,0 0,127.0254 a 74.394302,133.39667 0 0 0 30.0215,-106.8906 l -0.01,-1.8184 a 74.394302,133.39667 0 0 0 -75.1484,-131.5723 z"
         style="opacity:1;fill:none;fill-opacity:1;stroke:#000000;stroke-width:0.09;stroke-miterlimit:4;stroke-dasharray:none;stroke-opacity:1" />
      <path
         inkscape:connector-curvature="0"
         id="path4920"
         transform="translate(0,-7587.6379)"
         d="m 1575.4062,5295.8379 a 260.17133,416.83634 0.71182983 0 0 -261.5312,418.3105 260.17133,416.83634 0.71182983 0 0 159.8125,384.6739 l -2.1016,179.4043 c -0.5622,47.9968 30.7483,89.0068 75.2891,104.9023 l 0,-677.5039 85.3203,0 0,676.3438 c 41.9794,-16.3276 71.6234,-55.2858 72.1621,-101.2754 l 2.4903,-212.5743 a 260.17133,416.83634 0.71182983 0 0 127.3925,-354.1367 260.17133,416.83634 0.71182983 0 0 -255.289,-418.1445 l -3.545,0 z"
         style="opacity:1;fill:none;fill-opacity:1;stroke:#000000;stroke-width:0.09;stroke-miterlimit:4;stroke-dasharray:none;stroke-opacity:1" />
      <path
         inkscape:connector-curvature="0"
         id="path5758"
         transform="translate(0,-7587.6379)"
         d="m 2200.0605,5300.2559 a 260.17133,416.83634 0.71182983 0 0 -261.5312,418.3125 260.17133,416.83634 0.71182983 0 0 159.8125,384.6738 l -2.1016,179.4043 c -0.5767,49.2337 32.3844,91.1112 78.7598,106.0762 l 0,-561.2227 85.3203,0 0,557.4668 c 40.1323,-17.0854 68.1677,-55.1429 68.6914,-99.8535 l 2.4903,-212.5762 a 260.17133,416.83634 0.71182983 0 0 127.3925,-354.1348 260.17133,416.83634 0.71182983 0 0 -255.289,-418.1464 l -3.545,0 z"
         style="opacity:1;fill:none;fill-opacity:1;stroke:#000000;stroke-width:0.09;stroke-miterlimit:4;stroke-dasharray:none;stroke-opacity:1" />
      <path
         inkscape:connector-curvature="0"
         id="use5784"
         transform="translate(0,-7587.6379)"
         d="m 963.13281,4699.4883 c 0,0 -110.36333,138.8465 -186.02343,214.3066 -75.66031,75.4602 -274.26758,60.3672 -274.26758,60.3672 -33.5863,-20.9381 -49.87428,12.2559 -60.60938,12.2676 -53.2139,11.9243 -89.57152,26.9513 -112.36914,43.25 l 142.01172,0 0,85.3203 -156.43945,0 c 38.67393,42.3551 138.58677,70.6919 231.13476,46.5176 69.4666,-0.1303 -1.17965,-63.9479 12.71485,-100.7364 86.2533,-11.1439 240.27517,-96.8015 273.42187,-136.4726 56.7451,-67.9141 130.42578,-224.8203 130.42578,-224.8203 z"
         style="opacity:1;fill:none;fill-opacity:1;stroke:#000000;stroke-width:0.09;stroke-miterlimit:4;stroke-dasharray:none;stroke-opacity:1" />
      <path
         inkscape:connector-curvature="0"
         id="use5786"
         transform="translate(0,-7587.6379)"
         d="m 877.88281,3548.6816 c 0,0 -155.44126,235.5107 -250.75,259.8438 -95.3089,24.333 -216.3457,-84.9981 -216.3457,-84.9981 -9.32982,-33.4272 -40.11463,-14.4171 -47.1582,-19.6543 -103.60404,-40.1562 -151.75206,-15.2279 -159.78321,28.9317 l 133.6543,0 0,85.3203 -111.40234,0 c 21.27826,33.4923 55.98354,64.0964 99.84765,79.002 45.61217,33.8452 37.96838,-52.5351 69.36328,-75.6348 63.28764,33.1011 216.13594,38.7824 261.89649,22.75 78.33898,-27.4465 220.67773,-295.5606 220.67773,-295.5606 z"
         style="opacity:1;fill:none;fill-opacity:1;stroke:#000000;stroke-width:0.09;stroke-miterlimit:4;stroke-dasharray:none;stroke-opacity:1" />
      <path
         inkscape:connector-curvature="0"
         id="use5788"
         transform="translate(0,-7587.6379)"
         d="m 801.48047,3881.9395 c 0,0 -93.78911,246.7694 -139.94531,318.3535 -46.1564,71.5841 -164.67188,67.4179 -164.67188,67.4179 -20.4892,-19.8626 -30.42375,11.6257 -36.97266,11.6368 -34.59017,12.053 -57.51818,27.4466 -71.18945,44.082 l 108.17383,0 0,85.3203 -109.43555,0 c 26.36539,35.9363 83.2047,58.1792 136.10157,36.6934 42.378,-0.1236 -0.72044,-60.6638 7.75586,-95.5625 52.6186,-10.5716 146.57968,-91.8277 166.80078,-129.461 34.6172,-64.4257 103.38281,-338.4804 103.38281,-338.4804 z"
         style="opacity:1;fill:none;fill-opacity:1;stroke:#000000;stroke-width:0.09;stroke-miterlimit:4;stroke-dasharray:none;stroke-opacity:1" />
      <path
         inkscape:connector-curvature="0"
         id="use5790"
         transform="translate(0,-7587.6379)"
         d="m 3592.6504,5629.0645 c -47.3046,-0.3862 -91.2595,19.5566 -115.6582,47.4902 l 110.5078,0 0,85.3203 -117.416,0 c 15.5495,21.3414 45.9127,41.3582 95.7519,56.5098 8.143,0.012 20.4982,34.1721 45.9746,12.625 0,0 150.6501,-15.5318 208.0411,62.123 57.3908,77.6548 220.0742,349.0234 220.0742,349.0234 0,10e-5 -134.8572,-289.9544 -177.9004,-359.8437 -25.143,-40.8248 -141.9743,-128.9733 -207.4004,-140.4414 -10.5395,-37.8583 43.0483,-103.5319 -9.6445,-103.666 -17.3638,-6.1533 -35.0696,-8.9997 -52.3301,-9.1406 z"
         style="opacity:1;fill:none;fill-opacity:1;stroke:#000000;stroke-width:0.09;stroke-miterlimit:4;stroke-dasharray:none;stroke-opacity:1" />
      <path
         inkscape:connector-curvature="0"
         id="use5792"
         transform="translate(0,-7587.6379)"
         d="m 730.77148,4336.8145 c 0,0 -50.04329,247.0279 -100.08789,319.6835 -50.0447,72.6556 -181.41211,58.125 -181.41211,58.125 -22.2154,-20.1599 -32.98924,11.7994 -40.08984,11.8106 -22.42184,7.3138 -40.31944,15.839 -54.25976,25.1211 l 73.20312,0 0,85.3203 -109.51367,0 c 18.24701,47.7945 91.89349,83.8767 159.58398,58.1387 45.948,-0.1256 -0.78024,-61.571 8.41016,-96.9922 57.0514,-10.7298 158.92696,-93.2038 180.85156,-131.4004 37.5335,-65.39 63.31445,-329.8066 63.31445,-329.8066 z"
         style="opacity:1;fill:none;fill-opacity:1;stroke:#000000;stroke-width:0.09;stroke-miterlimit:4;stroke-dasharray:none;stroke-opacity:1" />
      <path
         inkscape:connector-curvature="0"
         id="use5794"
         transform="translate(0,-7587.6379)"
         d="m 3477.6465,5028.0664 c -47.5267,-0.1056 -90.3335,15.73 -110.2539,39.1133 l 138.8574,0 0,85.3203 -110.4238,0 c 15.4692,10.371 35.8311,20.632 61.8535,30.4395 8.3187,1.0071 17.5582,30.754 45.7226,16.0644 0,0 155.4626,5.6104 206.4082,76.8223 50.9456,71.2119 83.4297,296.4648 83.4297,296.4648 0,0 -2.2122,-237.2076 -39.2675,-300.2441 -21.6453,-36.8218 -132.2842,-123.9861 -197.9961,-141.4766 -7.0183,-32.5817 54.2406,-80.3 0.416,-86.8633 -25.6974,-10.8182 -52.9182,-15.5832 -78.7461,-15.6406 z"
         style="opacity:1;fill:none;fill-opacity:1;stroke:#000000;stroke-width:0.09;stroke-miterlimit:4;stroke-dasharray:none;stroke-opacity:1" />
      <path
         inkscape:connector-curvature="0"
         id="use5796"
         transform="translate(0,-7587.6379)"
         d="m 2883.9766,5609.9141 c -47.4143,-0.3134 -91.4724,15.8584 -115.9493,38.5156 l 135.0977,0 0,85.3203 -122.666,0 c 17.4089,11.1859 42.4475,21.4462 76.6269,29.8574 8.1663,0.01 20.5561,27.7382 46.1055,10.2461 0,0 151.083,-12.6074 208.6387,50.4336 57.5555,63.0409 115.1113,277.3809 115.1113,277.3809 0,0 -29.6497,-229.4291 -72.8164,-286.166 -25.2151,-33.142 -142.3823,-104.7019 -207.9961,-114.0118 -10.5697,-30.7338 43.1722,-84.0473 -9.6719,-84.1562 -17.4136,-4.9953 -35.1704,-7.3056 -52.4804,-7.4199 z"
         style="opacity:1;fill:none;fill-opacity:1;stroke:#000000;stroke-width:0.09;stroke-miterlimit:4;stroke-dasharray:none;stroke-opacity:1" />
      <path
         inkscape:connector-curvature="0"
         id="use5798"
         transform="translate(0,-7587.6379)"
         d="m 2919.0762,5141.459 c -3.7598,0.025 -8.2129,1.0901 -13.5117,3.3984 -51.1973,3.4902 -94.4077,31.7428 -119.4473,66.0723 l 101.3828,0 0,85.3203 -121.0781,0 c 11.8652,34.3905 54.3403,58.3233 140.1601,48.4922 7.4833,-3.2695 32.8018,23.6027 47.3848,-6.752 0,0 132.0017,-75.1795 216.4727,-25.8984 84.4708,49.2812 245.1777,272.332 245.1777,272.332 0,0 -142.7553,-251.5906 -210.8731,-299.4121 -39.79,-27.9341 -183.1412,-63.0505 -247.9179,-47.3828 -22.4127,-27.6558 -7.1346,-96.3778 -37.75,-96.1699 z"
         style="opacity:1;fill:none;fill-opacity:1;stroke:#000000;stroke-width:0.09;stroke-miterlimit:4;stroke-dasharray:none;stroke-opacity:1" />
      <path
         inkscape:connector-curvature="0"
         id="path4335"
         transform="translate(0,-7587.6379)"
         d="m 2850.0762,3196.2578 a 145.3125,164.0625 0 0 0 -143.8223,165.1738 145.3125,164.0625 0 0 0 103.1211,155.8594 l 0,-192.916 85.3203,0 0,192.4219 a 145.3125,164.0625 0 0 0 102.1797,-156.4844 l -0.014,-2.2363 a 145.3125,164.0625 0 0 0 -146.7851,-161.8184 z"
         style="opacity:1;fill:none;fill-opacity:1;stroke:#000000;stroke-width:0.09;stroke-miterlimit:4;stroke-dasharray:none;stroke-opacity:1" />
      <path
         inkscape:connector-curvature="0"
         id="path4340"
         transform="translate(0,-7587.6379)"
         d="m 2941.5703,3652.127 0,206.623 -85.3203,0 0,-202.3652 a 145.3125,173.4375 0 0 0 -96.8711,164.4843 145.3125,173.4375 0 0 0 145.8047,172.2539 A 145.3125,173.4375 0 0 0 3050,3819.6875 l -0.014,-2.3633 A 145.3125,173.4375 0 0 0 2941.57,3652.127 Z"
         style="opacity:1;fill:none;fill-opacity:1;stroke:#000000;stroke-width:0.09;stroke-miterlimit:4;stroke-dasharray:none;stroke-opacity:1" />
      <path
         inkscape:connector-curvature="0"
         id="path4350"
         transform="translate(0,-7587.6379)"
         d="m 3394.6953,3283.7559 0,371.8691 -85.3203,0 0,-367.9219 a 142.1875,307.8125 0 0 0 -96.8711,293.4571 142.1875,307.8125 0 0 0 142.668,305.7128 142.1875,307.8125 0 0 0 141.7031,-307.8105 l -0.014,-4.1953 a 142.1875,307.8125 0 0 0 -102.166,-291.1113 z"
         style="opacity:1;fill:none;fill-opacity:1;stroke:#000000;stroke-width:0.09;stroke-miterlimit:4;stroke-dasharray:none;stroke-opacity:1" />
      <path
         inkscape:connector-curvature="0"
         id="path4354"
         transform="translate(0,-7587.6379)"
         d="m 2522.8203,3567.5508 0,284.9492 -85.3203,0 0,-281.0215 a 179.6875,257.8125 0 0 0 -131.2461,249.9668 179.6875,257.8125 0 0 0 180.2969,256.0527 179.6875,257.8125 0 0 0 179.0742,-257.8105 l -0.018,-3.5137 a 179.6875,257.8125 0 0 0 -142.7871,-248.623 z"
         style="opacity:1;fill:none;fill-opacity:1;stroke:#000000;stroke-width:0.09;stroke-miterlimit:4;stroke-dasharray:none;stroke-opacity:1" />
    </g>
  </g>
</svg>
