<?xml version="1.0" encoding="UTF-8" standalone="no"?>
<!-- Created with Inkscape (http://www.inkscape.org/) -->

<svg
   xmlns:dc="http://purl.org/dc/elements/1.1/"
   xmlns:cc="http://creativecommons.org/ns#"
   xmlns:rdf="http://www.w3.org/1999/02/22-rdf-syntax-ns#"
   xmlns:svg="http://www.w3.org/2000/svg"
   xmlns="http://www.w3.org/2000/svg"
   xmlns:sodipodi="http://sodipodi.sourceforge.net/DTD/sodipodi-0.dtd"
   xmlns:inkscape="http://www.inkscape.org/namespaces/inkscape"
   width="48in"
   height="96in"
   viewBox="0 0 4320.0001 8640.0003"
   id="svg2"
   version="1.1"
   inkscape:version="0.91 r13725"
   sodipodi:docname="Creaturesheet3finalinverse.svg">
  <defs
     id="defs4" />
  <sodipodi:namedview
     id="base"
     pagecolor="#ffffff"
     bordercolor="#666666"
     borderopacity="1.0"
     inkscape:pageopacity="0.0"
     inkscape:pageshadow="2"
     inkscape:zoom="0.056568545"
     inkscape:cx="-1854.9005"
     inkscape:cy="4647.3786"
     inkscape:document-units="in"
     inkscape:current-layer="layer1"
     showgrid="true"
     units="in"
     inkscape:window-width="1440"
     inkscape:window-height="790"
     inkscape:window-x="6"
     inkscape:window-y="32"
     inkscape:window-maximized="0"
     showguides="true"
     inkscape:guide-bbox="true">
    <inkscape:grid
       type="xygrid"
       id="grid4136"
       units="in"
       spacingx="0.18"
       spacingy="0.018000001"
       empspacing="1"
       color="#fb0000"
       opacity="0.1254902"
       enabled="false" />
  </sodipodi:namedview>
  <metadata
     id="metadata7">
    <rdf:RDF>
      <cc:Work
         rdf:about="">
        <dc:format>image/svg+xml</dc:format>
        <dc:type
           rdf:resource="http://purl.org/dc/dcmitype/StillImage" />
        <dc:title></dc:title>
      </cc:Work>
    </rdf:RDF>
  </metadata>
  <g
     inkscape:label="Layer 1"
     inkscape:groupmode="layer"
     id="layer1"
     transform="translate(0,7587.6379)">
    <text
       xml:space="preserve"
       style="font-style:normal;font-weight:normal;font-size:80px;line-height:125%;font-family:sans-serif;letter-spacing:0px;word-spacing:0px;fill:#000000;fill-opacity:1;stroke:none;stroke-width:1px;stroke-linecap:butt;stroke-linejoin:miter;stroke-opacity:1"
       x="2272"
       y="-3435.6379"
       id="text4630"
       sodipodi:linespacing="125%"><tspan
         sodipodi:role="line"
         id="tspan4632"
         x="2272"
         y="-3435.6379" /></text>
    <path
       style="opacity:1;fill:none;fill-opacity:1;stroke:#000000;stroke-width:0.09;stroke-miterlimit:4;stroke-dasharray:none;stroke-opacity:1"
       d="m 2185.9728,-7391.7336 a 531.35481,476.27572 0 0 1 500.8262,478.1426 531.35481,476.27572 0 0 1 -257.3711,404.1465 c 48.7884,391.1932 602.8043,177.1603 310.0468,487.0703 40.9403,68.4192 78.3408,108.7695 104.8301,178.8652 44.1775,-138.9477 112.868,-270.9718 197.8594,-440.457 l 2.834,-5.6407 c 172.3214,-342.3412 362.4525,-606.3658 449.8477,-624.6855 2.094,-1.2666 4.3877,-1.8894 6.8789,-1.8672 l 0.01,0 c 0.8305,0.017 1.6828,0.084 2.5567,0.2363 1.0188,0.3296 2.0638,0.7479 3.1347,1.254 4.5969,0.3069 8.7521,1.527 12.4532,3.6601 5.1826,3.65 9.3704,9.262 12.5332,16.7969 68.1967,77.8605 185.8237,357.8278 290.9785,692.5625 l 1.9375,6.1855 c 73.1576,233.9576 129.9519,462.1655 154.3633,620.2539 58.9557,8.5859 103.6223,69.7244 104.4199,142.9278 l 0,1.1718 c 1.3612,397.6236 -167.4498,665.645 -381.1992,968.5332 145.9122,-327.629 220.908,-539.8864 163.7285,-888.3671 -4.0265,-7.6774 -7.4593,-15.8076 -10.252,-24.2774 l -0.5507,0 0.5078,-0.123 c -5.6955,-17.1321 -8.6971,-35.4442 -8.8399,-53.959 -0.1508,-29.3599 6.8866,-58.0939 20.1895,-82.4434 -66.574,-133.3643 -147.5805,-345.8646 -220.4336,-578.2539 -63.7758,-203.5568 -117.0318,-316.4235 -145.6953,-470.7226 -43.0103,145.7521 -117.9885,243.4715 -211.0176,428.7109 -93.3826,185.875 -195.9272,356.0258 -285.1289,473.1113 -53.767,70.574 -100.0344,118.3819 -135.5157,140.8301 -3.6473,3.0536 -7.7145,5.3662 -12.1816,6.9238 -17.7615,8.8538 -32.2617,10.2182 -42.9746,3.6641 -4.3388,-2.6549 -8.0012,-6.592 -11.0078,-11.7383 -73.0297,-35.1999 -175.3849,-154.3061 -264.9551,-308.3144 -2.5578,-4.4009 -5.0806,-8.8029 -7.5859,-13.2051 -158.0059,131.6881 -172.3591,-376.0024 -170.6368,-378.2149 -140.9264,-123.6135 -142.1954,100.256 -229.8691,88.4063 -87.9794,-11.8911 -114.0997,-204.416 -219.7481,-83.0801 -60.4547,131.137 0.2648,434.9826 -161.8144,382.002 -0.6568,1.1508 -1.3031,2.3002 -1.9629,3.4511 -88.7945,154.6899 -190.5505,274.5764 -263.4023,310.334 -2.9807,5.1686 -6.6277,9.1343 -10.9532,11.8223 -10.6797,6.6357 -25.1846,5.3819 -42.9902,-3.336 -4.4747,-1.5235 -8.5524,-3.8024 -12.2148,-6.8281 -35.5936,-22.1768 -82.0985,-69.6332 -136.2188,-139.7949 -89.7885,-116.4013 -193.1867,-285.764 -287.50187,-470.9219 -93.9582,-184.5244 -169.4285,-281.6678 -213.17,-427.0879 -27.8879,154.515 -80.5722,267.7862 -143.3242,471.8282 -71.684,232.9416 -151.6207,446.0583 -217.5234,579.9277 13.4251,24.2474 20.6028,52.9231 20.5996,82.2832 -0.05,18.5157 -2.9571,36.8543 -8.5664,54.0293 l 0.5097,0.1191 -0.5527,0 c -2.7502,8.4907 -6.1411,16.6432 -10.1289,24.3516 -55.4271,348.9108 20.6315,560.5957 168.1875,887.1035 -215.2675,-301.2489 -385.4215,-567.9772 -386.0586,-965.6035 l 0,-1.1738 c 0.43,-73.2077 44.7917,-134.6863 103.7031,-143.7227 23.6166,-158.2716 79.2616,-386.9056 151.2422,-621.418 l 1.9063,-6.2011 c 103.4706,-335.531 219.6901,-616.3929 287.4941,-694.7735 3.1252,-7.5583 7.2833,-13.2011 12.4473,-16.8906 3.6902,-2.1611 7.8403,-3.4138 12.4355,-3.7558 1.0685,-0.5142 2.11,-0.9436 3.127,-1.2813 0.8731,-0.1573 1.7262,-0.2399 2.5566,-0.2539 2.4907,-0.045 4.7883,0.5657 6.8887,1.8164 87.4854,17.651 278.93637,280.2166 452.97457,621.2305 l 2.8633,5.6152 c 85.8411,168.8321 155.1949,300.3324 200.0703,438.9395 24.4499,-65.7608 58.5854,-105.6077 96.1211,-166.7344 -328.4705,-336.3323 272.9932,-93.8284 299.3086,-527.6211 a 531.35481,476.27572 0 0 1 -212.8945,-380.6641 l 0.051,-6.4941 a 531.35481,476.27572 0 0 1 476.4981,-466.6465 l 0,368.0664 85.3203,0 0,-369.8203 z"
       id="path4497-90"
       inkscape:connector-curvature="0" />
    <text
       xml:space="preserve"
       style="font-style:normal;font-weight:normal;font-size:80px;line-height:125%;font-family:sans-serif;letter-spacing:0px;word-spacing:0px;fill:none;fill-opacity:1;stroke:#000000;stroke-width:0.09;stroke-linecap:butt;stroke-linejoin:miter;stroke-opacity:1;stroke-miterlimit:4;stroke-dasharray:none"
       x="-2154.2517"
       y="-6786.71"
       id="text4684"
       sodipodi:linespacing="125%"
       transform="scale(-1,1)"><tspan
         sodipodi:role="line"
         id="tspan4686"
         x="-2154.2517"
         y="-6786.71">4</tspan></text>
    <path
       style="opacity:1;fill:none;fill-opacity:1;stroke:#000000;stroke-width:0.09;stroke-miterlimit:4;stroke-dasharray:none;stroke-opacity:1"
       id="path4381-9"
       sodipodi:type="arc"
       sodipodi:cx="-8983.085"
       sodipodi:cy="-8813.1914"
       sodipodi:rx="107.48023"
       sodipodi:ry="118.79394"
       sodipodi:start="0"
       sodipodi:end="6.2695543"
       sodipodi:open="true"
       d="m -8875.6047,-8813.1914 a 107.48023,118.79394 0 0 1 -107.114,118.7932 107.48023,118.79394 0 0 1 -107.844,-117.9836 107.48023,118.79394 0 0 1 106.379,-119.5973 107.48023,118.79394 0 0 1 108.569,117.1685" />
    <path
       style="fill:none;fill-rule:evenodd;stroke:#000000;stroke-width:0.09;stroke-linecap:butt;stroke-linejoin:miter;stroke-opacity:1;stroke-miterlimit:4;stroke-dasharray:none"
       d="m 2630.937,-4560.3725 c 1.6014,-0.011 3.2058,-0.01 4.8105,0 65.6419,0.5738 133.9609,22.2015 199.1895,68.9766 15.5563,8.4853 39.2444,29.6985 66.0261,56.7454 26.7817,27.0468 56.657,59.9273 84.5877,91.7472 27.9307,31.8198 47.144,70.661 72.9204,85.3832 39.9374,22.8103 30.7472,37.9999 31.0243,37.6535 l -84.8535,45.2539 c -57.2406,-34.3442 56.5691,-62.2262 -169.705,-248.9024 -256.0964,-207.7933 -529.3332,42.7598 -509.1172,339.4121 0,79.1959 73.5396,243.2455 141.4218,412.9512 91.1311,229.8333 129.0556,540.1341 22.627,825.9004 -25.0803,72.1058 -90.101,135.4835 -143.1074,177.6972 8.5529,11.9246 13.0908,26.0871 13,40.5723 -0.1348,19.1111 -8.3089,37.3559 -22.6602,50.5781 0.066,-51.9474 -36.1068,-97.5994 -88.5332,-111.7324 11.6012,-6.6767 24.8921,-10.1489 38.4121,-10.0351 17.4499,0.2018 34.2565,6.3638 47.416,17.3847 21.3473,-23.8183 47.0839,-53.9424 76.2813,-90.9258 175.0032,-239.9504 110.5077,-636.6793 1.4512,-909.8769 -59.3852,-161.8711 -123.0257,-323.0914 -137.2149,-391.1992 -23.5679,-282.7997 152.6439,-486.1771 356.0235,-487.5879 z"
       id="path4599"
       inkscape:connector-curvature="0"
       sodipodi:nodetypes="cccsssccccccccccccccccc" />
    <path
       style="opacity:1;fill:none;fill-opacity:1;stroke:#000000;stroke-width:0.09;stroke-miterlimit:4;stroke-dasharray:none;stroke-opacity:1"
       d="m 3186.7033,-4706.3527 c 8.8253,0 15.9297,7.1062 15.9297,15.9316 l 0,2185.625 c 0,8.8254 -7.1044,15.9316 -15.9297,15.9316 l -980.7168,0 c -8.8254,0 -15.9317,-7.1062 -15.9317,-15.9316 l 0,-2185.625 c 0,-8.8254 7.1063,-15.9316 15.9317,-15.9316 l 390.9218,0 c -0.01,0.2342 -0.035,0.4643 -0.035,0.7011 l 0,129.7715 c 0,8.8254 7.1043,15.9317 15.9297,15.9317 l 61.8144,0 c 8.8254,0 15.9297,-7.1063 15.9297,-15.9317 l 0,-129.7715 c 0,-0.2368 -0.025,-0.4669 -0.035,-0.7011 l 496.1914,0 z"
       id="rect4608"
       inkscape:connector-curvature="0" />
    <path
       style="fill:none;fill-rule:evenodd;stroke:#000000;stroke-width:0.09;stroke-linecap:butt;stroke-linejoin:miter;stroke-opacity:1;stroke-miterlimit:4;stroke-dasharray:none"
       d="m 3042.567,-4215.7404 193.9766,391.8394 0,0 0,0"
       id="path4610"
       inkscape:connector-curvature="0" />
    <path
       style="fill:none;fill-rule:evenodd;stroke:#000000;stroke-width:0.09;stroke-linecap:butt;stroke-linejoin:miter;stroke-opacity:1;stroke-miterlimit:4;stroke-dasharray:none"
       d="m 2320.1634,-2658.5708 -209.3036,203.6467"
       id="path4612"
       inkscape:connector-curvature="0" />
    <path
       style="opacity:1;fill:none;fill-opacity:1;stroke:#000000;stroke-width:0.09;stroke-miterlimit:4;stroke-dasharray:none;stroke-opacity:1"
       id="path4614"
       sodipodi:type="arc"
       sodipodi:cx="-3146.1733"
       sodipodi:cy="-4614.7334"
       sodipodi:rx="11.594555"
       sodipodi:ry="11.233482"
       sodipodi:start="0"
       sodipodi:end="6.2695543"
       sodipodi:open="true"
       d="m -3134.5788,-4614.7334 a 11.594555,11.233482 0 0 1 -11.555,11.2334 11.594555,11.233482 0 0 1 -11.6338,-11.1568 11.594555,11.233482 0 0 1 11.4757,-11.3095 11.594555,11.233482 0 0 1 11.712,11.0798"
       transform="scale(-1,1)" />
    <path
       style="opacity:1;fill:none;fill-opacity:1;stroke:#000000;stroke-width:0.09;stroke-miterlimit:4;stroke-dasharray:none;stroke-opacity:1"
       id="path4614-3"
       sodipodi:type="arc"
       sodipodi:cx="-2311.7871"
       sodipodi:cy="-4601.5913"
       sodipodi:rx="11.233748"
       sodipodi:ry="11.233741"
       sodipodi:start="0"
       sodipodi:end="6.2695543"
       sodipodi:open="true"
       d="m -2300.5534,-4601.5913 a 11.233748,11.233741 0 0 1 -11.1954,11.2337 11.233748,11.233741 0 0 1 -11.2718,-11.1571 11.233748,11.233741 0 0 1 11.1186,-11.3098 11.233748,11.233741 0 0 1 11.3476,11.0801"
       transform="scale(-1,1)" />
    <path
       style="opacity:1;fill:none;fill-opacity:1;stroke:#000000;stroke-width:0.09;stroke-miterlimit:4;stroke-dasharray:none;stroke-opacity:1"
       id="path4614-9"
       sodipodi:type="arc"
       sodipodi:cx="-3144.3447"
       sodipodi:cy="-2547.7927"
       sodipodi:rx="11.233747"
       sodipodi:ry="11.233745"
       sodipodi:start="0"
       sodipodi:end="6.2695543"
       sodipodi:open="true"
       d="m -3133.111,-2547.7927 a 11.233747,11.233745 0 0 1 -11.1954,11.2337 11.233747,11.233745 0 0 1 -11.2718,-11.1572 11.233747,11.233745 0 0 1 11.1186,-11.3097 11.233747,11.233745 0 0 1 11.3476,11.0801"
       transform="scale(-1,1)" />
    <path
       style="opacity:1;fill:none;fill-opacity:1;stroke:#000000;stroke-width:0.09;stroke-miterlimit:4;stroke-dasharray:none;stroke-opacity:1"
       id="path4614-9-5"
       sodipodi:type="arc"
       sodipodi:cx="-2317.4438"
       sodipodi:cy="-2859.2805"
       sodipodi:rx="11.233748"
       sodipodi:ry="11.233741"
       sodipodi:start="0"
       sodipodi:end="6.2695543"
       sodipodi:open="true"
       d="m -2306.2101,-2859.2805 a 11.233748,11.233741 0 0 1 -11.1955,11.2337 11.233748,11.233741 0 0 1 -11.2717,-11.1572 11.233748,11.233741 0 0 1 11.1186,-11.3097 11.233748,11.233741 0 0 1 11.3476,11.0801"
       transform="scale(-1,1)" />
    <path
       d="m -2734.0226,-3866.8977 a 11.233748,11.233741 0 0 1 -11.1955,11.2337 11.233748,11.233741 0 0 1 -11.2717,-11.1571 11.233748,11.233741 0 0 1 11.1186,-11.3098 11.233748,11.233741 0 0 1 11.3476,11.0801"
       sodipodi:open="true"
       sodipodi:end="6.2695543"
       sodipodi:start="0"
       sodipodi:ry="11.233741"
       sodipodi:rx="11.233748"
       sodipodi:cy="-3866.8977"
       sodipodi:cx="-2745.2563"
       sodipodi:type="arc"
       id="path4661"
       style="opacity:1;fill:none;fill-opacity:1;stroke:#000000;stroke-width:0.09;stroke-miterlimit:4;stroke-dasharray:none;stroke-opacity:1"
       transform="scale(-1,1)" />
    <path
       style="opacity:1;fill:none;fill-opacity:1;stroke:#000000;stroke-width:0.09;stroke-miterlimit:4;stroke-dasharray:none;stroke-opacity:1"
       id="path4663"
       sodipodi:type="arc"
       sodipodi:cx="-2748.9297"
       sodipodi:cy="-3181.7957"
       sodipodi:rx="11.233748"
       sodipodi:ry="11.233741"
       sodipodi:start="0"
       sodipodi:end="6.2695543"
       sodipodi:open="true"
       d="m -2737.6959,-3181.7957 a 11.233748,11.233741 0 0 1 -11.1955,11.2337 11.233748,11.233741 0 0 1 -11.2718,-11.1571 11.233748,11.233741 0 0 1 11.1187,-11.3097 11.233748,11.233741 0 0 1 11.3475,11.08"
       transform="scale(-1,1)" />
    <path
       d="m -2655.1911,-4418.2026 a 11.594555,11.233482 0 0 1 -11.555,11.2334 11.594555,11.233482 0 0 1 -11.6338,-11.1569 11.594555,11.233482 0 0 1 11.4757,-11.3094 11.594555,11.233482 0 0 1 11.712,11.0797"
       sodipodi:open="true"
       sodipodi:end="6.2695543"
       sodipodi:start="0"
       sodipodi:ry="11.233482"
       sodipodi:rx="11.594555"
       sodipodi:cy="-4418.2026"
       sodipodi:cx="-2666.7856"
       sodipodi:type="arc"
       id="path4667"
       style="opacity:1;fill:none;fill-opacity:1;stroke:#000000;stroke-width:0.09;stroke-miterlimit:4;stroke-dasharray:none;stroke-opacity:1"
       transform="scale(-1,1)" />
    <path
       style="opacity:1;fill:none;fill-opacity:1;stroke:#000000;stroke-width:0.09;stroke-miterlimit:4;stroke-dasharray:none;stroke-opacity:1"
       d="m 822.53923,-3057.6887 a 217.67468,217.67468 0 0 1 176.7207,215.1582 217.67468,217.67468 0 0 1 -218.4121,216.1895 217.67468,217.67468 0 0 1 -216.9316,-217.6739 l 0.0195,-2.9668 a 217.67468,217.67468 0 0 1 173.2832,-209.9921 l 0,278.0859 85.3203,0 0,-278.8008 z"
       id="path6135"
       inkscape:connector-curvature="0" />
    <path
       style="opacity:1;fill:none;fill-opacity:1;stroke:#000000;stroke-width:0.09;stroke-miterlimit:4;stroke-dasharray:none;stroke-opacity:1"
       d="m 1887.0704,-3468.0012 a 253.9538,253.9538 0 0 1 251.3536,255.6699 253.9538,253.9538 0 0 1 -206.5098,247.6524 l 0,-279.834 -106.25,0 0,277.1973 a 253.9538,253.9538 0 0 1 -195.1426,-246.7461 l 0.024,-3.461 a 253.9538,253.9538 0 0 1 256.5253,-250.4785 z"
       id="path6137"
       inkscape:connector-curvature="0" />
    <path
       style="opacity:1;fill:none;fill-opacity:1;stroke:#000000;stroke-width:0.09;stroke-miterlimit:4;stroke-dasharray:none;stroke-opacity:1"
       d="m 1414.4787,-3526.0539 a 159.6281,159.6281 0 0 1 157.9921,160.707 159.6281,159.6281 0 0 1 -131.1816,155.8711 l 0,-160.0371 -85.3203,0 0,152.1797 a 159.6281,159.6281 0 0 1 -102.75,-149.1016 l 0.016,-2.1758 a 159.6281,159.6281 0 0 1 161.2442,-157.4433 z"
       id="path6141"
       inkscape:connector-curvature="0" />
    <path
       style="opacity:1;fill:none;fill-opacity:1;stroke:#000000;stroke-width:0.09;stroke-miterlimit:4;stroke-dasharray:none;stroke-opacity:1"
       d="m 943.14663,-3547.8195 a 188.65138,188.65138 0 0 1 186.71877,189.9277 188.65138,188.65138 0 0 1 -144.82617,181.9766 l 0,-187.3477 -85.3203,0 0,187.873 a 188.65138,188.65138 0 0 1 -147.1524,-183.789 l 0.0176,-2.5703 a 188.65138,188.65138 0 0 1 190.5625,-186.0703 z"
       id="path6147"
       inkscape:connector-curvature="0" />
    <path
       style="opacity:1;fill:none;fill-opacity:1;stroke:#000000;stroke-width:0.09;stroke-miterlimit:4;stroke-dasharray:none;stroke-opacity:1"
       d="m 1515.6896,-3090.7063 a 123.34898,123.34898 0 0 1 122.084,124.1836 123.34898,123.34898 0 0 1 -77.7344,113.668 l 0,-144.7832 -85.3203,0 0,146.8984 a 123.34898,123.34898 0 0 1 -83.6406,-116.625 l 0.012,-1.6796 a 123.34898,123.34898 0 0 1 124.5996,-121.6622 z"
       id="path6149"
       inkscape:connector-curvature="0" />
    <path
       style="opacity:1;fill:none;fill-opacity:1;stroke:#000000;stroke-width:0.09;stroke-miterlimit:4;stroke-dasharray:none;stroke-opacity:1"
       d="m 1160.3771,-3134.2395 a 145.11646,145.11646 0 0 1 143.6289,146.0977 145.11646,145.11646 0 0 1 -106.4668,138.7383 l 0,-173.2344 -85.3203,0 0,170.7266 a 145.11646,145.11646 0 0 1 -98.4414,-137.2188 l 0.012,-1.9785 a 145.11646,145.11646 0 0 1 146.5879,-143.1309 z"
       id="path6151"
       inkscape:connector-curvature="0" />
    <path
       style="opacity:1;fill:none;fill-opacity:1;stroke:#000000;stroke-width:0.09;stroke-miterlimit:4;stroke-dasharray:none;stroke-opacity:1"
       d="m 550.73843,-3671.1633 a 130.60481,290.23291 0 0 1 129.2676,292.1953 130.60481,290.23291 0 0 1 -88.7168,272.6016 l 0,-294.3965 -85.3203,0 0,293.1992 a 130.60481,290.23291 0 0 1 -87.1699,-273.3828 l 0.0117,-3.9551 a 130.60481,290.23291 0 0 1 131.9277,-286.2617 z"
       id="path6153"
       inkscape:connector-curvature="0" />
    <path
       style="opacity:1;fill:none;fill-opacity:1;stroke:#000000;stroke-width:0.09;stroke-miterlimit:4;stroke-dasharray:none;stroke-opacity:1"
       d="m 456.78533,-4389.4875 a 166.88391,319.2562 0 0 1 165.1738,321.4141 166.88391,319.2562 0 0 1 -130.6699,309.1914 l 0,-279.3809 -78.125,0 0,276.8066 a 166.88391,319.2562 0 0 1 -124.9707,-308.7929 l 0.0156,-4.3516 a 166.88391,319.2562 0 0 1 168.5762,-314.8867 z"
       id="path6157"
       inkscape:connector-curvature="0" />
    <path
       style="opacity:1;fill:none;fill-opacity:1;stroke:#000000;stroke-width:0.09;stroke-miterlimit:4;stroke-dasharray:none;stroke-opacity:1"
       d="m 1863.6017,-4404.6438 a 74.394302,133.39667 0 0 1 73.6328,134.2989 74.394302,133.39667 0 0 1 -33.4453,110.3711 l 0,-131.4141 -85.3203,0 0,127.0254 a 74.394302,133.39667 0 0 1 -30.0215,-106.8906 l 0.01,-1.8184 a 74.394302,133.39667 0 0 1 75.1484,-131.5723 z"
       id="path6193"
       inkscape:connector-curvature="0" />
    <path
       style="opacity:1;fill:none;fill-opacity:1;stroke:#000000;stroke-width:0.09;stroke-miterlimit:4;stroke-dasharray:none;stroke-opacity:1"
       d="m 2725.258,-2291.8 a 416.83634,260.17133 89.28817 0 1 261.5312,418.3105 416.83634,260.17133 89.28817 0 1 -159.8125,384.6739 l 2.1016,179.4043 c 0.5622,47.9968 -30.7483,89.0068 -75.2891,104.9023 l 0,-677.5039 -85.3203,0 0,676.3438 c -41.9794,-16.3276 -71.6234,-55.2858 -72.1621,-101.2754 l -2.4903,-212.5743 A 416.83634,260.17133 89.28817 0 1 2466.424,-1873.6555 416.83634,260.17133 89.28817 0 1 2721.713,-2291.8 l 3.545,0 z"
       id="path4920"
       inkscape:connector-curvature="0" />
    <path
       style="opacity:1;fill:none;fill-opacity:1;stroke:#000000;stroke-width:0.09;stroke-miterlimit:4;stroke-dasharray:none;stroke-opacity:1"
       d="m 2100.6037,-2287.382 a 416.83634,260.17133 89.28817 0 1 261.5312,418.3125 416.83634,260.17133 89.28817 0 1 -159.8125,384.6738 l 2.1016,179.4043 c 0.5767,49.2337 -32.3844,91.1112 -78.7598,106.0762 l 0,-561.2227 -85.3203,0 0,557.4668 c -40.1323,-17.0854 -68.1677,-55.1429 -68.6914,-99.8535 l -2.4903,-212.5762 a 416.83634,260.17133 89.28817 0 1 -127.3925,-354.1348 416.83634,260.17133 89.28817 0 1 255.289,-418.1464 l 3.545,0 z"
       id="path5758"
       inkscape:connector-curvature="0" />
    <path
       style="opacity:1;fill:none;fill-opacity:1;stroke:#000000;stroke-width:0.09;stroke-miterlimit:4;stroke-dasharray:none;stroke-opacity:1"
       d="m 3337.5314,-2888.1496 c 0,0 110.3633,138.8465 186.0234,214.3066 75.6604,75.4602 274.2676,60.3672 274.2676,60.3672 33.5863,-20.9381 49.8743,12.2559 60.6094,12.2676 53.2139,11.9243 89.5715,26.9513 112.3691,43.25 l -142.0117,0 0,85.3203 156.4395,0 c -38.674,42.3551 -138.5868,70.6919 -231.1348,46.5176 -69.4666,-0.1303 1.1797,-63.9479 -12.7148,-100.7364 -86.2533,-11.1439 -240.2752,-96.8015 -273.4219,-136.4726 -56.7451,-67.9141 -130.4258,-224.8203 -130.4258,-224.8203 z"
       id="use5784"
       inkscape:connector-curvature="0" />
    <path
       style="opacity:1;fill:none;fill-opacity:1;stroke:#000000;stroke-width:0.09;stroke-miterlimit:4;stroke-dasharray:none;stroke-opacity:1"
       d="m 3422.7814,-4038.9563 c 0,0 155.4413,235.5107 250.75,259.8438 95.3089,24.333 216.3457,-84.9981 216.3457,-84.9981 9.3298,-33.4272 40.1146,-14.4171 47.1582,-19.6543 103.6041,-40.1562 151.7521,-15.2279 159.7832,28.9317 l -133.6543,0 0,85.3203 111.4024,0 c -21.2783,33.4923 -55.9836,64.0964 -99.8477,79.002 -45.6122,33.8452 -37.9684,-52.5351 -69.3633,-75.6348 -63.2876,33.1011 -216.1359,38.7824 -261.8965,22.75 -78.3389,-27.4465 -220.6777,-295.5606 -220.6777,-295.5606 z"
       id="use5786"
       inkscape:connector-curvature="0" />
    <path
       style="opacity:1;fill:none;fill-opacity:1;stroke:#000000;stroke-width:0.09;stroke-miterlimit:4;stroke-dasharray:none;stroke-opacity:1"
       d="m 3499.1838,-3705.6984 c 0,0 93.7891,246.7694 139.9453,318.3535 46.1564,71.5841 164.6718,67.4179 164.6718,67.4179 20.4892,-19.8626 30.4238,11.6257 36.9727,11.6368 34.5902,12.053 57.5182,27.4466 71.1895,44.082 l -108.1739,0 0,85.3203 109.4356,0 c -26.3654,35.9363 -83.2047,58.1792 -136.1016,36.6934 -42.378,-0.1236 0.7204,-60.6638 -7.7559,-95.5625 -52.6186,-10.5716 -146.5796,-91.8277 -166.8007,-129.461 -34.6172,-64.4257 -103.3828,-338.4804 -103.3828,-338.4804 z"
       id="use5788"
       inkscape:connector-curvature="0" />
    <path
       style="opacity:1;fill:none;fill-opacity:1;stroke:#000000;stroke-width:0.09;stroke-miterlimit:4;stroke-dasharray:none;stroke-opacity:1"
       d="m 708.01383,-1958.5734 c 47.3046,-0.3862 91.2595,19.5566 115.6582,47.4902 l -110.5078,0 0,85.3203 117.416,0 c -15.5495,21.3414 -45.9127,41.3582 -95.7519,56.5098 -8.143,0.012 -20.4982,34.1721 -45.9746,12.625 0,0 -150.6501,-15.5318 -208.0411,62.123 -57.3908,77.6548 -220.0742,349.0234 -220.0742,349.0234 0,10e-5 134.8572,-289.9544 177.9004,-359.8437 25.143,-40.8248 141.9743,-128.9733 207.4004,-140.4414 10.5395,-37.8583 -43.0483,-103.5319 9.6445,-103.666 17.3638,-6.1533 35.0696,-8.9997 52.3301,-9.1406 z"
       id="use5790"
       inkscape:connector-curvature="0" />
    <path
       style="opacity:1;fill:none;fill-opacity:1;stroke:#000000;stroke-width:0.09;stroke-miterlimit:4;stroke-dasharray:none;stroke-opacity:1"
       d="m 3569.8927,-3250.8234 c 0,0 50.0433,247.0279 100.0879,319.6835 50.0447,72.6556 181.4121,58.125 181.4121,58.125 22.2154,-20.1599 32.9893,11.7994 40.0899,11.8106 22.4218,7.3138 40.3194,15.839 54.2597,25.1211 l -73.2031,0 0,85.3203 109.5137,0 c -18.247,47.7945 -91.8935,83.8767 -159.584,58.1387 -45.948,-0.1256 0.7803,-61.571 -8.4101,-96.9922 -57.0514,-10.7298 -158.927,-93.2038 -180.8516,-131.4004 -37.5335,-65.39 -63.3145,-329.8066 -63.3145,-329.8066 z"
       id="use5792"
       inkscape:connector-curvature="0" />
    <path
       style="opacity:1;fill:none;fill-opacity:1;stroke:#000000;stroke-width:0.09;stroke-miterlimit:4;stroke-dasharray:none;stroke-opacity:1"
       d="m 823.01773,-2559.5715 c 47.5267,-0.1056 90.3335,15.73 110.2539,39.1133 l -138.8574,0 0,85.3203 110.4238,0 c -15.4692,10.371 -35.8311,20.632 -61.8535,30.4395 -8.3187,1.0071 -17.5582,30.754 -45.7226,16.0644 0,0 -155.4626,5.6104 -206.4082,76.8223 -50.9456,71.2119 -83.4297,296.4648 -83.4297,296.4648 0,0 2.2122,-237.2076 39.2675,-300.2441 21.6453,-36.8218 132.2842,-123.9861 197.9961,-141.4766 7.0183,-32.5817 -54.2406,-80.3 -0.416,-86.8633 25.6974,-10.8182 52.9182,-15.5832 78.7461,-15.6406 z"
       id="use5794"
       inkscape:connector-curvature="0" />
    <path
       style="opacity:1;fill:none;fill-opacity:1;stroke:#000000;stroke-width:0.09;stroke-miterlimit:4;stroke-dasharray:none;stroke-opacity:1"
       d="m 1416.6876,-1977.7238 c 47.4143,-0.3134 91.4724,15.8584 115.9493,38.5156 l -135.0977,0 0,85.3203 122.666,0 c -17.4089,11.1859 -42.4475,21.4462 -76.6269,29.8574 -8.1663,0.01 -20.5561,27.7382 -46.1055,10.2461 0,0 -151.083,-12.6074 -208.6387,50.4336 -57.5555,63.0409 -115.1113,277.3809 -115.1113,277.3809 0,0 29.6497,-229.4291 72.8164,-286.166 25.2151,-33.142 142.3823,-104.7019 207.9961,-114.0118 10.5697,-30.7338 -43.1722,-84.0473 9.6719,-84.1562 17.4136,-4.9953 35.1704,-7.3056 52.4804,-7.4199 z"
       id="use5796"
       inkscape:connector-curvature="0" />
    <path
       style="opacity:1;fill:none;fill-opacity:1;stroke:#000000;stroke-width:0.09;stroke-miterlimit:4;stroke-dasharray:none;stroke-opacity:1"
       d="m 1381.588,-2446.1789 c 3.7598,0.025 8.2129,1.0901 13.5117,3.3984 51.1973,3.4902 94.4077,31.7428 119.4473,66.0723 l -101.3828,0 0,85.3203 121.0781,0 c -11.8652,34.3905 -54.3403,58.3233 -140.1601,48.4922 -7.4833,-3.2695 -32.8018,23.6027 -47.3848,-6.752 0,0 -132.0017,-75.1795 -216.4727,-25.8984 -84.4708,49.2812 -245.17767,272.332 -245.17767,272.332 0,0 142.75527,-251.5906 210.87307,-299.4121 39.79,-27.9341 183.1412,-63.0505 247.9179,-47.3828 22.4127,-27.6558 7.1346,-96.3778 37.75,-96.1699 z"
       id="use5798"
       inkscape:connector-curvature="0" />
    <path
       style="opacity:1;fill:none;fill-opacity:1;stroke:#000000;stroke-width:0.09;stroke-miterlimit:4;stroke-dasharray:none;stroke-opacity:1"
       d="m 1450.588,-4391.3801 a 145.3125,164.0625 0 0 1 143.8223,165.1738 145.3125,164.0625 0 0 1 -103.1211,155.8594 l 0,-192.916 -85.3203,0 0,192.4219 a 145.3125,164.0625 0 0 1 -102.1797,-156.4844 l 0.014,-2.2363 a 145.3125,164.0625 0 0 1 146.7851,-161.8184 z"
       id="path4335"
       inkscape:connector-curvature="0" />
    <path
       style="opacity:1;fill:none;fill-opacity:1;stroke:#000000;stroke-width:0.09;stroke-miterlimit:4;stroke-dasharray:none;stroke-opacity:1"
       d="m 1359.0939,-3935.5109 0,206.623 85.3203,0 0,-202.3652 a 145.3125,173.4375 0 0 1 96.8711,164.4843 145.3125,173.4375 0 0 1 -145.8047,172.2539 145.3125,173.4375 0 0 1 -144.8164,-173.4355 l 0.014,-2.3633 a 145.3125,173.4375 0 0 1 108.416,-165.1972 z"
       id="path4340"
       inkscape:connector-curvature="0" />
    <path
       style="opacity:1;fill:none;fill-opacity:1;stroke:#000000;stroke-width:0.09;stroke-miterlimit:4;stroke-dasharray:none;stroke-opacity:1"
       d="m 905.96893,-4303.882 0,371.8691 85.3203,0 0,-367.9219 a 142.1875,307.8125 0 0 1 96.87107,293.4571 142.1875,307.8125 0 0 1 -142.66797,305.7128 142.1875,307.8125 0 0 1 -141.7031,-307.8105 l 0.0137,-4.1953 a 142.1875,307.8125 0 0 1 102.166,-291.1113 z"
       id="path4350"
       inkscape:connector-curvature="0" />
    <path
       style="opacity:1;fill:none;fill-opacity:1;stroke:#000000;stroke-width:0.09;stroke-miterlimit:4;stroke-dasharray:none;stroke-opacity:1"
       d="m 1777.8439,-4020.0871 0,284.9492 85.3203,0 0,-281.0215 a 179.6875,257.8125 0 0 1 131.2461,249.9668 179.6875,257.8125 0 0 1 -180.2969,256.0527 179.6875,257.8125 0 0 1 -179.0742,-257.8105 l 0.018,-3.5137 a 179.6875,257.8125 0 0 1 142.7871,-248.623 z"
       id="path4354"
       inkscape:connector-curvature="0" />
  </g>
</svg>
