<?xml version="1.0" encoding="UTF-8" standalone="no"?>
<!-- Created with Inkscape (http://www.inkscape.org/) -->

<svg
   xmlns:dc="http://purl.org/dc/elements/1.1/"
   xmlns:cc="http://creativecommons.org/ns#"
   xmlns:rdf="http://www.w3.org/1999/02/22-rdf-syntax-ns#"
   xmlns:svg="http://www.w3.org/2000/svg"
   xmlns="http://www.w3.org/2000/svg"
   xmlns:sodipodi="http://sodipodi.sourceforge.net/DTD/sodipodi-0.dtd"
   xmlns:inkscape="http://www.inkscape.org/namespaces/inkscape"
   width="30in"
   height="20in"
   viewBox="0 0 2700.0001 1800.0001"
   id="svg2"
   version="1.1"
   inkscape:version="0.91 r13725"
   sodipodi:docname="Creaturemoldsburlappart1.svg">
  <defs
     id="defs4" />
  <sodipodi:namedview
     id="base"
     pagecolor="#ffffff"
     bordercolor="#666666"
     borderopacity="1.0"
     inkscape:pageopacity="0.0"
     inkscape:pageshadow="2"
     inkscape:zoom="0.125"
     inkscape:cx="2814.7066"
     inkscape:cy="1100.1338"
     inkscape:document-units="in"
     inkscape:current-layer="layer1"
     showgrid="true"
     units="in"
     inkscape:window-width="1440"
     inkscape:window-height="791"
     inkscape:window-x="88"
     inkscape:window-y="0"
     inkscape:window-maximized="0"
     showguides="true"
     inkscape:guide-bbox="true">
    <inkscape:grid
       type="xygrid"
       id="grid4136"
       units="in"
       spacingx="0.18"
       spacingy="0.018000001"
       empspacing="1"
       color="#fb0000"
       opacity="0.1254902"
       enabled="false" />
    <sodipodi:guide
       position="1808,-1400"
       orientation="0,1"
       id="guide4245" />
  </sodipodi:namedview>
  <metadata
     id="metadata7">
    <rdf:RDF>
      <cc:Work
         rdf:about="">
        <dc:format>image/svg+xml</dc:format>
        <dc:type
           rdf:resource="http://purl.org/dc/dcmitype/StillImage" />
        <dc:title></dc:title>
      </cc:Work>
    </rdf:RDF>
  </metadata>
  <g
     inkscape:label="Layer 1"
     inkscape:groupmode="layer"
     id="layer1"
     transform="translate(0,747.6379)">
    <text
       xml:space="preserve"
       style="font-style:normal;font-weight:normal;font-size:80px;line-height:125%;font-family:sans-serif;letter-spacing:0px;word-spacing:0px;fill:#000000;fill-opacity:1;stroke:none;stroke-width:1px;stroke-linecap:butt;stroke-linejoin:miter;stroke-opacity:1"
       x="6502.4346"
       y="-1015.5201"
       id="text4208"
       sodipodi:linespacing="125%"><tspan
         sodipodi:role="line"
         id="tspan4210"
         x="6502.4346"
         y="-1015.5201">1</tspan></text>
    <text
       xml:space="preserve"
       style="font-style:normal;font-weight:normal;font-size:80px;line-height:125%;font-family:sans-serif;letter-spacing:0px;word-spacing:0px;fill:#000000;fill-opacity:1;stroke:none;stroke-width:1px;stroke-linecap:butt;stroke-linejoin:miter;stroke-opacity:1"
       x="12068.898"
       y="215.14763"
       id="text4285"
       sodipodi:linespacing="125%"><tspan
         sodipodi:role="line"
         id="tspan4287"
         x="12068.898"
         y="215.14763">2</tspan></text>
    <text
       xml:space="preserve"
       style="font-style:normal;font-weight:normal;font-size:80px;line-height:125%;font-family:sans-serif;letter-spacing:0px;word-spacing:0px;fill:#000000;fill-opacity:1;stroke:none;stroke-width:1px;stroke-linecap:butt;stroke-linejoin:miter;stroke-opacity:1"
       x="7257.7437"
       y="11.501051"
       id="text4289"
       sodipodi:linespacing="125%"><tspan
         sodipodi:role="line"
         id="tspan4291"
         x="7257.7437"
         y="11.501051">1</tspan></text>
    <text
       xml:space="preserve"
       style="font-style:normal;font-weight:normal;font-size:80px;line-height:125%;font-family:sans-serif;letter-spacing:0px;word-spacing:0px;fill:#000000;fill-opacity:1;stroke:none;stroke-width:1px;stroke-linecap:butt;stroke-linejoin:miter;stroke-opacity:1"
       x="2272"
       y="-3435.6379"
       id="text4630"
       sodipodi:linespacing="125%"><tspan
         sodipodi:role="line"
         id="tspan4632"
         x="2272"
         y="-3435.6379" /></text>
    <path
       style="opacity:1;fill:none;fill-opacity:1;stroke:#000000;stroke-width:0.09;stroke-miterlimit:4;stroke-dasharray:none;stroke-opacity:1"
       id="path4381-9"
       sodipodi:type="arc"
       sodipodi:cx="-8983.085"
       sodipodi:cy="-8813.1914"
       sodipodi:rx="107.48023"
       sodipodi:ry="118.79394"
       sodipodi:start="0"
       sodipodi:end="6.2695543"
       sodipodi:open="true"
       d="m -8875.6047,-8813.1914 a 107.48023,118.79394 0 0 1 -107.114,118.7932 107.48023,118.79394 0 0 1 -107.844,-117.9836 107.48023,118.79394 0 0 1 106.379,-119.5973 107.48023,118.79394 0 0 1 108.569,117.1685" />
    <path
       sodipodi:nodetypes="ccsssccssc"
       inkscape:connector-curvature="0"
       id="path4563"
       d="m 284.81601,236.4218 169.7056,735.391 c 0.8428,-6.219 228.4975,-185.44379 299.8133,-217.78879 89.8307,-40.74231 153.1289,-63.68131 216.3747,-50.91171 79.62349,16.0764 165.90809,75.27631 193.74719,106.06601 28.8467,31.9041 32.5269,32.5269 32.5269,32.5269 L 1225.268,563.1051 c 0,0 -294.02649,18.1728 -497.80319,-41.0122 -76.455,-22.2056 -227.691,-127.2765 -302.6417,-181.0193 -74.9511,-53.7431 -140.0071,-104.6518 -140.0071,-104.6518 z"
       style="fill:none;fill-rule:evenodd;stroke:#000000;stroke-width:0.09;stroke-linecap:butt;stroke-linejoin:miter;stroke-opacity:1;stroke-miterlimit:4;stroke-dasharray:none" />
    <path
       inkscape:connector-curvature="0"
       id="path4565"
       d="m 3795.5255,-981.68604 830.1433,871.1556 c 0,0 137.8483,-160.9894 211.8483,-218.9894 74,-58 180,-126 180,-126 l -182,-767.99996 c 0,0 -244,132 -440,156 -195.9999,24 -599.9916,85.83376 -599.9916,85.83376 z"
       style="fill:none;fill-rule:evenodd;stroke:#000000;stroke-width:1px;stroke-linecap:butt;stroke-linejoin:miter;stroke-opacity:1" />
    <path
       inkscape:connector-curvature="0"
       id="path4567"
       d="m 1731.0765,-642.98987 842,879.99996 c 0,0 -128,206 -152,358 -24,152 -16,284 -16,284 l -992,16 c 0,0 228,-196 300,-560 72,-363.999999 18,-977.99996 18,-977.99996 z"
       style="fill:none;fill-rule:evenodd;stroke:#000000;stroke-width:0.09;stroke-linecap:butt;stroke-linejoin:miter;stroke-opacity:1;stroke-miterlimit:4;stroke-dasharray:none" />
    <path
       sodipodi:nodetypes="ccscccsc"
       inkscape:connector-curvature="0"
       id="path4569"
       d="m 191.63492,-472.30379 1021.64638,-9.3483 c 0,0 32.4843,226.2513 152,452.000004 13.0502,24.6498995 29.0331,54.7745 29.2981,55.7625 l 64.0555,60.5858 -726.99998,293.000036 c 0,0 48,-104 -116,-320.000036 -164,-216.000004 -424,-532.000004 -424,-532.000004 z"
       style="fill:none;fill-rule:evenodd;stroke:#000000;stroke-width:0.09;stroke-linecap:butt;stroke-linejoin:miter;stroke-opacity:1;stroke-miterlimit:4;stroke-dasharray:none" />
    <path
       sodipodi:nodetypes="cscscc"
       inkscape:connector-curvature="0"
       id="path4571"
       d="m 3654.7333,1452.1471 c 0,0 392.0001,-84 884,164 492,248 533,296 533,296 11.6799,-1.6686 -340.4475,-439.7052 -460.8634,-566.7656 -64.1463,-67.6859 -195.6661,-204.8183 -197.333,-204.8183 z"
       style="fill:none;fill-rule:evenodd;stroke:#000000;stroke-width:1px;stroke-linecap:butt;stroke-linejoin:miter;stroke-opacity:1" />
  </g>
</svg>
