<?xml version="1.0" encoding="UTF-8" standalone="no"?>
<!-- Created with Inkscape (http://www.inkscape.org/) -->

<svg
   xmlns:dc="http://purl.org/dc/elements/1.1/"
   xmlns:cc="http://creativecommons.org/ns#"
   xmlns:rdf="http://www.w3.org/1999/02/22-rdf-syntax-ns#"
   xmlns:svg="http://www.w3.org/2000/svg"
   xmlns="http://www.w3.org/2000/svg"
   xmlns:sodipodi="http://sodipodi.sourceforge.net/DTD/sodipodi-0.dtd"
   xmlns:inkscape="http://www.inkscape.org/namespaces/inkscape"
   width="96in"
   height="48in"
   viewBox="0 0 8640.0002 4320.0001"
   id="svg2"
   version="1.1"
   inkscape:version="0.91 r13725"
   sodipodi:docname="Creaturemolds1.svg">
  <defs
     id="defs4" />
  <sodipodi:namedview
     id="base"
     pagecolor="#ffffff"
     bordercolor="#666666"
     borderopacity="1.0"
     inkscape:pageopacity="0.0"
     inkscape:pageshadow="2"
     inkscape:zoom="0.125"
     inkscape:cx="5149.4304"
     inkscape:cy="2380.8737"
     inkscape:document-units="in"
     inkscape:current-layer="layer1"
     showgrid="true"
     units="in"
     inkscape:window-width="1440"
     inkscape:window-height="791"
     inkscape:window-x="10"
     inkscape:window-y="9"
     inkscape:window-maximized="0"
     showguides="true"
     inkscape:guide-bbox="true">
    <inkscape:grid
       type="xygrid"
       id="grid4136"
       units="in"
       spacingx="0.18"
       spacingy="0.018000001"
       empspacing="1"
       color="#fb0000"
       opacity="0.1254902"
       enabled="false" />
    <sodipodi:guide
       position="1808,-1400"
       orientation="0,1"
       id="guide4245" />
  </sodipodi:namedview>
  <metadata
     id="metadata7">
    <rdf:RDF>
      <cc:Work
         rdf:about="">
        <dc:format>image/svg+xml</dc:format>
        <dc:type
           rdf:resource="http://purl.org/dc/dcmitype/StillImage" />
        <dc:title></dc:title>
      </cc:Work>
    </rdf:RDF>
  </metadata>
  <g
     inkscape:label="Layer 1"
     inkscape:groupmode="layer"
     id="layer1"
     transform="translate(0,3267.6379)">
    <text
       xml:space="preserve"
       style="font-style:normal;font-weight:normal;font-size:80px;line-height:125%;font-family:sans-serif;letter-spacing:0px;word-spacing:0px;fill:#000000;fill-opacity:1;stroke:none;stroke-width:1px;stroke-linecap:butt;stroke-linejoin:miter;stroke-opacity:1"
       x="12068.898"
       y="215.14763"
       id="text4285"
       sodipodi:linespacing="125%"><tspan
         sodipodi:role="line"
         id="tspan4287"
         x="12068.898"
         y="215.14763">2</tspan></text>
    <text
       xml:space="preserve"
       style="font-style:normal;font-weight:normal;font-size:80px;line-height:125%;font-family:sans-serif;letter-spacing:0px;word-spacing:0px;fill:#000000;fill-opacity:1;stroke:none;stroke-width:1px;stroke-linecap:butt;stroke-linejoin:miter;stroke-opacity:1"
       x="2272"
       y="-3435.6379"
       id="text4630"
       sodipodi:linespacing="125%"><tspan
         sodipodi:role="line"
         id="tspan4632"
         x="2272"
         y="-3435.6379" /></text>
    <path
       style="opacity:1;fill:none;fill-opacity:1;stroke:#000000;stroke-width:0.09;stroke-miterlimit:4;stroke-dasharray:none;stroke-opacity:1"
       id="path4381-9"
       sodipodi:type="arc"
       sodipodi:cx="-8983.085"
       sodipodi:cy="-8813.1914"
       sodipodi:rx="107.48023"
       sodipodi:ry="118.79394"
       sodipodi:start="0"
       sodipodi:end="6.2695543"
       sodipodi:open="true"
       d="m -8875.6047,-8813.1914 a 107.48023,118.79394 0 0 1 -107.114,118.7932 107.48023,118.79394 0 0 1 -107.844,-117.9836 107.48023,118.79394 0 0 1 106.379,-119.5973 107.48023,118.79394 0 0 1 108.569,117.1685" />
    <path
       sodipodi:nodetypes="cccsssccccccccccccccc"
       inkscape:connector-curvature="0"
       id="path4685"
       d="m 3743.1026,-1768.9587 c 0.011,1.6014 0.01,3.2058 0,4.8105 -0.5738,65.6419 -22.2015,133.9609 -68.9766,199.1895 -8.4853,15.5563 -29.6985,39.2444 -56.7454,66.0261 -27.0468,26.7817 -59.9273,56.657 -91.7472,84.5877 -31.8198,27.9307 -70.661,47.144 -85.3832,72.9204 -22.8103,39.9374 -37.9999,30.7472 -37.6535,31.0243 l -45.2539,-84.8535 c 34.3442,-57.2406 62.2262,56.5691 248.9024,-169.705 207.7933,-256.0964 -39.9314,-520.8479 -336.5837,-500.6319 -79.1959,0 -246.0739,65.0543 -415.7796,132.9365 -229.8333,91.1311 -540.1341,129.0556 -825.9004,22.627 -72.1058,-25.0803 -159.3683,-111.7995 -183.1972,-135.1074 -11.9246,8.5529 -20.5871,5.0908 -35.0723,5 -73.4682,5.8688 74.0661,-125.0648 71.1894,-72.7813 -0.2018,17.4499 -1.3638,32.2565 -12.3847,45.416 23.8183,21.3473 48.9424,49.0839 85.9258,78.2813 239.9504,175.0032 636.6793,110.5077 909.8769,1.4512 161.8711,-59.3852 323.0914,-123.0257 391.1992,-137.2149 282.7997,-23.5679 486.1771,152.6439 487.5879,356.0235 z"
       style="fill:none;fill-rule:evenodd;stroke:#000000;stroke-width:0.09;stroke-linecap:butt;stroke-linejoin:miter;stroke-opacity:1;stroke-miterlimit:4;stroke-dasharray:none" />
    <rect
       ry="15.9303"
       y="-3889.082"
       x="1197.2631"
       height="2217.4868"
       width="1012.5769"
       id="rect4687"
       style="opacity:1;fill:none;fill-opacity:1;stroke:#000000;stroke-width:0.09;stroke-miterlimit:4;stroke-dasharray:none;stroke-opacity:1"
       transform="matrix(0,-1,-1,0,0,0)" />
    <path
       inkscape:connector-curvature="0"
       id="path4689"
       d="m 3398.4705,-1357.3287 -391.8394,193.9766 0,0 0,0"
       style="fill:none;fill-rule:evenodd;stroke:#000000;stroke-width:0.09;stroke-linecap:butt;stroke-linejoin:miter;stroke-opacity:1;stroke-miterlimit:4;stroke-dasharray:none" />
    <path
       inkscape:connector-curvature="0"
       id="path4691"
       d="m 1841.3009,-2079.7323 -203.6467,-209.3036"
       style="fill:none;fill-rule:evenodd;stroke:#000000;stroke-width:0.09;stroke-linecap:butt;stroke-linejoin:miter;stroke-opacity:1;stroke-miterlimit:4;stroke-dasharray:none" />
    <path
       style="fill:none;fill-rule:evenodd;stroke:#000000;stroke-width:0.09;stroke-linecap:butt;stroke-linejoin:miter;stroke-miterlimit:4;stroke-dasharray:none;stroke-opacity:1"
       d="m 8140.3932,-1798.2049 -700.2353,281.5502 c 6.2745,-0.1305 218.5944,197.0203 261.594,262.4663 54.1631,82.4369 86.6285,141.4188 83.808,205.8791 -3.5509,81.15261 -48.6733,175.5646 -74.78,207.8363 -27.0516,33.43973 -27.0969,37.17198 -27.0969,37.17198 l 279.6191,-15.2046 c 0,0 -63.4903,-287.66438 -36.5789,-498.14858 10.0969,-78.9716 90.4776,-244.6555 131.9642,-327.0251 41.4867,-82.3702 81.7058,-154.5256 81.7058,-154.5256 z"
       id="path4553"
       inkscape:connector-curvature="0"
       sodipodi:nodetypes="ccsssccssc" />
    <path
       style="fill:none;fill-rule:evenodd;stroke:#000000;stroke-width:0.09;stroke-linecap:butt;stroke-linejoin:miter;stroke-miterlimit:4;stroke-dasharray:none;stroke-opacity:1"
       d="m 7705.5318,-2858.4382 -732.0778,955.0456 c 0,0 180.3959,111.2522 249.1567,175.3767 68.7608,64.1245 152.3569,158.3142 152.3569,158.3142 l 730.5467,-298.7465 c 0,0 -168.1963,-220.6128 -222.2619,-410.531 -54.0655,-189.9182 -177.7206,-579.459 -177.7206,-579.459 z"
       id="path4555"
       inkscape:connector-curvature="0" />
    <path
       style="fill:none;fill-rule:evenodd;stroke:#000000;stroke-width:0.09;stroke-linecap:butt;stroke-linejoin:miter;stroke-miterlimit:4;stroke-dasharray:none;stroke-opacity:1"
       d="m 7622.664,-2873.8576 -738.9792,968.1291 c 0,0 -223.3382,-94.5517 -377.2212,-94.7215 -153.883,-0.1697 -283.0513,28.177 -283.0513,28.177 l -169.441,-977.553 c 0,0 228.9462,194.8939 599.7052,209.6514 370.7589,14.7575 968.9875,-133.683 968.9875,-133.683 z"
       id="path4557"
       inkscape:connector-curvature="0" />
    <path
       style="fill:none;fill-rule:evenodd;stroke:#000000;stroke-width:0.09;stroke-linecap:butt;stroke-linejoin:miter;stroke-miterlimit:4;stroke-dasharray:none;stroke-opacity:1"
       d="m 5980.8168,-2947.1504 167.461,1007.8719 c 0,0 -218.4905,67.1326 -423.0057,220.1686 -22.3313,16.7104 -49.6171,37.1659 -50.5522,37.5807 l -49.9343,72.6658 -402.0575,-672.8506 c 0,0 110.1791,31.314 298.1738,-164.1598 187.9946,-195.4738 459.9149,-501.2766 459.9149,-501.2766 z"
       id="path4559"
       inkscape:connector-curvature="0"
       sodipodi:nodetypes="ccscccsc" />
    <path
       style="fill:none;fill-rule:evenodd;stroke:#000000;stroke-width:0.09;stroke-linecap:butt;stroke-linejoin:miter;stroke-miterlimit:4;stroke-dasharray:none;stroke-opacity:1"
       d="m 5141.8127,-2255.4935 c 0,0 143.6967,374.2611 -25.1135,898.7332 -168.8102,524.47222 -209.8813,572.41144 -209.8813,572.41144 3.4574,11.28055 381.6738,-404.43824 488.5519,-543.07944 56.9347,-73.8551 172.0437,-225.0261 171.7855,-226.6729 z"
       id="path4561"
       inkscape:connector-curvature="0"
       sodipodi:nodetypes="cscscc" />
    <path
       sodipodi:nodetypes="ccsssccssc"
       inkscape:connector-curvature="0"
       id="path4563"
       d="m 8249.4123,-289.60285 -735.391,169.7056 c 6.219,0.8428 185.4438,228.4975 217.7888,299.8133 40.7423,89.8307 63.6813,153.1289 50.9117,216.3747 -16.0764,79.6235 -75.2763,165.9081 -106.066,193.7472 -31.9041,28.8467 -32.5269,32.5269 -32.5269,32.5269 l 278.6001,28.2843 c 0,0 -18.1728,-294.0265 41.0122,-497.8032 22.2056,-76.455002 127.2765,-227.691002 181.0193,-302.6417 53.7431,-74.9511 104.6518,-140.0071 104.6518,-140.0071 z"
       style="fill:none;fill-rule:evenodd;stroke:#000000;stroke-width:0.09;stroke-linecap:butt;stroke-linejoin:miter;stroke-miterlimit:4;stroke-dasharray:none;stroke-opacity:1" />
    <path
       inkscape:connector-curvature="0"
       id="path4565"
       d="m 7162.9515,-483.69739 -871.1556,830.1433 c 0,0 160.9894,137.8483 218.9894,211.8483 58,74 126,180 126,180 l 768,-182 c 0,0 -132,-244 -156,-440 -24,-195.999904 -85.8338,-599.9916 -85.8338,-599.9916 z"
       style="fill:none;fill-rule:evenodd;stroke:#000000;stroke-width:0.09;stroke-linecap:butt;stroke-linejoin:miter;stroke-miterlimit:4;stroke-dasharray:none;stroke-opacity:1" />
    <path
       inkscape:connector-curvature="0"
       id="path4567"
       d="m 6689.1974,-178.91178 -880,842 c 0,0 -206,-128 -358,-152 -152,-24 -284,-16 -284,-16 l -16,-992 c 0,0 196,228 560,300 364,72 978,18 978,18 z"
       style="fill:none;fill-rule:evenodd;stroke:#000000;stroke-width:0.09;stroke-linecap:butt;stroke-linejoin:miter;stroke-miterlimit:4;stroke-dasharray:none;stroke-opacity:1" />
    <path
       sodipodi:nodetypes="ccscccsc"
       inkscape:connector-curvature="0"
       id="path4569"
       d="m 5032.6878,-442.47112 9.3483,1021.6464 c 0,0 -226.2513,32.4843 -452,152 -24.6499,13.0502 -54.7745,29.0331 -55.7625,29.2981 l -60.5858,64.0555 -293,-727.000005 c 0,0 104,48.000005 320,-116 216,-163.999995 532,-423.999995 532,-423.999995 z"
       style="fill:none;fill-rule:evenodd;stroke:#000000;stroke-width:0.09;stroke-linecap:butt;stroke-linejoin:miter;stroke-miterlimit:4;stroke-dasharray:none;stroke-opacity:1" />
    <path
       sodipodi:nodetypes="cscscc"
       inkscape:connector-curvature="0"
       id="path4571"
       d="m 3610.1983,-941.27342 c 0,0 84,392.0001 -164,883.999997 -248,492.000003 -296,533.000003 -296,533.000003 1.6686,11.6799 439.7052,-340.4475 566.7656,-460.863403 67.6859,-64.1463 204.8183,-195.666097 204.8183,-197.332997 z"
       style="fill:none;fill-rule:evenodd;stroke:#000000;stroke-width:0.09;stroke-linecap:butt;stroke-linejoin:miter;stroke-miterlimit:4;stroke-dasharray:none;stroke-opacity:1" />
    <rect
       style="fill:none;fill-opacity:0.99358975;stroke:#000000;stroke-width:0.09;stroke-miterlimit:4;stroke-dasharray:none;stroke-opacity:1"
       id="rect5805"
       width="3600"
       height="2496"
       x="4672"
       y="-3091.6377"
       ry="0" />
  </g>
</svg>
