<?xml version="1.0" encoding="UTF-8" standalone="no"?>
<!-- Created with Inkscape (http://www.inkscape.org/) -->

<svg
   xmlns:dc="http://purl.org/dc/elements/1.1/"
   xmlns:cc="http://creativecommons.org/ns#"
   xmlns:rdf="http://www.w3.org/1999/02/22-rdf-syntax-ns#"
   xmlns:svg="http://www.w3.org/2000/svg"
   xmlns="http://www.w3.org/2000/svg"
   xmlns:xlink="http://www.w3.org/1999/xlink"
   xmlns:sodipodi="http://sodipodi.sourceforge.net/DTD/sodipodi-0.dtd"
   xmlns:inkscape="http://www.inkscape.org/namespaces/inkscape"
   width="48in"
   height="96in"
   viewBox="0 0 4320.0001 8640.0003"
   id="svg2"
   version="1.1"
   inkscape:version="0.91 r13725"
   sodipodi:docname="Creaturesheet3.svg">
  <defs
     id="defs4" />
  <sodipodi:namedview
     id="base"
     pagecolor="#ffffff"
     bordercolor="#666666"
     borderopacity="1.0"
     inkscape:pageopacity="0.0"
     inkscape:pageshadow="2"
     inkscape:zoom="0.16"
     inkscape:cx="3575.8885"
     inkscape:cy="2943.9867"
     inkscape:document-units="in"
     inkscape:current-layer="layer1"
     showgrid="true"
     units="in"
     inkscape:window-width="1440"
     inkscape:window-height="790"
     inkscape:window-x="6"
     inkscape:window-y="9"
     inkscape:window-maximized="0"
     showguides="true"
     inkscape:guide-bbox="true">
    <inkscape:grid
       type="xygrid"
       id="grid4136"
       units="in"
       spacingx="0.18"
       spacingy="0.018000001"
       empspacing="1"
       color="#fb0000"
       opacity="0.1254902"
       enabled="false" />
    <sodipodi:guide
       position="1808,-1400"
       orientation="0,1"
       id="guide4245" />
  </sodipodi:namedview>
  <metadata
     id="metadata7">
    <rdf:RDF>
      <cc:Work
         rdf:about="">
        <dc:format>image/svg+xml</dc:format>
        <dc:type
           rdf:resource="http://purl.org/dc/dcmitype/StillImage" />
        <dc:title />
      </cc:Work>
    </rdf:RDF>
  </metadata>
  <g
     inkscape:label="Layer 1"
     inkscape:groupmode="layer"
     id="layer1"
     transform="translate(0,7587.6379)">
    <rect
       style="opacity:1;fill:none;fill-opacity:1;stroke:#000000;stroke-width:0.06787433;stroke-miterlimit:4;stroke-dasharray:none;stroke-opacity:1"
       id="rect6010"
       width="85.252129"
       height="199.16856"
       x="4950.3755"
       y="200.92213"
       rx="0"
       inkscape:tile-cx="4879.2414"
       inkscape:tile-cy="5377.1425"
       inkscape:tile-w="90.000001"
       inkscape:tile-h="205.80421"
       inkscape:tile-x0="4834.2414"
       inkscape:tile-y0="5274.2404"
       ry="0" />
    <use
       x="0"
       y="0"
       inkscape:tiled-clone-of="#rect6010"
       xlink:href="#rect6010"
       transform="translate(-1467.3605,-3029.4492)"
       id="use6109"
       width="100%"
       height="100%" />
    <use
       x="0"
       y="0"
       inkscape:tiled-clone-of="#rect6010"
       xlink:href="#rect6010"
       transform="matrix(0.99963451,0,0,2.2033648,-2852.1356,-7909.72)"
       id="use6111"
       width="100%"
       height="100%" />
    <use
       x="0"
       y="0"
       inkscape:tiled-clone-of="#rect6010"
       xlink:href="#rect6010"
       transform="translate(-2581.9023,-3371.7177)"
       id="use6113"
       width="100%"
       height="100%" />
    <use
       x="0"
       y="0"
       inkscape:tiled-clone-of="#rect6010"
       xlink:href="#rect6010"
       transform="translate(-1851.2647,-3250.494)"
       id="use6115"
       width="100%"
       height="100%" />
    <use
       x="0"
       y="0"
       inkscape:tiled-clone-of="#rect6010"
       xlink:href="#rect6010"
       transform="translate(-2558.5249,-3979.9619)"
       id="use6117"
       width="100%"
       height="100%" />
    <use
       x="0"
       y="0"
       inkscape:tiled-clone-of="#rect6010"
       xlink:href="#rect6010"
       transform="translate(-2103.6085,-3578.2508)"
       id="use6119"
       width="100%"
       height="100%" />
    <use
       x="0"
       y="0"
       inkscape:tiled-clone-of="#rect6010"
       xlink:href="#rect6010"
       transform="matrix(1.0000386,0,0,0.90026509,-1638.6239,-3547.5878)"
       id="use6121"
       width="100%"
       height="100%" />
    <use
       x="0"
       y="0"
       inkscape:tiled-clone-of="#rect6010"
       xlink:href="#rect6010"
       transform="translate(-2121.641,-4458.8462)"
       id="use6123"
       width="100%"
       height="100%" />
    <use
       x="0"
       y="0"
       inkscape:tiled-clone-of="#rect6010"
       xlink:href="#rect6010"
       transform="translate(-2104.1992,-4016.241)"
       id="use6125"
       width="100%"
       height="100%" />
    <text
       xml:space="preserve"
       style="font-style:normal;font-weight:normal;font-size:80px;line-height:125%;font-family:sans-serif;letter-spacing:0px;word-spacing:0px;fill:#000000;fill-opacity:1;stroke:none;stroke-width:1px;stroke-linecap:butt;stroke-linejoin:miter;stroke-opacity:1"
       x="4644.2773"
       y="260.4021"
       id="text6155"
       sodipodi:linespacing="125%"><tspan
         sodipodi:role="line"
         id="tspan6157"
         x="4644.2773"
         y="260.4021">Parent</tspan></text>
    <text
       xml:space="preserve"
       style="font-style:normal;font-weight:normal;font-size:80px;line-height:125%;font-family:sans-serif;letter-spacing:0px;word-spacing:0px;fill:#000000;fill-opacity:1;stroke:none;stroke-width:1px;stroke-linecap:butt;stroke-linejoin:miter;stroke-opacity:1"
       x="2272"
       y="-3435.6379"
       id="text4630"
       sodipodi:linespacing="125%"><tspan
         sodipodi:role="line"
         id="tspan4632"
         x="2272"
         y="-3435.6379" /></text>
    <path
       style="opacity:1;fill:#ff0000;fill-opacity:1;stroke:#000000;stroke-width:0.02765853;stroke-miterlimit:4;stroke-dasharray:none;stroke-opacity:1"
       d="m 2139.7741,-7393.0889 a 531.35481,476.27572 0 0 0 -525.9095,479.4971 531.35481,476.27572 0 0 0 257.3709,404.1476 c -48.7884,391.1932 -602.8045,177.1597 -310.047,487.0697 -40.9403,68.4192 -78.3403,108.7693 -104.8296,178.865 -44.1775,-138.9477 -112.8684,-270.9709 -197.8598,-440.4561 l -2.8332,-5.641 c -172.3214,-342.3413 -362.45223,-606.3666 -449.84743,-624.6863 -2.094,-1.2666 -4.3879,-1.8892 -6.8791,-1.867 l -0.01,0 c -0.8305,0.017 -1.6832,0.084 -2.5571,0.2359 -1.0188,0.3296 -2.0632,0.7479 -3.1341,1.254 -4.5969,0.3069 -8.7513,1.5279 -12.4524,3.661 -5.1826,3.65 -9.3705,9.2614 -12.5333,16.7963 -68.1967,77.8605 -185.8249,357.8281 -290.9797,692.5628 l -1.9375,6.1857 c -73.1576,233.9576 -129.9513,462.1662 -154.3627,620.2546 -58.9557,8.5859 -103.622,69.7237 -104.4196,142.9271 l 0,1.1726 c -1.3612,397.6236 167.45,665.6453 381.1994,968.5335 -145.9122,-327.629 -220.9079,-539.888 -163.7284,-888.3687 4.0265,-7.6774 7.4581,-15.8079 10.2508,-24.2777 l 0.5508,0 -0.5067,-0.1212 c 5.6955,-17.1321 8.6966,-35.4456 8.8394,-53.9604 0.1508,-29.3599 -6.8873,-58.0925 -20.1902,-82.442 66.574,-133.3643 147.5814,-345.8662 220.4345,-578.2555 63.7758,-203.5568 117.0322,-316.4228 145.6957,-470.7219 43.0103,145.7521 117.9887,243.4717 211.01783,428.7111 93.3826,185.875 195.9265,356.0249 285.1282,473.1104 53.767,70.574 100.0339,118.3825 135.5152,140.8307 3.6473,3.0536 7.7142,5.3655 12.1813,6.9231 17.7615,8.8538 32.2615,10.2184 42.9744,3.6643 4.3388,-2.6549 8.0028,-6.5906 11.0094,-11.7369 73.0297,-35.1999 175.3837,-154.3077 264.9539,-308.316 2.5578,-4.4009 5.0812,-8.8029 7.5865,-13.2051 158.0059,131.6881 172.3579,-376.0015 170.6356,-378.214 140.9264,-123.6135 142.1968,100.2565 229.8705,88.4068 87.9794,-11.8911 114.0997,-204.4158 219.748,-83.0799 60.4547,131.137 -0.2653,434.9818 161.8139,382.0012 0.6568,1.1508 1.3042,2.3006 1.964,3.4515 88.7945,154.6899 190.5499,274.5766 263.4017,310.3342 2.9807,5.1686 6.6274,9.1336 10.9529,11.8216 10.6797,6.6357 25.1847,5.3824 42.9903,-3.3354 4.4747,-1.5235 8.5523,-3.8028 12.2147,-6.8285 35.5936,-22.1768 82.0989,-69.6325 136.2192,-139.7942 89.7885,-116.4013 193.187,-285.765 287.5022,-470.9229 93.9582,-184.5244 169.4268,-281.6679 213.1683,-427.088 27.8879,154.515 80.5732,267.7859 143.3252,471.8279 71.684,232.9416 151.6211,446.0588 217.5238,579.9282 -13.4251,24.2474 -20.6034,52.9241 -20.6002,82.2842 0.05,18.5157 2.9574,36.8535 8.5667,54.0285 l -0.5103,0.1197 0.5526,0 c 2.7502,8.4907 6.1415,16.6423 10.1293,24.3507 55.4271,348.9108 -20.6317,560.5952 -168.1877,887.103 215.2675,-301.2489 385.421,-567.9771 386.0581,-965.6034 l 0,-1.1727 c -0.43,-73.2077 -44.7901,-134.6862 -103.7015,-143.7226 -23.6166,-158.2716 -79.262,-386.9066 -151.2426,-621.419 l -1.9058,-6.2006 c -103.4706,-335.531 -219.6913,-616.3932 -287.4953,-694.7738 -3.1252,-7.5583 -7.2831,-13.2015 -12.4471,-16.891 -3.6902,-2.1611 -7.8395,-3.4135 -12.4347,-3.7555 -1.0685,-0.5142 -2.1102,-0.9431 -3.1272,-1.2808 -0.8731,-0.1573 -1.7266,-0.2401 -2.557,-0.2541 -2.4907,-0.045 -4.7875,0.5648 -6.8879,1.8155 -87.4854,17.651 -278.9381,280.2175 -452.9763,621.2314 l -2.8632,5.6159 c -85.8411,168.8321 -155.1947,300.3326 -200.0701,438.9397 -24.4499,-65.7608 -58.5846,-105.6095 -96.1203,-166.7362 328.4705,-336.3323 -272.9932,-93.8278 -299.3086,-527.6205 a 531.35481,476.27572 0 0 0 212.8935,-380.6639 l -0.05,-6.4931 a 531.35481,476.27572 0 0 0 -536.7376,-469.7583 z"
       id="path4497-90"
       inkscape:connector-curvature="0" />
    <text
       xml:space="preserve"
       style="font-style:normal;font-weight:normal;font-size:80px;line-height:125%;font-family:sans-serif;letter-spacing:0px;word-spacing:0px;fill:#000000;fill-opacity:1;stroke:none;stroke-width:1px;stroke-linecap:butt;stroke-linejoin:miter;stroke-opacity:1"
       x="2146.4126"
       y="-6786.71"
       id="text4684"
       sodipodi:linespacing="125%"><tspan
         sodipodi:role="line"
         id="tspan4686"
         x="2146.4126"
         y="-6786.71">4</tspan></text>
    <path
       style="opacity:1;fill:none;fill-opacity:1;stroke:#000000;stroke-width:0.09;stroke-miterlimit:4;stroke-dasharray:none;stroke-opacity:1"
       id="path4381-9"
       sodipodi:type="arc"
       sodipodi:cx="-8983.085"
       sodipodi:cy="-8813.1914"
       sodipodi:rx="107.48023"
       sodipodi:ry="118.79394"
       sodipodi:start="0"
       sodipodi:end="6.2695543"
       sodipodi:open="true"
       d="m -8875.6047,-8813.1914 a 107.48023,118.79394 0 0 1 -107.114,118.7932 107.48023,118.79394 0 0 1 -107.844,-117.9836 107.48023,118.79394 0 0 1 106.379,-119.5973 107.48023,118.79394 0 0 1 108.569,117.1685" />
    <g
       id="g4669"
       transform="translate(-3308.6579,1872.3822)">
      <path
         sodipodi:nodetypes="cccsssccccccccccccccccc"
         inkscape:connector-curvature="0"
         id="path4599"
         d="m 4978.3851,-6432.7547 c -1.6014,-0.011 -3.2058,-0.01 -4.8105,0 -65.6419,0.5738 -133.9609,22.2015 -199.1895,68.9766 -15.5563,8.4853 -39.2444,29.6985 -66.0261,56.7454 -26.7817,27.0468 -56.657,59.9273 -84.5877,91.7472 -27.9307,31.8198 -47.144,70.661 -72.9204,85.3832 -39.9374,22.8103 -30.7472,37.9999 -31.0243,37.6535 l 84.8535,45.2539 c 57.2406,-34.3442 -56.5691,-62.2262 169.705,-248.9024 256.0964,-207.7933 529.3332,42.7598 509.1172,339.4121 0,79.1959 -73.5396,243.2455 -141.4218,412.9512 -91.1311,229.8333 -129.0556,540.1341 -22.627,825.9004 25.0803,72.1058 90.101,135.4835 143.1074,177.6972 -8.5529,11.9246 -13.0908,26.0871 -13,40.5723 0.1348,19.1111 8.3089,37.3559 22.6602,50.5781 -0.066,-51.9474 36.1068,-97.5994 88.5332,-111.7324 -11.6012,-6.6767 -24.8921,-10.1489 -38.4121,-10.0351 -17.4499,0.2018 -34.2565,6.3638 -47.416,17.3847 -21.3473,-23.8183 -47.0839,-53.9424 -76.2813,-90.9258 -175.0032,-239.9504 -110.5077,-636.6793 -1.4512,-909.8769 59.3852,-161.8711 123.0257,-323.0914 137.2149,-391.1992 23.5679,-282.7997 -152.6439,-486.1771 -356.0235,-487.5879 z"
         style="fill:none;fill-rule:evenodd;stroke:#000000;stroke-width:1px;stroke-linecap:butt;stroke-linejoin:miter;stroke-opacity:1" />
      <rect
         ry="15.9303"
         y="-6578.7344"
         x="4406.6895"
         height="2217.4868"
         width="1012.5769"
         id="rect4608"
         style="opacity:1;fill:none;fill-opacity:1;stroke:#000000;stroke-width:0.09;stroke-miterlimit:4;stroke-dasharray:none;stroke-opacity:1" />
      <path
         inkscape:connector-curvature="0"
         id="path4610"
         d="m 4566.7551,-6088.1226 -193.9766,391.8394 0,0 0,0"
         style="fill:none;fill-rule:evenodd;stroke:#000000;stroke-width:1.03647649px;stroke-linecap:butt;stroke-linejoin:miter;stroke-opacity:1" />
      <path
         inkscape:connector-curvature="0"
         id="path4612"
         d="m 5289.1587,-4530.953 209.3036,203.6467"
         style="fill:none;fill-rule:evenodd;stroke:#000000;stroke-width:1px;stroke-linecap:butt;stroke-linejoin:miter;stroke-opacity:1" />
      <path
         d="m 4474.7435,-6487.1157 a 11.594555,11.233482 0 0 1 -11.5551,11.2334 11.594555,11.233482 0 0 1 -11.6338,-11.1569 11.594555,11.233482 0 0 1 11.4758,-11.3094 11.594555,11.233482 0 0 1 11.712,11.0798"
         sodipodi:open="true"
         sodipodi:end="6.2695543"
         sodipodi:start="0"
         sodipodi:ry="11.233482"
         sodipodi:rx="11.594555"
         sodipodi:cy="-6487.1157"
         sodipodi:cx="4463.1489"
         sodipodi:type="arc"
         id="path4614"
         style="opacity:1;fill:none;fill-opacity:1;stroke:#000000;stroke-width:0.03301331;stroke-miterlimit:4;stroke-dasharray:none;stroke-opacity:1" />
      <path
         d="m 5308.7689,-6473.9736 a 11.233748,11.233741 0 0 1 -11.1955,11.2336 11.233748,11.233741 0 0 1 -11.2717,-11.1571 11.233748,11.233741 0 0 1 11.1186,-11.3097 11.233748,11.233741 0 0 1 11.3476,11.08"
         sodipodi:open="true"
         sodipodi:end="6.2695543"
         sodipodi:start="0"
         sodipodi:ry="11.233741"
         sodipodi:rx="11.233748"
         sodipodi:cy="-6473.9736"
         sodipodi:cx="5297.5352"
         sodipodi:type="arc"
         id="path4614-3"
         style="opacity:1;fill:none;fill-opacity:1;stroke:#000000;stroke-width:0.03249596;stroke-miterlimit:4;stroke-dasharray:none;stroke-opacity:1" />
      <path
         d="m 4476.2113,-4420.1748 a 11.233747,11.233745 0 0 1 -11.1955,11.2337 11.233747,11.233745 0 0 1 -11.2717,-11.1571 11.233747,11.233745 0 0 1 11.1186,-11.3098 11.233747,11.233745 0 0 1 11.3475,11.0801"
         sodipodi:open="true"
         sodipodi:end="6.2695543"
         sodipodi:start="0"
         sodipodi:ry="11.233745"
         sodipodi:rx="11.233747"
         sodipodi:cy="-4420.1748"
         sodipodi:cx="4464.9775"
         sodipodi:type="arc"
         id="path4614-9"
         style="opacity:1;fill:none;fill-opacity:1;stroke:#000000;stroke-width:0.03249597;stroke-miterlimit:4;stroke-dasharray:none;stroke-opacity:1" />
      <path
         d="m 5303.1122,-4731.6626 a 11.233748,11.233741 0 0 1 -11.1955,11.2337 11.233748,11.233741 0 0 1 -11.2718,-11.1571 11.233748,11.233741 0 0 1 11.1187,-11.3098 11.233748,11.233741 0 0 1 11.3475,11.0801"
         sodipodi:open="true"
         sodipodi:end="6.2695543"
         sodipodi:start="0"
         sodipodi:ry="11.233741"
         sodipodi:rx="11.233748"
         sodipodi:cy="-4731.6626"
         sodipodi:cx="5291.8784"
         sodipodi:type="arc"
         id="path4614-9-5"
         style="opacity:1;fill:none;fill-opacity:1;stroke:#000000;stroke-width:0.03249596;stroke-miterlimit:4;stroke-dasharray:none;stroke-opacity:1" />
      <path
         style="opacity:1;fill:none;fill-opacity:1;stroke:#000000;stroke-width:0.03249596;stroke-miterlimit:4;stroke-dasharray:none;stroke-opacity:1"
         id="path4661"
         sodipodi:type="arc"
         sodipodi:cx="4864.0659"
         sodipodi:cy="-5739.2798"
         sodipodi:rx="11.233748"
         sodipodi:ry="11.233741"
         sodipodi:start="0"
         sodipodi:end="6.2695543"
         sodipodi:open="true"
         d="m 4875.2997,-5739.2798 a 11.233748,11.233741 0 0 1 -11.1955,11.2337 11.233748,11.233741 0 0 1 -11.2718,-11.1571 11.233748,11.233741 0 0 1 11.1187,-11.3097 11.233748,11.233741 0 0 1 11.3475,11.08" />
      <path
         d="m 4871.6263,-5054.1777 a 11.233748,11.233741 0 0 1 -11.1954,11.2336 11.233748,11.233741 0 0 1 -11.2718,-11.1571 11.233748,11.233741 0 0 1 11.1186,-11.3097 11.233748,11.233741 0 0 1 11.3476,11.08"
         sodipodi:open="true"
         sodipodi:end="6.2695543"
         sodipodi:start="0"
         sodipodi:ry="11.233741"
         sodipodi:rx="11.233748"
         sodipodi:cy="-5054.1777"
         sodipodi:cx="4860.3926"
         sodipodi:type="arc"
         id="path4663"
         style="opacity:1;fill:none;fill-opacity:1;stroke:#000000;stroke-width:0.03249596;stroke-miterlimit:4;stroke-dasharray:none;stroke-opacity:1" />
      <rect
         ry="15.9303"
         y="-6593.9644"
         x="4918.7754"
         height="161.63266"
         width="93.67347"
         id="rect4665"
         style="opacity:1;fill:none;fill-opacity:1;stroke:#000000;stroke-width:0.09;stroke-miterlimit:4;stroke-dasharray:none;stroke-opacity:1" />
      <path
         style="opacity:1;fill:none;fill-opacity:1;stroke:#000000;stroke-width:0.03301331;stroke-miterlimit:4;stroke-dasharray:none;stroke-opacity:1"
         id="path4667"
         sodipodi:type="arc"
         sodipodi:cx="4942.5366"
         sodipodi:cy="-6290.585"
         sodipodi:rx="11.594555"
         sodipodi:ry="11.233482"
         sodipodi:start="0"
         sodipodi:end="6.2695543"
         sodipodi:open="true"
         d="m 4954.1312,-6290.585 a 11.594555,11.233482 0 0 1 -11.5551,11.2335 11.594555,11.233482 0 0 1 -11.6338,-11.1569 11.594555,11.233482 0 0 1 11.4758,-11.3095 11.594555,11.233482 0 0 1 11.712,11.0798" />
    </g>
    <path
       style="opacity:1;fill:none;fill-opacity:1;stroke:#000000;stroke-width:0.09;stroke-miterlimit:4;stroke-dasharray:none;stroke-opacity:1"
       id="path6135"
       sodipodi:type="arc"
       sodipodi:cx="3519.074"
       sodipodi:cy="-2844.0149"
       sodipodi:rx="217.67468"
       sodipodi:ry="217.67468"
       sodipodi:start="0"
       sodipodi:end="6.2695543"
       sodipodi:open="true"
       d="m 3736.7487,-2844.0149 a 217.67468,217.67468 0 0 1 -216.9329,217.6734 217.67468,217.67468 0 0 1 -218.4115,-216.1898 217.67468,217.67468 0 0 1 215.4444,-219.1469 217.67468,217.67468 0 0 1 219.8797,214.6963" />
    <path
       style="opacity:1;fill:none;fill-opacity:1;stroke:#000000;stroke-width:0.09;stroke-miterlimit:4;stroke-dasharray:none;stroke-opacity:1"
       id="path6137"
       sodipodi:type="arc"
       sodipodi:cx="2416.189"
       sodipodi:cy="-3214.0615"
       sodipodi:rx="253.9538"
       sodipodi:ry="253.9538"
       sodipodi:start="0"
       sodipodi:end="6.2695543"
       sodipodi:open="true"
       d="m 2670.1428,-3214.0615 a 253.9538,253.9538 0 0 1 -253.0884,253.9523 253.9538,253.9538 0 0 1 -254.8133,-252.2215 253.9538,253.9538 0 0 1 251.3517,-255.6713 253.9538,253.9538 0 0 1 256.5264,250.4789" />
    <path
       style="opacity:1;fill:none;fill-opacity:1;stroke:#000000;stroke-width:0.09;stroke-miterlimit:4;stroke-dasharray:none;stroke-opacity:1"
       id="path6139"
       sodipodi:type="arc"
       sodipodi:cx="2866.0498"
       sodipodi:cy="-4238.0127"
       sodipodi:rx="181.39557"
       sodipodi:ry="181.39557"
       sodipodi:start="0"
       sodipodi:end="6.2695543"
       sodipodi:open="true"
       d="m 3047.4454,-4238.0127 a 181.39557,181.39557 0 0 1 -180.7774,181.3945 181.39557,181.39557 0 0 1 -182.0096,-180.1582 181.39557,181.39557 0 0 1 179.537,-182.6224 181.39557,181.39557 0 0 1 183.2331,178.9136" />
    <path
       style="opacity:1;fill:none;fill-opacity:1;stroke:#000000;stroke-width:0.09;stroke-miterlimit:4;stroke-dasharray:none;stroke-opacity:1"
       id="path6141"
       sodipodi:type="arc"
       sodipodi:cx="2887.8174"
       sodipodi:cy="-3366.4341"
       sodipodi:rx="159.6281"
       sodipodi:ry="159.6281"
       sodipodi:start="0"
       sodipodi:end="6.2695543"
       sodipodi:open="true"
       d="m 3047.4455,-3366.4341 a 159.6281,159.6281 0 0 1 -159.0841,159.6272 159.6281,159.6281 0 0 1 -160.1684,-158.5392 159.6281,159.6281 0 0 1 157.9925,-160.7077 159.6281,159.6281 0 0 1 161.2452,157.4439" />
    <path
       style="opacity:1;fill:none;fill-opacity:1;stroke:#000000;stroke-width:0.09;stroke-miterlimit:4;stroke-dasharray:none;stroke-opacity:1"
       id="path6143"
       sodipodi:type="arc"
       sodipodi:cx="2423.4448"
       sodipodi:cy="-3787.2717"
       sodipodi:rx="210.41885"
       sodipodi:ry="210.41885"
       sodipodi:start="0"
       sodipodi:end="6.2695543"
       sodipodi:open="true"
       d="m 2633.8637,-3787.2717 a 210.41885,210.41885 0 0 1 -209.7018,210.4176 210.41885,210.41885 0 0 1 -211.131,-208.9835 210.41885,210.41885 0 0 1 208.2628,-211.842 210.41885,210.41885 0 0 1 212.5504,207.5397" />
    <path
       style="opacity:1;fill:none;fill-opacity:1;stroke:#000000;stroke-width:0.09;stroke-miterlimit:4;stroke-dasharray:none;stroke-opacity:1"
       id="path6145"
       sodipodi:type="arc"
       sodipodi:cx="2880.5615"
       sodipodi:cy="-3794.5273"
       sodipodi:rx="181.39557"
       sodipodi:ry="181.39557"
       sodipodi:start="0"
       sodipodi:end="6.2695543"
       sodipodi:open="true"
       d="m 3061.9571,-3794.5273 a 181.39557,181.39557 0 0 1 -180.7774,181.3945 181.39557,181.39557 0 0 1 -182.0095,-180.1583 181.39557,181.39557 0 0 1 179.5369,-182.6223 181.39557,181.39557 0 0 1 183.2331,178.9135" />
    <path
       style="opacity:1;fill:none;fill-opacity:1;stroke:#000000;stroke-width:0.09;stroke-miterlimit:4;stroke-dasharray:none;stroke-opacity:1"
       id="path6147"
       sodipodi:type="arc"
       sodipodi:cx="3359.4458"
       sodipodi:cy="-3359.178"
       sodipodi:rx="188.65138"
       sodipodi:ry="188.65138"
       sodipodi:start="0"
       sodipodi:end="6.2695543"
       sodipodi:open="true"
       d="m 3548.0972,-3359.178 a 188.65138,188.65138 0 0 1 -188.0085,188.6503 188.65138,188.65138 0 0 1 -189.2899,-187.3645 188.65138,188.65138 0 0 1 186.7184,-189.9273 188.65138,188.65138 0 0 1 190.5625,186.0701" />
    <path
       style="opacity:1;fill:none;fill-opacity:1;stroke:#000000;stroke-width:0.09;stroke-miterlimit:4;stroke-dasharray:none;stroke-opacity:1"
       id="path6149"
       sodipodi:type="arc"
       sodipodi:cx="2786.2361"
       sodipodi:cy="-2967.3635"
       sodipodi:rx="123.34898"
       sodipodi:ry="123.34898"
       sodipodi:start="0"
       sodipodi:end="6.2695543"
       sodipodi:open="true"
       d="m 2909.5851,-2967.3635 a 123.34898,123.34898 0 0 1 -122.9287,123.3482 123.34898,123.34898 0 0 1 -123.7664,-122.5075 123.34898,123.34898 0 0 1 122.0851,-124.1833 123.34898,123.34898 0 0 1 124.5985,121.6613" />
    <path
       style="opacity:1;fill:none;fill-opacity:1;stroke:#000000;stroke-width:0.09;stroke-miterlimit:4;stroke-dasharray:none;stroke-opacity:1"
       id="path6151"
       sodipodi:type="arc"
       sodipodi:cx="3141.7712"
       sodipodi:cy="-2989.1309"
       sodipodi:rx="145.11646"
       sodipodi:ry="145.11646"
       sodipodi:start="0"
       sodipodi:end="6.2695543"
       sodipodi:open="true"
       d="m 3286.8877,-2989.1309 a 145.11646,145.11646 0 0 1 -144.6219,145.1157 145.11646,145.11646 0 0 1 -145.6076,-144.1266 145.11646,145.11646 0 0 1 143.6295,-146.0979 145.11646,145.11646 0 0 1 146.5865,143.1308" />
    <path
       style="opacity:1;fill:none;fill-opacity:1;stroke:#000000;stroke-width:0.09;stroke-miterlimit:4;stroke-dasharray:none;stroke-opacity:1"
       id="path6153"
       sodipodi:type="arc"
       sodipodi:cx="3751.2603"
       sodipodi:cy="-3380.9456"
       sodipodi:rx="130.60481"
       sodipodi:ry="290.23291"
       sodipodi:start="0"
       sodipodi:end="6.2695543"
       sodipodi:open="true"
       d="m 3881.8651,-3380.9456 a 130.60481,290.23291 0 0 1 -130.1598,290.2313 130.60481,290.23291 0 0 1 -131.0468,-288.2532 130.60481,290.23291 0 0 1 129.2666,-292.1958 130.60481,290.23291 0 0 1 131.9278,286.2617" />
    <path
       style="opacity:1;fill:none;fill-opacity:1;stroke:#000000;stroke-width:0.09;stroke-miterlimit:4;stroke-dasharray:none;stroke-opacity:1"
       id="path6155"
       sodipodi:type="arc"
       sodipodi:cx="3402.9807"
       sodipodi:cy="-4062.9927"
       sodipodi:rx="188.65138"
       sodipodi:ry="326.51202"
       sodipodi:start="0"
       sodipodi:end="6.2695543"
       sodipodi:open="true"
       d="m 3591.6321,-4062.9927 a 188.65138,326.51202 0 0 1 -188.0085,326.5102 188.65138,326.51202 0 0 1 -189.2899,-324.2848 188.65138,326.51202 0 0 1 186.7184,-328.7203 188.65138,326.51202 0 0 1 190.5625,322.0444" />
    <path
       style="opacity:1;fill:none;fill-opacity:1;stroke:#000000;stroke-width:0.09;stroke-miterlimit:4;stroke-dasharray:none;stroke-opacity:1"
       id="path6157"
       sodipodi:type="arc"
       sodipodi:cx="3845.5859"
       sodipodi:cy="-4070.2485"
       sodipodi:rx="166.88391"
       sodipodi:ry="319.2562"
       sodipodi:start="0"
       sodipodi:end="6.2695543"
       sodipodi:open="true"
       d="m 4012.4698,-4070.2485 a 166.88391,319.2562 0 0 1 -166.3152,319.2543 166.88391,319.2562 0 0 1 -167.4487,-317.0785 166.88391,319.2562 0 0 1 165.174,-321.4153 166.88391,319.2562 0 0 1 168.5744,314.8878" />
    <rect
       style="opacity:1;fill:none;fill-opacity:1;stroke:#000000;stroke-width:0.03354963;stroke-miterlimit:4;stroke-dasharray:none;stroke-opacity:1"
       id="rect6159"
       width="85.286453"
       height="197.63574"
       x="4948.1143"
       y="-123.5582"
       ry="0"
       inkscape:tile-cx="5673.5379"
       inkscape:tile-cy="5100.1897"
       inkscape:tile-w="86.129995"
       inkscape:tile-h="259.237"
       inkscape:tile-x0="5630.4729"
       inkscape:tile-y0="4970.5712" />
    <use
       x="0"
       y="0"
       inkscape:tiled-clone-of="#rect6159"
       xlink:href="#rect6159"
       id="use6163"
       transform="matrix(0.99990898,0,0,1.5191625,-1590.9873,-3844.5393)"
       width="100%"
       height="100%" />
    <use
       x="0"
       y="0"
       inkscape:tiled-clone-of="#rect6159"
       xlink:href="#rect6159"
       transform="translate(-2202.8286,-2849.8555)"
       id="use6165"
       width="100%"
       height="100%" />
    <use
       x="0"
       y="0"
       inkscape:tiled-clone-of="#rect6159"
       xlink:href="#rect6159"
       transform="matrix(0.99990487,0,0,1.5451208,-1237.1236,-3204.0643)"
       id="use6167"
       width="100%"
       height="100%" />
    <use
       x="0"
       y="0"
       inkscape:tiled-clone-of="#rect6159"
       xlink:href="#rect6159"
       transform="translate(-1142.4154,-3814.8539)"
       id="use6169"
       width="100%"
       height="100%" />
    <use
       x="0"
       y="0"
       inkscape:tiled-clone-of="#rect6159"
       xlink:href="#rect6159"
       transform="translate(-2556.0895,-4179.4834)"
       id="use6171"
       width="100%"
       height="100%" />
    <use
       x="0"
       y="0"
       inkscape:tiled-clone-of="#rect6159"
       xlink:href="#rect6159"
       transform="matrix(0.9997921,0,0,2.3447535,-3401.3399,-1353.951)"
       id="use6173"
       width="100%"
       height="100%" />
    <use
       x="0"
       y="0"
       inkscape:tiled-clone-of="#rect6159"
       xlink:href="#rect6159"
       transform="matrix(0.99980988,0,0,2.2074377,-2777.3715,-1345.8109)"
       id="use6175"
       width="100%"
       height="100%" />
    <use
       x="0"
       y="0"
       inkscape:tiled-clone-of="#rect6159"
       xlink:href="#rect6159"
       transform="matrix(0.03085587,-0.99952384,0.99952384,0.03085587,247.16957,2470.3849)"
       id="use6177"
       width="100%"
       height="100%" />
    <use
       x="0"
       y="0"
       inkscape:tiled-clone-of="#rect6159"
       xlink:href="#rect6159"
       transform="matrix(0.00156911,-0.99999877,0.99999877,0.00156911,407.32419,1765.5968)"
       id="use6179"
       width="100%"
       height="100%" />
    <use
       x="0"
       y="0"
       inkscape:tiled-clone-of="#rect6159"
       xlink:href="#rect6159"
       transform="matrix(-0.00712734,-0.9999746,0.9999746,-0.00712734,400.74536,2229.2775)"
       id="use6181"
       width="100%"
       height="100%" />
    <use
       x="0"
       y="0"
       inkscape:tiled-clone-of="#rect6159"
       xlink:href="#rect6159"
       transform="matrix(0.01506879,-0.99988646,0.99988646,0.01506879,2720.846,3087.6625)"
       id="use6183"
       width="100%"
       height="100%" />
    <use
       x="0"
       y="0"
       inkscape:tiled-clone-of="#rect6159"
       xlink:href="#rect6159"
       transform="matrix(0.01076451,-0.99994206,0.99994206,0.01076451,214.34214,1181.6228)"
       id="use6185"
       width="100%"
       height="100%" />
    <use
       x="0"
       y="0"
       inkscape:tiled-clone-of="#rect6159"
       xlink:href="#rect6159"
       transform="matrix(0.00893373,-0.99996009,0.99996009,0.00893373,3384.0407,2522.2075)"
       id="use6187"
       width="100%"
       height="100%" />
    <use
       x="0"
       y="0"
       inkscape:tiled-clone-of="#rect6159"
       xlink:href="#rect6159"
       transform="matrix(-0.00319803,-0.99999488,0.99999488,-0.00319803,2857.5051,2652.0314)"
       id="use6189"
       width="100%"
       height="100%" />
    <use
       x="0"
       y="0"
       inkscape:tiled-clone-of="#rect6159"
       xlink:href="#rect6159"
       transform="matrix(-0.01502788,-0.99988707,0.99988707,-0.01502788,3605.488,3126.3053)"
       id="use6191"
       width="100%"
       height="100%" />
    <path
       style="opacity:1;fill:none;fill-opacity:1;stroke:#000000;stroke-width:0.09;stroke-miterlimit:4;stroke-dasharray:none;stroke-opacity:1"
       id="path6193"
       sodipodi:type="arc"
       sodipodi:cx="2437.8228"
       sodipodi:cy="-4271.2539"
       sodipodi:rx="74.394302"
       sodipodi:ry="133.39667"
       sodipodi:start="0"
       sodipodi:end="6.2695543"
       sodipodi:open="true"
       d="m 2512.2171,-4271.2539 a 74.394302,133.39667 0 0 1 -74.1408,133.3959 74.394302,133.39667 0 0 1 -74.6461,-132.4867 74.394302,133.39667 0 0 1 73.632,-134.2989 74.394302,133.39667 0 0 1 75.1479,131.5714" />
    <path
       style="opacity:1;fill:none;fill-opacity:1;stroke:none;stroke-width:0.09;stroke-miterlimit:4;stroke-dasharray:none;stroke-opacity:1"
       d="m 1313.8753,-1873.4887 a 260.17133,416.83634 0.71182983 0 0 159.8113,384.6733 l -2.1013,179.4044 c -0.7185,61.3358 50.6112,111.2648 115.089,111.9482 64.4779,0.6835 116.9645,-48.1451 117.683,-109.4809 l 2.49,-212.5758 a 260.17133,416.83634 0.71182983 0 0 127.3936,-354.1364 260.17133,416.83634 0.71182983 0 0 -255.2891,-418.1446 l -3.5455,10e-4 a 260.17133,416.83634 0.71182983 0 0 -261.531,418.3108 z"
       id="path4920"
       inkscape:connector-curvature="0" />
    <path
       inkscape:connector-curvature="0"
       id="path5758"
       d="m 1938.5297,-1869.0693 a 260.17133,416.83634 0.71182983 0 0 159.8113,384.6733 l -2.1013,179.4044 c -0.7185,61.3358 50.6112,111.2648 115.089,111.9482 64.4779,0.6835 116.9645,-48.1451 117.683,-109.4809 l 2.49,-212.5758 a 260.17133,416.83634 0.71182983 0 0 127.3936,-354.1364 260.17133,416.83634 0.71182983 0 0 -255.2891,-418.1446 l -3.5455,0 a 260.17133,416.83634 0.71182983 0 0 -261.531,418.3108 z"
       style="opacity:1;fill:none;fill-opacity:1;stroke:none;stroke-width:0.09;stroke-miterlimit:4;stroke-dasharray:none;stroke-opacity:1" />
    <path
       inkscape:tile-y0="7040.1719"
       inkscape:tile-x0="1179.3664"
       sodipodi:nodetypes="csccccsc"
       inkscape:connector-curvature="0"
       id="use5784"
       d="m 963.13256,-2888.1495 c 0,0 -110.3631,138.8459 -186.0232,214.306 -75.6603,75.4602 -274.2682,60.3683 -274.2682,60.3683 -33.5863,-20.9381 -49.8733,12.2549 -60.6084,12.2666 -290.7964,65.1626 -78.7912,222.9231 104.3384,175.0881 69.4666,-0.1303 -1.18,-63.9472 12.7145,-100.7356 86.2533,-11.144 240.2749,-96.8014 273.4216,-136.4725 56.7451,-67.9141 130.4253,-224.8209 130.4253,-224.8209 z"
       style="opacity:1;fill:none;fill-opacity:1;stroke:none;stroke-width:0.09;stroke-miterlimit:4;stroke-dasharray:none;stroke-opacity:1" />
    <path
       inkscape:tile-y0="7040.1719"
       inkscape:tile-x0="1179.3664"
       sodipodi:nodetypes="csccccsc"
       inkscape:connector-curvature="0"
       id="use5786"
       d="m 877.88372,-4038.9568 c 0,0 -155.44161,235.5109 -250.75035,259.844 -95.3089,24.333 -216.34691,-84.9969 -216.34691,-84.9969 -9.32982,-33.4272 -40.11472,-14.4181 -47.15829,-19.6553 -230.08527,-89.1796 -186.69834,142.6162 -37.68298,193.2534 45.61217,33.8452 37.9676,-52.5338 69.3625,-75.6335 63.28764,33.1011 216.13754,38.7811 261.89809,22.7487 78.33898,-27.4465 220.67794,-295.5604 220.67794,-295.5604 z"
       style="opacity:1;fill:none;fill-opacity:1;stroke:none;stroke-width:0.09;stroke-miterlimit:4;stroke-dasharray:none;stroke-opacity:1" />
    <path
       inkscape:tile-y0="7040.1719"
       inkscape:tile-x0="1179.3664"
       sodipodi:nodetypes="csccccsc"
       inkscape:connector-curvature="0"
       id="use5788"
       d="m 801.4797,-3705.699 c 0,0 -93.7893,246.7695 -139.9455,318.3536 -46.1564,71.5841 -164.6703,67.4194 -164.6703,67.4194 -20.4892,-19.8626 -30.4251,11.6254 -36.974,11.6365 -177.3995,61.8155 -48.0663,211.4724 63.6513,166.0945 42.378,-0.1236 -0.7198,-60.6625 7.7565,-95.5612 52.6186,-10.5716 146.579,-91.8291 166.8001,-129.4624 34.6172,-64.4257 103.3819,-338.4804 103.3819,-338.4804 z"
       style="opacity:1;fill:none;fill-opacity:1;stroke:none;stroke-width:0.09;stroke-miterlimit:4;stroke-dasharray:none;stroke-opacity:1" />
    <path
       inkscape:tile-y0="7040.1719"
       inkscape:tile-x0="1179.3664"
       sodipodi:nodetypes="csccccsc"
       inkscape:connector-curvature="0"
       id="use5790"
       d="m 4039.9256,-1345.4824 c 0,0 -162.6831,-271.3678 -220.0739,-349.0226 -57.391,-77.6548 -208.042,-62.124 -208.042,-62.124 -25.4764,21.5471 -37.8306,-12.6112 -45.9736,-12.6233 -220.5792,-67.0578 -59.7658,-229.4063 79.1443,-180.1802 52.6928,0.1341 -0.8951,65.807 9.6444,103.6653 65.4261,11.4681 182.2568,99.6167 207.3998,140.4415 43.0432,69.8893 177.901,359.8433 177.901,359.8433 z"
       style="opacity:1;fill:none;fill-opacity:1;stroke:none;stroke-width:0.09;stroke-miterlimit:4;stroke-dasharray:none;stroke-opacity:1" />
    <path
       inkscape:tile-y0="7040.1719"
       inkscape:tile-x0="1179.3664"
       sodipodi:nodetypes="csccccsc"
       inkscape:connector-curvature="0"
       id="use5792"
       d="m 730.77243,-3250.8243 c 0,0 -50.0451,247.0286 -100.0897,319.6842 -50.0447,72.6556 -181.4119,58.1246 -181.4119,58.1246 -22.2154,-20.1599 -32.9883,11.7994 -40.0889,11.8106 -192.3444,62.7408 -52.1156,214.6378 69.0136,168.5808 45.948,-0.1256 -0.7805,-61.5705 8.4099,-96.9917 57.0514,-10.7298 158.9274,-93.2036 180.852,-131.4002 37.5335,-65.39 63.315,-329.8083 63.315,-329.8083 z"
       style="opacity:1;fill:none;fill-opacity:1;stroke:none;stroke-width:0.09;stroke-miterlimit:4;stroke-dasharray:none;stroke-opacity:1" />
    <path
       inkscape:tile-y0="7040.1719"
       inkscape:tile-x0="1179.3664"
       sodipodi:nodetypes="csccccsc"
       inkscape:connector-curvature="0"
       id="use5794"
       d="m 3793.2402,-2015.3462 c 0,0 -32.4841,-225.2533 -83.4297,-296.4652 -50.9456,-71.2119 -206.4091,-76.8232 -206.4091,-76.8232 -28.1644,14.6896 -37.4035,-15.0562 -45.7222,-16.0633 -218.7301,-82.4363 -38.3397,-196.9299 98.7129,-139.2328 53.8246,6.5633 -7.4334,54.2819 -0.4151,86.8636 65.7119,17.4905 176.3496,104.6545 197.9949,141.4763 37.0553,63.0365 39.2683,300.2446 39.2683,300.2446 z"
       style="opacity:1;fill:none;fill-opacity:1;stroke:none;stroke-width:0.09;stroke-miterlimit:4;stroke-dasharray:none;stroke-opacity:1" />
    <path
       inkscape:tile-y0="7040.1719"
       inkscape:tile-x0="1179.3664"
       sodipodi:nodetypes="csccccsc"
       inkscape:connector-curvature="0"
       id="use5796"
       d="m 3226.9417,-1485.9707 c 0,0 -57.556,-214.339 -115.1115,-277.3799 -57.5557,-63.041 -208.639,-50.4329 -208.639,-50.4329 -25.5494,17.4921 -37.9392,-10.238 -46.1055,-10.2477 -221.2122,-54.4382 -59.9373,-186.2345 79.3714,-146.2722 52.8441,0.1089 -0.8976,53.4228 9.6721,84.1566 65.6138,9.3099 182.7798,80.8698 207.9949,114.0118 43.1667,56.7369 72.8176,286.1643 72.8176,286.1643 z"
       style="opacity:1;fill:none;fill-opacity:1;stroke:none;stroke-width:0.09;stroke-miterlimit:4;stroke-dasharray:none;stroke-opacity:1" />
    <path
       inkscape:tile-y0="7040.1719"
       inkscape:tile-x0="1179.3664"
       sodipodi:nodetypes="csccccsc"
       inkscape:connector-curvature="0"
       id="use5798"
       d="m 3415.6164,-2003.2142 c 0,0 -160.7058,-223.0502 -245.1766,-272.3314 -84.471,-49.2811 -216.4728,25.897 -216.4728,25.897 -14.583,30.3547 -39.9012,3.4836 -47.3845,6.7531 -230.0048,26.3482 -148.7255,-189.815 -1.0177,-199.8844 48.4468,-21.105 26.096,61.7179 51.2611,92.77 64.7767,-15.6677 208.1284,19.4495 247.9184,47.3836 68.1178,47.8215 210.8721,299.4121 210.8721,299.4121 z"
       style="opacity:1;fill:none;fill-opacity:1;stroke:none;stroke-width:0.09;stroke-miterlimit:4;stroke-dasharray:none;stroke-opacity:1" />
  </g>
</svg>
