<?xml version="1.0" encoding="UTF-8" standalone="no"?>
<!-- Created with Inkscape (http://www.inkscape.org/) -->

<svg
   xmlns:dc="http://purl.org/dc/elements/1.1/"
   xmlns:cc="http://creativecommons.org/ns#"
   xmlns:rdf="http://www.w3.org/1999/02/22-rdf-syntax-ns#"
   xmlns:svg="http://www.w3.org/2000/svg"
   xmlns="http://www.w3.org/2000/svg"
   xmlns:sodipodi="http://sodipodi.sourceforge.net/DTD/sodipodi-0.dtd"
   xmlns:inkscape="http://www.inkscape.org/namespaces/inkscape"
   id="svg4138"
   version="1.1"
   inkscape:version="0.91 r13725"
   xml:space="preserve"
   width="18in"
   height="24in"
   viewBox="0 0 1620 2160"
   sodipodi:docname="1 inch swatch546svg.svg"><metadata
     id="metadata4144"><rdf:RDF><cc:Work
         rdf:about=""><dc:format>image/svg+xml</dc:format><dc:type
           rdf:resource="http://purl.org/dc/dcmitype/StillImage" /><dc:title></dc:title></cc:Work></rdf:RDF></metadata><defs
     id="defs4142" /><sodipodi:namedview
     pagecolor="#ffffff"
     bordercolor="#666666"
     borderopacity="1"
     objecttolerance="10"
     gridtolerance="10"
     guidetolerance="10"
     inkscape:pageopacity="0"
     inkscape:pageshadow="2"
     inkscape:window-width="1297"
     inkscape:window-height="689"
     id="namedview4140"
     showgrid="false"
     units="in"
     inkscape:document-units="in"
     inkscape:zoom="0.21851852"
     inkscape:cx="812.18214"
     inkscape:cy="977.70151"
     inkscape:window-x="20"
     inkscape:window-y="43"
     inkscape:window-maximized="0"
     inkscape:current-layer="g4146" /><g
     id="g4146"
     inkscape:groupmode="layer"
     inkscape:label="1 inch swatch"
     transform="matrix(1.25,0,0,-1.25,0,2160)"><g
       id="g4148"><g
         id="g4150"
         transform="matrix(1,0,0,-1,0,1728)"><path
           style="fill:#ff0000;fill-opacity:1;fill-rule:nonzero;stroke:#000000;stroke-width:0.09;stroke-linecap:butt;stroke-linejoin:miter;stroke-miterlimit:4;stroke-dasharray:none;stroke-opacity:1"
           d="m 535.42383,132.71094 0,1830.50976 47.43164,0 0,2.4922 452.85743,0 c 8.7062,0 15.7129,-7.0066 15.7129,-15.7129 l 0,-1797.14453 c 0,-8.70625 -7.0067,-15.71094 -15.7129,-15.71094 l -216.56056,0 0,-4.43359 -283.72851,0 z"
           transform="scale(0.8,0.8)"
           id="path4152"
           inkscape:connector-curvature="0" /></g><text
         transform="matrix(1,0,0,-1,662.85713,896)"
         style="font-variant:normal;font-weight:normal;font-size:64px;font-family:'Bitstream Vera Sans';-inkscape-font-specification:BitstreamVeraSans-Roman;writing-mode:lr-tb;fill:#000000;fill-opacity:1;fill-rule:nonzero;stroke:none"
         id="text4154"><tspan
           x="0 20.288 60.992001 101.696"
           y="0"
           sodipodi:role="line"
           id="tspan4156">.956</tspan><tspan
           x="13.71424 34.002239 74.706238 115.41024"
           y="160.00006"
           sodipodi:role="line"
           id="tspan4158">.954</tspan><tspan
           x="13.71424 34.002239 74.706238 115.41024"
           y="301.71436"
           sodipodi:role="line"
           id="tspan4160">.952</tspan><tspan
           x="9.1428032 29.430803 70.134804 110.83881"
           y="420.57153"
           sodipodi:role="line"
           id="tspan4162">.950</tspan><tspan
           x="13.71424 34.002239 74.706238 115.41024"
           y="557.71423"
           sodipodi:role="line"
           id="tspan4164">.948</tspan><tspan
           x="13.71424 34.002239 74.706238 115.41024"
           y="676.57153"
           sodipodi:role="line"
           id="tspan4166">.946</tspan><tspan
           x="4.5713921 24.859392 65.563393 106.2674"
           y="-109.71424"
           sodipodi:role="line"
           id="tspan4168">.958</tspan><tspan
           x="4.5713921 24.859392 65.563393 106.2674"
           y="-237.71423"
           sodipodi:role="line"
           id="tspan4170">.960</tspan><tspan
           x="-4.4799999e-05 20.287954 60.991955 101.69595"
           y="-379.42853"
           sodipodi:role="line"
           id="tspan4172">.962</tspan><tspan
           x="4.5713921 24.859392 65.563393 106.2674"
           y="-507.42853"
           sodipodi:role="line"
           id="tspan4174">.964</tspan><tspan
           x="4.5713921 24.859392 65.563393 106.2674"
           y="-630.85712"
           sodipodi:role="line"
           id="tspan4176">.966</tspan></text>
</g><rect
       style="opacity:1;fill:#00ffff;fill-opacity:1;stroke:none;stroke-width:0.09;stroke-miterlimit:4;stroke-dasharray:none;stroke-opacity:1"
       id="rect4723"
       width="135.45764"
       height="54.915253"
       x="406.37286"
       y="-252.61015"
       transform="scale(1,-1)"
       ry="0" /><rect
       style="opacity:1;fill:#00ffff;fill-opacity:1;stroke:none;stroke-width:0.09;stroke-miterlimit:4;stroke-dasharray:none;stroke-opacity:1"
       id="rect4725"
       width="142.77966"
       height="68.255997"
       x="395.38983"
       y="-375.78146"
       transform="scale(1,-1)"
       ry="0" /><rect
       ry="0"
       transform="scale(1,-1)"
       y="-522.36615"
       x="402.71185"
       height="68.400002"
       width="142.776"
       id="rect4727"
       style="opacity:1;fill:#00ffff;fill-opacity:1;stroke:none;stroke-width:0.09;stroke-miterlimit:4;stroke-dasharray:none;stroke-opacity:1" /><rect
       style="opacity:1;fill:#00ffff;fill-opacity:1;stroke:none;stroke-width:0.09;stroke-miterlimit:4;stroke-dasharray:none;stroke-opacity:1"
       id="rect4729"
       width="142.776"
       height="68.543999"
       x="399.05084"
       y="-665.28979"
       transform="scale(1,-1)"
       ry="0" /><rect
       ry="0"
       transform="scale(1,-1)"
       y="-786.24731"
       x="395.38983"
       height="68.688004"
       width="142.776"
       id="rect4731"
       style="opacity:1;fill:#00ffff;fill-opacity:1;stroke:none;stroke-width:0.09;stroke-miterlimit:4;stroke-dasharray:none;stroke-opacity:1" /><rect
       style="opacity:1;fill:#00ffff;fill-opacity:1;stroke:none;stroke-width:0.09;stroke-miterlimit:4;stroke-dasharray:none;stroke-opacity:1"
       id="rect4733"
       width="142.776"
       height="68.832001"
       x="391.72882"
       y="-940.15399"
       transform="scale(1,-1)"
       ry="0" /><rect
       ry="0"
       transform="scale(1,-1)"
       y="-1064.6285"
       x="395.38983"
       height="68.832001"
       width="142.776"
       id="rect4735"
       style="opacity:1;fill:#00ffff;fill-opacity:1;stroke:none;stroke-width:0.09;stroke-miterlimit:4;stroke-dasharray:none;stroke-opacity:1" /><rect
       style="opacity:1;fill:#00ffff;fill-opacity:1;stroke:none;stroke-width:0.09;stroke-miterlimit:4;stroke-dasharray:none;stroke-opacity:1"
       id="rect4737"
       width="142.776"
       height="68.975998"
       x="395.38983"
       y="-1064.7726"
       transform="scale(1,-1)"
       ry="0" /><rect
       ry="0"
       transform="scale(1,-1)"
       y="-1193.0522"
       x="391.72882"
       height="69.120003"
       width="142.776"
       id="rect4739"
       style="opacity:1;fill:#00ffff;fill-opacity:1;stroke:none;stroke-width:0.09;stroke-miterlimit:4;stroke-dasharray:none;stroke-opacity:1" /><rect
       style="opacity:1;fill:#00ffff;fill-opacity:1;stroke:none;stroke-width:0.09;stroke-miterlimit:4;stroke-dasharray:none;stroke-opacity:1"
       id="rect4741"
       width="142.776"
       height="69.264"
       x="395.38983"
       y="-1328.6539"
       transform="scale(1,-1)"
       ry="0" /><rect
       ry="0"
       transform="scale(1,-1)"
       y="-1453.2726"
       x="395.38983"
       height="69.407997"
       width="142.776"
       id="rect4743"
       style="opacity:1;fill:#00ffff;fill-opacity:1;stroke:none;stroke-width:0.09;stroke-miterlimit:4;stroke-dasharray:none;stroke-opacity:1" /><rect
       style="opacity:1;fill:#00ffff;fill-opacity:1;stroke:none;stroke-width:0.09;stroke-miterlimit:4;stroke-dasharray:none;stroke-opacity:1"
       id="rect4745"
       width="142.776"
       height="69.552002"
       x="399.05084"
       y="-1570.5691"
       transform="scale(1,-1)"
       ry="0" /><path
       style="opacity:1;fill:#00ffff;fill-opacity:1;stroke:none;stroke-width:0.09;stroke-miterlimit:4;stroke-dasharray:none;stroke-opacity:1"
       id="path4747"
       transform="scale(1,-1)"
       sodipodi:type="arc"
       sodipodi:cx="618.4068"
       sodipodi:cy="-1573.9321"
       sodipodi:rx="18"
       sodipodi:ry="18"
       sodipodi:start="0"
       sodipodi:end="6.2695543"
       sodipodi:open="true"
       d="m 636.4068,-1573.9321 a 18,18 0 0 1 -17.93866,17.9999 18,18 0 0 1 -18.06092,-17.8773 18,18 0 0 1 17.81556,-18.1217 18,18 0 0 1 18.18235,17.7537" /></g></svg>