<?xml version="1.0" encoding="UTF-8" standalone="no"?>
<!-- Created with Inkscape (http://www.inkscape.org/) -->

<svg
   xmlns:dc="http://purl.org/dc/elements/1.1/"
   xmlns:cc="http://creativecommons.org/ns#"
   xmlns:rdf="http://www.w3.org/1999/02/22-rdf-syntax-ns#"
   xmlns:svg="http://www.w3.org/2000/svg"
   xmlns="http://www.w3.org/2000/svg"
   xmlns:sodipodi="http://sodipodi.sourceforge.net/DTD/sodipodi-0.dtd"
   xmlns:inkscape="http://www.inkscape.org/namespaces/inkscape"
   width="48in"
   height="96in"
   viewBox="0 0 4320.0001 8640.0003"
   id="svg2"
   version="1.1"
   inkscape:version="0.91 r13725"
   sodipodi:docname="Creaturewwireswfins.svg">
  <defs
     id="defs4" />
  <sodipodi:namedview
     id="base"
     pagecolor="#ffffff"
     bordercolor="#666666"
     borderopacity="1.0"
     inkscape:pageopacity="0.0"
     inkscape:pageshadow="2"
     inkscape:zoom="0.0875"
     inkscape:cx="1535.5856"
     inkscape:cy="3006.4135"
     inkscape:document-units="in"
     inkscape:current-layer="layer1"
     showgrid="true"
     units="in"
     inkscape:window-width="1440"
     inkscape:window-height="790"
     inkscape:window-x="66"
     inkscape:window-y="0"
     inkscape:window-maximized="0">
    <inkscape:grid
       type="xygrid"
       id="grid4136"
       units="in"
       spacingx="0.18"
       spacingy="0.018000001"
       empspacing="1"
       color="#fb0000"
       opacity="0.1254902"
       enabled="false" />
  </sodipodi:namedview>
  <metadata
     id="metadata7">
    <rdf:RDF>
      <cc:Work
         rdf:about="">
        <dc:format>image/svg+xml</dc:format>
        <dc:type
           rdf:resource="http://purl.org/dc/dcmitype/StillImage" />
        <dc:title></dc:title>
      </cc:Work>
    </rdf:RDF>
  </metadata>
  <g
     inkscape:label="Layer 1"
     inkscape:groupmode="layer"
     id="layer1"
     transform="translate(0,7587.6379)">
    <path
       style="display:inline;opacity:1;fill:none;fill-rule:evenodd;stroke:#000000;stroke-width:0.21085617;stroke-linecap:butt;stroke-linejoin:miter;stroke-miterlimit:4;stroke-dasharray:none;stroke-opacity:1"
       d="M 1215.5662,-1944.5069 C 912.12907,-880.85911 753.38942,-915.97085 776.09391,-208.66817 2085.5229,1943.4533 6086.4832,-118.9503 2678.2,-3118.4292 c -351.2796,-389.8684 -524.6126,-635.5421 -588.99,-779.9745 -424.5977,-713.4367 525.7025,-703.1614 369.2735,4.6719 -46.5389,121.7439 52.3939,296.7372 130.37,269.2042 319.3471,-112.7602 418.6789,140.5286 503.306,239.9097 728.9636,-547.9804 153.5411,-127.6699 -168.5866,-529.0856 -78.935,-97.5209 -213.3577,-340.7447 -228.9197,-393.5103 14.7002,-214.0413 213.5474,-330.074 407.7475,-198.9517 143.2999,93.8777 206.157,65.3063 312.6851,137.6548 117.2787,130.3913 129.4142,85.6744 384.228,101.2739 185.982,11.3857 272.1027,-254.5928 -246.9211,-406.9748 -733.0247,-241.7982 48.9268,-630.7007 -608.3632,-640.3812 -348.6467,-176.025 -628.2287,-23.3558 -699.6721,37.1596 -258.0536,119.6799 -1036.9023,679.8815 -485.5842,1688.1044 1130.3856,1046.0128 2526.8107,3324.97012 159.178,3330.55381 -419.0706,-50.67525 -595.7105,-123.2449 -626.0102,-280.98367 -199.5935,-312.44223 237.331,-1010.02904 247.9951,-1546.93404 -75.0116,-410.8935 -263.8181,-492.9375 -447.9116,-553.465 -901.96205,-98.2579 -843.97348,815.7127 -511.70866,1108.104 -439.90928,-859.9983 775.87726,-1283.8359 635.25036,-412.4532 z"
       id="path3448"
       inkscape:connector-curvature="0"
       sodipodi:nodetypes="cccccscccccscccccccccc" />
    <path
       style="fill:none;fill-rule:evenodd;stroke:#000000;stroke-width:0.99229807px;stroke-linecap:butt;stroke-linejoin:miter;stroke-opacity:1"
       d="m 2486.3653,-4883.8521 c -410.5857,22.9353 -919.2046,338.1211 -498.8068,1176.8029 110.471,222.4786 640.1579,820.5392 1025.1139,1327.9255 213.3624,281.2197 460.852,861.8898 435.1883,1462.39558 -11.1616,261.1686 -35.57,852.598188 -558.2712,1070.68955 C 2118.3793,386.18576 1345.1224,68.652137 1092.4948,-295.88929 823.87393,-733.59519 1988.5222,-2504.1906 922.39607,-2564.8051 c -70.15631,-0.824 -802.98507,102.6983 -349.28378,1034.1937"
       id="path4155"
       inkscape:connector-curvature="0"
       sodipodi:nodetypes="ccsscccc" />
    <path
       style="opacity:1;fill:none;fill-opacity:1;stroke:#000000;stroke-width:0.09;stroke-miterlimit:4;stroke-dasharray:none;stroke-opacity:1"
       id="path5323"
       sodipodi:type="arc"
       sodipodi:cx="2693.5576"
       sodipodi:cy="-4886.5732"
       sodipodi:rx="205.71428"
       sodipodi:ry="194.28572"
       sodipodi:start="0"
       sodipodi:end="6.2695543"
       sodipodi:open="true"
       d="m 2899.2719,-4886.5732 a 205.71428,194.28572 0 0 1 -205.0133,194.2846 205.71428,194.28572 0 0 1 -206.4105,-192.9605 205.71428,194.28572 0 0 1 203.6065,-195.5997 205.71428,194.28572 0 0 1 207.7982,191.6273" />
    <path
       style="fill:none;fill-rule:evenodd;stroke:#000000;stroke-width:1px;stroke-linecap:butt;stroke-linejoin:miter;stroke-opacity:1"
       d="m 2887.8434,-4943.7163 c 130.4545,21.4955 367.6634,-287.6635 342.8571,-262.8571 0,0 0.728,-46.7788 -70.7005,-72.4931 -71.4286,-25.7143 -142.8571,-34.2857 -142.8571,-34.2857 0,0 0,145.7143 -48.5715,188.5714 -48.5714,42.8572 -131.4285,94.2858 -131.4285,94.2858 0,0 55.6868,76.4146 50.7005,86.7787 z"
       id="path5325"
       inkscape:connector-curvature="0"
       sodipodi:nodetypes="ccscscc" />
    <path
       style="fill:none;fill-rule:evenodd;stroke:#000000;stroke-width:1px;stroke-linecap:butt;stroke-linejoin:miter;stroke-opacity:1"
       d="m 1445.14,-4210.7822 c 0,0 -45.7143,-142.8572 5.7143,-365.7143 51.4285,-222.8572 165.7142,-354.2858 165.7142,-354.2858 l -582.8571,-571.4285 c 0,0 40,834.2857 -17.1428,1062.8571 -57.14286,228.5715 -68.57146,222.8572 -68.57146,222.8572 z"
       id="path5350"
       inkscape:connector-curvature="0"
       sodipodi:nodetypes="csccscc" />
    <path
       style="fill:none;fill-rule:evenodd;stroke:#000000;stroke-width:1px;stroke-linecap:butt;stroke-linejoin:miter;stroke-opacity:1"
       d="m 1104.2436,-5597.6799 598.0392,578.5295 c 102.8588,-157.6646 322.659,-330.8098 459.1037,-384.531 l -182.8572,-845.427 c 0,0 -74.2857,262.8571 -222.8571,417.1428 -148.5714,154.2857 -651.4286,234.2857 -651.4286,234.2857 z"
       id="path5352"
       inkscape:connector-curvature="0"
       sodipodi:nodetypes="ccccsc" />
    <path
       style="fill:none;fill-rule:evenodd;stroke:#000000;stroke-width:1px;stroke-linecap:butt;stroke-linejoin:miter;stroke-opacity:1"
       d="m 993.30529,-4149.0243 445.13991,-18.1234 c 0,0 39.2068,297.5162 177.8362,526.4077 46.3909,76.5963 140.1976,133.3326 125.3082,140.7773 l -616.8557,270.9384 c 0,0 40,-245.7143 0,-457.1429 -40,-211.4286 -131.42861,-462.8571 -131.42861,-462.8571 z"
       id="path5354"
       inkscape:connector-curvature="0"
       sodipodi:nodetypes="ccsccsc" />
    <path
       style="fill:none;fill-rule:evenodd;stroke:#000000;stroke-width:1px;stroke-linecap:butt;stroke-linejoin:miter;stroke-opacity:1"
       d="m 1222.57,-3149.4305 571.4286,-268.5714 c 0,0 45.7143,34.2857 200,205.7143 154.2857,171.4286 258.5294,311.9188 258.5294,311.9188 l -241.3865,116.6526 c 0,0 -120,-131.4286 -377.1429,-205.7143 -257.1429,-74.2857 -411.4286,-160 -411.4286,-160 z"
       id="path5356"
       inkscape:connector-curvature="0"
       sodipodi:nodetypes="ccsccsc" />
    <path
       style="fill:none;fill-rule:evenodd;stroke:#000000;stroke-width:1px;stroke-linecap:butt;stroke-linejoin:miter;stroke-opacity:1"
       d="m 2122.367,-6341.5177 166.4075,883.7535 c 0,0 125.8333,-136.4495 285.8333,-159.3067 160,-22.8571 288.5365,41.9608 288.5365,41.9608 9.0632,-79.8015 82.1997,-189.8429 96.3655,-254.979 0,0 -259.9999,77.1428 -465.7142,-122.8572 -205.7143,-200 -371.4286,-388.5714 -371.4286,-388.5714 z"
       id="path5358"
       inkscape:connector-curvature="0"
       sodipodi:nodetypes="ccsccsc" />
    <path
       style="fill:none;fill-rule:evenodd;stroke:#000000;stroke-width:1px;stroke-linecap:butt;stroke-linejoin:miter;stroke-opacity:1"
       d="m 2062.8571,-3581.9236 -245.7142,97.1428"
       id="path5381"
       inkscape:connector-curvature="0"
       sodipodi:nodetypes="cc" />
    <path
       style="fill:none;fill-rule:evenodd;stroke:#000000;stroke-width:1px;stroke-linecap:butt;stroke-linejoin:miter;stroke-opacity:1"
       d="m 1840,-4147.6379 -342.8571,0"
       id="path5383"
       inkscape:connector-curvature="0"
       sodipodi:nodetypes="cc" />
    <path
       style="fill:none;fill-rule:evenodd;stroke:#000000;stroke-width:1px;stroke-linecap:butt;stroke-linejoin:miter;stroke-opacity:1"
       d="m 1974.2857,-4664.7807 -282.8571,-260.0001"
       id="path5385"
       inkscape:connector-curvature="0"
       sodipodi:nodetypes="cc" />
    <path
       style="fill:none;fill-rule:evenodd;stroke:#000000;stroke-width:1px;stroke-linecap:butt;stroke-linejoin:miter;stroke-opacity:1"
       d="m 2308.5714,-4856.2093 -80,-411.4286"
       id="path5387"
       inkscape:connector-curvature="0"
       sodipodi:nodetypes="cc" />
    <path
       style="fill:none;fill-rule:evenodd;stroke:#000000;stroke-width:1px;stroke-linecap:butt;stroke-linejoin:miter;stroke-opacity:1"
       d="m 2468.5714,-3061.9236 -148.5714,68.5714 0,0 -11.4286,11.4286"
       id="path5389"
       inkscape:connector-curvature="0" />
  </g>
</svg>
