<?xml version="1.0" encoding="UTF-8" standalone="no"?>
<!-- Created with Inkscape (http://www.inkscape.org/) -->

<svg
   xmlns:dc="http://purl.org/dc/elements/1.1/"
   xmlns:cc="http://creativecommons.org/ns#"
   xmlns:rdf="http://www.w3.org/1999/02/22-rdf-syntax-ns#"
   xmlns:svg="http://www.w3.org/2000/svg"
   xmlns="http://www.w3.org/2000/svg"
   xmlns:sodipodi="http://sodipodi.sourceforge.net/DTD/sodipodi-0.dtd"
   xmlns:inkscape="http://www.inkscape.org/namespaces/inkscape"
   width="30in"
   height="20in"
   viewBox="0 0 2700 1800"
   id="svg2"
   version="1.1"
   inkscape:version="0.91 r13725"
   sodipodi:docname="NewCreaturespine1a.svg">
  <defs
     id="defs4" />
  <sodipodi:namedview
     id="base"
     pagecolor="#ffffff"
     bordercolor="#666666"
     borderopacity="1.0"
     inkscape:pageopacity="0.0"
     inkscape:pageshadow="2"
     inkscape:zoom="0.20750545"
     inkscape:cx="907.90875"
     inkscape:cy="945.51185"
     inkscape:document-units="in"
     inkscape:current-layer="layer1"
     showgrid="true"
     units="in"
     inkscape:window-width="1440"
     inkscape:window-height="783"
     inkscape:window-x="0"
     inkscape:window-y="1"
     inkscape:window-maximized="1"
     objecttolerance="4"
     guidetolerance="9">
    <inkscape:grid
       type="xygrid"
       id="grid3336"
       units="in"
       empspacing="1"
       enabled="false"
       dotted="false"
       spacingx="90"
       spacingy="90" />
  </sodipodi:namedview>
  <metadata
     id="metadata7">
    <rdf:RDF>
      <cc:Work
         rdf:about="">
        <dc:format>image/svg+xml</dc:format>
        <dc:type
           rdf:resource="http://purl.org/dc/dcmitype/StillImage" />
        <dc:title></dc:title>
      </cc:Work>
    </rdf:RDF>
  </metadata>
  <g
     inkscape:label="Layer 1"
     inkscape:groupmode="layer"
     id="layer1"
     transform="translate(0,747.63783)"
     style="display:inline;opacity:1">
    <path
       style="fill:none;fill-rule:evenodd;stroke:#000000;stroke-width:0.09;stroke-linecap:butt;stroke-linejoin:miter;stroke-miterlimit:4;stroke-dasharray:none;stroke-opacity:1"
       d="m 2103.553,579.63362 c 126.2106,-28.98136 302.6373,-128.14635 368.064,-174.198 65.4267,-46.05165 98.5813,-105.02256 110.772,-131.97947 43.0444,-95.18266 26.4664,-180.782183 32.0468,-278.0499532 8.3854,-146.1580968 30.9088,-388.8147168 -164.6089,-516.2066768 -197.5317,-128.70424 -183.2867,-131.56271 -520.8396,-126.32395 -332.7123,5.16363 -581.092,165.34681 -657.4906,235.0409 -80.0578,73.03221 -210.4746,162.52058 -293.08874,231.71124 C 895.79391,-111.18162 810,-27.63783 735.02763,5.546564 642.58462,46.463841 626.36281,13.193961 613.51172,-34.580544 c -12.85108,-47.774505 45.12679,-136.733926 89.18765,-171.329266 44.06087,-34.59533 55.07608,-69.19066 56.91195,-87.31202 1.83587,-18.12136 -9.17934,-39.53752 -56.91195,-62.60108 -47.73259,-23.06355 -88.12172,-29.65313 -100.9728,-57.65889 -12.85109,-28.00573 -7.34348,-72.48544 18.35869,-79.07504 25.70216,-6.58958 38.55325,-6.58958 38.55325,-6.58958 0,0 -20.19455,-39.53753 -60.58369,-31.30055 -40.38912,8.23699 -108.31627,19.76877 -111.98801,47.77451 -3.67174,28.00575 -26.45834,38.8283 25.70217,103.786 50.66221,63.0918 39.49485,51.68521 66.09129,112.02298 4.46158,94.55817 -159.77958,204.193184 -120.74215,178.504662 -33.97217,65.40622 -118.75817,10.158885 -121.25418,-48.491842 -0.20269,-18.11041 -3.15339,-67.96088 -3.15339,-67.96088 -24.334,5.96963 -70.0232,-139.27908 -34.86007,-266.48972 20.94881,-75.78709 -110.12184,50.47263 -135.38621,-42.01278 -26.24429,-34.20412 -85.405815,88.18938 22.3976,126.30042 -58.01347,76.21955 -18.60476,147.29606 5.26283,206.69338 27.82749,69.252 80.00909,139.90364 -7.29759,129.444196 -53.84062,-6.450171 17.0277,95.260716 38.14019,118.324265 42.22499,46.127109 93.17634,139.346609 205.28675,158.456399 112.9819,19.25835 281.80308,-29.70051 417.59907,-131.962612 183.23698,-137.987909 170.12998,-149.980086 226.42368,-199.910768 67.4087,-59.78944 267.4635,-200.78981 368.0072,-278.91316 134.5205,-104.52367 320.1521,-126.893 470.9345,-133.15853 167.3179,-6.95265 356.6927,-1.22912 452.9272,86.21563 36.7566,33.39931 107.1962,92.56662 110.3344,180.99118 6.0917,171.64764 42.9579,191.552143 18.9973,363.26838 -24.2068,173.48092 -70.476,201.59728 -291.0388,307.59005 -108.7339,52.25269 -204.6964,88.38542 -319.5127,75.06277 -70.7754,-8.21239 -229.9792,-68.09438 -357.5749,38.83975 0,0 -12.0841,28.19022 -75.4041,118.19022 -51.7872,73.60769 209.8408,221.93607 209.8408,221.93607 0,0 -190.2887,-175.16564 -86.7447,-260.23413 121.9738,-100.20978 178.0922,-46.90684 260.2341,-33.73405 105.6167,16.93735 272.2759,-0.4518 272.2759,-0.4518 z"
       id="path3448"
       inkscape:connector-curvature="0"
       sodipodi:nodetypes="csssssssssssssscssscccssccssssssssssssscscssc" />
  </g>
  <g
     inkscape:groupmode="layer"
     id="layer2"
     inkscape:label="Layer 2"
     style="display:inline;opacity:1" />
</svg>
