<?xml version="1.0" encoding="UTF-8" standalone="no"?>
<!-- Created with Inkscape (http://www.inkscape.org/) -->

<svg
   xmlns:dc="http://purl.org/dc/elements/1.1/"
   xmlns:cc="http://creativecommons.org/ns#"
   xmlns:rdf="http://www.w3.org/1999/02/22-rdf-syntax-ns#"
   xmlns:svg="http://www.w3.org/2000/svg"
   xmlns="http://www.w3.org/2000/svg"
   xmlns:sodipodi="http://sodipodi.sourceforge.net/DTD/sodipodi-0.dtd"
   xmlns:inkscape="http://www.inkscape.org/namespaces/inkscape"
   width="48in"
   height="96in"
   viewBox="0 0 4320.0001 8640.0003"
   id="svg2"
   version="1.1"
   inkscape:version="0.91 r13725"
   sodipodi:docname="Creaturemeasure.svg">
  <defs
     id="defs4" />
  <sodipodi:namedview
     id="base"
     pagecolor="#ffffff"
     bordercolor="#666666"
     borderopacity="1.0"
     inkscape:pageopacity="0.0"
     inkscape:pageshadow="2"
     inkscape:zoom="0.061871843"
     inkscape:cx="2627.472"
     inkscape:cy="3113.4788"
     inkscape:document-units="in"
     inkscape:current-layer="layer1"
     showgrid="true"
     units="in"
     inkscape:window-width="1440"
     inkscape:window-height="790"
     inkscape:window-x="88"
     inkscape:window-y="0"
     inkscape:window-maximized="0">
    <inkscape:grid
       type="xygrid"
       id="grid4136"
       units="in"
       spacingx="0.18"
       spacingy="0.018000001"
       empspacing="1"
       color="#fb0000"
       opacity="0.1254902"
       enabled="false" />
  </sodipodi:namedview>
  <metadata
     id="metadata7">
    <rdf:RDF>
      <cc:Work
         rdf:about="">
        <dc:format>image/svg+xml</dc:format>
        <dc:type
           rdf:resource="http://purl.org/dc/dcmitype/StillImage" />
        <dc:title></dc:title>
      </cc:Work>
    </rdf:RDF>
  </metadata>
  <g
     inkscape:label="Layer 1"
     inkscape:groupmode="layer"
     id="layer1"
     transform="translate(0,7587.6379)">
    <path
       style="display:inline;opacity:1;fill:none;fill-rule:evenodd;stroke:#000000;stroke-width:0.21085617;stroke-linecap:butt;stroke-linejoin:miter;stroke-miterlimit:4;stroke-dasharray:none;stroke-opacity:1"
       d="M 1215.5662,-1944.5069 C 912.12907,-880.85911 753.38942,-915.97085 776.09391,-208.66817 2085.5229,1943.4533 6086.4832,-118.9503 2678.2,-3118.4292 c -351.2796,-389.8684 -524.6126,-635.5421 -588.99,-779.9745 -424.5977,-713.4367 525.7025,-703.1614 369.2735,4.6719 -46.5389,121.7439 52.3939,296.7372 130.37,269.2042 319.3471,-112.7602 418.6789,140.5286 503.306,239.9097 728.9636,-547.9804 153.5411,-127.6699 -168.5866,-529.0856 -78.935,-97.5209 -213.3577,-340.7447 -228.9197,-393.5103 14.7002,-214.0413 213.5474,-330.074 407.7475,-198.9517 143.2999,93.8777 206.157,65.3063 312.6851,137.6548 117.2787,130.3913 129.4142,85.6744 384.228,101.2739 185.982,11.3857 272.1027,-254.5928 -246.9211,-406.9748 -733.0247,-241.7982 48.9268,-630.7007 -608.3632,-640.3812 -348.6467,-176.025 -628.2287,-23.3558 -699.6721,37.1596 -258.0536,119.6799 -1036.9023,679.8815 -485.5842,1688.1044 1130.3856,1046.0128 2526.8107,3324.97012 159.178,3330.55381 -419.0706,-50.67525 -595.7105,-123.2449 -626.0102,-280.98367 -199.5935,-312.44223 237.331,-1010.02904 247.9951,-1546.93404 -75.0116,-410.8935 -263.8181,-492.9375 -447.9116,-553.465 -901.96205,-98.2579 -843.97348,815.7127 -511.70866,1108.104 -439.90928,-859.9983 775.87726,-1283.8359 635.25036,-412.4532 z"
       id="path3448"
       inkscape:connector-curvature="0"
       sodipodi:nodetypes="cccccscccccscccccccccc" />
    <path
       style="fill:none;fill-rule:evenodd;stroke:#000000;stroke-width:0.99229807px;stroke-linecap:butt;stroke-linejoin:miter;stroke-opacity:1"
       d="m 2486.3653,-4883.8521 c -410.5857,22.9353 -919.2046,338.1211 -498.8068,1176.8029 110.471,222.4786 640.1579,820.5392 1025.1139,1327.9255 213.3624,281.2197 460.852,861.8898 435.1883,1462.39558 -11.1616,261.1686 -35.57,852.598188 -558.2712,1070.68955 C 2118.3793,386.18576 1345.1224,68.652137 1092.4948,-295.88929 823.87393,-733.59519 1988.5222,-2504.1906 922.39607,-2564.8051 c -70.15631,-0.824 -802.98507,102.6983 -349.28378,1034.1937"
       id="path4155"
       inkscape:connector-curvature="0"
       sodipodi:nodetypes="ccsscccc" />
    <path
       style="opacity:1;fill:none;fill-opacity:1;stroke:#000000;stroke-width:0.09;stroke-miterlimit:4;stroke-dasharray:none;stroke-opacity:1"
       id="path5323"
       sodipodi:type="arc"
       sodipodi:cx="2693.5576"
       sodipodi:cy="-4886.5732"
       sodipodi:rx="205.71428"
       sodipodi:ry="194.28572"
       sodipodi:start="0"
       sodipodi:end="6.2695543"
       sodipodi:open="true"
       d="m 2899.2719,-4886.5732 a 205.71428,194.28572 0 0 1 -205.0133,194.2846 205.71428,194.28572 0 0 1 -206.4105,-192.9605 205.71428,194.28572 0 0 1 203.6065,-195.5997 205.71428,194.28572 0 0 1 207.7982,191.6273" />
    <path
       style="fill:none;fill-rule:evenodd;stroke:#000000;stroke-width:1px;stroke-linecap:butt;stroke-linejoin:miter;stroke-opacity:1"
       d="m 2887.8434,-4943.7163 c 130.4545,21.4955 367.6634,-287.6635 342.8571,-262.8571 0,0 0.728,-46.7788 -70.7005,-72.4931 -71.4286,-25.7143 -142.8571,-34.2857 -142.8571,-34.2857 0,0 0,145.7143 -48.5715,188.5714 -48.5714,42.8572 -131.4285,94.2858 -131.4285,94.2858 0,0 55.6868,76.4146 50.7005,86.7787 z"
       id="path5325"
       inkscape:connector-curvature="0"
       sodipodi:nodetypes="ccscscc" />
    <path
       style="fill:none;fill-rule:evenodd;stroke:#000000;stroke-width:1px;stroke-linecap:butt;stroke-linejoin:miter;stroke-opacity:1"
       d="m 1445.14,-4210.7822 c 0,0 -45.7143,-142.8572 5.7143,-365.7143 51.4285,-222.8572 165.7142,-354.2858 165.7142,-354.2858 l -582.8571,-571.4285 c 0,0 40,834.2857 -17.1428,1062.8571 -57.14286,228.5715 -68.57146,222.8572 -68.57146,222.8572 z"
       id="path5350"
       inkscape:connector-curvature="0"
       sodipodi:nodetypes="csccscc" />
    <path
       style="fill:none;fill-rule:evenodd;stroke:#000000;stroke-width:1px;stroke-linecap:butt;stroke-linejoin:miter;stroke-opacity:1"
       d="m 1104.2436,-5597.6799 598.0392,578.5295 c 102.8588,-157.6646 322.659,-330.8098 459.1037,-384.531 l -182.8572,-845.427 c 0,0 -74.2857,262.8571 -222.8571,417.1428 -148.5714,154.2857 -651.4286,234.2857 -651.4286,234.2857 z"
       id="path5352"
       inkscape:connector-curvature="0"
       sodipodi:nodetypes="ccccsc" />
    <path
       style="fill:none;fill-rule:evenodd;stroke:#000000;stroke-width:1px;stroke-linecap:butt;stroke-linejoin:miter;stroke-opacity:1"
       d="m 993.30529,-4149.0243 445.13991,-18.1234 c 0,0 39.2068,297.5162 177.8362,526.4077 46.3909,76.5963 140.1976,133.3326 125.3082,140.7773 l -616.8557,270.9384 c 0,0 40,-245.7143 0,-457.1429 -40,-211.4286 -131.42861,-462.8571 -131.42861,-462.8571 z"
       id="path5354"
       inkscape:connector-curvature="0"
       sodipodi:nodetypes="ccsccsc" />
    <path
       style="fill:none;fill-rule:evenodd;stroke:#000000;stroke-width:1px;stroke-linecap:butt;stroke-linejoin:miter;stroke-opacity:1"
       d="m 1222.57,-3149.4305 571.4286,-268.5714 c 0,0 45.7143,34.2857 200,205.7143 154.2857,171.4286 258.5294,311.9188 258.5294,311.9188 l -241.3865,116.6526 c 0,0 -120,-131.4286 -377.1429,-205.7143 -257.1429,-74.2857 -411.4286,-160 -411.4286,-160 z"
       id="path5356"
       inkscape:connector-curvature="0"
       sodipodi:nodetypes="ccsccsc" />
    <path
       style="fill:none;fill-rule:evenodd;stroke:#000000;stroke-width:1px;stroke-linecap:butt;stroke-linejoin:miter;stroke-opacity:1"
       d="m 2122.367,-6341.5177 166.4075,883.7535 c 0,0 125.8333,-136.4495 285.8333,-159.3067 160,-22.8571 288.5365,41.9608 288.5365,41.9608 9.0632,-79.8015 82.1997,-189.8429 96.3655,-254.979 0,0 -259.9999,77.1428 -465.7142,-122.8572 -205.7143,-200 -371.4286,-388.5714 -371.4286,-388.5714 z"
       id="path5358"
       inkscape:connector-curvature="0"
       sodipodi:nodetypes="ccsccsc" />
    <path
       style="fill:none;fill-rule:evenodd;stroke:#000000;stroke-width:1px;stroke-linecap:butt;stroke-linejoin:miter;stroke-opacity:1"
       d="m 2062.8571,-3581.9236 -245.7142,97.1428"
       id="path5381"
       inkscape:connector-curvature="0"
       sodipodi:nodetypes="cc" />
    <path
       style="fill:none;fill-rule:evenodd;stroke:#000000;stroke-width:1px;stroke-linecap:butt;stroke-linejoin:miter;stroke-opacity:1"
       d="m 1840,-4147.6379 -342.8571,0"
       id="path5383"
       inkscape:connector-curvature="0"
       sodipodi:nodetypes="cc" />
    <path
       style="fill:none;fill-rule:evenodd;stroke:#000000;stroke-width:1px;stroke-linecap:butt;stroke-linejoin:miter;stroke-opacity:1"
       d="m 1974.2857,-4664.7807 -282.8571,-260.0001"
       id="path5385"
       inkscape:connector-curvature="0"
       sodipodi:nodetypes="cc" />
    <path
       style="fill:none;fill-rule:evenodd;stroke:#000000;stroke-width:1px;stroke-linecap:butt;stroke-linejoin:miter;stroke-opacity:1"
       d="m 2308.5714,-4856.2093 -80,-411.4286"
       id="path5387"
       inkscape:connector-curvature="0"
       sodipodi:nodetypes="cc" />
    <path
       style="fill:none;fill-rule:evenodd;stroke:#000000;stroke-width:1px;stroke-linecap:butt;stroke-linejoin:miter;stroke-opacity:1"
       d="m 2468.5714,-3061.9236 -148.5714,68.5714 0,0 -11.4286,11.4286"
       id="path5389"
       inkscape:connector-curvature="0" />
    <path
       style="opacity:1;fill:#ff0000;fill-opacity:1;stroke:#000000;stroke-width:0.02935592;stroke-miterlimit:4;stroke-dasharray:none;stroke-opacity:1"
       d="m 197.91357,102.27735 0,0 c -0.92164,0.018 -1.86906,0.084 -2.83898,0.2379 -1.13085,0.3347 -2.28954,0.7604 -3.47812,1.2741 -5.10192,0.3115 -9.71292,1.5512 -13.82055,3.7162 -5.75191,3.7048 -10.39972,9.3991 -13.91006,17.047 -75.688582,79.0286 -206.239262,363.1965 -322.9459,702.95272 l -2.14907,6.27913 c -81.19445,237.4673 -144.22774,469.0991 -171.32067,629.5591 -65.43248,8.7147 -115.00655,70.7684 -115.89169,145.0699 l 0,1.1903 c -1.51089,403.5885 185.84628,675.6316 423.077148,983.0635 -161.941538,-332.5439 -245.175418,-547.9874 -181.714408,-901.6957 4.46879,-7.7925 8.2774,-16.0451 11.37687,-24.642 l 0.61049,0 -0.56219,-0.1225 c 6.32134,-17.3892 9.6511,-35.9778 9.80968,-54.7702 0.16735,-29.8003 -7.64237,-58.9637 -22.40659,-83.6784 73.8876,-135.3649 163.793608,-351.0542 244.650028,-586.92966 C 107.18157,734.21823 166.28735,619.65795 198.09967,463.04415 c 47.7352,147.9385 130.95236,247.12447 234.20109,435.14264 103.64128,188.66341 217.44968,361.36581 316.45078,480.20771 59.6735,71.6327 111.0231,120.1594 150.4023,142.9443 4.0479,3.0994 8.5608,5.4457 13.5187,7.0267 19.7126,8.9866 35.8054,10.3717 47.6952,3.7193 4.8153,-2.6946 8.8833,-6.6897 12.2202,-11.9131 81.05266,-35.728 194.65086,-156.6223 294.06076,-312.9409 2.8388,-4.4669 5.6385,-8.9353 8.4191,-13.4035 175.3636,133.6636 191.2927,-381.64235 189.3812,-383.88813 156.4082,-125.46775 157.8179,101.7598 255.1231,89.73252 97.6443,-12.06953 126.6345,-207.4813 243.8891,-84.32516 67.0958,133.1042 -0.2948,441.50617 179.5896,387.73067 0.7289,1.1682 1.4477,2.3364 2.1799,3.5046 98.5491,157.0104 211.4818,278.6959 292.3368,314.9899 3.3082,5.2462 7.356,9.2702 12.1567,11.9986 11.8529,6.7353 27.9525,5.4631 47.714,-3.3854 4.9663,-1.5465 9.4905,-3.8605 13.5553,-6.9316 39.5038,-22.5094 91.1184,-70.6768 151.1841,-141.8909 99.6524,-118.1475 214.4097,-290.0513 319.086,-477.98682 104.2799,-187.29257 188.0399,-285.89493 236.5866,-433.49663 30.9516,156.8329 89.4254,271.80351 159.071,478.90637 79.5589,236.43608 168.2766,452.75148 241.419,588.62918 -14.8998,24.6111 -22.8659,53.7179 -22.8624,83.5186 0.055,18.7934 3.2812,37.4048 9.5067,54.8375 l -0.5656,0.1213 0.6133,0 c 3.0525,8.6182 6.8155,16.893 11.2414,24.717 61.5161,354.145 -22.8988,569.0041 -186.6647,900.4099 238.9159,-305.768 427.7624,-576.4962 428.4695,-980.0875 l 0,-1.1904 c -0.4772,-74.3058 -49.7096,-136.7074 -115.0928,-145.8793 -26.211,-160.6459 -87.9703,-392.7112 -167.8584,-630.74176 l -2.1146,-6.29209 c -114.8374,-340.5644 -243.8266,-625.6414 -319.0793,-705.1978 -3.4685,-7.6717 -8.0823,-13.3983 -13.8136,-17.1432 -4.0956,-2.1936 -8.701,-3.4654 -13.801,-3.8125 -1.1859,-0.5219 -2.3419,-0.957 -3.4706,-1.2998 -0.969,-0.1597 -1.9167,-0.2433 -2.8383,-0.2574 l 0,0 c -2.7644,-0.045 -5.3127,0.5719 -7.6438,1.8414 -97.0963,17.9158 -309.5822,284.4214 -502.7396,630.55104 l -3.1766,5.70024 c -95.2712,171.36481 -172.2437,304.83807 -222.0488,445.52447 -27.1359,-66.7474 -65.0206,-107.1926 -106.6799,-169.2363 415.6231,-389.19925 -510.2703,-14.7329 -302.301,-764.47685 13.5652,-48.9034 28.6286,-90.6009 44.9035,-126.0085 l -112.0467,-0.2526 c -0.343,115.4475 -54.786,222.1004 -143.1732,280.478 11.1995,-26.8944 17.0808,-56.4063 17.2057,-86.3359 l -0.02,-2.7097 c -1.0804,-93.2627 -57.2621,-173.1066 -135.1155,-192.0215 l -68.9483,-0.1508 c -78.8685,19.2665 -135.2978,100.976 -134.9998,195.4783 0.1477,25.6407 4.521,51.0059 12.8784,74.6971 -79.0692,-60.407 -126.6201,-160.8643 -127.0984,-268.5097 0.026,-0.7428 0.059,-1.4853 0.093,-2.2279 l -113.5589,-0.2564 c 16.5209,35.7502 31.8017,77.9476 45.527,127.5759 204.9269,740.99077 -696.45086,383.4913 -317.1583,750.69065 -45.43806,69.4457 -86.94496,110.4015 -116.34416,181.5487 -49.0306,-141.032 -125.2683,-275.0362 -219.5963,-447.06398 l -3.1442,-5.72455 C 513.57184,390.75115 302.55334,122.76485 205.55719,104.17035 c -2.32397,-1.2857 -4.86929,-1.9186 -7.63417,-1.8959 z"
       id="path4497"
       inkscape:connector-curvature="0"
       sodipodi:nodetypes="cccccccccccccccccccccscccccccscccccccsccccccccccccccccccccccccccsccccccccccccsccccccc" />
    <path
       style="fill:#ffffff;fill-opacity:1;stroke:#000000;stroke-width:0.35944501;stroke-miterlimit:4;stroke-dasharray:none;stroke-opacity:1"
       d="m 1682.4009,-1014.6595 c -700.00073,1.825 356.0064,330.30322 -196.8851,797.92736 C 932.62447,250.8912 942.56198,-979.13562 747.96577,-224.3297 566.20669,480.68319 1053.1301,-368.51411 1312.1252,130.51762 l 115.3966,-0.0897 a 314.60709,287.81861 80.4815 0 1 103.0071,-242.15057 191.59557,168.58515 83.165983 0 0 -5.6183,56.379114 191.59557,168.58515 83.165983 0 0 139.8028,185.590246 l 68.6394,-0.0579 a 191.59557,168.58515 83.165983 0 0 129.2258,-187.099926 l -0.071,-2.606911 a 191.59557,168.58515 83.165983 0 0 -20.7797,-84.230863 314.60709,287.81861 80.4815 0 1 162.4337,273.73051 l 113.7259,-0.0868 c 229.8434,-503.48555 766.8784,345.43546 544.332,-359.22402 -238.0281,-753.67781 -157.2739,476.1106 -737.0072,11.44025 -579.734,-464.67133 457.2041,-798.60245 -242.7965,-796.77755 z"
       id="path3562-0-9"
       inkscape:connector-curvature="0" />
    <rect
       style="opacity:1;fill:none;fill-opacity:1;stroke:#000000;stroke-width:0.0802748;stroke-miterlimit:4;stroke-dasharray:none;stroke-opacity:1"
       id="rect6010"
       width="125.72398"
       height="205.72394"
       x="1657.1381"
       y="-61.928677"
       rx="0" />
    <rect
       style="opacity:1;fill:none;fill-opacity:1;stroke:#000000;stroke-width:0.09;stroke-miterlimit:4;stroke-dasharray:none;stroke-opacity:1"
       id="rect6012"
       width="131.42857"
       height="228.57143"
       x="1657.1428"
       y="-296.20926"
       rx="0"
       ry="0" />
    <rect
       style="opacity:1;fill:none;fill-opacity:1;stroke:#000000;stroke-width:0.09;stroke-miterlimit:4;stroke-dasharray:none;stroke-opacity:1"
       id="rect6014"
       width="125.71429"
       height="205.71428"
       x="1657.1428"
       y="126.64774" />
    <rect
       style="opacity:1;fill:none;fill-opacity:1;stroke:#000000;stroke-width:0.09;stroke-miterlimit:4;stroke-dasharray:none;stroke-opacity:1"
       id="rect6016"
       width="125.7143"
       height="274.28574"
       x="1657.1428"
       y="332.36209" />
  </g>
</svg>
