<?xml version="1.0" encoding="UTF-8" standalone="no"?>
<!-- Created with Inkscape (http://www.inkscape.org/) -->

<svg
   xmlns:dc="http://purl.org/dc/elements/1.1/"
   xmlns:cc="http://creativecommons.org/ns#"
   xmlns:rdf="http://www.w3.org/1999/02/22-rdf-syntax-ns#"
   xmlns:svg="http://www.w3.org/2000/svg"
   xmlns="http://www.w3.org/2000/svg"
   xmlns:sodipodi="http://sodipodi.sourceforge.net/DTD/sodipodi-0.dtd"
   xmlns:inkscape="http://www.inkscape.org/namespaces/inkscape"
   id="svg2"
   version="1.1"
   inkscape:version="0.91 r13725"
   xml:space="preserve"
   width="32in"
   height="16in"
   viewBox="0 0 2880 1440"
   sodipodi:docname="Creaturemoldsburlap1.svg"><metadata
     id="metadata8"><rdf:RDF><cc:Work
         rdf:about=""><dc:format>image/svg+xml</dc:format><dc:type
           rdf:resource="http://purl.org/dc/dcmitype/StillImage" /><dc:title></dc:title></cc:Work></rdf:RDF></metadata><defs
     id="defs6" /><sodipodi:namedview
     pagecolor="#ffffff"
     bordercolor="#666666"
     borderopacity="1"
     objecttolerance="10"
     gridtolerance="10"
     guidetolerance="10"
     inkscape:pageopacity="0"
     inkscape:pageshadow="2"
     inkscape:window-width="1182"
     inkscape:window-height="645"
     id="namedview4"
     showgrid="false"
     units="in"
     inkscape:document-units="in"
     inkscape:zoom="0.13576389"
     inkscape:cx="1440"
     inkscape:cy="720"
     inkscape:window-x="0"
     inkscape:window-y="23"
     inkscape:window-maximized="0"
     inkscape:current-layer="g10" /><g
     id="g10"
     inkscape:groupmode="layer"
     inkscape:label="Creaturemoldsburlap1"
     transform="matrix(1.25,0,0,-1.25,0,1440)"><g
       id="g12"><g
         id="g14"
         transform="matrix(1,0,0,-1,0,1152)"><path
           d="m 127.48,567.84 128.977,558.898 c 0.645,-4.73 173.656,-140.941 227.859,-165.519 68.27,-30.965 116.379,-48.399 164.442,-38.695 60.515,12.214 126.094,57.21 147.25,80.609 21.926,24.246 24.719,24.723 24.719,24.723 l 21.5,-211.735 c 0,0 -223.461,13.809 -378.332,-31.172 C 405.789,768.074 290.852,688.219 233.887,647.375 176.926,606.531 127.48,567.84 127.48,567.84 Z"
           style="fill:none;stroke:#000000;stroke-width:0.0684;stroke-linecap:butt;stroke-linejoin:miter;stroke-miterlimit:4;stroke-dasharray:none;stroke-opacity:1"
           id="path16"
           inkscape:connector-curvature="0" /></g><g
         id="g18"
         transform="matrix(1,0,0,-1,0,1152)"><path
           d="m 952.676,975.668 626.09,-681.766 c 0,0 162.511,86.969 278.968,97.711 116.457,10.746 216.18,-1.797 216.18,-1.797 l 60.809,751.559 c 0,0 -159.836,-163.297 -439.434,-200.043 -279.594,-36.746 -742.613,34.336 -742.613,34.336 z"
           style="fill:none;stroke:#000000;stroke-width:0.0684;stroke-linecap:butt;stroke-linejoin:miter;stroke-miterlimit:4;stroke-dasharray:none;stroke-opacity:1"
           id="path20"
           inkscape:connector-curvature="0" /></g><g
         id="g22"
         transform="matrix(1,0,0,-1,0,1152)"><path
           d="m 44.504,102.168 776.449,-7.105 c 0,0 24.692,171.949 115.524,343.523 9.918,18.73 22.066,41.629 22.265,42.375 l 48.684,46.047 -552.524,222.68 c 0,0 36.481,-79.039 -88.16,-243.204 C 242.105,342.328 44.504,102.168 44.504,102.168 Z"
           style="fill:none;stroke:#000000;stroke-width:0.0684;stroke-linecap:butt;stroke-linejoin:miter;stroke-miterlimit:4;stroke-dasharray:none;stroke-opacity:1"
           id="path24"
           inkscape:connector-curvature="0" /></g><g
         id="g26"
         transform="matrix(1,0,0,-1,0,1152)"><path
           d="m 976.605,744.441 c 0,0 138.793,-271.234 521.165,-441.918 382.371,-170.687 430.335,-171.785 430.335,-171.785 4.625,-7.675 -422.5,-10.648 -555.175,-0.75 -70.676,5.274 -214.614,16.883 -215.414,17.864 L 976.605,744.441 Z"
           style="fill:none;stroke:#000000;stroke-width:0.0684;stroke-linecap:butt;stroke-linejoin:miter;stroke-miterlimit:4;stroke-dasharray:none;stroke-opacity:1"
           id="path28"
           inkscape:connector-curvature="0" /></g></g></g></svg>