<?xml version="1.0" encoding="UTF-8" standalone="no"?>
<!-- Created with Inkscape (http://www.inkscape.org/) -->

<svg
   xmlns:dc="http://purl.org/dc/elements/1.1/"
   xmlns:cc="http://creativecommons.org/ns#"
   xmlns:rdf="http://www.w3.org/1999/02/22-rdf-syntax-ns#"
   xmlns:svg="http://www.w3.org/2000/svg"
   xmlns="http://www.w3.org/2000/svg"
   xmlns:sodipodi="http://sodipodi.sourceforge.net/DTD/sodipodi-0.dtd"
   xmlns:inkscape="http://www.inkscape.org/namespaces/inkscape"
   width="30in"
   height="20in"
   viewBox="0 0 2700 1800"
   id="svg2"
   version="1.1"
   inkscape:version="0.91 r13725"
   sodipodi:docname="Creaturespine1b.svg">
  <defs
     id="defs4" />
  <sodipodi:namedview
     id="base"
     pagecolor="#ffffff"
     bordercolor="#666666"
     borderopacity="1.0"
     inkscape:pageopacity="0.0"
     inkscape:pageshadow="2"
     inkscape:zoom="0.5"
     inkscape:cx="1493.5733"
     inkscape:cy="1168.0789"
     inkscape:document-units="in"
     inkscape:current-layer="layer1"
     showgrid="true"
     units="in"
     inkscape:window-width="1440"
     inkscape:window-height="783"
     inkscape:window-x="0"
     inkscape:window-y="1"
     inkscape:window-maximized="1"
     objecttolerance="4"
     guidetolerance="9">
    <inkscape:grid
       type="xygrid"
       id="grid3336"
       units="in"
       empspacing="1"
       enabled="true"
       dotted="false"
       spacingx="90"
       spacingy="90" />
  </sodipodi:namedview>
  <metadata
     id="metadata7">
    <rdf:RDF>
      <cc:Work
         rdf:about="">
        <dc:format>image/svg+xml</dc:format>
        <dc:type
           rdf:resource="http://purl.org/dc/dcmitype/StillImage" />
        <dc:title></dc:title>
      </cc:Work>
    </rdf:RDF>
  </metadata>
  <g
     inkscape:label="Layer 1"
     inkscape:groupmode="layer"
     id="layer1"
     transform="translate(0,747.63783)"
     style="display:inline;opacity:1">
    <path
       style="fill:none;fill-rule:evenodd;stroke:#000000;stroke-width:0.09;stroke-linecap:butt;stroke-linejoin:miter;stroke-miterlimit:4;stroke-dasharray:none;stroke-opacity:1"
       d="m 831.86674,602.36087 c 86.28577,-14.56106 199.23416,-46.06476 362.80216,-56.33527 150.1794,-9.42983 807.7235,90.64985 1018.5437,7.96972 120.5556,-47.2799 201.0735,-80.4123 266.5002,-126.46395 65.4267,-46.05165 85.7621,-103.02256 97.9528,-129.97947 43.0444,-95.18266 45.6473,-243.431137 51.2277,-340.698907 8.3854,-146.158093 45.3663,-403.272163 -150.1514,-530.664123 -197.5317,-128.70424 -226.6592,-88.19036 -564.2121,-82.9516 -332.7123,5.16363 -470.2515,49.6872 -546.6501,119.38129 -80.0578,73.03221 -306.8576,287.81849 -389.47174,357.00915 C 895.79391,-111.18162 810,-27.63783 735.02763,5.546564 642.58462,46.463841 626.36281,13.193961 613.51172,-34.580544 c -12.85108,-47.774505 45.12679,-136.733926 89.18765,-171.329266 44.06087,-34.59533 55.07608,-69.19066 56.91195,-87.31202 1.83587,-18.12136 -9.17934,-39.53752 -56.91195,-62.60108 -47.73259,-23.06355 -88.12172,-29.65313 -100.9728,-57.65889 -12.85109,-28.00573 -7.34348,-72.48544 18.35869,-79.07504 25.70216,-6.58958 38.55325,-6.58958 38.55325,-6.58958 0,0 -20.19455,-39.53753 -60.58369,-31.30055 -40.38912,8.23699 -108.31627,19.76877 -111.98801,47.77451 -3.67174,28.00575 -26.45834,38.8283 25.70217,103.786 50.66221,63.0918 39.49485,51.68521 66.09129,112.02298 4.46158,94.55817 -159.77958,204.193184 -120.74215,178.504662 -33.97217,65.40622 -118.75817,10.158885 -121.25418,-48.491842 -0.20269,-18.11041 -3.15339,-67.96088 -3.15339,-67.96088 -24.334,5.96963 -70.0232,-139.27908 -34.86007,-266.48972 20.94881,-75.78709 -110.12184,50.47263 -135.38621,-42.01278 -26.24429,-34.20412 -85.405815,88.18938 22.3976,126.30042 -58.01347,76.21955 -18.60476,147.29606 5.26283,206.69338 27.82749,69.252 80.00909,139.90364 -7.29759,129.444196 -53.84062,-6.450171 17.0277,95.260716 38.14019,118.324265 42.22499,46.127109 93.17634,139.346609 205.28675,158.456399 112.9819,19.25835 296.26053,-5.60476 432.05652,-107.86686 183.23703,-137.987909 174.94913,-145.160935 231.24283,-195.091616 67.4087,-59.789444 248.1869,-229.704714 348.7306,-307.828064 134.5205,-104.52367 314.5138,-120.79725 465.2962,-127.06278 167.3179,-6.95265 386.331,-17.32487 482.5655,70.11988 36.7566,33.39931 83.1962,102.56662 86.3344,190.99118 6.0917,171.64764 14.043,201.190449 -9.9176,372.90668 -24.2068,173.48092 -303.5119,290.98369 -372.9644,302.7709 -118.9367,20.18548 -113.1325,30.55561 -227.9488,17.23296 -70.7754,-8.21239 -331.1814,-5.44542 -429.8622,-9.35175 C 1170,422.36217 967.33371,426.94253 796.32871,487.64422 624.61374,548.59789 578.50523,594.59423 551.05658,670.61509 c -22.03043,61.01473 -16.57581,114.47958 21.83361,175.52961 40.59895,64.53021 120.38506,142.41795 197.49157,137.47577 0,0 144.06188,9.05088 175.63143,-24.27165 l 98.74791,-104.23114 c 0,0 -24.7611,3.24449 -119.37047,64.7167 -37.6261,24.44747 -129.57909,1.9422 -129.57909,1.9422 L 707.60633,886.8171 656.47159,803.45178 C 658,708.36217 745.24705,616.97828 831.86674,602.36087 Z"
       id="path3448"
       inkscape:connector-curvature="0"
       sodipodi:nodetypes="ssssssssssssssssscssscccssccssssssssssssssssscscscccs" />
  </g>
</svg>
