<?xml version="1.0" encoding="UTF-8" standalone="no"?>
<!-- Created with Inkscape (http://www.inkscape.org/) -->

<svg
   xmlns:dc="http://purl.org/dc/elements/1.1/"
   xmlns:cc="http://creativecommons.org/ns#"
   xmlns:rdf="http://www.w3.org/1999/02/22-rdf-syntax-ns#"
   xmlns:svg="http://www.w3.org/2000/svg"
   xmlns="http://www.w3.org/2000/svg"
   xmlns:xlink="http://www.w3.org/1999/xlink"
   xmlns:sodipodi="http://sodipodi.sourceforge.net/DTD/sodipodi-0.dtd"
   xmlns:inkscape="http://www.inkscape.org/namespaces/inkscape"
   width="30in"
   height="20in"
   viewBox="0 0 2700 1800"
   id="svg5092"
   version="1.1"
   inkscape:version="0.91 r13725"
   sodipodi:docname="Mouthparts2.svg">
  <defs
     id="defs5094">
    <filter
       x="-0.0024"
       width="1.0048"
       y="-0.0024"
       height="1.0048"
       style="color-interpolation-filters:sRGB"
       id="filter5683">
      <feGaussianBlur
         stdDeviation="0.13874633"
         id="feGaussianBlur5685" />
    </filter>
    <filter
       x="-0.0024"
       width="1.0048"
       y="-0.0024"
       height="1.0048"
       style="color-interpolation-filters:sRGB"
       id="filter5691">
      <feGaussianBlur
         stdDeviation="0.057326066"
         id="feGaussianBlur5693" />
    </filter>
    <filter
       x="-0.0024"
       width="1.0048"
       y="-0.0024"
       height="1.0048"
       style="color-interpolation-filters:sRGB"
       id="filter5729">
      <feGaussianBlur
         stdDeviation="0.11715973"
         id="feGaussianBlur5731" />
    </filter>
    <filter
       x="-0.0048"
       width="1.0096"
       y="-0.0048"
       height="1.0096"
       style="color-interpolation-filters:sRGB"
       id="filter5735">
      <feGaussianBlur
         stdDeviation="0.23431945"
         id="feGaussianBlur5737" />
    </filter>
    <filter
       x="-0.0024"
       width="1.0048"
       y="-0.0024"
       height="1.0048"
       style="color-interpolation-filters:sRGB"
       id="filter5743">
      <feGaussianBlur
         stdDeviation="0.014828572"
         id="feGaussianBlur5745" />
    </filter>
    <filter
       x="-0.0048"
       width="1.0096"
       y="-0.0048"
       height="1.0096"
       style="color-interpolation-filters:sRGB"
       id="filter5749">
      <feGaussianBlur
         stdDeviation="0.029657144"
         id="feGaussianBlur5751" />
    </filter>
    <filter
       x="-0.0072"
       width="1.0144"
       y="-0.0072"
       height="1.0144"
       style="color-interpolation-filters:sRGB"
       id="filter5755">
      <feGaussianBlur
         stdDeviation="0.044485715"
         id="feGaussianBlur5757" />
    </filter>
    <filter
       x="-0.0096"
       width="1.0192"
       y="-0.0096"
       height="1.0192"
       style="color-interpolation-filters:sRGB"
       id="filter5761">
      <feGaussianBlur
         stdDeviation="0.059314287"
         id="feGaussianBlur5763" />
    </filter>
    <filter
       x="-0.012"
       width="1.024"
       y="-0.012"
       height="1.024"
       style="color-interpolation-filters:sRGB"
       id="filter5767">
      <feGaussianBlur
         stdDeviation="0.074142859"
         id="feGaussianBlur5769" />
    </filter>
    <filter
       x="-0.0144"
       width="1.0288"
       y="-0.0144"
       height="1.0288"
       style="color-interpolation-filters:sRGB"
       id="filter5773">
      <feGaussianBlur
         stdDeviation="0.088971431"
         id="feGaussianBlur5775" />
    </filter>
    <filter
       x="-0.0168"
       width="1.0336"
       y="-0.0168"
       height="1.0336"
       style="color-interpolation-filters:sRGB"
       id="filter5779">
      <feGaussianBlur
         stdDeviation="0.1038"
         id="feGaussianBlur5781" />
    </filter>
    <filter
       x="-0.0192"
       width="1.0384"
       y="-0.0192"
       height="1.0384"
       style="color-interpolation-filters:sRGB"
       id="filter5785">
      <feGaussianBlur
         stdDeviation="0.11862857"
         id="feGaussianBlur5787" />
    </filter>
    <filter
       x="-0.0024"
       width="1.0048"
       y="-0.0024"
       height="1.0048"
       style="color-interpolation-filters:sRGB"
       id="filter5808">
      <feGaussianBlur
         stdDeviation="0.11715973"
         id="feGaussianBlur5810" />
    </filter>
    <filter
       x="-0.0048"
       width="1.0096"
       y="-0.0048"
       height="1.0096"
       style="color-interpolation-filters:sRGB"
       id="filter5814">
      <feGaussianBlur
         stdDeviation="0.23431945"
         id="feGaussianBlur5816" />
    </filter>
    <filter
       x="-0.0072"
       width="1.0144"
       y="-0.0072"
       height="1.0144"
       style="color-interpolation-filters:sRGB"
       id="filter5820">
      <feGaussianBlur
         stdDeviation="0.35147918"
         id="feGaussianBlur5822" />
    </filter>
    <filter
       x="-0.0096"
       width="1.0192"
       y="-0.0096"
       height="1.0192"
       style="color-interpolation-filters:sRGB"
       id="filter5826">
      <feGaussianBlur
         stdDeviation="0.46863891"
         id="feGaussianBlur5828" />
    </filter>
  </defs>
  <sodipodi:namedview
     id="base"
     pagecolor="#ffffff"
     bordercolor="#666666"
     borderopacity="1.0"
     inkscape:pageopacity="0.0"
     inkscape:pageshadow="2"
     inkscape:zoom="0.70710678"
     inkscape:cx="195.82601"
     inkscape:cy="234.51474"
     inkscape:document-units="in"
     inkscape:current-layer="layer1"
     showgrid="false"
     units="in"
     inkscape:window-width="1440"
     inkscape:window-height="783"
     inkscape:window-x="0"
     inkscape:window-y="1"
     inkscape:window-maximized="1" />
  <metadata
     id="metadata5097">
    <rdf:RDF>
      <cc:Work
         rdf:about="">
        <dc:format>image/svg+xml</dc:format>
        <dc:type
           rdf:resource="http://purl.org/dc/dcmitype/StillImage" />
        <dc:title></dc:title>
      </cc:Work>
    </rdf:RDF>
  </metadata>
  <g
     inkscape:label="Layer 1"
     inkscape:groupmode="layer"
     id="layer1"
     transform="translate(0,747.63783)">
    <rect
       style="fill:#66ff00;fill-opacity:1;stroke:#000000;stroke-width:0.09;stroke-miterlimit:4;stroke-dasharray:none;stroke-opacity:1"
       id="rect5640"
       width="215.77681"
       height="13.472548"
       x="218.48827"
       y="785.29333"
       inkscape:tile-cx="-592.86214"
       inkscape:tile-cy="900.44288"
       inkscape:tile-w="215.86681"
       inkscape:tile-h="13.562548"
       inkscape:tile-x0="-700.79555"
       inkscape:tile-y0="893.6616" />
    <path
       style="fill:none;fill-rule:evenodd;stroke:#000000;stroke-width:0.09;stroke-linecap:butt;stroke-linejoin:miter;stroke-miterlimit:4;stroke-dasharray:none;stroke-opacity:1"
       d="m -687.31512,35.599392 c 10.71803,14.266722 37.90047,70.271518 61.54334,2.166178 10.94474,-31.5272392 98.87946,20.567286 94.79092,35.380995 -36.7993,133.332405 115.8936,-2.154781 116.01276,-49.100151 0.0623,-24.51997749 0.70742,-23.82800999 0,-50.544266 -15.94946,-46.085303 -159.02828,-186.599088 -113.89057,-42.6016 2.53645,21.036035 -85.38011,57.107111 -95.91578,19.959829 -17.02493,-60.027527 -57.31131,-14.763736 -63.95548,0.979939 -7.26028,17.203586 -16.27008,38.9912964 -16.27008,38.9912964 l 0.70739,-2.1661804 0,7.2206096 c 0,0 3.94253,22.3625834 16.9775,39.7133504 z"
       id="path5651"
       inkscape:connector-curvature="0"
       sodipodi:nodetypes="ssssccsscccs"
       inkscape:tile-cx="-566.89072"
       inkscape:tile-cy="746.60851"
       inkscape:tile-w="276.30647"
       inkscape:tile-h="262.74027"
       inkscape:tile-x0="-705.04297"
       inkscape:tile-y0="615.23864" />
    <text
       xml:space="preserve"
       style="font-style:normal;font-variant:normal;font-weight:normal;font-stretch:normal;font-size:40px;font-family:Trattatello;-inkscape-font-specification:Trattatello;text-align:center;text-anchor:middle;fill:#d45500;fill-opacity:1;stroke:#000000;stroke-width:0.1;stroke-miterlimit:4;stroke-dasharray:none;stroke-opacity:1"
       x="169.28571"
       y="-348.35214"
       id="text5653"><tspan
         sodipodi:role="line"
         id="tspan5655"
         x="169.28571"
         y="-348.35214">Upper Lip</tspan><tspan
         sodipodi:role="line"
         x="169.28571"
         y="-298.35214"
         id="tspan5657" /></text>
    <text
       xml:space="preserve"
       style="font-style:normal;font-variant:normal;font-weight:normal;font-stretch:normal;font-size:40px;font-family:Trattatello;-inkscape-font-specification:Trattatello;text-align:center;text-anchor:middle;fill:#d45500;fill-opacity:1;stroke:#000000;stroke-width:0.1;stroke-miterlimit:4;stroke-dasharray:none;stroke-opacity:1"
       x="153.57143"
       y="37.362175"
       id="text5663"><tspan
         sodipodi:role="line"
         id="tspan5665"
         x="153.57143"
         y="37.362175">Lower Lip</tspan><tspan
         sodipodi:role="line"
         x="153.57143"
         y="87.362175"
         id="tspan5667" /></text>
    <rect
       style="fill:#d45500;fill-opacity:1;stroke:#000000;stroke-width:0.09892834;stroke-miterlimit:4;stroke-dasharray:none;stroke-opacity:1"
       id="rect5669"
       width="62.001076"
       height="13.401072"
       x="-837.68854"
       y="-822.15997"
       transform="scale(1,-1)"
       inkscape:tile-cx="-779.818"
       inkscape:tile-cy="1561.4584"
       inkscape:tile-w="60.100001"
       inkscape:tile-h="13.500001"
       inkscape:tile-x0="-809.868"
       inkscape:tile-y0="1554.7084" />
    <path
       style="fill:none;fill-rule:evenodd;stroke:#000000;stroke-width:0.07990461;stroke-linecap:butt;stroke-linejoin:miter;stroke-miterlimit:4;stroke-dasharray:none;stroke-opacity:1"
       d="m -884.94884,249.08216 c 0,0 -12.33371,-7.62999 55.50174,22.89 67.83544,30.51999 97.98452,99.18996 97.98452,130.29687 0,31.10692 -4.11123,35.36212 -4.11123,35.36212 0,0 7.0516,-20.1375 9.42159,-31.25365 3.58219,-16.80177 1.91704,-19.42249 0.51391,-31.84056 -1.332,-11.78847 -17.19568,-47.39402 -27.75087,-58.83903 -9.03027,-9.79152 -62.48115,-67.12802 -52.76091,-66.61574 37.70853,1.98734 27.79332,-45.04504 -20.7275,-50.47537 -30.80755,-3.44792 -27.49047,-1.87343 -42.3115,0 -35.43971,4.47969 -15.75975,39.91076 -15.75975,39.91076 l 0,0 z"
       id="path5671"
       inkscape:connector-curvature="0"
       sodipodi:nodetypes="csscssssssccc"
       inkscape:tile-cx="-775.38013"
       inkscape:tile-cy="1100.0938"
       inkscape:tile-w="167.89012"
       inkscape:tile-h="255.27067"
       inkscape:tile-x0="-859.32539"
       inkscape:tile-y0="972.45199" />
    <text
       xml:space="preserve"
       style="font-style:normal;font-variant:normal;font-weight:normal;font-stretch:normal;font-size:40px;font-family:Trattatello;-inkscape-font-specification:Trattatello;text-align:center;text-anchor:middle;fill:#d45500;fill-opacity:1;stroke:#000000;stroke-width:0.1;stroke-miterlimit:4;stroke-dasharray:none;stroke-opacity:1"
       x="-612.14288"
       y="-149.78072"
       id="text5673"><tspan
         sodipodi:role="line"
         id="tspan5675"
         x="-612.14288"
         y="-149.78072">Clone KEY</tspan><tspan
         sodipodi:role="line"
         x="-612.14288"
         y="-99.780716"
         id="tspan5677" /></text>
    <text
       xml:space="preserve"
       style="font-style:normal;font-variant:normal;font-weight:normal;font-stretch:normal;font-size:40px;font-family:Trattatello;-inkscape-font-specification:Trattatello;text-align:center;text-anchor:middle;fill:#d45500;fill-opacity:1;stroke:#000000;stroke-width:0.1;stroke-miterlimit:4;stroke-dasharray:none;stroke-opacity:1"
       x="-829.28571"
       y="-14.780713"
       id="text5695"><tspan
         sodipodi:role="line"
         id="tspan5697"
         x="-829.28571"
         y="-14.780713">Lip</tspan></text>
    <text
       xml:space="preserve"
       style="font-style:normal;font-variant:normal;font-weight:normal;font-stretch:normal;font-size:40px;font-family:Trattatello;-inkscape-font-specification:Trattatello;text-align:center;text-anchor:middle;fill:#d45500;fill-opacity:1;stroke:#000000;stroke-width:0.1;stroke-miterlimit:4;stroke-dasharray:none;stroke-opacity:1"
       x="-865"
       y="152.36217"
       id="text5699"><tspan
         sodipodi:role="line"
         id="tspan5701"
         x="-865"
         y="152.36217">Lip Slot</tspan></text>
    <path
       style="fill:none;fill-rule:evenodd;stroke:#000000;stroke-width:0.11170024;stroke-linecap:butt;stroke-linejoin:miter;stroke-miterlimit:4;stroke-dasharray:none;stroke-opacity:1"
       d="m -832.17162,615.40771 c 0,0 -15.7824,11.57435 71.0208,-34.72303 86.8031,-46.29734 125.3824,-150.46639 125.3824,-197.65407 0,-47.18772 -5.2609,-53.64263 -5.2609,-53.64263 0,0 9.0233,30.54765 12.0561,47.41028 4.5838,25.48749 2.4531,29.46298 0.6575,48.3006 -1.7044,17.88254 -22.0037,71.89445 -35.5104,89.25597 -11.5552,14.85328 -79.9517,101.82997 -67.5135,101.05287 48.2523,-3.01468 35.5646,68.33117 -26.5233,76.56872 -39.4217,5.23032 -35.1772,2.8419 -54.1423,0 -45.3491,-6.79547 -20.1664,-60.54268 -20.1664,-60.54268 l 0,0 z"
       id="path5671-9"
       inkscape:connector-curvature="0"
       sodipodi:nodetypes="csscssssssccc"
       inkscape:tile-cx="-732.68308"
       inkscape:tile-cy="1348.9624"
       inkscape:tile-w="162.12335"
       inkscape:tile-h="312.02742"
       inkscape:tile-x0="-813.74491"
       inkscape:tile-y0="1192.9576" />
    <text
       xml:space="preserve"
       style="font-style:normal;font-variant:normal;font-weight:normal;font-stretch:normal;font-size:40px;font-family:Trattatello;-inkscape-font-specification:Trattatello;text-align:center;text-anchor:middle;fill:#d45500;fill-opacity:1;stroke:#000000;stroke-width:0.1;stroke-miterlimit:4;stroke-dasharray:none;stroke-opacity:1"
       x="1098.5928"
       y="-248.36293"
       id="text5830"><tspan
         sodipodi:role="line"
         id="tspan5832"
         x="1098.5928"
         y="-248.36293">Upper Teeth</tspan></text>
    <text
       xml:space="preserve"
       style="font-style:normal;font-variant:normal;font-weight:normal;font-stretch:normal;font-size:40px;font-family:Trattatello;-inkscape-font-specification:Trattatello;text-align:center;text-anchor:middle;fill:#d45500;fill-opacity:1;stroke:#000000;stroke-width:0.09;stroke-miterlimit:4;stroke-dasharray:none;stroke-opacity:1"
       x="375.71429"
       y="366.64783"
       id="text5834"><tspan
         sodipodi:role="line"
         id="tspan5836"
         x="375.71429"
         y="366.64783">Lower teeth</tspan><tspan
         sodipodi:role="line"
         x="375.71429"
         y="416.64783"
         id="tspan5838" /></text>
    <text
       xml:space="preserve"
       style="font-style:normal;font-variant:normal;font-weight:normal;font-stretch:normal;font-size:40px;font-family:Trattatello;-inkscape-font-specification:Trattatello;text-align:center;text-anchor:middle;fill:#d45500;fill-opacity:1;stroke:#000000;stroke-width:0.1;stroke-miterlimit:4;stroke-dasharray:none;stroke-opacity:1"
       x="-985.71429"
       y="266.64789"
       id="text5840"><tspan
         sodipodi:role="line"
         id="tspan5842"
         x="-985.71429"
         y="266.64789">Top Tooth</tspan></text>
    <text
       xml:space="preserve"
       style="font-style:normal;font-variant:normal;font-weight:normal;font-stretch:normal;font-size:40px;font-family:Trattatello;-inkscape-font-specification:Trattatello;text-align:center;text-anchor:middle;fill:#d45500;fill-opacity:1;stroke:#000000;stroke-width:0.1;stroke-miterlimit:4;stroke-dasharray:none;stroke-opacity:1"
       x="-1027.1429"
       y="648.07654"
       id="text5844"><tspan
         sodipodi:role="line"
         id="tspan5846"
         x="-1027.1429"
         y="648.07654">Bottom tooth</tspan></text>
    <text
       xml:space="preserve"
       style="font-style:normal;font-variant:normal;font-weight:normal;font-stretch:normal;font-size:40px;font-family:Trattatello;-inkscape-font-specification:Trattatello;text-align:center;text-anchor:middle;fill:#d45500;fill-opacity:1;stroke:#000000;stroke-width:0.1;stroke-miterlimit:4;stroke-dasharray:none;stroke-opacity:1"
       x="-968.57141"
       y="825.21924"
       id="text5848"><tspan
         sodipodi:role="line"
         id="tspan5850"
         x="-968.57141"
         y="825.21924">Slot for all teeth</tspan><tspan
         sodipodi:role="line"
         x="-968.57141"
         y="875.21924"
         id="tspan5852" /></text>
    <path
       style="fill:none;fill-rule:evenodd;stroke:#000000;stroke-width:0.09;stroke-linecap:butt;stroke-linejoin:miter;stroke-miterlimit:4;stroke-dasharray:none;stroke-opacity:1"
       d="m 224.30091,799.27264 c 0,0 3.98092,14.97892 17.14286,32.14286 10.82244,14.11309 38.26968,69.51482 62.14285,2.14285 11.05135,-31.18775 111.74095,22.37127 101.42858,33.57143 -174.29973,189.30492 164.62647,36.97773 172.85717,-12.85715 m -353.57146,-69.2857 0,0 -0.71429,2.14285 c 0,0 9.09757,-21.55309 16.42858,-38.57143 6.70889,-15.57414 47.3877,-60.35052 64.57847,-0.96938 10.6383,36.74727 116.55412,5.35032 113.99296,-15.45919 -151.5405,-234.28157 156.59474,-21.34464 173.57144,25.00001 121.2747,42.66573 462.41623,49.35606 767.13223,52.40104 281.6512,2.8145 530.0857,12.07713 569.475,14.22397 198.6739,10.82838 137.9672,-67.88369 191.4286,-51.42856 142.7943,43.95128 137.5937,125.21411 -1.4285,168.57142 -60.9965,19.02316 -21.0027,-105.99461 -195.7143,-95.71428 -69.3973,4.08345 -914.2857,-32.85714 -1105.71433,-17.14286 -191.4285,15.71429 -239.4644,26.23211 -239.4644,26.23211"
       id="path5651-5"
       inkscape:connector-curvature="0"
       sodipodi:nodetypes="cssscccsscccssssssc"
       inkscape:tile-cx="-558.40548"
       inkscape:tile-cy="745.19428"
       inkscape:tile-w="294.16333"
       inkscape:tile-h="260.82199"
       inkscape:tile-x0="-705.47434"
       inkscape:tile-y0="614.78545" />
    <use
       x="0"
       y="0"
       inkscape:tiled-clone-of="#rect5640"
       xlink:href="#rect5640"
       id="use4236"
       transform="translate(-1187.9394,-695.79308)"
       width="100%"
       height="100%" />
    <use
       x="0"
       y="0"
       inkscape:tiled-clone-of="#rect5640"
       xlink:href="#rect5640"
       transform="translate(99.901289,-763.67532)"
       id="use4238"
       width="100%"
       height="100%" />
    <use
       x="0"
       y="0"
       inkscape:tiled-clone-of="#rect5640"
       xlink:href="#rect5640"
       transform="translate(81.008655,-1148.3416)"
       id="use4240"
       width="100%"
       height="100%" />
    <use
       x="0"
       y="0"
       inkscape:tiled-clone-of="#path5651"
       xlink:href="#path5651"
       id="use4242"
       transform="matrix(1.9968668,0,0,1.4520506,1726.7117,31.577899)"
       width="100%"
       height="100%" />
    <use
       x="0"
       y="0"
       inkscape:tiled-clone-of="#path5651"
       xlink:href="#path5651"
       transform="matrix(1.9203513,0,0,1.371307,1657.742,-355.2926)"
       id="use4244"
       width="100%"
       height="100%" />
    <use
       x="0"
       y="0"
       inkscape:tiled-clone-of="#path5671-9"
       xlink:href="#path5671-9"
       id="use4201"
       transform="matrix(1.2617473,0,0,1.0452958,1724.3774,-113.90903)"
       width="100%"
       height="100%" />
    <use
       x="0"
       y="0"
       inkscape:tiled-clone-of="#path5671-9"
       xlink:href="#path5671-9"
       transform="matrix(1.06981,0,0,0.97279327,1388.8463,-90.032299)"
       id="use4203"
       width="100%"
       height="100%" />
    <use
       x="0"
       y="0"
       inkscape:tiled-clone-of="#path5671-9"
       xlink:href="#path5671-9"
       transform="matrix(1.2093836,0,0,1.090632,1914.1727,-151.47009)"
       id="use4205"
       width="100%"
       height="100%" />
    <use
       x="0"
       y="0"
       inkscape:tiled-clone-of="#path5671-9"
       xlink:href="#path5671-9"
       transform="matrix(1.1046939,0,0,1.0362501,2022.3826,-88.305319)"
       id="use4207"
       width="100%"
       height="100%" />
    <use
       x="0"
       y="0"
       inkscape:tiled-clone-of="#path5671-9"
       xlink:href="#path5671-9"
       transform="translate(2286.1527,-110.30865)"
       id="use4209"
       width="100%"
       height="100%" />
    <use
       x="0"
       y="0"
       inkscape:tiled-clone-of="#path5671-9"
       xlink:href="#path5671-9"
       transform="translate(2473.732,-121.62236)"
       id="use4211"
       width="100%"
       height="100%" />
    <use
       x="0"
       y="0"
       inkscape:tiled-clone-of="#path5671"
       xlink:href="#path5671"
       id="use4225"
       transform="translate(2757.7165,-478.00418)"
       width="100%"
       height="100%" />
    <use
       x="0"
       y="0"
       inkscape:tiled-clone-of="#path5671"
       xlink:href="#path5671"
       transform="translate(2917.1214,-489.31789)"
       id="use4227"
       width="100%"
       height="100%" />
    <use
       x="0"
       y="0"
       inkscape:tiled-clone-of="#path5671"
       xlink:href="#path5671"
       transform="translate(2550.4387,-480.83261)"
       id="use4229"
       width="100%"
       height="100%" />
    <use
       x="0"
       y="0"
       inkscape:tiled-clone-of="#path5671"
       xlink:href="#path5671"
       transform="translate(2418.5155,-483.66104)"
       id="use4231"
       width="100%"
       height="100%" />
    <use
       x="0"
       y="0"
       inkscape:tiled-clone-of="#path5671"
       xlink:href="#path5671"
       transform="translate(2269.6218,-486.48947)"
       id="use4233"
       width="100%"
       height="100%" />
    <use
       x="0"
       y="0"
       inkscape:tiled-clone-of="#path5671"
       xlink:href="#path5671"
       transform="translate(2137.6987,-486.48947)"
       id="use4235"
       width="100%"
       height="100%" />
    <use
       x="0"
       y="0"
       inkscape:tiled-clone-of="#rect5669"
       xlink:href="#rect5669"
       id="use4237"
       transform="matrix(0.94364054,-0.33097211,0.33097211,0.94364054,1770.6806,-1285.948)"
       width="100%"
       height="100%" />
    <use
       x="0"
       y="0"
       inkscape:tiled-clone-of="#rect5669"
       xlink:href="#rect5669"
       transform="translate(2218.1899,-1056.4175)"
       id="use4239"
       width="100%"
       height="100%" />
    <use
       x="0"
       y="0"
       inkscape:tiled-clone-of="#rect5669"
       xlink:href="#rect5669"
       transform="matrix(0.97800431,0.20858468,-0.20858468,0.97800431,2518.2729,-865.98047)"
       id="use4241"
       width="100%"
       height="100%" />
    <use
       x="0"
       y="0"
       inkscape:tiled-clone-of="#rect5669"
       xlink:href="#rect5669"
       transform="translate(2496.7818,-1049.3465)"
       id="use4243"
       width="100%"
       height="100%" />
    <use
       x="0"
       y="0"
       inkscape:tiled-clone-of="#rect5669"
       xlink:href="#rect5669"
       transform="translate(2863.7662,-1062.0744)"
       id="use4245"
       width="100%"
       height="100%" />
    <use
       x="0"
       y="0"
       inkscape:tiled-clone-of="#rect5669"
       xlink:href="#rect5669"
       transform="matrix(0.93717075,0.06941218,0.07474638,1.0806289,2586.0349,-1064.6744)"
       id="use4247"
       width="100%"
       height="100%" />
    <use
       x="0"
       y="0"
       inkscape:tiled-clone-of="#rect5669"
       xlink:href="#rect5669"
       transform="matrix(0.99477764,-0.10206592,0.10206592,0.99477764,2387.4288,-390.6191)"
       id="use4249"
       width="100%"
       height="100%" />
    <use
       x="0"
       y="0"
       inkscape:tiled-clone-of="#rect5669"
       xlink:href="#rect5669"
       transform="matrix(0.98907219,0.14743202,-0.14743202,0.98907219,2400.2525,-169.14447)"
       id="use4251"
       width="100%"
       height="100%" />
    <use
       x="0"
       y="0"
       inkscape:tiled-clone-of="#rect5669"
       xlink:href="#rect5669"
       transform="matrix(0.99023328,0.13942038,-0.13942038,0.99023328,2043.2217,-136.95594)"
       id="use4253"
       width="100%"
       height="100%" />
    <use
       x="0"
       y="0"
       inkscape:tiled-clone-of="#rect5669"
       xlink:href="#rect5669"
       transform="matrix(0.99311878,-0.11711142,0.11711142,0.99311878,1407.1978,-368.87686)"
       id="use4255"
       width="100%"
       height="100%" />
    <use
       x="0"
       y="0"
       inkscape:tiled-clone-of="#rect5669"
       xlink:href="#rect5669"
       transform="matrix(0.98240029,0.18678777,-0.18678777,0.98240029,1876.1061,-119.22957)"
       id="use4257"
       width="100%"
       height="100%" />
    <use
       x="0"
       y="0"
       inkscape:tiled-clone-of="#rect5669"
       xlink:href="#rect5669"
       transform="translate(1331.4372,-301.22749)"
       id="use4259"
       width="100%"
       height="100%" />
  </g>
</svg>
