<?xml version="1.0" encoding="UTF-8" standalone="no"?>
<!-- Created with Inkscape (http://www.inkscape.org/) -->

<svg
   xmlns:dc="http://purl.org/dc/elements/1.1/"
   xmlns:cc="http://creativecommons.org/ns#"
   xmlns:rdf="http://www.w3.org/1999/02/22-rdf-syntax-ns#"
   xmlns:svg="http://www.w3.org/2000/svg"
   xmlns="http://www.w3.org/2000/svg"
   xmlns:sodipodi="http://sodipodi.sourceforge.net/DTD/sodipodi-0.dtd"
   xmlns:inkscape="http://www.inkscape.org/namespaces/inkscape"
   width="23.5in"
   height="4in"
   viewBox="0 0 2115 360.00001"
   id="svg2"
   version="1.1"
   inkscape:version="0.91 r13725"
   sodipodi:docname="batman logo casting and molding.svg">
  <defs
     id="defs4" />
  <sodipodi:namedview
     id="base"
     pagecolor="#ffffff"
     bordercolor="#666666"
     borderopacity="1.0"
     inkscape:pageopacity="0.0"
     inkscape:pageshadow="2"
     inkscape:zoom="0.83451537"
     inkscape:cx="1057.5"
     inkscape:cy="180"
     inkscape:document-units="in"
     inkscape:current-layer="layer1-4"
     showgrid="false"
     units="in"
     showguides="true"
     inkscape:guide-bbox="true"
     inkscape:window-width="1920"
     inkscape:window-height="1018"
     inkscape:window-x="-8"
     inkscape:window-y="-8"
     inkscape:window-maximized="1">
    <sodipodi:guide
       position="180.30595,370.14732"
       orientation="1,0"
       id="guide4296" />
    <sodipodi:guide
       position="720.35694,461.16715"
       orientation="1,0"
       id="guide4298" />
    <sodipodi:guide
       position="809.64306,447.29746"
       orientation="1,0"
       id="guide4300" />
    <sodipodi:guide
       position="1350.5609,177.70539"
       orientation="1,0"
       id="guide4302" />
    <sodipodi:guide
       position="1439.1586,268.41927"
       orientation="1,0"
       id="guide4334" />
    <sodipodi:guide
       position="1980.7904,221.68556"
       orientation="1,0"
       id="guide4336" />
  </sodipodi:namedview>
  <metadata
     id="metadata7">
    <rdf:RDF>
      <cc:Work
         rdf:about="">
        <dc:format>image/svg+xml</dc:format>
        <dc:type
           rdf:resource="http://purl.org/dc/dcmitype/StillImage" />
        <dc:title></dc:title>
      </cc:Work>
    </rdf:RDF>
  </metadata>
  <g
     inkscape:label="Layer 1"
     inkscape:groupmode="layer"
     id="layer1"
     transform="translate(0,-692.36212)">
    <g
       id="layer1-4"
       transform="translate(-2392.0989,54.98139)">
      <path
         style="fill:none;stroke:#ff0000;stroke-width:0.09000002;stroke-miterlimit:4;stroke-dasharray:none;stroke-opacity:1"
         d="m 2837.2364,923.75162 c -15.7156,-38.32251 -42.6139,-61.31384 -84.8167,-72.49715 -20.3659,-5.39677 -36.3869,-6.96592 -71.7385,-7.02632 l -33.3112,-0.0569 0.6548,-4.37619 c 1.8078,-12.08351 1.8757,-22.28009 0.2078,-31.21456 -5.7952,-31.04211 -27.4592,-57.103 -64.4388,-77.51723 -7.1656,-3.95565 -12.7483,-7.511 -12.4061,-7.90071 0.3422,-0.38972 39.8378,-0.77201 87.768,-0.84953 84.2314,-0.13624 87.2153,-0.0615 89.2309,2.23389 1.1469,1.30618 2.444,4.56188 2.8824,7.23492 1.202,7.32863 7.5569,21.91086 11.2728,25.86667 9.2237,9.81951 51.834,18.35734 58.3174,11.68504 2.4068,-2.47704 5.6701,-16.21668 5.6701,-23.8735 0,-5.96172 1.3616,-5.60493 3.3277,0.872 l 1.6131,5.31395 8.2214,0.37338 c 11.6039,0.52697 12.4993,0.0986 14.4351,-6.90375 l 1.6511,-5.97304 1.4452,10.62789 c 3.0176,22.18848 5.1849,24.04031 25.1387,21.47744 21.3093,-2.737 34.4009,-7.80129 40.236,-15.56484 3.3758,-4.49143 5.8535,-10.66325 10.6545,-26.53971 1.1905,-3.93665 2.2014,-5.16631 4.7608,-5.79119 4.9813,-1.21621 170.9276,-1.06201 173.427,0.16115 1.2865,0.62961 1.5541,1.11096 0.6459,1.16246 -2.7121,0.15376 -25.5492,13.82658 -35.2303,21.09282 -11.6756,8.76303 -27.7724,27.04524 -33.2474,37.76109 -6.4866,12.69545 -9.0226,23.41485 -9.0226,38.13539 0,6.87689 0.382,14.93513 0.849,17.90722 l 0.849,5.40381 -21.7095,-0.84713 c -40.1135,-1.56528 -76.281,3.14879 -102.9221,13.41491 -10.1669,3.91777 -27.1107,14.37056 -35.2124,21.72286 -12.9613,11.76245 -25.0326,29.89264 -31.3554,47.09305 -1.4493,3.94248 -2.9018,7.17774 -3.2281,7.18947 -0.3262,0.0113 -2.4051,-4.39722 -4.6196,-9.79769 z"
         id="path4385-0-1"
         inkscape:connector-curvature="0" />
      <path
         style="fill:none;stroke:#ff0000;stroke-width:0.09000002;stroke-miterlimit:4;stroke-dasharray:none;stroke-opacity:1"
         d="m 3466.5734,919.85075 c -15.7156,-38.32251 -42.6139,-61.31384 -84.8167,-72.49715 -20.3659,-5.39677 -36.3869,-6.96592 -71.7385,-7.02632 l -33.3112,-0.0569 0.6548,-4.37619 c 1.8078,-12.08351 1.8757,-22.28009 0.2078,-31.21456 -5.7952,-31.04211 -27.4592,-57.103 -64.4388,-77.51723 -7.1656,-3.95565 -12.7483,-7.511 -12.4061,-7.90071 0.3422,-0.38972 39.8378,-0.77201 87.768,-0.84953 84.2314,-0.13624 87.2153,-0.0615 89.2309,2.23389 1.1469,1.30618 2.444,4.56188 2.8824,7.23492 1.202,7.32863 7.5569,21.91086 11.2728,25.86667 9.2237,9.81951 51.834,18.35734 58.3174,11.68504 2.4068,-2.47704 5.6701,-16.21668 5.6701,-23.8735 0,-5.96172 1.3616,-5.60493 3.3277,0.872 l 1.6131,5.31395 8.2214,0.37338 c 11.6039,0.52697 12.4993,0.0986 14.4351,-6.90375 l 1.6511,-5.97304 1.4452,10.62789 c 3.0176,22.18848 5.1849,24.04031 25.1387,21.47744 21.3093,-2.737 34.4009,-7.80129 40.236,-15.56484 3.3758,-4.49143 5.8535,-10.66325 10.6545,-26.53971 1.1905,-3.93665 2.2014,-5.16631 4.7608,-5.79119 4.9813,-1.21621 170.9276,-1.06201 173.427,0.16115 1.2865,0.62961 1.5541,1.11096 0.6459,1.16246 -2.7121,0.15376 -25.5492,13.82658 -35.2303,21.09282 -11.6756,8.76303 -27.7724,27.04524 -33.2474,37.76109 -6.4866,12.69545 -9.0226,23.41485 -9.0226,38.13539 0,6.87689 0.382,14.93513 0.849,17.90722 l 0.849,5.40381 -21.7095,-0.84713 c -40.1135,-1.56528 -76.281,3.14879 -102.9221,13.41491 -10.1669,3.91777 -27.1107,14.37056 -35.2124,21.72286 -12.9613,11.76245 -25.0326,29.89264 -31.3554,47.09305 -1.4493,3.94248 -2.9018,7.17774 -3.2281,7.18947 -0.3262,0.0113 -2.4051,-4.39722 -4.6196,-9.79769 z"
         id="path4385-0-1-8"
         inkscape:connector-curvature="0" />
      <path
         style="fill:none;stroke:#ff0000;stroke-width:0.09000002;stroke-miterlimit:4;stroke-dasharray:none;stroke-opacity:1"
         d="m 4097.3127,913.47682 c -15.7156,-38.32251 -42.6139,-61.31384 -84.8167,-72.49715 -20.3659,-5.39677 -36.3869,-6.96592 -71.7385,-7.02632 l -33.3112,-0.0569 0.6548,-4.37619 c 1.8078,-12.08351 1.8757,-22.28009 0.2078,-31.21456 -5.7952,-31.04211 -27.4592,-57.103 -64.4388,-77.51723 -7.1656,-3.95565 -12.7483,-7.511 -12.4061,-7.90071 0.3422,-0.38972 39.8378,-0.77201 87.768,-0.84953 84.2314,-0.13624 87.2153,-0.0615 89.2309,2.23389 1.1469,1.30618 2.444,4.56188 2.8824,7.23492 1.202,7.32863 7.5569,21.91086 11.2728,25.86667 9.2237,9.81951 51.834,18.35734 58.3174,11.68504 2.4068,-2.47704 5.6701,-16.21668 5.6701,-23.8735 0,-5.96172 1.3616,-5.60493 3.3277,0.872 l 1.6131,5.31395 8.2214,0.37338 c 11.6039,0.52697 12.4993,0.0986 14.4351,-6.90375 l 1.6511,-5.97304 1.4452,10.62789 c 3.0176,22.18848 5.1849,24.04031 25.1387,21.47744 21.3093,-2.737 34.4009,-7.80129 40.236,-15.56484 3.3758,-4.49143 5.8535,-10.66325 10.6545,-26.53971 1.1905,-3.93665 2.2014,-5.16631 4.7608,-5.79119 4.9813,-1.21621 170.9276,-1.06201 173.427,0.16115 1.2865,0.62961 1.5541,1.11096 0.6459,1.16246 -2.7121,0.15376 -25.5492,13.82658 -35.2303,21.09282 -11.6756,8.76303 -27.7724,27.04524 -33.2474,37.76109 -6.4866,12.69545 -9.0226,23.41485 -9.0226,38.13539 0,6.87689 0.382,14.93513 0.849,17.90722 l 0.849,5.40381 -21.7095,-0.84713 c -40.1135,-1.56528 -76.281,3.14879 -102.9221,13.41491 -10.1669,3.91777 -27.1107,14.37056 -35.2124,21.72286 -12.9613,11.76245 -25.0326,29.89264 -31.3554,47.09305 -1.4493,3.94248 -2.9018,7.17774 -3.2281,7.18947 -0.3262,0.0113 -2.4051,-4.39722 -4.6196,-9.79769 z"
         id="path4385-0-1-8-4"
         inkscape:connector-curvature="0" />
    </g>
  </g>
</svg>
