<?xml version="1.0" encoding="UTF-8" standalone="no"?>
<!-- Created with Inkscape (http://www.inkscape.org/) -->

<svg
   xmlns:dc="http://purl.org/dc/elements/1.1/"
   xmlns:cc="http://creativecommons.org/ns#"
   xmlns:rdf="http://www.w3.org/1999/02/22-rdf-syntax-ns#"
   xmlns:svg="http://www.w3.org/2000/svg"
   xmlns="http://www.w3.org/2000/svg"
   xmlns:sodipodi="http://sodipodi.sourceforge.net/DTD/sodipodi-0.dtd"
   xmlns:inkscape="http://www.inkscape.org/namespaces/inkscape"
   width="48in"
   height="72in"
   viewBox="0 0 4320.0001 6480.0002"
   id="svg2"
   version="1.1"
   inkscape:version="0.91 r13725"
   sodipodi:docname="Finalcreaturebot.svg">
  <defs
     id="defs4" />
  <sodipodi:namedview
     id="base"
     pagecolor="#ffffff"
     bordercolor="#666666"
     borderopacity="1.0"
     inkscape:pageopacity="0.0"
     inkscape:pageshadow="2"
     inkscape:zoom="0.175"
     inkscape:cx="2616.8145"
     inkscape:cy="1282.5193"
     inkscape:document-units="in"
     inkscape:current-layer="layer1"
     showgrid="true"
     units="in"
     inkscape:window-width="1440"
     inkscape:window-height="790"
     inkscape:window-x="0"
     inkscape:window-y="1"
     inkscape:window-maximized="1">
    <inkscape:grid
       type="xygrid"
       id="grid4136"
       units="in"
       spacingx="22.500001"
       spacingy="22.500001"
       empspacing="1"
       color="#fb0000"
       opacity="0.1254902" />
  </sodipodi:namedview>
  <metadata
     id="metadata7">
    <rdf:RDF>
      <cc:Work
         rdf:about="">
        <dc:format>image/svg+xml</dc:format>
        <dc:type
           rdf:resource="http://purl.org/dc/dcmitype/StillImage" />
        <dc:title></dc:title>
      </cc:Work>
    </rdf:RDF>
  </metadata>
  <g
     inkscape:label="Layer 1"
     inkscape:groupmode="layer"
     id="layer1"
     transform="translate(0,5427.6379)">
    <path
       style="display:inline;opacity:1;fill:none;fill-rule:evenodd;stroke:#000000;stroke-width:0.21085617;stroke-linecap:butt;stroke-linejoin:miter;stroke-miterlimit:4;stroke-dasharray:none;stroke-opacity:1"
       d="M 1344.8657,-1879.8571 C 1041.4286,-816.20935 900.00002,-972.63793 827.35427,-247.68775 798.05336,44.7134 1003.8579,150.66638 1116.6917,298.37389 5062.5001,1277.3621 4162.5001,-1985.1379 2807.4995,-3053.7794 c -351.2796,-389.8684 -524.6126,-635.5421 -588.99,-779.9745 -70.589,-406.6291 585.8442,-651.0386 369.2735,4.6719 -46.5389,121.7439 52.3939,296.7372 130.37,269.2042 319.3471,-112.7602 418.6789,140.5286 503.306,239.9097 728.9636,-547.9804 153.5411,-127.6699 -168.5866,-529.0856 -78.935,-97.5209 -213.3577,-340.7447 -228.9197,-393.5103 14.7002,-214.0413 213.5474,-330.074 407.7475,-198.9517 143.2999,93.8777 126.157,133.8777 232.6851,206.2262 111.8485,119.531 230.9719,-72.3485 561.2026,97.3523 160.0105,82.2271 239.8955,-184.6295 -67.1734,-390.0002 -112.5169,-11.4733 -687.8047,-217.5975 -302.0245,-438.9018 -227.7019,-7.8858 -158.5328,-287.2274 -583.061,-283.1038 -421.9948,-212.4834 -911.0192,-42.0901 -828.9716,376.5709 -276.5002,175.0198 -1006.8574,638.2341 -356.2847,1348.6931 1130.3856,1046.0128 2526.8107,3324.97008 159.178,3330.55377 -419.0706,-50.67525 -595.7105,-123.2449 -626.0102,-280.98367 -199.5935,-312.44223 237.331,-1010.029 247.9951,-1546.934 -75.0116,-410.8935 -263.8181,-492.9375 -447.9116,-553.465 -147.755,-48.5801 -327.9883,-57.6671 -474.2008,31.284 -497.10131,314.6284 -251.25807,839.4324 42.49217,1096.82 -176.35283,-360.5089 -227.35329,-417.4824 -85.534,-766.3854 420.91863,-333.8486 727.71043,-66.6269 640.78433,333.9322 z"
       id="path3448"
       inkscape:connector-curvature="0"
       sodipodi:nodetypes="csccccscccccsccccccccscccc" />
    <path
       style="opacity:1;fill:none;fill-opacity:1;stroke:#000000;stroke-width:0.08857457;stroke-miterlimit:4;stroke-dasharray:none;stroke-opacity:1"
       id="path4153"
       sodipodi:type="arc"
       sodipodi:cx="3027.1213"
       sodipodi:cy="-4931.0347"
       sodipodi:rx="214.61305"
       sodipodi:ry="204.09505"
       sodipodi:start="0"
       sodipodi:end="6.2695543"
       d="m 3241.7344,-4931.0347 a 214.61305,204.09505 0 0 1 -213.8817,204.0939 214.61305,204.09505 0 0 1 -215.3394,-202.7029 214.61305,204.09505 0 0 1 212.414,-205.4753 214.61305,204.09505 0 0 1 216.7872,201.3024"
       sodipodi:open="true" />
    <path
       style="fill:none;fill-rule:evenodd;stroke:#000000;stroke-width:0.99229807px;stroke-linecap:butt;stroke-linejoin:miter;stroke-opacity:1"
       d="m 2807.0092,-4807.2835 c -478.1488,502.1889 -1138.0271,456.4899 -793.0083,1164.8841 110.471,222.4786 731.5864,831.9678 1116.5424,1339.3541 213.3624,281.2197 472.2806,850.4612 446.6169,1450.96694 -11.1616,261.1686 -35.57,674.81134 -558.2712,892.90271 -424.8399,177.25983 -406.6169,77.32712 -1222.2245,60.31945 -1234.16449,-173.781715 -270.5,-1370.3253 -329.5921,-2281.2377 -259.8295,-527.6509 -909.84146,-253.3046 -904.57647,100.2743 l 0,334.8385"
       id="path4155"
       inkscape:connector-curvature="0"
       sodipodi:nodetypes="ccssscccc" />
    <path
       style="fill:none;fill-rule:evenodd;stroke:#000000;stroke-width:1px;stroke-linecap:butt;stroke-linejoin:miter;stroke-opacity:1"
       d="m 3037.5001,-5135.138 337.5,0 0,0"
       id="path4157"
       inkscape:connector-curvature="0" />
  </g>
</svg>
