<?xml version="1.0" encoding="UTF-8" standalone="no"?>
<!-- Created with Inkscape (http://www.inkscape.org/) -->

<svg
   xmlns:dc="http://purl.org/dc/elements/1.1/"
   xmlns:cc="http://creativecommons.org/ns#"
   xmlns:rdf="http://www.w3.org/1999/02/22-rdf-syntax-ns#"
   xmlns:svg="http://www.w3.org/2000/svg"
   xmlns="http://www.w3.org/2000/svg"
   xmlns:xlink="http://www.w3.org/1999/xlink"
   xmlns:sodipodi="http://sodipodi.sourceforge.net/DTD/sodipodi-0.dtd"
   xmlns:inkscape="http://www.inkscape.org/namespaces/inkscape"
   width="48in"
   height="96in"
   viewBox="0 0 4320.0001 8640.0003"
   id="svg2"
   version="1.1"
   inkscape:version="0.91 r13725"
   sodipodi:docname="Finalcreaturebotparts3.svg">
  <defs
     id="defs4" />
  <sodipodi:namedview
     id="base"
     pagecolor="#ffffff"
     bordercolor="#666666"
     borderopacity="1.0"
     inkscape:pageopacity="0.0"
     inkscape:pageshadow="2"
     inkscape:zoom="0.04375"
     inkscape:cx="-567.77751"
     inkscape:cy="5382.0439"
     inkscape:document-units="in"
     inkscape:current-layer="layer1"
     showgrid="true"
     units="in"
     inkscape:window-width="1440"
     inkscape:window-height="790"
     inkscape:window-x="120"
     inkscape:window-y="102"
     inkscape:window-maximized="0"
     showguides="true"
     inkscape:guide-bbox="true">
    <inkscape:grid
       type="xygrid"
       id="grid4136"
       units="in"
       spacingx="0.45000001"
       spacingy="0.45000001"
       empspacing="1"
       color="#fb0000"
       opacity="0.1254902"
       enabled="false" />
  </sodipodi:namedview>
  <metadata
     id="metadata7">
    <rdf:RDF>
      <cc:Work
         rdf:about="">
        <dc:format>image/svg+xml</dc:format>
        <dc:type
           rdf:resource="http://purl.org/dc/dcmitype/StillImage" />
        <dc:title />
      </cc:Work>
    </rdf:RDF>
  </metadata>
  <g
     inkscape:label="Layer 1"
     inkscape:groupmode="layer"
     id="layer1"
     transform="translate(0,7587.6379)">
    <path
       style="opacity:1;fill:none;fill-opacity:1;stroke:#000000;stroke-width:0.09;stroke-miterlimit:4;stroke-dasharray:none;stroke-opacity:1"
       id="path4499"
       sodipodi:type="arc"
       sodipodi:cx="7312.5"
       sodipodi:cy="-635.13788"
       sodipodi:rx="112.5"
       sodipodi:ry="337.5"
       sodipodi:start="0"
       sodipodi:end="0.016796577"
       d="m 7425,-635.13788 a 112.5,337.5 0 0 1 -0.016,5.66858 L 7312.5,-635.13788 Z" />
    <path
       style="opacity:1;fill:#ff0000;fill-opacity:1;stroke:#000000;stroke-width:0.03031586;stroke-miterlimit:4;stroke-dasharray:none;stroke-opacity:1"
       d="m 6567.629,-6207.5274 c -3.032,-0.035 -5.827,0.5672 -8.381,1.8066 -106.451,17.6349 -338.969,277.2595 -550.132,614.2676 l -3.471,5.5508 c -104.152,166.8484 -188.309,296.8082 -242.657,433.7242 -33.521,-72.725 -81.789,-113.1731 -134.181,-187.2438 l -2.316,-3.2597 c -76.463,-107.3599 -162.112,-199.4931 -238.152,-256.1808 -76.039,-56.6877 -136.257,-73.299 -167.438,-46.1884 -64.925,56.4497 11.196,283.3134 170.144,507.0821 108.385,152.4645 232.478,270.5463 321.223,305.6621 3.638,5.0945 8.083,8.9981 13.353,11.6406 13.013,6.5237 30.667,5.2513 52.323,-3.3965 5.443,-1.5147 10.401,-3.7742 14.853,-6.7695 43.28,-21.9753 99.793,-68.9265 165.529,-138.3086 109.06,-115.1082 234.579,-282.5234 349.012,-465.5059 114,-182.3568 205.67,-278.4244 258.625,-422.0625 34.25,152.4401 98.602,264.1108 175.385,465.3496 87.713,229.7412 185.434,439.8969 265.914,571.8672 -16.293,23.9652 -24.976,52.2886 -24.914,81.2676 0.1,18.275 3.672,36.3645 10.533,53.3027 l -0.617,0.1192 0.67,0 c 3.364,8.374 7.508,16.4133 12.377,24.0117 68.154,344.2438 -24.007,553.3622 -202.965,875.9883 261.426,-297.8601 468.01,-561.5368 468,-954 l 0,-1.1563 c -0.668,-72.2559 -54.782,-132.8281 -126.506,-141.6035 -29.058,-156.1584 -97.241,-381.6895 -185.318,-612.9805 l -2.334,-6.1152 c -126.606,-330.9216 -268.622,-607.8536 -351.307,-685.0508 -3.819,-7.4528 -8.89,-13.0114 -15.183,-16.6406 -4.496,-2.1242 -9.549,-3.3513 -15.143,-3.6777 -1.302,-0.5051 -2.572,-0.9231 -3.811,-1.2539 l 0,0 c -1.063,-0.1531 -2.1,-0.2346 -3.111,-0.2461 z"
       id="path4497-74"
       inkscape:connector-curvature="0"
       sodipodi:nodetypes="cccccccsscccccsccccccccccccccccccccc" />
    <path
       style="fill:#ffffff;fill-opacity:1;stroke:#000000;stroke-width:0.09;stroke-miterlimit:4;stroke-dasharray:none;stroke-opacity:1"
       id="path3440"
       sodipodi:type="arc"
       sodipodi:cx="4241.4238"
       sodipodi:cy="-1848.1545"
       sodipodi:rx="169.28572"
       sodipodi:ry="169.28572"
       sodipodi:start="0"
       sodipodi:end="0.010544044"
       d="m 4410.7095,-1848.1545 a 169.28572,169.28572 0 0 1 -0.01,1.7849"
       sodipodi:open="true" />
    <path
       style="fill:#ffffff;fill-opacity:1;stroke:#000000;stroke-width:0.15443869;stroke-miterlimit:4;stroke-dasharray:none;stroke-opacity:1"
       d="m 5046.5518,-2785.3156 c -313.8984,0.531 155.5795,136.0973 -98.0696,328.4429 -253.649,192.3455 -234.1054,-314.0507 -330.6198,-3.36 -90.1476,290.1951 138.6024,-59.2643 248.6129,146.2675 l 51.7443,0 a 129.34482,129.23666 0 0 1 49.158,-99.6605 75.713693,78.754932 0 0 0 -3.2106,23.2094 75.713693,78.754932 0 0 0 60.41,76.4511 l 30.7784,0 a 75.713693,78.754932 0 0 0 60.239,-76.9879 l 0,-1.0733 a 75.713693,78.754932 0 0 0 -8.2844,-34.6842 129.34482,129.23666 0 0 1 69.4766,112.7454 l 50.995,0 c 109.2363,-207.2114 339.6265,142.4565 248.4816,-147.7203 -97.4855,-310.3625 -76.3607,195.9642 -330.6099,4.4778 -254.2492,-191.4865 214.8034,-328.6389 -99.095,-328.1079 z"
       id="path3562"
       inkscape:connector-curvature="0" />
    <path
       style="fill:#ffffff;fill-opacity:1;stroke:#000000;stroke-width:0.15345706;stroke-miterlimit:4;stroke-dasharray:none;stroke-opacity:1"
       d="m 4892.222,-2294.8275 c 7.3744,14.0227 14.2031,30.578 20.3453,50.0525 63.2195,200.4453 -108.556,187.6237 -165.5298,212.8801 -13.3585,0.8831 -136.1253,17.0211 -181.918,69.6464 -48.5676,55.8143 -14.1456,101.0887 -14.1456,101.0887 l 414.9796,2.6302 c 0,0 8.0014,0 -18.7943,-31.895 -26.796,-31.8939 -28.4535,-63.7766 -28.4535,-63.7766 l -1.4593,-0.5999 c -4.5107,-74.3276 -0.072,-170.4479 154.3309,-170.7081 152.6021,-0.257 159.0117,93.6209 155.0116,167.5829 l -1.4167,0.5864 c 0,0 -1.653,32.0527 -28.3945,64.1155 -26.7416,32.0631 -18.7586,32.0646 -18.7586,32.0646 l 414.1388,-2.6437 c 0,0 16.8238,-43.7542 -31.6452,-99.8646 -50.0155,-49.4442 -106.5244,-62.2117 -175.2906,-68.4988 -31.3232,-5.6178 -216.0494,-17.4602 -155.0111,-213.1436 5.9933,-19.214 12.6589,-35.5998 19.8677,-49.517 l -49.8228,0 c -0.062,45.3306 -24.1854,87.256 -63.4412,110.2565 4.9583,-10.57 7.5498,-22.1631 7.5813,-33.915 l 0,-1.0644 c -0.5542,-36.6183 -25.5985,-67.919 -60.2312,-75.2771 l -30.6588,0 c -35.0539,7.6349 -60.0812,39.7677 -59.8745,76.8735 0.085,10.0679 2.0502,20.0238 5.7849,29.319 -35.2063,-23.649 -56.4293,-63.0515 -56.7269,-105.318 0.017,-0.2916 0.025,-0.5831 0.039,-0.8745 l -50.5002,0 z"
       id="path3571"
       inkscape:connector-curvature="0"
       sodipodi:nodetypes="cscsccsccsccsccccsccccccccccccc" />
    <use
       x="0"
       y="0"
       inkscape:tiled-clone-of="#rect3605"
       xlink:href="#rect3605"
       transform="translate(5542.7425,-10036.972)"
       id="use4256"
       width="100%"
       height="100%" />
    <use
       x="0"
       y="0"
       inkscape:tiled-clone-of="#rect3605"
       xlink:href="#rect3605"
       transform="translate(5542.0715,-9943.3329)"
       id="use4270"
       width="100%"
       height="100%" />
    <path
       style="fill:#ffffff;fill-opacity:1;stroke:#000000;stroke-width:0.09;stroke-miterlimit:4;stroke-dasharray:none;stroke-opacity:1"
       id="path3440-1"
       sodipodi:type="arc"
       sodipodi:cx="4252.8525"
       sodipodi:cy="-511.01178"
       sodipodi:rx="169.28572"
       sodipodi:ry="169.28572"
       sodipodi:start="0"
       sodipodi:end="0.010544044"
       d="m 4422.1383,-511.01178 a 169.28572,169.28572 0 0 1 -0.01,1.78492"
       sodipodi:open="true" />
    <path
       style="fill:#ffffff;fill-opacity:1;stroke:#000000;stroke-width:0.15345706;stroke-miterlimit:4;stroke-dasharray:none;stroke-opacity:1"
       d="m 5697.9363,-1306.2561 c 7.3744,14.0227 14.2031,30.578 20.3453,50.0525 63.2195,200.4453 -108.556,187.6237 -165.5298,212.8801 -13.3585,0.8831 -136.1253,17.0211 -181.918,69.64643 -48.5676,55.8143 -14.1456,101.0887 -14.1456,101.0887 l 414.9796,2.6302 c 0,0 8.0014,0 -18.7943,-31.895 -26.796,-31.8939 -28.4535,-63.7766 -28.4535,-63.7766 l -1.4593,-0.5999 c -4.5107,-74.32763 -0.072,-170.44793 154.3309,-170.70813 152.6021,-0.257 159.0117,93.6209 155.0116,167.58293 l -1.4167,0.5864 c 0,0 -1.653,32.0527 -28.3945,64.1155 -26.7416,32.0631 -18.7586,32.0646 -18.7586,32.0646 l 414.1388,-2.6437 c 0,0 16.8238,-43.7542 -31.6452,-99.8646 -50.0155,-49.44423 -106.5244,-62.21173 -175.2906,-68.49883 -31.3232,-5.6178 -216.0494,-17.4602 -155.0111,-213.1436 5.9933,-19.214 12.6589,-35.5998 19.8677,-49.517 l -49.8228,0 c -0.062,45.3306 -24.1854,87.256 -63.4412,110.2565 4.9583,-10.57 7.5498,-22.1631 7.5813,-33.915 l 0,-1.0644 c -0.5542,-36.6183 -25.5985,-67.919 -60.2312,-75.2771 l -30.6588,0 c -35.0539,7.6349 -60.0812,39.7677 -59.8745,76.8735 0.085,10.0679 2.0502,20.0238 5.7849,29.319 -35.2063,-23.649 -56.4293,-63.0515 -56.7269,-105.318 0.017,-0.2916 0.025,-0.5831 0.039,-0.8745 l -50.5002,0 z"
       id="path3571-5"
       inkscape:connector-curvature="0"
       sodipodi:nodetypes="cscsccsccsccsccccsccccccccccccc" />
    <use
       x="0"
       y="0"
       inkscape:tiled-clone-of="#rect3605"
       xlink:href="#rect3605"
       transform="translate(5554.1711,-8699.8297)"
       id="use4256-6"
       width="100%"
       height="100%" />
    <use
       x="0"
       y="0"
       inkscape:tiled-clone-of="#rect3605"
       xlink:href="#rect3605"
       transform="translate(5553.5001,-8606.1907)"
       id="use4270-1"
       width="100%"
       height="100%" />
    <path
       style="fill:#ffffff;fill-opacity:1;stroke:#000000;stroke-width:0.15443869;stroke-miterlimit:4;stroke-dasharray:none;stroke-opacity:1"
       d="m 5866.531,-2372.4976 c 0,0 -71.9926,180.1846 -22.4192,227.5738 40.7216,38.9275 7.892,117.2668 -20.8359,234.8173 -105.1388,87.1587 160.4102,206.7234 -43.3794,382.5934 -250.6753,196.2055 -238.8846,-310.4318 -330.6321,1.6998 -85.6952,291.541 137.6776,-61.3789 250.8211,142.4451 l 51.7383,-0.792 c -0.067,-38.9254 17.4289,-75.8079 47.6269,-100.401 -2.0617,7.5588 -3.0234,15.3975 -2.8534,23.2554 0.8752,37.0949 26.5244,68.5538 61.5714,75.5176 l 30.7757,-0.4711 c 34.9368,-8.1497 59.5758,-40.653 59.0527,-77.9013 l -0.016,-1.0721 c -0.3542,-12.0648 -3.3694,-23.8867 -8.8131,-34.5528 42.4617,21.3268 69.7974,64.2027 71.1941,111.6675 l 50.9882,-0.7806 c 106.0517,-208.8591 341.7679,137.2409 246.1921,-151.5068 -102.2246,-308.8339 -73.3516,197.1108 -330.502,9.5385 -205.8249,-221.7007 41.9373,-263.6998 -55.0238,-380.8782 -1.2884,-1.557 -67.5928,-194.3313 -32.1991,-233.3724 35.5737,-39.2396 26.7575,-94.3552 -23.2862,-227.38 z"
       id="path4331"
       inkscape:connector-curvature="0"
       sodipodi:nodetypes="csccscccccccccccscssc" />
    <use
       x="0"
       y="0"
       inkscape:tiled-clone-of="#rect3605"
       xlink:href="#rect3605"
       id="use4240"
       transform="translate(6310.3541,-9390.9956)"
       width="100%"
       height="100%" />
    <use
       x="0"
       y="0"
       inkscape:tiled-clone-of="#rect3605"
       xlink:href="#rect3605"
       transform="translate(6309.5396,-9299.4286)"
       id="use4244"
       width="100%"
       height="100%" />
    <g
       id="g5983">
      <path
         sodipodi:nodetypes="cccccccccccccccccccccscccccccscccccccsccccccccccccccccccccccccccsccccccccccccsccccccc"
         inkscape:connector-curvature="0"
         id="path4497"
         d="m 555.86874,498.08423 0,0 c 0.01,0.58586 0.0499,1.18806 0.138,1.80444 0.19016,0.71854 0.43171,1.45459 0.72288,2.20962 0.18272,3.24305 0.88779,6.17282 2.11373,8.78138 2.09631,3.65213 5.31248,6.59978 9.62813,8.82212 44.65082,48.02003 205.00915,130.66625 396.68201,204.44349 l 3.54236,1.35854 c 133.96635,51.32655 264.61835,91.115 355.10295,108.14241 5.0024,41.58586 40.0489,73.02515 81.9321,73.49714 l 0.6709,-1.2e-4 c 227.4948,0.4673 380.5806,-118.97132 553.5453,-270.15898 -187.2236,103.35554 -308.549,156.53207 -508.0129,116.62093 -4.3987,-2.83127 -9.0557,-5.24244 -13.9058,-7.20234 l -10e-5,-0.38804 -0.068,0.35747 c -9.8104,-3.99726 -20.293,-6.09136 -30.886,-6.16916 -16.798,-0.0699 -33.2259,4.93038 -47.1366,14.34645 C 1283.534,707.74334 1161.8313,650.85198 1028.7628,599.73827 912.20325,554.99339 847.54707,517.55878 759.22405,497.52646 c 83.32334,-30.52687 139.11734,-83.55072 244.95625,-149.41755 106.202,-66.11722 203.3932,-138.67819 270.245,-201.7602 40.2954,-38.02302 67.5779,-70.726205 80.3669,-95.788086 1.7415,-2.577157 3.0577,-5.449035 3.9421,-8.602705 5.0383,-12.542607 5.797,-22.774826 2.0308,-30.325185 -1.5255,-3.0580397 -3.7831,-5.639131 -6.7319,-7.7541378 -20.2508,-51.4829852 -88.5524,-123.5517262 -176.8024,-186.5574362 -2.5218,-1.79905 -5.0443,-3.57343 -7.5668,-5.33578 75.1013,-111.64507 -215.38592,-121.14179 -216.64924,-119.92386 -70.93847,-99.27819 57.14204,-100.45211 50.22844,-162.29616 -6.93775,-62.05937 -117.12647,-80.25009 -47.86807,-154.94166 74.93507,-42.81659 248.86647,-0.35201 218.30657,-114.64213 0.6575,-0.4647 1.315,-0.92293 1.9725,-1.39007 88.3671,-62.84128 156.8026,-134.78332 177.1491,-186.22849 2.9527,-2.10952 5.2153,-4.68776 6.7466,-7.74302 3.7802,-7.54326 3.0409,-17.77653 -1.974,-30.32848 -0.8786,-3.15529 -2.1892,-6.0285 -3.9259,-8.60889 -12.7424,-25.08568 -39.9642,-57.83922 -80.1886,-95.93712 -66.7342,-63.2063 -163.7903,-135.9497 -269.8691,-202.2646 -105.7159,-66.0637 -161.41095,-119.191 -244.67733,-149.8728 88.36011,-19.8681 153.08568,-57.1814 269.72833,-101.7093 133.1635,-50.866 254.9729,-107.5298 331.463,-154.1937 13.8933,9.442 30.311,14.4706 47.1089,14.432 10.5933,-0.058 21.0796,-2.1316 30.8974,-6.1107 l 0.069,0.3594 -10e-5,-0.3899 c 4.8537,-1.951 9.5128,-4.3533 13.9169,-7.1764 199.5379,-39.5397 320.765,13.8618 507.7958,117.5658 -172.683,-151.5095 -325.546,-271.2319 -553.0413,-271.1882 l -0.6709,1e-4 c -41.8838,0.3942 -76.9902,31.7684 -82.07,73.3449 -90.516,16.859 -221.2404,56.4041 -355.30221,107.4812 l -3.54374,1.3521 c -191.80988,73.4203 -352.32285,155.7694 -397.06312,203.7062 -4.31967,2.2142 -7.54111,5.1543 -9.64418,8.8024 -1.23083,2.6064 -1.94128,5.5356 -2.12998,8.7782 -0.29254,0.7546 -0.53624,1.4899 -0.72787,2.2079 -0.0891,0.6163 -0.13458,1.2188 -0.14123,1.8047 l 0,0 c -0.0205,1.7575 0.32973,3.3767 1.0485,4.8571 10.23248,61.7039 160.74796,196.4594 356.1187,318.8301 l 3.21753,2.0124 c 96.7254,60.3563 172.067,109.12603 251.437,140.61605 -37.5864,17.33239 -60.3321,41.46578 -95.2472,68.02512 -219.95466,-263.74347 -7.6014,324.40609 -430.49992,193.11237 -27.58425,-8.56385 -51.10898,-18.08892 -71.08967,-28.39197 l 0.0117,71.23033 c 65.07527,0.0772 125.26791,34.55705 158.29568,90.67506 -15.1751,-7.0869 -31.81827,-10.78964 -48.6891,-10.83233 l -1.52728,0.0159 c -52.56844,0.80066 -97.49702,36.61402 -108.0516,86.12985 l 0.01,43.83203 c 10.96877,50.11442 57.1042,85.88792 110.37233,85.58287 14.4529,-0.12534 28.74442,-2.93635 42.08716,-8.27827 -33.94101,50.33952 -90.50066,80.69133 -151.17708,81.12681 -0.4187,-0.0165 -0.83729,-0.0351 -1.25589,-0.0556 l 0.0117,72.19181 c 20.12858,-10.54639 43.8932,-20.31228 71.84858,-29.09829 417.39559,-131.18142 217.12419,442.27755 423.58259,200.705779 39.2075,28.801 62.3504,55.137533 102.4948,73.740246 -79.4286,31.342082 -154.8584,79.971455 -251.69612,140.147665 l -3.22252,2.00574 C 718.03897,297.06241 567.27255,431.5382 556.92507,493.22297 c -0.72151,1.47905 -1.07473,3.09791 -1.05819,4.85549 z"
         style="opacity:1;fill:#ff0000;fill-opacity:1;stroke:#000000;stroke-width:0.0175729;stroke-miterlimit:4;stroke-dasharray:none;stroke-opacity:1" />
      <path
         inkscape:connector-curvature="0"
         id="path3562-0-9"
         d="m 1289.7457,-446.65946 c 0.6933,446.88303858 158.5297,-221.51815 382.6918,139.55346 224.1618,361.071501 -365.8445,333.346414 -3.8362,470.68935 338.1273,128.28264 -69.0818,-197.310574 170.357,-353.96769 l -0.013,-73.66596 a 184.14248,150.57346 89.990433 0 1 -116.126,-69.96474 107.79022,91.757267 89.990433 0 0 27.042,4.5664 107.79022,91.757267 89.990433 0 0 89.0588,-86.01794 l -0.01,-43.81774 a 107.79022,91.757267 89.990433 0 0 -89.7128,-85.74468 l -1.2505,1.9e-4 a 107.79022,91.757267 89.990433 0 0 -40.4086,11.80078 184.14248,150.57346 89.990433 0 1 131.343,-98.93271 l -0.012,-72.59933 c -241.4479,-155.47451 165.8951,-483.53883 -172.1679,-353.72343 -361.5797,138.8462 228.3358,108.67324 5.2958,470.6737 -223.0405,362.00071 -382.9479,-305.74206 -382.2547,141.14104 z"
         style="fill:#ffffff;fill-opacity:1;stroke:#000000;stroke-width:0.19890235;stroke-miterlimit:4;stroke-dasharray:none;stroke-opacity:1" />
    </g>
    <path
       style="opacity:1;fill:#ff0000;fill-opacity:1;stroke:#000000;stroke-width:0.0175729;stroke-miterlimit:4;stroke-dasharray:none;stroke-opacity:1"
       d="m 3937.3993,476.69413 0,0 c -0.01,0.58586 -0.05,1.18807 -0.138,1.80446 -0.1901,0.71858 -0.4317,1.45457 -0.7229,2.20965 -0.1827,3.24308 -0.8878,6.17277 -2.1137,8.78134 -2.0963,3.65218 -5.3125,6.59978 -9.6281,8.82216 -44.6508,48.02005 -205.0092,130.66621 -396.682,204.44345 l -3.5424,1.35855 c -133.9664,51.32655 -264.6184,91.11501 -355.1029,108.14243 -5.0024,41.58586 -40.049,73.02518 -81.9321,73.49712 l -0.6709,-10e-5 c -227.4949,0.46734 -380.5807,-118.97134 -553.5453,-270.15899 187.2236,103.35552 308.5489,156.53213 508.0129,116.62095 4.3987,-2.83124 9.0556,-5.2424 13.9058,-7.20238 l 10e-5,-0.38796 0.069,0.35742 c 9.8103,-3.99727 20.293,-6.09133 30.886,-6.16914 16.7979,-0.0695 33.2259,4.93038 47.1366,14.34642 76.4032,-46.80625 198.1058,-103.69758 331.1743,-154.81126 116.5596,-44.74487 181.2158,-82.17951 269.5388,-102.21189 -83.3233,-30.52686 -139.1173,-83.55069 -244.9563,-149.41755 -106.202,-66.1172 -203.3931,-138.67819 -270.245,-201.7602 -40.2953,-38.022942 -67.5778,-70.726174 -80.3668,-95.788075 -1.7415,-2.577157 -3.0577,-5.449005 -3.9422,-8.602626 -5.0382,-12.5426467 -5.7969,-22.7748364 -2.0307,-30.3252444 1.5255,-3.0580006 3.7831,-5.6390726 6.7319,-7.7540786 20.2508,-51.483044 88.5523,-123.551736 176.8023,-186.557506 2.5219,-1.79898 5.0443,-3.57339 7.5669,-5.33577 -75.1014,-111.64505 215.3859,-121.14173 216.6492,-119.92382 70.9385,-99.27819 -57.1421,-100.45216 -50.2284,-162.29619 6.9377,-62.05935 117.1264,-80.25007 47.868,-154.94162 -74.935,-42.81661 -248.8664,-0.35205 -218.3066,-114.64218 -0.6575,-0.4647 -1.315,-0.92293 -1.9725,-1.39007 -88.367,-62.84126 -156.8025,-134.7833 -177.1491,-186.22847 -2.9526,-2.10952 -5.2152,-4.68776 -6.7465,-7.74302 -3.7802,-7.54327 -3.0409,-17.77654 1.9739,-30.32848 0.8786,-3.15529 2.1892,-6.0285 3.926,-8.60889 12.7424,-25.08567 39.9642,-57.83927 80.1886,-95.93717 66.7342,-63.2063 163.7903,-135.9497 269.8691,-202.2645 105.7159,-66.0638 161.4109,-119.1911 244.6773,-149.8729 -88.3601,-19.868 -153.0857,-57.1814 -269.7284,-101.7093 -133.1634,-50.8659 -254.9728,-107.5297 -331.4629,-154.1937 -13.8933,9.442 -30.311,14.4707 -47.1089,14.4321 -10.5933,-0.058 -21.0796,-2.1316 -30.8974,-6.1107 l -0.068,0.3594 10e-5,-0.39 c -4.8538,-1.9509 -9.5129,-4.3533 -13.9169,-7.1764 -199.5379,-39.5397 -320.765,13.8619 -507.7958,117.5658 172.683,-151.5094 325.5459,-271.2319 553.0413,-271.1881 l 0.6709,10e-5 c 41.8838,0.3941 76.9902,31.7684 82.07,73.3448 90.5159,16.859 221.2404,56.4042 355.3022,107.4812 l 3.5437,1.3521 c 191.8099,73.4203 352.3229,155.7694 397.0631,203.7062 4.3197,2.2143 7.5411,5.1543 9.6442,8.8025 1.2308,2.6063 1.9413,5.5355 2.13,8.7782 0.2925,0.7546 0.5362,1.4898 0.7279,2.2079 0.089,0.6163 0.1345,1.2188 0.1412,1.8046 l 0,0 c 0.021,1.7575 -0.3297,3.3767 -1.0485,4.8571 -10.2325,61.7039 -160.748,196.4595 -356.1187,318.8301 l -3.2176,2.0124 c -96.7253,60.3563 -172.067,109.1261 -251.437,140.61609 37.5865,17.33239 60.3321,41.46579 95.2473,68.02513 219.9546,-263.74352 7.6014,324.40604 430.4999,193.11237 27.5842,-8.56387 51.109,-18.08894 71.0896,-28.39199 l -0.012,71.23032 c -65.0753,0.0773 -125.2679,34.55712 -158.2957,90.67507 15.1751,-7.08689 31.8183,-10.78967 48.6891,-10.83234 l 1.5273,0.0157 c 52.5684,0.80069 97.497,36.61409 108.0516,86.12991 l -0.01,43.83202 c -10.9688,50.11441 -57.1042,85.88788 -110.3723,85.58281 -14.4529,-0.12527 -28.7444,-2.93634 -42.0872,-8.27828 33.941,50.33951 90.5007,80.69138 151.1771,81.12681 0.4187,-0.0166 0.8373,-0.0352 1.2559,-0.0558 l -0.012,72.19181 c -20.1286,-10.54636 -43.8932,-20.31219 -71.8486,-29.09823 -417.3956,-131.18141 -217.1242,442.27749 -423.5826,200.70574 -39.2075,28.800991 -62.3505,55.1375726 -102.4948,73.740237 79.4286,31.342131 154.8583,79.97153 251.6961,140.147733 l 3.2225,2.00568 c 195.6,122.00683 346.3664,256.4826 356.7139,318.1674 0.7215,1.47903 1.0747,3.09783 1.0582,4.85541 z"
       id="path4497-2"
       inkscape:connector-curvature="0"
       sodipodi:nodetypes="cccccccccccccccccccccscccccccscccccccsccccccccccccccccccccccccccsccccccccccccsccccccc" />
    <path
       style="fill:#ffffff;fill-opacity:1;stroke:#000000;stroke-width:0.19890235;stroke-miterlimit:4;stroke-dasharray:none;stroke-opacity:1"
       d="m 3152.1901,-482.09951 c -0.6934,446.883042 -158.5297,-221.51814 -382.6919,139.55346 -224.1617,361.071504 365.8445,333.3464168 3.8362,470.68934 -338.1272,128.28266 69.0818,-197.31056 -170.357,-353.96768 l 0.013,-73.66595 a 150.57346,184.14248 0.009567 0 0 116.126,-69.96474 91.757267,107.79022 0.009567 0 1 -27.0419,4.5664 91.757267,107.79022 0.009567 0 1 -89.0588,-86.01795 l 0.01,-43.81773 a 91.757267,107.79022 0.009567 0 1 89.7128,-85.74469 l 1.2505,2e-4 a 91.757267,107.79022 0.009567 0 1 40.4085,11.80077 150.57346,184.14248 0.009567 0 0 -131.343,-98.93269 l 0.012,-72.59935 c 241.4478,-155.47448 -165.8951,-483.53878 172.1678,-353.72348 361.5797,138.84628 -228.3358,108.67332 -5.2957,470.67377 223.0404,362.00069 382.9478,-305.74205 382.2546,141.14103 z"
       id="path3562-0-9-7"
       inkscape:connector-curvature="0" />
    <path
       sodipodi:nodetypes="cccccccccccccccccccccscccccccscccccccsccccccccccccccccccccccccccsccccccccccccsccccccc"
       inkscape:connector-curvature="0"
       id="path4767"
       d="m 578.2394,-2342.9906 0,0 c 0.01,0.5858 0.0499,1.188 0.138,1.8044 0.19017,0.7186 0.43171,1.4546 0.72288,2.2097 0.18273,3.2431 0.8878,6.1728 2.11374,8.7813 2.09631,3.6522 5.31247,6.5998 9.62812,8.8222 44.65082,48.02 205.00915,130.6662 396.68201,204.4434 l 3.54237,1.3586 c 133.96638,51.3265 264.61848,91.115 355.10298,108.1424 5.0024,41.5859 40.049,73.0252 81.9321,73.4971 l 0.6709,-10e-5 c 227.4949,0.4674 380.5806,-118.9713 553.5453,-270.159 -187.2236,103.3556 -308.5489,156.5322 -508.0129,116.621 -4.3987,-2.8312 -9.0556,-5.2424 -13.9058,-7.2024 l -1e-4,-0.3879 -0.068,0.3574 c -9.8103,-3.9973 -20.293,-6.0914 -30.886,-6.1692 -16.7979,-0.069 -33.2259,4.9304 -47.1366,14.3465 -76.4032,-46.8063 -198.1059,-103.6976 -331.1743,-154.8113 -116.55969,-44.7449 -181.21587,-82.1795 -269.53888,-102.2119 83.32334,-30.5268 139.11734,-83.5507 244.95618,-149.4175 106.2022,-66.1172 203.3933,-138.6782 270.2452,-201.7602 40.2953,-38.023 67.5778,-70.7262 80.3668,-95.7881 1.7415,-2.5772 3.0577,-5.449 3.9422,-8.6026 5.0382,-12.5427 5.7969,-22.7749 2.0307,-30.3253 -1.5255,-3.058 -3.7831,-5.6391 -6.7319,-7.7541 -20.2508,-51.483 -88.5523,-123.5517 -176.8023,-186.5575 -2.5219,-1.7989 -5.0443,-3.5734 -7.5669,-5.3357 75.1014,-111.6451 -215.38595,-121.1418 -216.64928,-119.9239 -70.93846,-99.2781 57.14208,-100.4521 50.22838,-162.2961 -6.9377,-62.0594 -117.12641,-80.2501 -47.86801,-154.9417 74.93511,-42.8166 248.86651,-0.352 218.30661,-114.6421 0.6575,-0.4647 1.315,-0.923 1.9725,-1.3901 88.3671,-62.8413 156.8026,-134.7833 177.1491,-186.2285 2.9527,-2.1095 5.2153,-4.6877 6.7466,-7.743 3.7802,-7.5433 3.0409,-17.7765 -1.9739,-30.3285 -0.8786,-3.1553 -2.1892,-6.0285 -3.926,-8.6089 -12.7424,-25.0856 -39.9642,-57.8392 -80.1886,-95.9371 -66.7342,-63.2063 -163.7903,-135.9497 -269.8691,-202.2645 -105.71593,-66.0638 -161.41098,-119.1911 -244.67736,-149.8729 88.36011,-19.868 153.08568,-57.1814 269.72846,-101.7093 133.1634,-50.866 254.9728,-107.5297 331.4629,-154.1937 13.8933,9.442 30.311,14.4706 47.1089,14.4321 10.5933,-0.058 21.0796,-2.1317 30.8974,-6.1107 l 0.068,0.3593 -10e-5,-0.3899 c 4.8538,-1.951 9.5128,-4.3533 13.9169,-7.1764 199.5379,-39.5397 320.765,13.8618 507.7958,117.5658 -172.683,-151.5095 -325.5459,-271.2319 -553.0413,-271.1881 l -0.6709,1e-4 c -41.8838,0.3941 -76.9902,31.7683 -82.07,73.3448 -90.5159,16.859 -221.2404,56.4041 -355.30225,107.4812 l -3.54373,1.3521 c -191.80989,73.4203 -352.32285,155.7694 -397.06313,203.7062 -4.31966,2.2142 -7.54111,5.1543 -9.64417,8.8025 -1.23084,2.6063 -1.94129,5.5355 -2.12998,8.7782 -0.29254,0.7546 -0.53624,1.4898 -0.72788,2.2079 -0.0891,0.6163 -0.13457,1.2188 -0.14123,1.8046 l 0,0 c -0.0206,1.7575 0.32973,3.3767 1.0485,4.8571 10.23249,61.7039 160.74796,196.4595 356.11871,318.8301 l 3.21753,2.0124 c 96.72533,60.3563 172.06703,109.126 251.43713,140.6161 -37.5865,17.3324 -60.3322,41.4657 -95.2473,68.0251 -219.95469,-263.7435 -7.6014,324.406 -430.49995,193.1123 -27.58425,-8.5638 -51.10898,-18.0889 -71.08968,-28.3919 l 0.0118,71.2303 c 65.07526,0.077 125.26791,34.5571 158.29568,90.675 -15.1751,-7.0868 -31.81828,-10.7896 -48.6891,-10.8323 l -1.52729,0.016 c -52.56844,0.8007 -97.49702,36.614 -108.0516,86.1299 l 0.01,43.832 c 10.96877,50.1144 57.10421,85.8879 110.37233,85.5828 14.45291,-0.1253 28.74442,-2.9363 42.08717,-8.2783 -33.94102,50.3395 -90.50066,80.6914 -151.17709,81.1268 -0.41869,-0.017 -0.83729,-0.035 -1.25589,-0.056 l 0.0118,72.1919 c 20.12858,-10.5464 43.89319,-20.3122 71.84857,-29.0983 417.39565,-131.1814 217.12419,442.2775 423.58265,200.7058 39.2075,28.8009 62.3505,55.1375 102.4948,73.7402 -79.4286,31.3421 -154.8585,79.9715 -251.69617,140.1477 l -3.22253,2.0057 c -195.59996,122.0068 -346.36638,256.4826 -356.71386,318.1674 -0.72151,1.479 -1.07473,3.0978 -1.05819,4.8554 z"
       style="opacity:1;fill:#ff0000;fill-opacity:1;stroke:#000000;stroke-width:0.0175729;stroke-miterlimit:4;stroke-dasharray:none;stroke-opacity:1" />
    <path
       inkscape:connector-curvature="0"
       id="path4769"
       d="m 1254.9735,-3322.02 c 0.6933,446.883 158.5297,-221.5183 382.6918,139.5534 224.1618,361.0715 -365.8445,333.3465 -3.8361,470.6894 338.1272,128.2826 -69.0819,-197.3106 170.357,-353.9677 l -0.013,-73.666 a 184.14248,150.57346 89.990433 0 1 -116.126,-69.9647 107.79022,91.757267 89.990433 0 0 27.042,4.5664 107.79022,91.757267 89.990433 0 0 89.0588,-86.0179 l -0.01,-43.8178 a 107.79022,91.757267 89.990433 0 0 -89.7128,-85.7447 l -1.2505,2e-4 a 107.79022,91.757267 89.990433 0 0 -40.4086,11.8008 184.14248,150.57346 89.990433 0 1 131.343,-98.9328 l -0.012,-72.5992 c -241.4479,-155.4746 165.8951,-483.5388 -172.1678,-353.7235 -361.5798,138.8462 228.3358,108.6733 5.2957,470.6737 -223.0404,362.0007 -382.9479,-305.742 -382.2546,141.1411 z"
       style="fill:#ffffff;fill-opacity:1;stroke:#000000;stroke-width:0.19890235;stroke-miterlimit:4;stroke-dasharray:none;stroke-opacity:1" />
    <path
       sodipodi:nodetypes="cccccccccccccccccccccscccccccscccccccsccccccccccccccccccccccccccsccccccccccccsccccccc"
       inkscape:connector-curvature="0"
       id="path4771"
       d="m 3959.77,-2364.3807 0,0 c -0.01,0.5859 -0.05,1.1881 -0.138,1.8045 -0.1901,0.7186 -0.4317,1.4546 -0.7228,2.2096 -0.1828,3.2431 -0.8878,6.1728 -2.1138,8.7814 -2.0963,3.6522 -5.3124,6.5998 -9.6281,8.8221 -44.6508,48.0201 -205.0091,130.6663 -396.682,204.4435 l -3.5424,1.3585 c -133.9663,51.3266 -264.6184,91.115 -355.1029,108.1425 -5.0024,41.5858 -40.049,73.0252 -81.9321,73.4971 l -0.6709,-10e-5 c -227.4948,0.4673 -380.5806,-118.9713 -553.5453,-270.159 187.2236,103.3555 308.5489,156.5321 508.0129,116.6209 4.3987,-2.8312 9.0557,-5.2424 13.9058,-7.2023 l 10e-5,-0.388 0.069,0.3574 c 9.8104,-3.9972 20.293,-6.0913 30.886,-6.1691 16.7979,-0.07 33.2259,4.9304 47.1366,14.3464 76.4032,-46.8062 198.1059,-103.6976 331.1743,-154.8112 116.5596,-44.7449 181.2158,-82.1796 269.5388,-102.2119 -83.3233,-30.5269 -139.1173,-83.5507 -244.9562,-149.4176 -106.202,-66.1172 -203.3932,-138.6782 -270.2451,-201.7602 -40.2953,-38.0229 -67.5778,-70.7262 -80.3668,-95.7881 -1.7415,-2.5771 -3.0577,-5.449 -3.9422,-8.6026 -5.0382,-12.5426 -5.7969,-22.7748 -2.0307,-30.3252 1.5255,-3.058 3.7831,-5.6391 6.7319,-7.7541 20.2508,-51.4831 88.5523,-123.5517 176.8023,-186.5575 2.5219,-1.799 5.0444,-3.5734 7.5669,-5.3358 -75.1013,-111.645 215.3859,-121.1417 216.6492,-119.9238 70.9385,-99.2782 -57.1421,-100.4522 -50.2284,-162.2962 6.9377,-62.0593 117.1264,-80.2501 47.868,-154.9416 -74.935,-42.8166 -248.8664,-0.3521 -218.3065,-114.6422 -0.6575,-0.4647 -1.315,-0.9229 -1.9725,-1.3901 -88.3671,-62.8412 -156.8026,-134.7833 -177.1491,-186.2284 -2.9527,-2.1096 -5.2153,-4.6878 -6.7466,-7.743 -3.7802,-7.5433 -3.0409,-17.7766 1.974,-30.3285 0.8785,-3.1553 2.1891,-6.0285 3.9259,-8.6089 12.7424,-25.0857 39.9642,-57.8392 80.1886,-95.9372 66.7342,-63.2063 163.7903,-135.9497 269.8691,-202.2645 105.7159,-66.0638 161.4109,-119.191 244.6773,-149.8728 -88.3601,-19.8681 -153.0857,-57.1815 -269.7284,-101.7094 -133.1634,-50.8659 -254.9728,-107.5297 -331.4629,-154.1936 -13.8933,9.4419 -30.311,14.4706 -47.1089,14.432 -10.5933,-0.058 -21.0796,-2.1316 -30.8974,-6.1107 l -0.068,0.3594 10e-5,-0.3899 c -4.8538,-1.951 -9.5128,-4.3534 -13.9169,-7.1765 -199.5379,-39.5396 -320.765,13.8619 -507.7958,117.5658 172.683,-151.5094 325.546,-271.2318 553.0413,-271.1881 l 0.6709,10e-5 c 41.8838,0.3941 76.9902,31.7684 82.07,73.3448 90.516,16.859 221.2404,56.4042 355.3022,107.4813 l 3.5437,1.352 c 191.8099,73.4203 352.3229,155.7695 397.0631,203.7062 4.3197,2.2143 7.5412,5.1543 9.6442,8.8025 1.2309,2.6063 1.9413,5.5355 2.13,8.7782 0.2925,0.7546 0.5362,1.4898 0.7279,2.2079 0.089,0.6163 0.1346,1.2188 0.1412,1.8047 l 0,0 c 0.021,1.7574 -0.3297,3.3766 -1.0485,4.857 -10.2325,61.7039 -160.7479,196.4595 -356.1187,318.8301 l -3.2175,2.0125 c -96.7254,60.3563 -172.067,109.126 -251.437,140.616 37.5864,17.3324 60.3321,41.4658 95.2472,68.0251 219.9546,-263.7435 7.6014,324.4061 430.4999,193.1124 27.5842,-8.5639 51.109,-18.0889 71.0897,-28.392 l -0.012,71.2303 c -65.0752,0.077 -125.2679,34.5571 -158.2957,90.6751 15.1751,-7.0869 31.8183,-10.7897 48.6891,-10.8323 l 1.5273,0.016 c 52.5685,0.8007 97.4971,36.6141 108.0516,86.1299 l -0.01,43.832 c -10.9687,50.1145 -57.1042,85.8879 -110.3723,85.5829 -14.4529,-0.1253 -28.7444,-2.9364 -42.0872,-8.2783 33.9411,50.3395 90.5007,80.6913 151.1771,81.1268 0.4187,-0.017 0.8373,-0.035 1.2559,-0.056 l -0.012,72.1918 c -20.1286,-10.5464 -43.8932,-20.3122 -71.8486,-29.0982 -417.3956,-131.1814 -217.1242,442.2775 -423.5826,200.7057 -39.2075,28.801 -62.3504,55.1376 -102.4948,73.7402 79.4286,31.3422 154.8584,79.9716 251.6961,140.1478 l 3.2225,2.0057 c 195.6,122.0068 346.3664,256.4826 356.7139,318.1674 0.7215,1.479 1.0747,3.0978 1.0582,4.8554 z"
       style="opacity:1;fill:#ff0000;fill-opacity:1;stroke:#000000;stroke-width:0.0175729;stroke-miterlimit:4;stroke-dasharray:none;stroke-opacity:1" />
    <path
       inkscape:connector-curvature="0"
       id="path4773"
       d="m 3231.7037,-3334.6029 c -0.6933,446.883 -158.5297,-221.5182 -382.6919,139.5534 -224.1617,361.0715 365.8445,333.3464 3.8362,470.6894 -338.1272,128.2826 69.0819,-197.3106 -170.357,-353.9677 l 0.013,-73.666 a 150.57346,184.14248 0.009567 0 0 116.1261,-69.9647 91.757267,107.79022 0.009567 0 1 -27.042,4.5664 91.757267,107.79022 0.009567 0 1 -89.0588,-86.018 l 0.01,-43.8177 a 91.757267,107.79022 0.009567 0 1 89.7128,-85.7447 l 1.2505,2e-4 a 91.757267,107.79022 0.009567 0 1 40.4086,11.8008 150.57346,184.14248 0.009567 0 0 -131.343,-98.9327 l 0.012,-72.5993 c 241.4479,-155.4745 -165.8951,-483.5388 172.1678,-353.7234 361.5798,138.8462 -228.3358,108.6732 -5.2957,470.6736 223.0404,362.0007 382.9479,-305.742 382.2546,141.1411 z"
       style="fill:#ffffff;fill-opacity:1;stroke:#000000;stroke-width:0.19890235;stroke-miterlimit:4;stroke-dasharray:none;stroke-opacity:1" />
    <path
       style="opacity:1;fill:#ff0000;fill-opacity:1;stroke:#000000;stroke-width:0.0175729;stroke-miterlimit:4;stroke-dasharray:none;stroke-opacity:1"
       d="m 213.74131,-5081.4515 0,0 c 0.01,0.5858 0.0499,1.188 0.138,1.8044 0.19016,0.7186 0.43171,1.4546 0.72288,2.2097 0.18273,3.2431 0.88779,6.1727 2.11373,8.7813 2.09632,3.6522 5.31248,6.5998 9.62813,8.8222 44.65082,48.02 205.00915,130.6662 396.68201,204.4434 l 3.54237,1.3586 c 133.96644,51.3265 264.61854,91.115 355.10304,108.1424 5.0024,41.5859 40.04903,73.0252 81.93213,73.4971 l 0.6709,-1e-4 c 227.4948,0.4674 380.5806,-118.9713 553.5453,-270.159 -187.2236,103.3556 -308.5489,156.5322 -508.0129,116.621 -4.3987,-2.8312 -9.0557,-5.2424 -13.9058,-7.2024 l -10e-5,-0.388 -0.069,0.3575 c -9.8104,-3.9973 -20.293,-6.0914 -30.886,-6.1692 -16.7979,-0.07 -33.2259,4.9304 -47.1366,14.3464 -76.40323,-46.8062 -198.10593,-103.6975 -331.17449,-154.8112 -116.55959,-44.7449 -181.21577,-82.1795 -269.53879,-102.2119 83.32334,-30.5269 139.11734,-83.5507 244.95626,-149.4176 106.20209,-66.1172 203.39329,-138.6781 270.24509,-201.7602 40.2954,-38.0229 67.5779,-70.7261 80.36693,-95.788 1.7415,-2.5772 3.0577,-5.449 3.9422,-8.6027 5.0382,-12.5426 5.7969,-22.7748 2.0307,-30.3252 -1.5255,-3.058 -3.7831,-5.6391 -6.7319,-7.7541 -20.25083,-51.483 -88.55233,-123.5517 -176.80243,-186.5575 -2.5218,-1.799 -5.0443,-3.5734 -7.5668,-5.3358 75.1013,-111.645 -215.38601,-121.1417 -216.64934,-119.9238 -70.93846,-99.2782 57.14208,-100.4521 50.22843,-162.2962 -6.93773,-62.0593 -117.12646,-80.25 -47.86806,-154.9416 74.93506,-42.8166 248.86657,-0.352 218.30667,-114.6422 0.6575,-0.4647 1.315,-0.9229 1.9725,-1.39 88.3671,-62.8413 156.8026,-134.7833 177.14913,-186.2285 2.9527,-2.1095 5.2153,-4.6878 6.7466,-7.743 3.7802,-7.5433 3.0409,-17.7765 -1.974,-30.3285 -0.8785,-3.1553 -2.1891,-6.0285 -3.9259,-8.6089 -12.74243,-25.0857 -39.96423,-57.8392 -80.18863,-95.9371 -66.7342,-63.2063 -163.7903,-135.9497 -269.86921,-202.2645 -105.71589,-66.0638 -161.41094,-119.1911 -244.67732,-149.8729 88.36012,-19.868 153.08569,-57.1814 269.72837,-101.7093 133.16356,-50.866 254.97296,-107.5298 331.46309,-154.1937 13.8933,9.442 30.311,14.4706 47.1089,14.4321 10.5933,-0.058 21.0796,-2.1317 30.8974,-6.1108 l 0.068,0.3594 -10e-5,-0.3899 c 4.8537,-1.951 9.5128,-4.3533 13.9169,-7.1764 199.5379,-39.5397 320.765,13.8618 507.7958,117.5658 -172.683,-151.5095 -325.546,-271.2319 -553.0413,-271.1881 l -0.6709,0 c -41.8838,0.3942 -76.99023,31.7684 -82.07003,73.3449 -90.516,16.859 -221.2404,56.4041 -355.30231,107.4812 l -3.54374,1.3521 c -191.80988,73.4203 -352.32285,155.7694 -397.06312,203.7062 -4.31966,2.2142 -7.54111,5.1543 -9.64418,8.8024 -1.23083,2.6064 -1.94128,5.5356 -2.12998,8.7783 -0.29254,0.7545 -0.53624,1.4898 -0.72787,2.2078 -0.0891,0.6163 -0.13457,1.2188 -0.14123,1.8047 l 0,0 c -0.0205,1.7575 0.32973,3.3767 1.0485,4.8571 10.23248,61.7039 160.74796,196.4594 356.11871,318.8301 l 3.21753,2.0124 c 96.7254,60.3563 172.06709,109.126 251.43709,140.616 -37.5864,17.3324 -60.3321,41.4658 -95.2472,68.0252 -219.95476,-263.7435 -7.6014,324.406 -430.50002,193.1123 -27.58425,-8.5638 -51.10897,-18.0889 -71.08967,-28.392 l 0.0117,71.2304 c 65.07527,0.077 125.26791,34.5571 158.29569,90.675 -15.1751,-7.0869 -31.81828,-10.7896 -48.6891,-10.8323 l -1.52729,0.016 c -52.56844,0.8007 -97.49702,36.6141 -108.0516,86.13 l 0.01,43.832 c 10.96877,50.1144 57.1042,85.8879 110.37233,85.5828 14.4529,-0.1253 28.74442,-2.9364 42.08717,-8.2783 -33.94102,50.3395 -90.50067,80.6914 -151.17709,81.1268 -0.4187,-0.017 -0.83729,-0.035 -1.25589,-0.056 l 0.0118,72.1918 c 20.12858,-10.5463 43.89319,-20.3122 71.84857,-29.0982 417.3957,-131.1814 217.12419,442.2775 423.5827,200.7057 39.2075,28.801 62.3504,55.1376 102.4948,73.7403 -79.4286,31.3421 -154.85847,79.9715 -251.69623,140.1477 l -3.22252,2.0057 c -195.59996,122.0068 -346.36638,256.4826 -356.71386,318.1674 -0.72151,1.479 -1.07473,3.0978 -1.05819,4.8554 z"
       id="path4775"
       inkscape:connector-curvature="0"
       sodipodi:nodetypes="cccccccccccccccccccccscccccccscccccccsccccccccccccccccccccccccccsccccccccccccsccccccc" />
    <path
       style="fill:#ffffff;fill-opacity:1;stroke:#000000;stroke-width:0.19890235;stroke-miterlimit:4;stroke-dasharray:none;stroke-opacity:1"
       d="m 1026.8887,-5996.0445 c 0.6933,446.8831 158.5297,-221.5182 382.6918,139.5535 224.1618,361.0715 -365.8445,333.3464 -3.8362,470.6893 338.1273,128.2827 -69.0818,-197.3105 170.357,-353.9677 l -0.013,-73.6659 a 184.14248,150.57346 89.990433 0 1 -116.126,-69.9647 107.79022,91.757267 89.990433 0 0 27.0419,4.5664 107.79022,91.757267 89.990433 0 0 89.0589,-86.018 l -0.01,-43.8177 a 107.79022,91.757267 89.990433 0 0 -89.7128,-85.7447 l -1.2505,2e-4 a 107.79022,91.757267 89.990433 0 0 -40.4086,11.8008 184.14248,150.57346 89.990433 0 1 131.343,-98.9328 l -0.012,-72.5993 c -241.4479,-155.4745 165.8951,-483.5388 -172.1679,-353.7235 -361.5797,138.8463 228.3358,108.6733 5.2958,470.6737 -223.0405,362.0008 -382.9479,-305.742 -382.2547,141.1411 z"
       id="path4777"
       inkscape:connector-curvature="0" />
    <path
       style="opacity:1;fill:#ff0000;fill-opacity:1;stroke:#000000;stroke-width:0.0175729;stroke-miterlimit:4;stroke-dasharray:none;stroke-opacity:1"
       d="m 4096.9129,-5171.8996 0,0 c -0.01,0.5859 -0.05,1.1881 -0.138,1.8045 -0.1901,0.7186 -0.4317,1.4546 -0.7228,2.2097 -0.1828,3.243 -0.8878,6.1727 -2.1138,8.7813 -2.0963,3.6522 -5.3124,6.5998 -9.6281,8.8221 -44.6508,48.0201 -205.0091,130.6663 -396.682,204.4435 l -3.5424,1.3586 c -133.9663,51.3265 -264.6184,91.115 -355.1029,108.1424 -5.0024,41.5858 -40.049,73.0252 -81.9321,73.4971 l -0.6709,-1e-4 c -227.4948,0.4673 -380.5806,-118.9713 -553.5453,-270.159 187.2236,103.3555 308.5489,156.5321 508.0129,116.621 4.3987,-2.8313 9.0557,-5.2424 13.9058,-7.2024 l 1e-4,-0.388 0.069,0.3574 c 9.8104,-3.9972 20.293,-6.0913 30.886,-6.1691 16.7979,-0.069 33.2259,4.9304 47.1366,14.3464 76.4032,-46.8062 198.1059,-103.6976 331.1743,-154.8112 116.5596,-44.7449 181.2158,-82.1796 269.5388,-102.2119 -83.3233,-30.5269 -139.1173,-83.5507 -244.9562,-149.4176 -106.202,-66.1172 -203.3932,-138.6782 -270.2451,-201.7602 -40.2953,-38.0229 -67.5778,-70.7262 -80.3668,-95.7881 -1.7415,-2.5771 -3.0577,-5.449 -3.9422,-8.6026 -5.0382,-12.5426 -5.7969,-22.7748 -2.0307,-30.3252 1.5255,-3.058 3.7831,-5.6391 6.7319,-7.7541 20.2508,-51.483 88.5523,-123.5517 176.8023,-186.5575 2.5219,-1.799 5.0444,-3.5734 7.5669,-5.3358 -75.1013,-111.645 215.3859,-121.1417 216.6492,-119.9238 70.9385,-99.2782 -57.1421,-100.4522 -50.2284,-162.2962 6.9377,-62.0593 117.1264,-80.2501 47.868,-154.9416 -74.935,-42.8166 -248.8664,-0.3521 -218.3065,-114.6422 -0.6575,-0.4647 -1.315,-0.9229 -1.9725,-1.3901 -88.3671,-62.8412 -156.8026,-134.7832 -177.1491,-186.2284 -2.9527,-2.1095 -5.2153,-4.6878 -6.7466,-7.743 -3.7802,-7.5433 -3.0409,-17.7766 1.974,-30.3285 0.8785,-3.1553 2.1891,-6.0285 3.9259,-8.6089 12.7424,-25.0857 39.9642,-57.8392 80.1886,-95.9371 66.7342,-63.2063 163.7903,-135.9498 269.8691,-202.2646 105.7159,-66.0637 161.4109,-119.191 244.6773,-149.8728 -88.3601,-19.8681 -153.0857,-57.1814 -269.7284,-101.7093 -133.1634,-50.866 -254.9728,-107.5298 -331.4629,-154.1937 -13.8933,9.4419 -30.311,14.4706 -47.1089,14.432 -10.5933,-0.058 -21.0796,-2.1316 -30.8974,-6.1107 l -0.068,0.3594 1e-4,-0.3899 c -4.8538,-1.951 -9.5128,-4.3534 -13.9169,-7.1765 -199.5379,-39.5396 -320.765,13.8619 -507.7958,117.5658 172.683,-151.5094 325.546,-271.2318 553.0413,-271.1881 l 0.6709,10e-5 c 41.8838,0.3942 76.9902,31.7684 82.07,73.3449 90.516,16.8589 221.2404,56.4041 355.3022,107.4812 l 3.5437,1.3521 c 191.8099,73.4203 352.3229,155.7694 397.0631,203.7061 4.3197,2.2143 7.5412,5.1544 9.6442,8.8025 1.2309,2.6063 1.9413,5.5355 2.13,8.7782 0.2925,0.7546 0.5362,1.4898 0.7279,2.2079 0.089,0.6163 0.1346,1.2188 0.1412,1.8047 l 0,0 c 0.021,1.7575 -0.3297,3.3766 -1.0485,4.8571 -10.2325,61.7038 -160.7479,196.4594 -356.1187,318.83 l -3.2175,2.0125 c -96.7254,60.3563 -172.067,109.126 -251.437,140.616 37.5864,17.3324 60.3321,41.4658 95.2472,68.0251 219.9546,-263.7435 7.6014,324.4061 430.4999,193.1124 27.5842,-8.5639 51.109,-18.0889 71.0897,-28.392 l -0.012,71.2303 c -65.0752,0.077 -125.2679,34.5571 -158.2957,90.6751 15.1751,-7.0869 31.8183,-10.7897 48.6891,-10.8323 l 1.5273,0.016 c 52.5685,0.8007 97.4971,36.6141 108.0516,86.1299 l -0.01,43.8321 c -10.9687,50.1144 -57.1042,85.8878 -110.3723,85.5828 -14.4529,-0.1253 -28.7444,-2.9364 -42.0872,-8.2783 33.9411,50.3395 90.5007,80.6914 151.1771,81.1268 0.4187,-0.017 0.8373,-0.035 1.2559,-0.056 l -0.012,72.1918 c -20.1286,-10.5463 -43.8932,-20.3122 -71.8486,-29.0982 -417.3956,-131.1814 -217.1242,442.2775 -423.5826,200.7057 -39.2075,28.801 -62.3504,55.1376 -102.4948,73.7403 79.4286,31.3421 154.8584,79.9715 251.6961,140.1477 l 3.2225,2.0057 c 195.6,122.0068 346.3664,256.4826 356.7139,318.1674 0.7215,1.479 1.0747,3.0978 1.0582,4.8554 z"
       id="path4779"
       inkscape:connector-curvature="0"
       sodipodi:nodetypes="cccccccccccccccccccccscccccccscccccccsccccccccccccccccccccccccccsccccccccccccsccccccc" />
    <path
       style="fill:#ffffff;fill-opacity:1;stroke:#000000;stroke-width:0.19890235;stroke-miterlimit:4;stroke-dasharray:none;stroke-opacity:1"
       d="m 3300.7616,-6100.0561 c -0.6934,446.883 -158.5297,-221.5181 -382.6919,139.5535 -224.1617,361.0715 365.8445,333.3464 3.8362,470.6893 -338.1273,128.2827 69.0818,-197.3106 -170.357,-353.9677 l 0.013,-73.6659 a 150.57346,184.14248 0.009567 0 0 116.126,-69.9648 91.757267,107.79022 0.009567 0 1 -27.0419,4.5664 91.757267,107.79022 0.009567 0 1 -89.0588,-86.0179 l 0.01,-43.8177 a 91.757267,107.79022 0.009567 0 1 89.7128,-85.7447 l 1.2505,2e-4 a 91.757267,107.79022 0.009567 0 1 40.4085,11.8007 150.57346,184.14248 0.009567 0 0 -131.343,-98.9327 l 0.012,-72.5993 c 241.4478,-155.4744 -165.8952,-483.5387 172.1678,-353.7234 361.5797,138.8462 -228.3358,108.6733 -5.2957,470.6737 223.0404,362.0007 382.9478,-305.742 382.2546,141.141 z"
       id="path4781"
       inkscape:connector-curvature="0" />
    <rect
       style="opacity:1;fill:#ff0000;fill-opacity:1;stroke:#000000;stroke-width:0.09;stroke-miterlimit:4;stroke-dasharray:none;stroke-opacity:1"
       id="rect4783"
       width="348.57144"
       height="97.14286"
       x="97.14286"
       y="-6096.2095" />
  </g>
</svg>
