<?xml version="1.0" encoding="UTF-8" standalone="no"?>
<!-- Created with Inkscape (http://www.inkscape.org/) -->

<svg
   xmlns:dc="http://purl.org/dc/elements/1.1/"
   xmlns:cc="http://creativecommons.org/ns#"
   xmlns:rdf="http://www.w3.org/1999/02/22-rdf-syntax-ns#"
   xmlns:svg="http://www.w3.org/2000/svg"
   xmlns="http://www.w3.org/2000/svg"
   xmlns:sodipodi="http://sodipodi.sourceforge.net/DTD/sodipodi-0.dtd"
   xmlns:inkscape="http://www.inkscape.org/namespaces/inkscape"
   width="48in"
   height="72in"
   viewBox="0 0 4320.0001 6480.0002"
   id="svg2"
   version="1.1"
   inkscape:version="0.91 r13725"
   sodipodi:docname="Finalcreaturebotparts.svg">
  <defs
     id="defs4" />
  <sodipodi:namedview
     id="base"
     pagecolor="#ffffff"
     bordercolor="#666666"
     borderopacity="1.0"
     inkscape:pageopacity="0.0"
     inkscape:pageshadow="2"
     inkscape:zoom="0.04375"
     inkscape:cx="5136.5565"
     inkscape:cy="4162.2702"
     inkscape:document-units="in"
     inkscape:current-layer="layer1"
     showgrid="true"
     units="in"
     inkscape:window-width="1440"
     inkscape:window-height="790"
     inkscape:window-x="0"
     inkscape:window-y="1"
     inkscape:window-maximized="1"
     showguides="true"
     inkscape:guide-bbox="true">
    <inkscape:grid
       type="xygrid"
       id="grid4136"
       units="in"
       spacingx="0.45000001"
       spacingy="0.45000001"
       empspacing="1"
       color="#fb0000"
       opacity="0.1254902"
       enabled="false" />
    <sodipodi:guide
       position="8280.0002,2376.0001"
       orientation="0,1"
       id="guide4559" />
    <sodipodi:guide
       position="6707.413,5584.1234"
       orientation="0,1"
       id="guide4590" />
    <sodipodi:guide
       position="6747.8191,3701.199"
       orientation="0,1"
       id="guide4592" />
  </sodipodi:namedview>
  <metadata
     id="metadata7">
    <rdf:RDF>
      <cc:Work
         rdf:about="">
        <dc:format>image/svg+xml</dc:format>
        <dc:type
           rdf:resource="http://purl.org/dc/dcmitype/StillImage" />
        <dc:title></dc:title>
      </cc:Work>
    </rdf:RDF>
  </metadata>
  <g
     inkscape:label="Layer 1"
     inkscape:groupmode="layer"
     id="layer1"
     transform="translate(0,5427.6379)">
    <path
       style="display:inline;opacity:1;fill:none;fill-rule:evenodd;stroke:#000000;stroke-width:0.21085617;stroke-linecap:butt;stroke-linejoin:miter;stroke-miterlimit:4;stroke-dasharray:none;stroke-opacity:1"
       d="M 1356.2943,-1891.2857 C 1052.8572,-827.63792 911.42859,-984.0665 838.78284,-259.11632 809.48193,33.284829 1015.2865,139.23781 1128.1203,286.94532 5073.9287,1265.9335 4173.9287,-1996.5665 2818.9281,-3065.208 c -351.2796,-389.8684 -524.6126,-635.5421 -588.99,-779.9745 -70.589,-406.6291 585.8442,-651.0386 369.2735,4.6719 -46.5389,121.7439 52.3939,296.7372 130.37,269.2042 319.3471,-112.7602 418.6789,140.5286 503.306,239.9097 728.9636,-547.9804 153.5411,-127.6699 -168.5866,-529.0856 -78.935,-97.5209 -213.3577,-340.7447 -228.9197,-393.5103 14.7002,-214.0413 213.5474,-330.074 407.7475,-198.9517 143.2999,93.8777 126.157,133.8777 232.6851,206.2262 111.8485,119.531 230.9719,-72.3485 561.2026,97.3523 160.0105,82.2271 239.8955,-184.6295 -67.1734,-390.0002 -112.5169,-11.4733 -687.8047,-217.5975 -302.0245,-438.9018 -227.7019,-7.8858 -158.5328,-287.2274 -583.061,-283.1038 -421.9948,-212.4834 -911.0192,-42.0901 -828.9716,376.5709 -276.5002,175.0198 -1006.8574,638.2341 -356.2847,1348.6931 1130.3856,1046.0128 2526.8107,3324.97011 159.178,3330.5538 -419.0706,-50.67525 -595.7105,-123.2449 -626.0102,-280.98367 -199.5935,-312.44223 237.331,-1010.02903 247.9951,-1546.93403 -75.0116,-410.8935 -263.8181,-492.9375 -447.9116,-553.465 -147.755,-48.5801 -327.98833,-57.6671 -474.20083,31.284 -497.10131,314.6284 -251.25807,839.4324 42.49217,1096.82 -176.35283,-360.5089 -227.35329,-417.4824 -85.534,-766.3854 420.91866,-333.8486 727.71046,-66.6269 640.78436,333.9322 z"
       id="path3448"
       inkscape:connector-curvature="0"
       sodipodi:nodetypes="csccccscccccsccccccccscccc" />
    <path
       style="opacity:1;fill:none;fill-opacity:1;stroke:#000000;stroke-width:0.08857457;stroke-miterlimit:4;stroke-dasharray:none;stroke-opacity:1"
       id="path4153"
       sodipodi:type="arc"
       sodipodi:cx="3027.1213"
       sodipodi:cy="-4931.0347"
       sodipodi:rx="214.61305"
       sodipodi:ry="204.09505"
       sodipodi:start="0"
       sodipodi:end="6.2695543"
       d="m 3241.7344,-4931.0347 a 214.61305,204.09505 0 0 1 -213.8817,204.0939 214.61305,204.09505 0 0 1 -215.3394,-202.7029 214.61305,204.09505 0 0 1 212.414,-205.4753 214.61305,204.09505 0 0 1 216.7872,201.3024"
       sodipodi:open="true" />
    <path
       style="fill:none;fill-rule:evenodd;stroke:#000000;stroke-width:0.99229807px;stroke-linecap:butt;stroke-linejoin:miter;stroke-opacity:1"
       d="m 2807.0092,-4807.2835 c -478.1488,502.1889 -1138.0271,456.4899 -793.0083,1164.8841 110.471,222.4786 731.5864,831.9678 1116.5424,1339.3541 213.3624,281.2197 472.2806,850.4612 446.6169,1450.96694 -11.1616,261.1686 -35.57,674.81132 -558.2712,892.90271 -424.8399,177.25983 -656.3889,140.10917 -1222.2245,88.89088 -1346.66449,-89.853144 -270.5,-1398.89673 -329.5921,-2309.80913 -259.8295,-527.6509 -909.84146,-253.3046 -904.57647,100.2743 l 0,334.8385"
       id="path4155"
       inkscape:connector-curvature="0"
       sodipodi:nodetypes="ccssscccc" />
    <path
       style="fill:none;fill-rule:evenodd;stroke:#000000;stroke-width:1px;stroke-linecap:butt;stroke-linejoin:miter;stroke-opacity:1"
       d="m 3037.5001,-5135.138 337.5,0 0,0"
       id="path4157"
       inkscape:connector-curvature="0" />
    <rect
       style="opacity:1;fill:none;fill-opacity:1;stroke:#000000;stroke-width:0.05955113;stroke-miterlimit:4;stroke-dasharray:none;stroke-opacity:1"
       id="rect4197"
       width="74.540565"
       height="892.04901"
       x="2822.1682"
       y="1783.2358"
       rx="0"
       transform="matrix(0.81300271,-0.58225991,0.59312632,0.80510941,0,0)" />
    <rect
       style="opacity:1;fill:none;fill-opacity:1;stroke:#000000;stroke-width:0.06087621;stroke-miterlimit:4;stroke-dasharray:none;stroke-opacity:1"
       id="rect4197-2"
       width="84.377884"
       height="823.50824"
       x="2503.053"
       y="1163.174"
       rx="0"
       transform="matrix(0.92756273,-0.37366747,0.38892023,0.92127143,0,0)" />
    <rect
       style="opacity:1;fill:none;fill-opacity:1;stroke:#000000;stroke-width:0.06087621;stroke-miterlimit:4;stroke-dasharray:none;stroke-opacity:1"
       id="rect4197-2-7"
       width="84.377884"
       height="823.50824"
       x="2171.2683"
       y="145.10446"
       rx="0"
       transform="matrix(1,-6.0722159e-5,0.01655945,0.99986288,0,0)" />
    <rect
       style="opacity:1;fill:none;fill-opacity:1;stroke:#000000;stroke-width:0.06087621;stroke-miterlimit:4;stroke-dasharray:none;stroke-opacity:1"
       id="rect4197-2-8"
       width="84.377884"
       height="823.50824"
       x="1484.0389"
       y="-801.45337"
       rx="0"
       transform="matrix(0.84946132,0.52765089,-0.51356403,0.85805127,0,0)" />
    <rect
       style="opacity:1;fill:none;fill-opacity:1;stroke:#000000;stroke-width:0.06087621;stroke-miterlimit:4;stroke-dasharray:none;stroke-opacity:1"
       id="rect4197-2-8-8"
       width="84.377884"
       height="823.50824"
       x="-226.43915"
       y="-1360.4104"
       rx="0"
       transform="matrix(-0.15207516,0.98836893,-0.99074345,-0.13574763,0,0)"
       inkscape:transform-center-x="367.28361"
       inkscape:transform-center-y="-55.334362" />
    <rect
       style="opacity:1;fill:none;fill-opacity:1;stroke:#000000;stroke-width:0.09;stroke-miterlimit:4;stroke-dasharray:none;stroke-opacity:1"
       id="rect4250"
       width="112.5"
       height="1012.5"
       x="4628.1006"
       y="-2073.438"
       transform="matrix(0.62128991,-0.78358078,0.78358078,0.62128991,0,0)" />
    <rect
       style="opacity:1;fill:none;fill-opacity:1;stroke:#000000;stroke-width:0.09;stroke-miterlimit:4;stroke-dasharray:none;stroke-opacity:1"
       id="rect4250-3"
       width="112.5"
       height="1012.5"
       x="4048.4807"
       y="807.18024"
       transform="matrix(0.03490191,-0.99939074,0.99939074,0.03490191,0,0)" />
    <rect
       style="opacity:1;fill:none;fill-opacity:1;stroke:#000000;stroke-width:0.09;stroke-miterlimit:4;stroke-dasharray:none;stroke-opacity:1"
       id="rect4250-3-9"
       width="112.5"
       height="1012.5"
       x="2022.8097"
       y="2706.3547"
       transform="matrix(-0.54703976,-0.83710662,0.83710662,-0.54703976,0,0)" />
    <rect
       style="opacity:1;fill:none;fill-opacity:1;stroke:#000000;stroke-width:0.06153924;stroke-miterlimit:4;stroke-dasharray:none;stroke-opacity:1"
       id="rect4250-3-9-4"
       width="79.356758"
       height="671.09326"
       x="361.53784"
       y="3202.8535"
       transform="matrix(-0.61466316,-0.78878971,0.69341422,-0.72053918,0,0)" />
    <rect
       style="opacity:1;fill:none;fill-opacity:1;stroke:#000000;stroke-width:0.04653689;stroke-miterlimit:4;stroke-dasharray:none;stroke-opacity:1"
       id="rect4250-3-9-1"
       width="58.172077"
       height="523.53119"
       x="-1115.559"
       y="3272.4912"
       transform="matrix(-0.78179197,-0.62353934,0.58864586,-0.80839103,0,0)" />
    <rect
       style="opacity:1;fill:none;fill-opacity:1;stroke:#000000;stroke-width:0.07918231;stroke-miterlimit:4;stroke-dasharray:none;stroke-opacity:1"
       id="rect4250-3-9-8"
       width="86.214874"
       height="1022.6721"
       x="3465.6304"
       y="1364.5173"
       transform="matrix(0.30658239,-0.95184413,0.98535968,0.17048843,0,0)" />
    <rect
       style="opacity:1;fill:none;fill-opacity:1;stroke:#000000;stroke-width:0.07297149;stroke-miterlimit:4;stroke-dasharray:none;stroke-opacity:1"
       id="rect4197-6"
       width="91.102638"
       height="1095.9148"
       x="3355.553"
       y="1521.8168"
       rx="0"
       transform="matrix(0.77046654,-0.63748044,0.62813549,0.77810399,0,0)" />
    <rect
       style="opacity:1;fill:none;fill-opacity:1;stroke:#000000;stroke-width:0.05955113;stroke-miterlimit:4;stroke-dasharray:none;stroke-opacity:1"
       id="rect4197-9"
       width="74.540565"
       height="892.04901"
       x="3435.1377"
       y="1621.7087"
       rx="0"
       transform="matrix(0.63539861,-0.77218431,0.7806483,0.62497058,0,0)" />
    <rect
       style="opacity:1;fill:none;fill-opacity:1;stroke:#000000;stroke-width:0.07755341;stroke-miterlimit:4;stroke-dasharray:none;stroke-opacity:1"
       id="rect4197-9-4"
       width="95.525833"
       height="1180.5447"
       x="3679.0469"
       y="757.68365"
       rx="0"
       transform="matrix(0.654222,-0.75630256,0.85464024,0.51922063,0,0)" />
    <rect
       style="opacity:1;fill:none;fill-opacity:1;stroke:#000000;stroke-width:0.06087621;stroke-miterlimit:4;stroke-dasharray:none;stroke-opacity:1"
       id="rect4197-2-8-8-5"
       width="84.377884"
       height="823.50824"
       x="-1118.1166"
       y="-468.47058"
       rx="0"
       transform="matrix(-0.81378392,0.58116756,-0.59451486,-0.80408462,0,0)"
       inkscape:transform-center-x="217.67265"
       inkscape:transform-center-y="-295.26581" />
    <rect
       style="opacity:1;fill:none;fill-opacity:1;stroke:#000000;stroke-width:0.04572504;stroke-miterlimit:4;stroke-dasharray:none;stroke-opacity:1"
       id="rect4197-2-8-8-5-9"
       width="65.593895"
       height="597.64886"
       x="-1532.2286"
       y="542.54816"
       rx="0"
       transform="matrix(-0.95978266,0.28074408,-0.39604227,-0.91823228,0,0)"
       inkscape:transform-center-x="96.579522"
       inkscape:transform-center-y="-219.0208" />
    <rect
       style="opacity:1;fill:none;fill-opacity:1;stroke:#000000;stroke-width:0.03814795;stroke-miterlimit:4;stroke-dasharray:none;stroke-opacity:1"
       id="rect4197-2-8-8-5-9-1"
       width="54.334854"
       height="502.18689"
       x="-1581.5114"
       y="1198.0919"
       rx="0"
       transform="matrix(-0.99064237,0.13648335,-0.18925358,-0.98192825,0,0)" />
    <rect
       style="opacity:1;fill:none;fill-opacity:1;stroke:#000000;stroke-width:0.02699668;stroke-miterlimit:4;stroke-dasharray:none;stroke-opacity:1"
       id="rect4197-2-8-8-5-9-1-6"
       width="37.011509"
       height="369.22015"
       x="-2027.6906"
       y="1052.6265"
       rx="0"
       transform="matrix(-0.91492601,0.40362161,-0.37976807,-0.92508173,0,0)" />
    <rect
       style="opacity:1;fill:none;fill-opacity:1;stroke:#000000;stroke-width:0.02966127;stroke-miterlimit:4;stroke-dasharray:none;stroke-opacity:1"
       id="rect4197-2-8-8-5-9-1-6-7"
       width="49.508377"
       height="333.19794"
       x="-1669.9553"
       y="-1923.5906"
       rx="0"
       transform="matrix(0.18653924,0.98244751,-0.91670575,0.39956297,0,0)" />
    <rect
       style="opacity:1;fill:none;fill-opacity:1;stroke:#000000;stroke-width:0.03167803;stroke-miterlimit:4;stroke-dasharray:none;stroke-opacity:1"
       id="rect4197-2-8-8-5-9-1-6-2"
       width="63.251316"
       height="297.47348"
       x="-152.17099"
       y="2430.6956"
       rx="0"
       transform="matrix(-0.8529804,-0.52194294,0.35661153,-0.93425276,0,0)" />
    <rect
       style="opacity:1;fill:none;fill-opacity:1;stroke:#000000;stroke-width:0.02699668;stroke-miterlimit:4;stroke-dasharray:none;stroke-opacity:1"
       id="rect4197-2-8-8-5-9-1-6-9"
       width="37.011509"
       height="369.22015"
       x="-503.27289"
       y="2102.9263"
       rx="0"
       transform="matrix(-0.99552716,-0.09447581,0.1202514,-0.99274347,0,0)" />
    <rect
       style="opacity:1;fill:none;fill-opacity:1;stroke:#000000;stroke-width:0.04653689;stroke-miterlimit:4;stroke-dasharray:none;stroke-opacity:1"
       id="rect4250-3-9-1-1"
       width="58.172077"
       height="523.53119"
       x="156.89767"
       y="3341.7361"
       transform="matrix(-0.34021139,-0.94034898,0.92452049,-0.38113234,0,0)"
       inkscape:transform-center-x="199.79839"
       inkscape:transform-center-y="85.23092" />
    <rect
       style="opacity:1;fill:none;fill-opacity:1;stroke:#000000;stroke-width:0.0608238;stroke-miterlimit:4;stroke-dasharray:none;stroke-opacity:1"
       id="rect4250-3-9-1-17"
       width="76.761192"
       height="677.74731"
       x="1196.9147"
       y="2906.5481"
       transform="matrix(0.05074638,-0.99871157,0.99708251,0.07633129,0,0)"
       inkscape:transform-center-x="283.68119"
       inkscape:transform-center-y="-23.873373" />
    <rect
       style="opacity:1;fill:none;fill-opacity:1;stroke:#000000;stroke-width:0.0608238;stroke-miterlimit:4;stroke-dasharray:none;stroke-opacity:1"
       id="rect4250-3-9-1-17-5"
       width="76.761192"
       height="677.74731"
       x="2143.9197"
       y="2004.9199"
       transform="matrix(0.57324025,-0.81938734,0.80442328,0.59405656,0,0)"
       inkscape:transform-center-x="227.7224"
       inkscape:transform-center-y="-170.84293" />
    <rect
       style="opacity:1;fill:none;fill-opacity:1;stroke:#000000;stroke-width:0.07390126;stroke-miterlimit:4;stroke-dasharray:none;stroke-opacity:1"
       id="rect4250-3-9-1-17-5-7"
       width="92.105522"
       height="833.83557"
       x="2337.7654"
       y="868.55957"
       transform="matrix(0.83219281,-0.55448636,0.49074382,0.87130391,0,0)"
       inkscape:transform-center-x="169.69614"
       inkscape:transform-center-y="-306.53514" />
    <path
       style="opacity:1;fill:none;fill-opacity:1;stroke:#000000;stroke-width:0.09;stroke-miterlimit:4;stroke-dasharray:none;stroke-opacity:1"
       id="path4499"
       sodipodi:type="arc"
       sodipodi:cx="7312.5"
       sodipodi:cy="-635.13788"
       sodipodi:rx="112.5"
       sodipodi:ry="337.5"
       sodipodi:start="0"
       sodipodi:end="0.016796577"
       d="m 7425,-635.13788 a 112.5,337.5 0 0 1 -0.016,5.66858 L 7312.5,-635.13788 Z" />
    <path
       style="opacity:1;fill:#ff0000;fill-opacity:1;stroke:#000000;stroke-width:0.03031586;stroke-miterlimit:4;stroke-dasharray:none;stroke-opacity:1"
       d="m 13127.629,-5796.0988 c -3.032,-0.035 -5.827,0.5672 -8.381,1.8066 -106.451,17.6349 -338.969,277.2595 -550.132,614.2676 l -3.471,5.5508 c -104.152,166.8484 -188.309,296.8082 -242.657,433.7242 -33.521,-72.725 -81.789,-113.1731 -134.181,-187.2438 l -2.316,-3.2597 c -76.463,-107.3599 -162.112,-199.4931 -238.152,-256.1808 -76.039,-56.6877 -136.257,-73.299 -167.438,-46.1884 -64.925,56.4497 11.196,283.3134 170.144,507.0821 108.385,152.4645 232.478,270.5463 321.223,305.6621 3.638,5.0945 8.083,8.9981 13.353,11.6406 13.013,6.5237 30.667,5.2513 52.323,-3.3965 5.443,-1.5147 10.401,-3.7742 14.853,-6.7695 43.28,-21.9753 99.793,-68.9265 165.529,-138.3086 109.06,-115.1082 234.579,-282.5234 349.012,-465.5059 114,-182.3568 205.67,-278.4244 258.625,-422.0625 34.25,152.4401 98.602,264.1108 175.385,465.3496 87.713,229.7412 185.434,439.8969 265.914,571.8672 -16.293,23.9652 -24.976,52.2886 -24.914,81.2676 0.1,18.275 3.672,36.3645 10.533,53.3027 l -0.617,0.1192 0.67,0 c 3.364,8.374 7.508,16.4133 12.377,24.0117 68.154,344.2438 -24.007,553.3622 -202.965,875.9883 261.426,-297.8601 468.01,-561.5368 468,-954 l 0,-1.1563 c -0.668,-72.2559 -54.782,-132.8281 -126.506,-141.6035 -29.058,-156.1584 -97.241,-381.6895 -185.318,-612.9805 l -2.334,-6.1152 c -126.606,-330.9216 -268.622,-607.8536 -351.307,-685.0508 -3.819,-7.4528 -8.89,-13.0114 -15.183,-16.6406 -4.496,-2.1242 -9.549,-3.3513 -15.143,-3.6777 -1.302,-0.5051 -2.572,-0.9231 -3.811,-1.2539 l 0,0 c -1.063,-0.1531 -2.1,-0.2346 -3.111,-0.2461 z"
       id="path4497-74"
       inkscape:connector-curvature="0"
       sodipodi:nodetypes="cccccccsscccccsccccccccccccccccccccc" />
    <g
       id="g4594"
       transform="matrix(0.5922657,0,0,0.5922657,2225.8547,1981.6518)">
      <path
         inkscape:transform-center-y="565.68802"
         inkscape:transform-center-x="-969.74647"
         sodipodi:nodetypes="cccccccsscccccsccccccccccccccccccccc"
         inkscape:connector-curvature="0"
         id="path4497"
         d="m 8918.8115,-5074.4748 c -3.0319,-0.035 -5.8267,0.5672 -8.3808,1.8066 -106.4514,17.6349 -338.969,277.2595 -550.1328,614.2676 l -3.4707,5.5508 c -104.1515,166.8484 -188.3089,296.8082 -242.6566,433.7242 -33.5214,-72.725 -81.7893,-113.1731 -134.1813,-187.2438 l -2.3164,-3.2597 c -76.4629,-107.3599 -162.1119,-199.4931 -238.1513,-256.1808 -76.0394,-56.6877 -136.2573,-73.299 -167.4386,-46.1884 -64.9243,56.4497 11.1967,283.3134 170.1445,507.0821 108.385,152.4645 232.478,270.5463 321.2227,305.6621 3.6383,5.0945 8.0833,8.9981 13.3535,11.6406 13.0123,6.5237 30.6669,5.2513 52.3223,-3.3965 5.4436,-1.5147 10.4014,-3.7742 14.8535,-6.7695 43.2802,-21.9753 99.7931,-68.9265 165.5293,-138.3086 109.0595,-115.1082 234.5783,-282.5234 349.0117,-465.5059 114.0003,-182.3568 205.6701,-278.4244 258.625,-422.0625 34.2496,152.4401 98.6014,264.1108 175.3848,465.3496 87.7129,229.7412 185.4338,439.8969 265.914,571.8672 -16.2928,23.9652 -24.9758,52.2886 -24.914,81.2676 0.097,18.275 3.6716,36.3645 10.5332,53.3027 l -0.6172,0.1192 0.6699,0 c 3.3641,8.374 7.5081,16.4133 12.377,24.0117 68.1544,344.2438 -24.0064,553.3622 -202.9649,875.9883 261.4259,-297.8601 468.01,-561.5368 468,-954 l 0,-1.1563 c -0.6677,-72.2559 -54.7817,-132.8281 -126.5058,-141.6035 -29.0581,-156.1584 -97.2415,-381.6895 -185.3184,-612.9805 l -2.334,-6.1152 c -126.6056,-330.9216 -268.6214,-607.8536 -351.3066,-685.0508 -3.8188,-7.4528 -8.8906,-13.0114 -15.1836,-16.6406 -4.496,-2.1242 -9.5484,-3.3513 -15.1426,-3.6777 -1.3015,-0.5051 -2.5717,-0.9231 -3.8105,-1.2539 l 0,0 c -1.063,-0.1531 -2.1007,-0.2346 -3.1114,-0.2461 z"
         style="opacity:1;fill:#ff0000;fill-opacity:1;stroke:#000000;stroke-width:0.03031586;stroke-miterlimit:4;stroke-dasharray:none;stroke-opacity:1" />
      <path
         inkscape:transform-center-y="554.52261"
         inkscape:transform-center-x="954.45263"
         sodipodi:nodetypes="cccccccsscccccsccccccccccccccccccccc"
         inkscape:connector-curvature="0"
         id="path4497-7"
         d="m 5604.4499,-5074.4966 c 3.032,-0.028 5.8254,0.58 8.3768,1.825 106.4124,17.8686 338.3594,278.0031 548.7828,615.474 l 3.4585,5.5584 c 103.7849,167.0767 187.6568,297.221 241.7037,434.256 33.681,-72.6513 82.0376,-112.9933 134.5921,-186.9488 l 2.3236,-3.2546 c 76.6984,-107.1917 162.5495,-199.1367 238.7132,-255.6573 76.1636,-56.5206 136.4179,-72.9996 167.5396,-45.8206 64.8002,56.5921 -11.8188,283.2881 -171.2575,506.7073 -108.7195,152.2261 -233.0714,270.0352 -321.893,304.956 -3.6495,5.0865 -8.1031,8.9804 -13.3791,11.6113 -13.0265,6.4951 -30.6783,5.184 -52.3147,-3.5114 -5.4402,-1.5266 -10.3931,-3.797 -14.8386,-6.8021 -43.2318,-22.0702 -99.6415,-69.1454 -165.2252,-138.6717 -108.8065,-115.3474 -233.9574,-283.0377 -347.9888,-466.2711 -113.5996,-182.6066 -205.0583,-278.8753 -257.6977,-422.6293 -34.5842,152.3646 -99.181,263.8937 -176.4061,464.9634 -88.2171,229.5481 -186.3992,439.4887 -267.1689,571.282 16.2401,24.0009 24.8609,52.3433 24.7355,81.3221 -0.1372,18.2747 -3.7515,36.3563 -10.6502,53.2794 l 0.6169,0.1206 -0.6699,0 c -3.3825,8.3666 -7.5441,16.3968 -12.4297,23.9845 -68.9101,344.0933 22.7914,553.4136 201.0411,876.4318 -260.7713,-298.4334 -466.776,-562.563 -465.9043,-955.0252 l 0,-1.1563 c 0.8263,-72.2543 55.0732,-132.7075 126.8164,-141.3254 29.4009,-156.0943 98.0793,-381.4751 186.6638,-612.5722 l 2.3474,-6.11 c 127.3319,-330.6429 269.9554,-607.2624 352.8099,-684.2778 3.8351,-7.4444 8.9191,-12.9919 15.2201,-16.6073 4.5006,-2.1143 9.5557,-3.3303 15.1506,-3.6444 1.3026,-0.5022 2.5737,-0.9175 3.8133,-1.2455 l 0,0 c 1.0633,-0.1508 2.1012,-0.23 3.1119,-0.2393 z"
         style="opacity:1;fill:#ff0000;fill-opacity:1;stroke:#000000;stroke-width:0.03031586;stroke-miterlimit:4;stroke-dasharray:none;stroke-opacity:1" />
      <path
         id="path4569"
         transform="translate(0,-5427.6379)"
         d="m 7328.1484,-475.48242 c -15.8822,-0.0342 -32.7587,0.098 -50.6757,0.39648 -793.8689,13.22353 346.932,298.88151 -304.67,712.88867 -627.4622,398.66955 -584.5665,-677.38633 -805.3828,-7.21289 -229.3115,695.95638 416.426,-209.122912 646.6504,487.85352 55.242,167.23833 28.1844,269.64005 -33.8672,335.35154 a 440.42651,464.67017 0 0 1 104.8692,113.8145 c 40.67,-93.0711 140.54,-165.9641 379.2715,-160.9278 233.8736,4.9339 328.3367,87.4943 364.2421,187.6368 a 440.42651,464.67017 0 0 1 109.8282,-120.793 c -74.9796,-65.8122 -110.9447,-174.52898 -37.0547,-369.34376 250.7777,-661.188368 906.4107,234.37589 654.7656,-427.92773 -261.3264,-687.78379 -202.0107,393.8403 -834.9473,-47.26563 -595.2034,-414.80897 468.7295,-703.04655 -193.0293,-704.4707 z"
         style="opacity:1;fill:#ff0000;fill-opacity:1;stroke:#000000;stroke-width:0.06340384;stroke-miterlimit:4;stroke-dasharray:none;stroke-opacity:1"
         inkscape:connector-curvature="0" />
    </g>
  </g>
</svg>
