<?xml version="1.0" encoding="UTF-8" standalone="no"?>
<!-- Created with Inkscape (http://www.inkscape.org/) -->

<svg
   xmlns:dc="http://purl.org/dc/elements/1.1/"
   xmlns:cc="http://creativecommons.org/ns#"
   xmlns:rdf="http://www.w3.org/1999/02/22-rdf-syntax-ns#"
   xmlns:svg="http://www.w3.org/2000/svg"
   xmlns="http://www.w3.org/2000/svg"
   xmlns:sodipodi="http://sodipodi.sourceforge.net/DTD/sodipodi-0.dtd"
   xmlns:inkscape="http://www.inkscape.org/namespaces/inkscape"
   id="svg2"
   version="1.1"
   inkscape:version="0.91 r13725"
   xml:space="preserve"
   width="540"
   height="540"
   viewBox="0 0 540 540"
   sodipodi:docname="fletchstar4.svg"><metadata
     id="metadata8"><rdf:RDF><cc:Work
         rdf:about=""><dc:format>image/svg+xml</dc:format><dc:type
           rdf:resource="http://purl.org/dc/dcmitype/StillImage" /><dc:title></dc:title></cc:Work></rdf:RDF></metadata><defs
     id="defs6" /><sodipodi:namedview
     pagecolor="#ffffff"
     bordercolor="#666666"
     borderopacity="1"
     objecttolerance="10"
     gridtolerance="10"
     guidetolerance="10"
     inkscape:pageopacity="0"
     inkscape:pageshadow="2"
     inkscape:window-width="1381"
     inkscape:window-height="774"
     id="namedview4"
     showgrid="false"
     inkscape:zoom="0.43703704"
     inkscape:cx="270"
     inkscape:cy="270"
     inkscape:window-x="0"
     inkscape:window-y="23"
     inkscape:window-maximized="0"
     inkscape:current-layer="g12" /><g
     id="g10"
     inkscape:groupmode="layer"
     inkscape:label="fletchstar3"
     transform="matrix(1.25,0,0,-1.25,0,540)"><g
       id="g12"
       transform="translate(-5.4915251,7.322034)"><path
         sodipodi:type="star"
         style="fill:#00ffff;fill-opacity:1;stroke:#000000;stroke-width:0.05281172;stroke-miterlimit:4;stroke-dasharray:none;stroke-opacity:1"
         id="path3367"
         sodipodi:sides="5"
         sodipodi:cx="223.15654"
         sodipodi:cy="-196.14267"
         sodipodi:r1="202.20911"
         sodipodi:r2="90.9767"
         sodipodi:arg1="0.92198318"
         sodipodi:arg2="1.5503017"
         inkscape:flatsided="false"
         inkscape:rounded="0.949377"
         inkscape:randomized="0"
         d="m 345.3396,-35.022149 c -105.3618,79.899366 11.8845,-72.872761 -120.31866,-70.162931 -132.203153,2.70984 -8.79508,150.549151 -117.34248,75.034387 -108.54739752,-75.514767 72.97862,-11.216094 29.5484,-136.111377 -43.430226,-124.89529 -145.8985764,38.15762 -107.622759,-88.41244 38.275816,-126.57005 33.218773,65.94083 138.580569,-13.95853 105.3618,-79.89937 -81.375194,-126.96644 50.82796,-129.67627 132.20316,-2.70983 -52.44829,51.96977 56.09911,127.48453 108.5474,75.51477 95.60594,-116.6272 139.03616,8.26809 43.43023,124.89529 -65.6336,-33.82175 -103.90942,92.74831 -38.27581,126.570058 140.46292,54.88686 35.10112,134.786231 z"
         transform="scale(1,-1)"
         inkscape:transform-center-x="0.56934601"
         inkscape:transform-center-y="-9.2579365" /><g
         id="g18"
         transform="matrix(1,0,0,-1,4.6720578,413.69492)"><path
           d="m 256.184,220.039 c 0,20.523 -17.004,37.18 -38.028,37.25 -21.019,0.07 -38.136,-16.473 -38.281,-36.996 -0.145,-20.527 16.742,-37.297 37.762,-37.508 21.019,-0.207 38.254,16.223 38.543,36.746"
           style="fill:#ff2a2a;fill-opacity:1;fill-rule:nonzero;stroke:#000000;stroke-width:0.0526159;stroke-linecap:butt;stroke-linejoin:miter;stroke-miterlimit:4;stroke-dasharray:none;stroke-opacity:1"
           id="path20"
           inkscape:connector-curvature="0" /></g></g></g></svg>