<?xml version="1.0" standalone="no"?>
<!DOCTYPE svg PUBLIC "-//W3C//DTD SVG 20010904//EN"
 "http://www.w3.org/TR/2001/REC-SVG-20010904/DTD/svg10.dtd">
<svg version="1.0" xmlns="http://www.w3.org/2000/svg"
 width="987.000000pt" height="1195.000000pt" viewBox="0 0 987.000000 1195.000000"
 preserveAspectRatio="xMidYMid meet">
<metadata>
Created by potrace 1.13, written by Peter Selinger 2001-2015
</metadata>
<g transform="translate(0.000000,1195.000000) scale(0.100000,-0.100000)"
fill="#000000" stroke="none">
<path d="M3710 11930 c-163 -24 -275 -97 -531 -347 -92 -89 -191 -177 -222
-197 -77 -49 -122 -106 -158 -200 -50 -130 -69 -237 -70 -394 0 -177 19 -262
81 -357 15 -22 41 -67 59 -101 18 -34 51 -77 76 -98 35 -29 57 -62 104 -161
67 -139 124 -210 196 -244 175 -82 418 -295 571 -501 101 -136 139 -201 241
-410 55 -112 124 -233 174 -308 123 -178 139 -213 139 -289 0 -35 9 -105 21
-156 25 -113 28 -201 7 -242 -9 -17 -38 -51 -66 -76 -44 -41 -50 -52 -63 -115
-8 -38 -14 -123 -14 -189 0 -178 21 -220 109 -217 56 3 72 -4 86 -39 15 -36 5
-220 -13 -231 -41 -26 -81 10 -91 80 -4 28 -11 54 -16 57 -5 3 -29 -5 -53 -19
-54 -32 -108 -51 -170 -60 -61 -9 -66 3 -38 97 36 123 24 227 -36 297 -20 23
-87 75 -147 115 -126 82 -138 93 -155 153 -7 24 -28 61 -48 83 -83 92 -284
241 -428 319 -158 84 -217 145 -245 248 -6 24 -22 109 -36 188 -13 80 -31 162
-40 182 -8 20 -19 61 -24 89 -11 67 -37 120 -66 140 -51 33 -169 12 -236 -42
-24 -19 -64 -51 -89 -70 -48 -36 -59 -57 -59 -110 0 -39 -21 -69 -60 -85 -40
-17 -38 -36 9 -59 33 -17 39 -26 45 -62 4 -22 4 -87 0 -143 -3 -58 -1 -137 6
-186 33 -252 154 -615 226 -682 36 -34 114 -72 178 -87 75 -18 118 -45 176
-108 65 -71 96 -137 105 -222 10 -92 59 -286 99 -389 45 -118 79 -184 134
-261 65 -92 74 -131 66 -281 -4 -81 -2 -153 6 -205 7 -44 11 -129 10 -190 -4
-204 -9 -183 75 -350 73 -146 66 -137 151 -180 44 -22 91 -48 104 -57 28 -21
84 -23 120 -5 17 9 28 27 37 62 32 122 33 125 64 140 l30 16 58 -61 c39 -40
66 -60 82 -60 48 0 65 -28 79 -130 5 -39 22 -93 36 -121 48 -96 65 -188 68
-384 3 -152 7 -189 25 -239 27 -77 27 -143 -4 -278 -27 -120 -31 -178 -14
-210 15 -27 89 -59 144 -60 52 -1 82 16 122 68 98 128 125 144 240 144 142 0
191 30 180 110 -6 46 -38 102 -102 178 l-45 53 0 88 c0 108 15 133 94 156 48
14 53 19 62 53 10 42 42 62 111 70 61 7 101 -12 108 -52 21 -126 13 -148 -60
-181 -47 -21 -56 -28 -53 -47 2 -17 13 -25 40 -32 41 -10 48 -25 48 -96 0 -47
-22 -101 -65 -159 -14 -18 -29 -50 -35 -70 -6 -21 -25 -48 -47 -67 l-38 -32
-6 -144 -5 -144 -47 -91 c-27 -54 -49 -111 -53 -142 -6 -45 -12 -57 -50 -89
-37 -31 -45 -45 -54 -92 -7 -37 -18 -62 -34 -76 -41 -36 -47 -60 -57 -237 -17
-304 -14 -552 7 -686 2 -13 6 -173 9 -355 5 -305 11 -462 20 -526 2 -14 9 -70
15 -125 28 -254 85 -636 126 -850 24 -125 68 -250 84 -240 9 6 46 142 54 200
10 70 25 323 31 525 16 552 12 524 95 691 27 52 52 113 56 135 10 55 24 79 98
162 53 58 69 85 86 140 46 148 51 357 12 492 -11 36 -25 104 -32 153 -10 74
-10 91 2 110 27 41 27 54 2 88 -21 29 -24 44 -24 118 0 73 3 88 21 108 22 22
22 23 4 68 -14 39 -16 64 -10 153 4 59 10 125 14 147 l7 40 57 -3 c70 -4 72 5
17 72 -22 26 -40 52 -40 57 0 6 27 36 60 69 66 66 79 90 110 216 11 49 30 118
41 153 17 58 18 73 8 142 -11 72 -11 79 9 111 12 19 57 65 101 101 104 88 139
129 171 202 43 95 61 193 61 332 -1 189 -14 230 -107 343 -34 41 -84 106 -113
144 l-51 69 0 79 c0 89 23 203 52 263 35 70 65 101 140 145 108 64 166 109
238 186 74 79 118 156 150 262 21 69 24 74 69 95 59 28 61 45 25 185 -44 173
-26 258 93 443 37 57 93 162 126 233 33 73 103 199 160 288 187 291 287 410
417 493 41 26 76 57 85 76 32 61 45 159 45 344 0 246 -7 283 -85 440 -36 72
-76 168 -90 215 -35 114 -43 128 -95 165 -36 25 -46 38 -48 65 -5 53 6 78 51
111 28 21 45 42 52 66 12 43 50 73 102 83 l38 7 -37 17 c-45 19 -107 21 -133
3 -12 -9 -21 -34 -26 -73 -7 -52 -13 -63 -48 -94 -27 -24 -44 -51 -56 -87 -15
-48 -20 -54 -80 -84 -71 -35 -81 -51 -91 -139 -5 -45 -14 -70 -33 -93 l-26
-31 0 -240 c0 -237 0 -242 -27 -315 -31 -85 -61 -131 -139 -216 -31 -33 -87
-103 -126 -155 -83 -114 -151 -176 -207 -191 -111 -31 -148 -45 -231 -91 -175
-98 -401 -285 -504 -417 -53 -68 -177 -315 -196 -390 -9 -34 -16 -118 -17
-216 -3 -136 -6 -165 -21 -189 -46 -70 -202 -77 -227 -10 -6 15 -35 61 -64
103 -93 132 -123 204 -150 357 -7 44 -23 99 -35 122 -28 54 -27 93 5 183 33
93 34 195 5 388 -12 74 -21 136 -21 138 0 2 -27 33 -60 68 -93 100 -96 123
-32 250 75 150 127 210 262 302 65 45 103 81 165 158 102 127 372 398 495 497
168 134 621 417 770 479 57 24 90 31 173 36 211 11 300 81 353 278 17 62 19
107 18 395 0 182 -6 365 -12 415 -41 318 -144 441 -392 465 -114 11 -343 5
-460 -12 -52 -7 -156 -13 -230 -12 -120 0 -144 3 -215 28 -44 15 -109 45 -145
66 -141 85 -211 98 -382 70 -117 -19 -174 -52 -228 -132 -25 -37 -56 -78 -69
-93 -41 -42 -166 -71 -189 -42 -5 6 -13 32 -17 56 -21 127 -193 144 -352 35
-59 -41 -104 -102 -129 -177 -25 -76 -14 -238 26 -386 38 -141 40 -143 95
-181 49 -33 53 -46 30 -89 -23 -45 -96 -71 -200 -71 l-86 0 -51 48 c-34 31
-61 69 -80 112 -16 36 -49 85 -73 110 -25 25 -46 58 -49 75 -8 46 31 117 134
245 174 215 288 413 297 520 11 117 -37 183 -159 221 -72 23 -224 32 -308 19z"/>
<path d="M7546 7499 c-10 -6 -27 -20 -37 -30 -14 -14 -33 -19 -72 -19 -61 0
-77 -11 -77 -55 0 -26 -8 -37 -47 -66 -95 -67 -131 -108 -148 -164 -17 -58
-69 -130 -136 -189 -40 -35 -89 -61 -208 -112 -62 -26 -241 -221 -241 -262 0
-16 -9 -41 -20 -55 -39 -49 -60 -110 -60 -175 0 -46 -4 -64 -15 -68 -25 -10
-17 -50 18 -96 18 -24 43 -60 56 -81 26 -42 54 -57 105 -57 29 0 45 -12 125
-96 54 -56 110 -127 137 -173 41 -72 50 -81 110 -111 47 -23 80 -50 122 -99
92 -106 140 -148 210 -183 62 -31 70 -38 102 -100 33 -64 71 -108 373 -439 84
-93 97 -112 97 -142 0 -52 27 -106 129 -260 174 -263 285 -489 297 -604 15
-142 68 -392 139 -642 17 -63 14 -94 -26 -246 -34 -132 -56 -270 -58 -378 -1
-47 -8 -92 -17 -108 -8 -16 -67 -72 -131 -125 -63 -54 -143 -123 -177 -154
-99 -93 -252 -185 -379 -231 -20 -7 -36 -18 -34 -24 8 -22 106 -86 177 -115
155 -61 286 -80 520 -75 212 4 255 19 458 152 116 77 194 152 249 241 25 43
73 107 105 144 60 68 101 145 134 251 10 32 25 64 33 71 98 84 168 203 230
391 51 154 63 238 68 505 3 135 9 253 14 263 20 36 88 15 160 -50 46 -42 50
-29 14 44 -27 53 -75 94 -135 114 -91 31 -130 115 -164 354 -21 147 -34 308
-41 490 -11 302 -25 413 -77 628 -24 100 -33 166 -38 272 -5 123 -10 148 -34
205 -24 55 -29 83 -34 180 -3 71 -10 126 -19 143 -11 22 -46 44 -151 95 l-137
66 -165 2 c-126 1 -174 5 -202 17 -21 9 -38 21 -38 28 0 6 19 28 42 48 108 93
158 147 163 178 3 17 17 55 31 83 30 59 43 155 25 188 -7 13 -69 51 -151 92
-178 90 -243 135 -304 205 -90 105 -251 219 -379 267 -114 43 -454 90 -491 67z
m1237 -1539 c33 -27 43 -76 24 -122 -18 -44 -46 -52 -93 -26 -44 24 -52 19
-19 -12 30 -28 32 -40 6 -40 -29 0 -69 38 -80 74 -12 46 -4 81 29 116 35 37
93 41 133 10z"/>
<path d="M1564 7400 c-36 -14 -146 -153 -208 -262 -33 -56 -106 -188 -163
-292 -131 -238 -184 -307 -507 -661 -147 -162 -200 -234 -266 -364 -102 -204
-148 -353 -155 -502 -19 -405 -51 -649 -105 -811 -69 -206 -108 -425 -145
-809 -28 -285 -19 -379 50 -564 36 -94 201 -444 296 -625 151 -289 358 -526
594 -683 219 -144 321 -171 540 -143 155 20 331 34 525 41 242 10 392 23 487
44 136 30 239 81 164 81 -97 0 -858 122 -999 160 -202 55 -293 152 -461 488
-102 204 -134 285 -167 420 -15 59 -41 141 -58 182 -29 70 -31 83 -30 190 1
128 18 233 90 531 52 219 69 271 122 377 91 179 222 352 407 537 118 119 179
171 336 291 40 30 67 63 103 125 122 211 145 246 211 313 92 94 407 333 680
516 55 37 106 74 113 83 22 26 25 81 8 140 -21 73 -20 89 9 147 30 60 31 83 5
186 -54 207 -131 299 -419 494 -52 36 -145 113 -207 172 -91 86 -129 115 -200
150 l-87 43 -251 2 c-138 1 -260 4 -271 7 -11 2 -29 1 -41 -4z"/>
<path d="M3889 4470 c-139 -8 -157 -20 -239 -160 -18 -30 -43 -66 -56 -79 -18
-18 -24 -35 -24 -71 0 -63 -27 -253 -45 -316 -12 -41 -14 -111 -10 -381 5
-358 11 -397 71 -550 75 -190 166 -330 348 -532 159 -177 235 -271 261 -321
17 -35 26 -76 34 -165 19 -207 31 -282 51 -327 28 -63 41 -163 46 -338 5 -216
12 -284 35 -341 15 -41 19 -75 19 -185 0 -91 5 -156 16 -198 23 -91 96 -269
104 -255 4 6 8 54 9 107 1 52 3 98 5 101 6 11 21 246 21 336 0 90 -13 314 -19
324 -2 3 -7 40 -10 81 -10 105 -33 260 -54 349 -16 73 -18 126 -11 296 3 71
-1 98 -45 250 -61 214 -64 287 -18 411 34 91 39 128 47 338 5 103 12 167 25
210 27 88 50 241 52 346 1 85 3 92 29 120 16 16 29 37 29 46 0 18 -70 90 -131
135 -21 16 -52 58 -79 110 -25 46 -58 97 -74 112 l-29 28 13 69 c13 67 12 71
-19 172 -44 138 -88 242 -111 263 -23 21 -80 24 -241 15z"/>
<path d="M3566 2134 l-48 -48 7 -61 c3 -33 10 -106 15 -162 5 -69 13 -111 25
-129 9 -14 23 -64 30 -110 8 -45 21 -104 30 -131 9 -26 23 -108 32 -183 8 -74
22 -151 31 -170 10 -22 17 -80 21 -160 5 -110 9 -132 34 -182 29 -59 115 -183
122 -176 3 2 -1 21 -7 42 -10 31 -9 39 3 46 11 7 15 45 20 162 5 142 9 162 43
268 43 131 42 112 31 560 -7 315 -14 366 -53 403 -45 43 -117 69 -206 74 l-81
4 -49 -47z"/>
<path d="M5471 1706 c-12 -13 -32 -52 -43 -87 -19 -57 -21 -88 -22 -274 0
-212 9 -311 44 -480 19 -90 34 -206 45 -343 4 -53 18 -106 50 -187 24 -63 47
-131 51 -152 8 -44 43 -117 73 -153 l20 -25 1 172 c0 160 -2 181 -31 295 -31
122 -31 125 -36 456 -5 315 -4 338 17 445 19 100 21 126 12 220 -5 58 -15 113
-22 122 -9 10 -31 15 -74 15 -53 0 -66 -4 -85 -24z"/>
</g>
</svg>
