<?xml version="1.0" encoding="UTF-8" standalone="no"?>
<!-- Created with Inkscape (http://www.inkscape.org/) -->

<svg
   xmlns:dc="http://purl.org/dc/elements/1.1/"
   xmlns:cc="http://creativecommons.org/ns#"
   xmlns:rdf="http://www.w3.org/1999/02/22-rdf-syntax-ns#"
   xmlns:svg="http://www.w3.org/2000/svg"
   xmlns="http://www.w3.org/2000/svg"
   xmlns:sodipodi="http://sodipodi.sourceforge.net/DTD/sodipodi-0.dtd"
   xmlns:inkscape="http://www.inkscape.org/namespaces/inkscape"
   width="32in"
   height="20in"
   viewBox="0 0 2880 1800"
   id="svg4003"
   version="1.1"
   inkscape:version="0.91 r13725"
   sodipodi:docname="rocketcasting4.svg">
  <defs
     id="defs4005" />
  <sodipodi:namedview
     id="base"
     pagecolor="#ffffff"
     bordercolor="#666666"
     borderopacity="1.0"
     inkscape:pageopacity="0.0"
     inkscape:pageshadow="2"
     inkscape:zoom="1.2022784"
     inkscape:cx="268.38029"
     inkscape:cy="268.41002"
     inkscape:document-units="in"
     inkscape:current-layer="g4032"
     showgrid="false"
     units="in"
     inkscape:window-width="1440"
     inkscape:window-height="791"
     inkscape:window-x="0"
     inkscape:window-y="1"
     inkscape:window-maximized="1" />
  <metadata
     id="metadata4008">
    <rdf:RDF>
      <cc:Work
         rdf:about="">
        <dc:format>image/svg+xml</dc:format>
        <dc:type
           rdf:resource="http://purl.org/dc/dcmitype/StillImage" />
        <dc:title></dc:title>
      </cc:Work>
    </rdf:RDF>
  </metadata>
  <g
     inkscape:label="Layer 1"
     inkscape:groupmode="layer"
     id="layer1"
     transform="translate(0,747.63783)">
    <g
       id="g4032"
       transform="translate(-26.621942,-4.9916141)">
      <path
         style="fill:none;stroke:#0000ff;stroke-width:1.65242469;stroke-linecap:butt;stroke-linejoin:miter;stroke-miterlimit:10;stroke-dasharray:none;stroke-opacity:1"
         d="m 216.57686,577.22708 c -0.058,0.0521 -0.17611,0.55097 -0.63731,0.44244 l -0.79494,0.95851 -0.86072,1.04968 -0.93062,1.14722 -1.0019,1.25023 -1.06494,1.34565 -1.11428,1.43457 -1.15263,1.51377 -1.17871,1.58748 -1.19652,1.65033 -1.19927,1.70785 -1.19239,1.75664 -1.17321,1.79781 -1.15814,1.83797 -1.14307,1.87696 -1.1321,1.91499 -1.12387,1.95284 -1.11564,1.99088 -1.11291,2.02553 -1.11153,2.06023 -1.11291,2.09603 -1.1088,2.1275 -1.1047,2.15999 -1.09371,2.18819 -1.08137,2.21745 -1.06633,2.24355 -1.04574,2.26841 -1.02246,2.29229 -0.9964,2.314 -0.96762,2.33131 -0.93885,2.34431 -0.90733,2.35197 -0.87579,2.35519 -0.84153,2.35297 -0.80591,2.34868 -0.7689,2.33677 -0.73051,2.32265 -0.69351,2.314 -0.65788,2.31506 -0.62223,2.3237 -0.59073,2.33788 -0.55645,2.36168 -0.52767,2.39311 -0.49752,2.43219 -0.46874,2.47877 -0.4427,2.52218 -0.41528,2.56444 -0.39061,2.60458 -0.36458,2.6404 -0.34128,2.67614 -0.31935,2.70761 -0.29603,2.73794 -0.27549,2.76612 -0.25218,2.78896 -0.23026,2.81166 -0.20558,2.82798 -0.18094,2.84314 -0.15342,2.85397 -0.12738,2.86158 -0.0987,2.86588 -0.0686,2.86807 -0.0439,2.8724 -0.0205,2.88217 0,2.89522 0.0186,2.91253 0.0301,2.93313 0.0426,2.95918 0.0506,2.98842 0.0549,3.02203 0.0643,3.05028 0.074,3.07513 0.0891,3.09475 0.10692,3.11096 0.12757,3.12179 0.15212,3.12939 0.17815,3.1316 0.20832,3.1294 0.23712,3.12723 0.26726,3.12289 0.29468,3.11857 0.32209,3.11423 0.34949,3.10662 0.37691,3.10008 0.40296,3.09259 0.42761,3.08275 0.45229,3.07625 0.47558,3.06761 0.49753,3.06215 0.51945,3.05782 0.54001,3.05245 0.55919,3.04917 0.577,3.04588 0.59484,3.04484 0.61265,3.04262 0.63047,3.0394 0.64829,3.03617 0.66609,3.03291 0.68392,3.02639 0.7031,3.02203 0.7223,3.01663 0.74149,3.00903 0.75106,3.00579 0.75108,3.00471 0.74285,3.00582 0.72505,3.00901 0.69624,3.01769 0.66063,3.02534 0.61401,3.03829 0.55783,3.0535 0.4701,3.05133 0.34538,3.03291 0.19052,2.99709 0.002,2.94506 -0.2371,2.84642 -0.52082,2.7 -0.85249,2.50483 -1.23217,2.26297 -1.55011,2.04074 -1.80506,1.8358 -1.99829,1.64928 -2.12988,1.48229 -2.23542,1.32721 -2.31765,1.18303 -2.3752,1.05074 -2.40537,0.93143 -2.43276,0.80891 -2.45607,0.68858 -2.47665,0.5649 -2.49169,0.44137 -2.50406,0.3155 -2.51225,0.18977 -2.51501,0.0639 -2.51639,-0.0639 -2.49446,-0.17456 -2.4547,-0.26459 -2.39302,-0.33722 -2.31216,-0.39257 -2.20937,-0.42827 -2.08739,-0.44674 -1.94349,-0.4457 -1.78174,-0.42723 -1.63098,-0.4337 -1.49531,-0.4663 -1.37195,-0.52375 -1.2623,-0.60721 -1.1458,-0.72323 -1.02519,-0.87181 -0.89636,-1.05505 -0.76615,-1.27305 -0.65241,-1.4454 -0.5633,-1.57339 -0.49614,-1.6601 -0.44955,-1.70352 -0.42488,-1.72844 -0.4194,-1.73167 -0.78808,-1.5745 0.16996,0 -1.75023,-8.20624 -0.7127,-0.0511 -0.63047,-1.55495 -0.66336,-1.53975 -0.69762,-1.52785 -0.7319,-1.52025 -0.75655,-1.4996 -0.77299,-1.46928 -0.77987,-1.42593 -0.77712,-1.37169 -0.76478,-1.30551 -0.74422,-1.22751 -0.71271,-1.13856 -0.67432,-1.0388 -0.63595,-0.94442 -1.16225,-1.63844 -1.01971,-1.34998 -0.88813,-1.11692 -0.76342,-0.93687 -0.94157,-1.12223 -0.73875,-0.8556 -0.87717,-0.98239 -0.85112,-0.78725 -1.233523,-0.22552 -0.922407,0.72219 -0.807269,0.86635 -0.871684,1.00194 -0.868946,1.02581 -0.705846,0.85658 -0.823716,1.02254 -0.952549,1.22855 -1.069053,1.46063 -0.618127,0.88807 -0.634585,0.94663 -0.674324,1.0388 -0.712695,1.13962 -0.742848,1.22747 -0.763409,1.30445 -0.77438,1.37062 -0.777116,1.42482 -0.771636,1.46601 -0.753822,1.49856 -0.730516,1.51809 -0.694884,1.52568 -0.66199,1.53869 -0.627725,1.55274 -0.594825,1.57232 -0.560575,1.59397 -0.529035,1.61996 -0.494777,1.64713 -0.463264,1.68076 -0.431724,1.71539 -0.397474,1.74255 -0.361829,1.76093 -0.324826,1.76858 -0.286454,1.76964 -0.248072,1.75986 -0.205587,1.74255 -0.163089,1.71652 -0.119239,1.6818 -0.0795,1.65689 -0.04383,1.64382 -0.01376,1.64168 0.01227,1.65039 0.03425,1.66987 0.04937,1.70131 0.06304,1.74253 0.06994,1.79459 0.07816,1.8347 0.08495,1.85963 0.0932,1.87374 0.100048,1.87373 0.109662,1.85965 0.115129,1.83468 0.124725,1.79465 0.131587,1.74247 0.143897,1.71435 0.156246,1.70785 0.171327,1.72412 0.191887,1.76419 0.212438,1.82606 0.238485,1.91165 0.264517,2.02014 0.294672,2.15132 0.320712,2.26626 0.344015,2.36279 0.361829,2.44518 0.376916,2.51131 0.389249,2.55905 0.396086,2.59265 0.398843,2.60785 0.400202,2.6078 0.398841,2.56665 0.397474,2.48311 0.396088,2.36175 0.391992,2.19685 0.390616,1.99298 0.385124,1.748 0.374171,1.43997 0.376914,1.14073 0.71681,1.36624 1.154023,-0.49117 0.357724,-1.60702 0.135678,-1.0518 0.138431,-1.14722 0.164465,-1.18842 0.215182,-1.17976 0.293304,-1.1288 0.400202,-1.0388 0.657877,-1.03119 1.185554,-0.94558 1.417172,-0.60176 1.230777,-0.26461 1.345911,-0.16155 1.439108,-0.0814 1.502153,-0.025 1.532307,0 1.5323,0 1.6543,0.0339 1.28422,0.0737 1.34591,0.16156 1.22668,0.26676 1.38701,0.58337 1.32535,1.08977 0.53863,0.90651 0.46875,1.29468 0.2508,1.01276 0.19601,1.09631 0.15762,1.13634 0.13569,1.13858 0.13431,1.05178 0.35772,1.60704 1.15402,0.49116 0.71681,-1.36625 0.38239,-1.16676 0.38103,-1.47034 0.3865,-1.75553 0.38924,-1.99843 0.39336,-2.2023 0.39473,-2.36386 0.39747,-2.48533 -0.38651,-1.04856 -0.45777,0 2.91934,-7.28348 -0.64966,-0.84904 0.1905,-1.17542 0.45641,-2.52325 0.5126,-2.43975 0.58523,-2.33026 0.68254,-2.16326 0.79904,-1.94314 1.0718,-1.83358 0.96077,-1.17543 1.2445,-1.06485 1.37604,-0.83598 1.49393,-0.65929 1.59673,-0.53459 1.70637,-0.44674 1.82148,-0.39908 1.94212,-0.38817 2.06957,-0.41527 2.1806,-0.42399 2.27651,-0.41313 2.35603,-0.38279 2.42043,-0.33289 2.46705,-0.26349 2.49993,-0.17565 2.51639,-0.0673 2.51499,0.0596 2.50816,0.1746 2.49309,0.2776 2.46976,0.36757 2.43964,0.44677 2.40262,0.51175 2.35603,0.56496 2.30394,0.60613 2.24226,0.63542 2.16003,0.67122 2.05588,0.71351 1.92702,0.76226 1.77901,0.81763 1.56794,0.87829 1.2993,0.94553 0.96763,1.01715 0.57701,1.09514 0.26591,1.14618 0.0301,1.16999 -0.12478,1.16677 -0.20149,1.13634 -0.21653,1.09847 -0.16588,1.05397 0.0671,1.94202 0.64964,1.62868 c 42.22242,0.38986 26.88942,0.7314 58.65522,0.14857 l 0.64966,-1.62868 0.0671,-1.94202 -0.16718,-1.05402 -0.21655,-1.09843 -0.20147,-1.1364 -0.12478,-1.1667 0.0316,-1.17 0.26453,-1.14616 0.57701,-1.09522 0.96899,-1.01814 1.29794,-0.94448 1.56932,-0.87828 1.77763,-0.81762 1.92839,-0.76226 2.0545,-0.71352 2.16004,-0.67121 2.24362,-0.63542 2.30258,-0.60615 2.35604,-0.56494 2.40261,-0.51183 2.43964,-0.44675 2.46976,-0.36759 2.49309,-0.27758 2.50815,-0.17456 2.51638,-0.0596 2.51501,0.0673 2.49993,0.17565 2.46841,0.26351 2.41907,0.33288 2.35601,0.38274 2.27653,0.41317 2.18196,0.42393 2.06957,0.41534 1.94212,0.38817 1.82012,0.39795 1.70637,0.44782 1.59673,0.53457 1.49393,0.65929 1.37604,0.83604 1.2445,1.06485 0.96076,1.17543 1.07181,1.8336 0.79904,1.94312 0.68254,2.16327 0.58662,2.33021 0.51123,2.4398 0.45638,2.52324 0.1919,1.17543 -0.64966,0.84904 2.91795,7.28347 -0.45776,0 -0.38651,1.04858 0.39746,2.48533 0.3961,2.36385 0.39199,2.20229 0.39061,1.99843 0.38513,1.75443 0.38102,1.47144 0.38239,1.16677 0.71682,1.36625 1.1554,-0.49117 0.35771,-1.60808 0.13427,-1.05074 0.13426,-1.13856 0.15751,-1.1364 0.19737,-1.09626 0.24945,-1.01276 0.46873,-1.29469 0.53864,-0.90649 1.32671,-1.08977 1.38566,-0.58449 1.22667,-0.26566 1.34592,-0.16156 1.28423,-0.0737 1.65427,-0.0339 1.53231,0 1.53369,0 1.50214,0.025 1.43773,0.0814 1.34593,0.16157 1.23077,0.26453 1.41854,0.60182 1.18419,0.94554 0.65786,1.03125 0.40021,1.03879 0.29331,1.12879 0.21656,1.17976 0.16439,1.18844 0.13835,1.14611 0.13427,1.05185 0.35907,1.60808 1.15267,0.49117 0.71681,-1.36625 0.37691,-1.14074 0.37416,-1.44003 0.3865,-1.74792 0.38924,-1.993 0.39336,-2.1969 0.39473,-2.36168 0.39883,-2.48423 0.39883,-2.56555 0.39886,-2.60778 0.40021,-2.60786 0.3961,-2.59264 0.38788,-2.55905 0.37689,-2.51131 0.36184,-2.44518 0.34401,-2.3628 0.32071,-2.26625 0.29468,-2.15133 0.26589,-2.02014 0.23712,-1.91172 0.21242,-1.82598 0.19188,-1.76425 0.17276,-1.72406 0.15621,-1.70785 0.14263,-1.71435 0.13166,-1.74255 0.12478,-1.79457 0.1166,-1.8347 0.10823,-1.85965 0.10154,-1.87372 0.0919,-1.87373 0.0865,-1.86071 0.0766,-1.83364 0.0712,-1.79457 0.0617,-1.74255 0.0506,-1.70129 0.0329,-1.66988 0.013,-1.65039 -0.013,-1.64167 -0.0439,-1.6439 -0.0796,-1.65793 -0.1192,-1.6807 -0.16309,-1.7165 -0.20558,-1.74255 -0.24672,-1.75988 -0.28781,-1.76964 -0.32484,-1.76858 -0.36183,-1.76093 -0.39747,-1.74255 -0.43036,-1.71544 -0.46325,-1.68071 -0.49616,-1.64822 -0.52765,-1.61891 -0.56194,-1.59398 -0.59484,-1.57227 -0.62772,-1.55278 -0.66061,-1.53868 -0.69626,-1.52565 -0.72914,-1.51807 -0.75521,-1.49856 -0.77026,-1.46713 -0.77847,-1.4237 -0.77439,-1.37063 -0.76341,-1.30446 -0.74284,-1.22745 -0.7127,-1.13966 -0.67297,-1.03882 -0.63595,-0.94657 -0.61674,-0.88807 -1.07044,-1.46063 -0.95118,-1.22857 -0.8237,-1.02252 -0.70723,-0.85665 -0.86893,-1.02575 -0.87032,-1.00194 -0.80864,-0.86636 -0.92241,-0.72217 -1.23215,0.22552 -0.85249,0.78723 -0.87718,0.9824 -0.73736,0.85449 -0.9416,1.12335 -0.76477,0.93581 -0.88814,1.1179 -1.01971,1.35004 -1.16088,1.63846 -0.63594,0.94442 -0.67434,1.03879 -0.71405,1.13857 -0.74422,1.22745 -0.76479,1.30557 -0.77712,1.37168 -0.77985,1.42592 -0.77165,1.46818 -0.75793,1.50072 -0.73189,1.52025 -0.69762,1.52786 -0.66336,1.53973 -0.6291,1.55496 -0.71268,0.0511 -1.75161,8.20624 0.16997,0 -0.78808,1.5745 -0.41802,1.73167 -0.42489,1.72844 -0.45092,1.70346 -0.49615,1.66016 -0.56194,1.57339 -0.65375,1.4454 -0.76616,1.27299 -0.89636,1.05505 -1.02381,0.87181 -1.14719,0.72329 -1.26091,0.60719 -1.37334,0.52377 -1.49391,0.46624 -1.63235,0.43377 -1.78039,0.42721 -1.94487,0.44565 -2.08737,0.44674 -2.20936,0.42833 -2.3108,0.39256 -2.3944,0.33722 -2.45334,0.26454 -2.4958,0.17461 -2.51503,0.0639 -2.51637,-0.0639 -2.5109,-0.18976 -2.50406,-0.31661 -2.49306,-0.44026 -2.47527,-0.56496 -2.45744,-0.68854 -2.43277,-0.81001 -2.40537,-0.93037 -2.37383,-1.05068 -2.31765,-1.18303 -2.23679,-1.32722 -2.12986,-1.48234 -1.99832,-1.64928 -1.80504,-1.83576 -1.54875,-2.04073 -1.23217,-2.26302 -0.85386,-2.50483 -0.52082,-2.7 -0.23573,-2.84637 0,-2.94507 0.1905,-2.99819 0.34676,-3.03179 0.46874,-3.05133 0.55921,-3.0535 0.61263,-3.03835 0.66061,-3.02634 0.69627,-3.01663 0.72502,-3.01013 0.74287,-3.00581 0.75106,-3.0036 0.75109,-3.00581 0.74146,-3.00901 0.72232,-3.01664 0.7031,-3.02208 0.68529,-3.02634 0.66608,-3.03291 0.64829,-3.03616 0.62911,-3.03941 0.61265,-3.04267 0.59482,-3.04478 0.577,-3.04594 0.55921,-3.04911 0.54,-3.05245 0.51946,-3.05782 0.49889,-3.06215 0.47422,-3.06761 0.45365,-3.07625 0.42762,-3.08282 0.40159,-3.09253 0.37691,-3.10013 0.34949,-3.10768 0.32345,-3.11312 0.29469,-3.11857 0.26589,-3.124 0.23848,-3.12611 0.20833,-3.13052 0.17816,-3.13048 0.15081,-3.1294 0.12739,-3.12184 0.10692,-3.11096 0.0891,-3.09469 0.0753,-3.0752 0.0631,-3.05023 0.0548,-3.02207 0.0506,-2.98842 0.0426,-2.95912 0.0316,-2.93313 0.0167,-2.91255 0,-2.8952 -0.0205,-2.88217 -0.0426,-2.87352 -0.0699,-2.86695 -0.0987,-2.8659 -0.12738,-2.86157 -0.15342,-2.85508 -0.18094,-2.84208 -0.20558,-2.82904 -0.22889,-2.8106 -0.25354,-2.7889 -0.2755,-2.76614 -0.29603,-2.73798 -0.318,-2.70756 -0.34126,-2.67614 -0.36593,-2.64039 -0.39064,-2.60458 -0.41527,-2.56444 -0.44132,-2.52218 -0.47012,-2.47877 -0.4975,-2.4322 -0.52631,-2.39316 -0.55783,-2.36169 -0.58936,-2.33782 -0.6236,-2.32371 -0.65788,-2.3151 -0.69351,-2.31393 -0.73052,-2.32267 -0.76889,-2.33676 -0.80591,-2.34869 -0.84153,-2.35302 -0.87442,-2.35513 -0.9087,-2.35197 -0.93747,-2.34432 -0.969,-2.33136 -0.9964,-2.31394 -1.02246,-2.29229 -1.04574,-2.26848 -1.06495,-2.24348 -1.08139,-2.21746 -1.09508,-2.18818 -1.10331,-2.16005 -1.11018,-2.12746 -1.11153,-2.09603 -1.11154,-2.06022 -1.11291,-2.02663 -1.11701,-1.98977 -1.12389,-1.9529 -1.13208,-1.91493 -1.14307,-1.87696 -1.15814,-1.83799 -1.17322,-1.79785 -1.1924,-1.75658 -1.19926,-1.70786 -1.19514,-1.65144 -1.18006,-1.58636 -1.15265,-1.51377 -1.11429,-1.43459 -1.06357,-1.34675 -1.00325,-1.24917 -0.92925,-1.14722 -0.86073,-1.04962 -0.79631,-0.95859 c -0.43111,0.025 -0.44021,-0.74527 -0.57761,0.60211 -0.0519,-0.51777 0.0807,-1.22435 0.0457,-1.19303 z"
         id="path3510"
         inkscape:connector-curvature="0"
         sodipodi:nodetypes="cccccccccccccccccccccccccccccccccccccccccccccccccccccccccccccccccccccccccccccccccccccccccccccccccccccccccccccccccccccccccccccccccccccccccccccccccccccccccccccccccccccccccccccccccccccccccccccccccccccccccccccccccccccccccccccccccccccccccccccccccccccccccccccccccccccccccccccccccccccccccccccccccccccccccccccccccccccccccccccccccccccccccccccccccccccccccccccccccccccccccccccccccccccccccccccccccccccccccccccccccccccccccccccccccccccccccccccccccccccccccccccccccccccccccccccccccccccccccccccccccccccccccccccccccccccccccccccccccccccccccccccccccccccccccccccccccccccccccccccccccccccccccccccccccccccccccccccccccccccccccccccccccccccccccccccccccccccccccccccccccccccccccccccccccccccccccccccccccccccccccccccccccccccccccccccccc" />
    </g>
  </g>
</svg>
